<svg width="26" height="20" viewBox="0 0 26 20" fill="none" xmlns="http://www.w3.org/2000/svg">
<path d="M6.88785 2.77558L6.88775 2.77547L6.88166 2.78157C6.54236 3.12087 6.54236 3.67916 6.88166 4.01846L12.315 9.45179C12.6174 9.75416 12.6174 10.2459 12.315 10.5482L6.88165 15.9816C6.54236 16.3209 6.54236 16.8792 6.88165 17.2185C7.22095 17.5578 7.77924 17.5578 8.11854 17.2185L13.5519 11.7851C14.5328 10.8042 14.5328 9.19587 13.5519 8.2149L8.11854 2.78157C7.94419 2.60721 7.72116 2.52501 7.5001 2.52501C7.27169 2.52501 7.05396 2.62055 6.88785 2.77558Z" fill="#191D39" stroke="#191D39" stroke-width="0.5"/>
<path d="M12.8879 2.77558L12.8878 2.77547L12.8817 2.78157C12.5424 3.12087 12.5424 3.67916 12.8817 4.01846L18.315 9.45179C18.6174 9.75416 18.6174 10.2459 18.315 10.5482L12.8817 15.9816C12.5424 16.3209 12.5424 16.8792 12.8817 17.2185C13.221 17.5578 13.7792 17.5578 14.1185 17.2185L19.5519 11.7851C20.5328 10.8042 20.5328 9.19587 19.5519 8.2149L14.1185 2.78157C13.9442 2.60721 13.7212 2.52501 13.5001 2.52501C13.2717 2.52501 13.054 2.62055 12.8879 2.77558Z" fill="#191D39" stroke="#191D39" stroke-width="0.5"/>
</svg>
