<?xml version="1.0" encoding="UTF-8"?>
<!DOCTYPE svg PUBLIC "-//W3C//DTD SVG 1.1//EN" "http://www.w3.org/Graphics/SVG/1.1/DTD/svg11.dtd">
<svg xmlns="http://www.w3.org/2000/svg" version="1.1" width="32px" height="32px" style="shape-rendering:geometricPrecision; text-rendering:geometricPrecision; image-rendering:optimizeQuality; fill-rule:evenodd; clip-rule:evenodd" xmlns:xlink="http://www.w3.org/1999/xlink">
<g><path style="opacity:0.807" fill="#b147ff" d="M 10.5,-0.5 C 11.8333,-0.5 13.1667,-0.5 14.5,-0.5C 15.4499,2.11493 17.1165,4.11493 19.5,5.5C 18.1667,5.5 16.8333,5.5 15.5,5.5C 13.8333,3.5 12.1667,1.5 10.5,-0.5 Z"/></g>
<g><path style="opacity:0.868" fill="#b849ff" d="M 14.5,-0.5 C 15.5,-0.5 16.5,-0.5 17.5,-0.5C 19.8407,3.16543 22.5074,6.49876 25.5,9.5C 23.5887,8.92499 21.922,7.92499 20.5,6.5C 20.5,5.83333 20.1667,5.5 19.5,5.5C 17.1165,4.11493 15.4499,2.11493 14.5,-0.5 Z"/></g>
<g><path style="opacity:0.898" fill="#c44bff" d="M 20.5,-0.5 C 21.1667,-0.5 21.8333,-0.5 22.5,-0.5C 24.8998,2.90313 27.8998,5.5698 31.5,7.5C 31.5,8.5 31.5,9.5 31.5,10.5C 27.1754,7.54299 23.5088,3.87633 20.5,-0.5 Z"/></g>
<g><path style="opacity:0.857" fill="#cb4dff" d="M 22.5,-0.5 C 25.1667,-0.5 27.8333,-0.5 30.5,-0.5C 30.5,0.166667 30.8333,0.5 31.5,0.5C 31.5,2.83333 31.5,5.16667 31.5,7.5C 27.8998,5.5698 24.8998,2.90313 22.5,-0.5 Z"/></g>
<g><path style="opacity:0.855" fill="#9e42ff" d="M 4.5,-0.5 C 4.83333,-0.5 5.16667,-0.5 5.5,-0.5C 6.83333,1.5 8.16667,3.5 9.5,5.5C 4.07377,6.41606 2.4071,4.41606 4.5,-0.5 Z"/></g>
<g><path style="opacity:0.999" fill="#a745ff" d="M 5.5,-0.5 C 7.16667,-0.5 8.83333,-0.5 10.5,-0.5C 12.1667,1.5 13.8333,3.5 15.5,5.5C 13.5,5.5 11.5,5.5 9.5,5.5C 8.16667,3.5 6.83333,1.5 5.5,-0.5 Z"/></g>
<g><path style="opacity:0.934" fill="#be4aff" d="M 17.5,-0.5 C 18.5,-0.5 19.5,-0.5 20.5,-0.5C 23.5088,3.87633 27.1754,7.54299 31.5,10.5C 31.5,11.5 31.5,12.5 31.5,13.5C 29.7541,11.7484 27.7541,10.4151 25.5,9.5C 22.5074,6.49876 19.8407,3.16543 17.5,-0.5 Z"/></g>
<g><path style="opacity:0.775" fill="#b248ff" d="M 20.5,6.5 C 21.922,7.92499 23.5887,8.92499 25.5,9.5C 25.5,9.83333 25.5,10.1667 25.5,10.5C 24.5,11.1667 23.5,11.8333 22.5,12.5C 21.075,11.078 20.075,9.4113 19.5,7.5C 19.5,6.83333 19.8333,6.5 20.5,6.5 Z"/></g>
<g><path style="opacity:0.82" fill="#ab46ff" d="M 19.5,7.5 C 20.075,9.4113 21.075,11.078 22.5,12.5C 22.1667,13.5 21.5,14.1667 20.5,14.5C 19.3702,12.6854 18.7036,10.6854 18.5,8.5C 18.5,7.83333 18.8333,7.5 19.5,7.5 Z"/></g>
<g><path style="opacity:0.84" fill="#b849ff" d="M 25.5,9.5 C 27.7541,10.4151 29.7541,11.7484 31.5,13.5C 31.5,14.5 31.5,15.5 31.5,16.5C 29.7721,14.7745 27.7721,13.4411 25.5,12.5C 25.5,11.8333 25.5,11.1667 25.5,10.5C 25.5,10.1667 25.5,9.83333 25.5,9.5 Z"/></g>
<g><path style="opacity:0.798" fill="#a445ff" d="M 18.5,8.5 C 18.7036,10.6854 19.3702,12.6854 20.5,14.5C 20.5,15.1667 20.1667,15.5 19.5,15.5C 18.759,13.6458 17.759,11.9791 16.5,10.5C 16.8333,9.5 17.5,8.83333 18.5,8.5 Z"/></g>
<g><path style="opacity:0.762" fill="#9b42ff" d="M 16.5,10.5 C 17.759,11.9791 18.759,13.6458 19.5,15.5C 18.8333,16.8333 17.8333,17.8333 16.5,18.5C 15.075,17.078 14.075,15.4113 13.5,13.5C 14.1667,12.1667 15.1667,11.1667 16.5,10.5 Z"/></g>
<g><path style="opacity:0.839" fill="#b047ff" d="M 25.5,12.5 C 27.7721,13.4411 29.7721,14.7745 31.5,16.5C 31.5,18.1667 31.5,19.8333 31.5,21.5C 30.8826,21.6107 30.3826,21.944 30,22.5C 28.6927,20.8082 27.1927,19.4749 25.5,18.5C 25.5,16.5 25.5,14.5 25.5,12.5 Z"/></g>
<g><path style="opacity:0.966" fill="#8e3fff" d="M 13.5,13.5 C 14.075,15.4113 15.075,17.078 16.5,18.5C 16.1667,19.5 15.5,20.1667 14.5,20.5C 12.7356,19.674 11.4023,18.3407 10.5,16.5C 11.1667,15.1667 12.1667,14.1667 13.5,13.5 Z"/></g>
<g><path style="opacity:0.956" fill="#823cff" d="M 10.5,16.5 C 11.4023,18.3407 12.7356,19.674 14.5,20.5C 13.5,22.1667 12.1667,23.5 10.5,24.5C 9.75902,22.6458 8.75902,20.9791 7.5,19.5C 8.16667,18.1667 9.16667,17.1667 10.5,16.5 Z"/></g>
<g><path style="opacity:0.925" fill="#a544ff" d="M 25.5,18.5 C 27.1927,19.4749 28.6927,20.8082 30,22.5C 30.3826,21.944 30.8826,21.6107 31.5,21.5C 31.5,23.1667 31.5,24.8333 31.5,26.5C 31.1667,26.5 30.8333,26.5 30.5,26.5C 29.9181,25.0689 29.0848,23.7356 28,22.5C 27.3292,21.7476 26.4959,21.4142 25.5,21.5C 25.5,20.5 25.5,19.5 25.5,18.5 Z"/></g>
<g><path style="opacity:0.873" fill="#7539ff" d="M 7.5,19.5 C 8.75902,20.9791 9.75902,22.6458 10.5,24.5C 9.83333,25.8333 8.83333,26.8333 7.5,27.5C 6.75902,25.6458 5.75902,23.9791 4.5,22.5C 5.16667,21.1667 6.16667,20.1667 7.5,19.5 Z"/></g>
<g><path style="opacity:0.89" fill="#9e43ff" d="M 25.5,21.5 C 26.4959,21.4142 27.3292,21.7476 28,22.5C 29.0848,23.7356 29.9181,25.0689 30.5,26.5C 26.1668,28.1757 24.5002,26.5091 25.5,21.5 Z"/></g>
<g><path style="opacity:0.96" fill="#6937ff" d="M 4.5,22.5 C 5.75902,23.9791 6.75902,25.6458 7.5,27.5C 6.83333,28.8333 5.83333,29.8333 4.5,30.5C 3.24848,28.9991 2.24848,27.3325 1.5,25.5C 2.16667,24.1667 3.16667,23.1667 4.5,22.5 Z"/></g>
<g><path style="opacity:0.836" fill="#5e34ff" d="M 1.5,25.5 C 2.24848,27.3325 3.24848,28.9991 4.5,30.5C 4.5,30.8333 4.5,31.1667 4.5,31.5C 3.16667,31.5 1.83333,31.5 0.5,31.5C 0.5,30.8333 0.166667,30.5 -0.5,30.5C -0.5,29.1667 -0.5,27.8333 -0.5,26.5C 0.166667,26.1667 0.833333,25.8333 1.5,25.5 Z"/></g>
</svg>
