<svg width="30" height="30" viewBox="0 0 30 30" fill="none" xmlns="http://www.w3.org/2000/svg">
<g id="bulb">
<g id="Shape">
<path d="M3.75 14.125C3.26675 14.125 2.875 14.5168 2.875 15C2.875 15.4832 3.26675 15.875 3.75 15.875V14.125ZM5 15.875C5.48325 15.875 5.875 15.4832 5.875 15C5.875 14.5168 5.48325 14.125 5 14.125V15.875ZM15.875 3.75C15.875 3.26675 15.4832 2.875 15 2.875C14.5168 2.875 14.125 3.26675 14.125 3.75H15.875ZM14.125 5C14.125 5.48325 14.5168 5.875 15 5.875C15.4832 5.875 15.875 5.48325 15.875 5H14.125ZM25 14.125C24.5168 14.125 24.125 14.5168 24.125 15C24.125 15.4832 24.5168 15.875 25 15.875V14.125ZM26.25 15.875C26.7332 15.875 27.125 15.4832 27.125 15C27.125 14.5168 26.7332 14.125 26.25 14.125V15.875ZM7.61866 6.38128C7.27695 6.03957 6.72293 6.03957 6.38122 6.38128C6.03951 6.72299 6.03951 7.27701 6.38122 7.61871L7.61866 6.38128ZM7.25622 8.49371C7.59793 8.83542 8.15195 8.83542 8.49366 8.49371C8.83537 8.15201 8.83537 7.59799 8.49366 7.25628L7.25622 8.49371ZM23.6188 7.61871C23.9605 7.27701 23.9605 6.72299 23.6188 6.38128C23.2771 6.03957 22.7231 6.03957 22.3813 6.38128L23.6188 7.61871ZM21.5063 7.25628C21.1646 7.59799 21.1646 8.15201 21.5063 8.49371C21.8481 8.83542 22.4021 8.83542 22.7438 8.49371L21.5063 7.25628ZM3.75 15.875H5V14.125H3.75V15.875ZM14.125 3.75V5H15.875V3.75H14.125ZM25 15.875H26.25V14.125H25V15.875ZM6.38122 7.61871L7.25622 8.49371L8.49366 7.25628L7.61866 6.38128L6.38122 7.61871ZM22.3813 6.38128L21.5063 7.25628L22.7438 8.49371L23.6188 7.61871L22.3813 6.38128Z" fill="#5A34FF"/>
<path d="M3.75 14.125C3.26675 14.125 2.875 14.5168 2.875 15C2.875 15.4832 3.26675 15.875 3.75 15.875V14.125ZM5 15.875C5.48325 15.875 5.875 15.4832 5.875 15C5.875 14.5168 5.48325 14.125 5 14.125V15.875ZM15.875 3.75C15.875 3.26675 15.4832 2.875 15 2.875C14.5168 2.875 14.125 3.26675 14.125 3.75H15.875ZM14.125 5C14.125 5.48325 14.5168 5.875 15 5.875C15.4832 5.875 15.875 5.48325 15.875 5H14.125ZM25 14.125C24.5168 14.125 24.125 14.5168 24.125 15C24.125 15.4832 24.5168 15.875 25 15.875V14.125ZM26.25 15.875C26.7332 15.875 27.125 15.4832 27.125 15C27.125 14.5168 26.7332 14.125 26.25 14.125V15.875ZM7.61866 6.38128C7.27695 6.03957 6.72293 6.03957 6.38122 6.38128C6.03951 6.72299 6.03951 7.27701 6.38122 7.61871L7.61866 6.38128ZM7.25622 8.49371C7.59793 8.83542 8.15195 8.83542 8.49366 8.49371C8.83537 8.15201 8.83537 7.59799 8.49366 7.25628L7.25622 8.49371ZM23.6188 7.61871C23.9605 7.27701 23.9605 6.72299 23.6188 6.38128C23.2771 6.03957 22.7231 6.03957 22.3813 6.38128L23.6188 7.61871ZM21.5063 7.25628C21.1646 7.59799 21.1646 8.15201 21.5063 8.49371C21.8481 8.83542 22.4021 8.83542 22.7438 8.49371L21.5063 7.25628ZM3.75 15.875H5V14.125H3.75V15.875ZM14.125 3.75V5H15.875V3.75H14.125ZM25 15.875H26.25V14.125H25V15.875ZM6.38122 7.61871L7.25622 8.49371L8.49366 7.25628L7.61866 6.38128L6.38122 7.61871ZM22.3813 6.38128L21.5063 7.25628L22.7438 8.49371L23.6188 7.61871L22.3813 6.38128Z" fill="white" fill-opacity="0.2"/>
</g>
<g id="Path">
<path d="M11.2504 20C9.09825 18.3859 8.22042 15.5757 9.07113 13.0236C9.92184 10.4714 12.3102 8.75 15.0004 8.75C17.6906 8.75 20.079 10.4714 20.9297 13.0236C21.7804 15.5757 20.9026 18.3859 18.7504 20C17.7606 20.9798 17.2964 22.3723 17.5004 23.75C17.5004 25.1307 16.3811 26.25 15.0004 26.25C13.6197 26.25 12.5004 25.1307 12.5004 23.75C12.7044 22.3723 12.2402 20.9798 11.2504 20" stroke="#5A34FF" stroke-width="1.75" stroke-linecap="round" stroke-linejoin="round"/>
<path d="M11.2504 20C9.09825 18.3859 8.22042 15.5757 9.07113 13.0236C9.92184 10.4714 12.3102 8.75 15.0004 8.75C17.6906 8.75 20.079 10.4714 20.9297 13.0236C21.7804 15.5757 20.9026 18.3859 18.7504 20C17.7606 20.9798 17.2964 22.3723 17.5004 23.75C17.5004 25.1307 16.3811 26.25 15.0004 26.25C13.6197 26.25 12.5004 25.1307 12.5004 23.75C12.7044 22.3723 12.2402 20.9798 11.2504 20" stroke="white" stroke-opacity="0.2" stroke-width="1.75" stroke-linecap="round" stroke-linejoin="round"/>
</g>
<g id="Path_2">
<path d="M12.125 21.25H17.875" stroke="#5A34FF" stroke-width="1.75" stroke-linecap="round" stroke-linejoin="round"/>
<path d="M12.125 21.25H17.875" stroke="white" stroke-opacity="0.2" stroke-width="1.75" stroke-linecap="round" stroke-linejoin="round"/>
</g>
</g>
</svg>
