<svg width="35" height="35" viewBox="0 0 35 35" fill="none" xmlns="http://www.w3.org/2000/svg">
<g id="check-circle-1">
<path id="Shape" d="M17.1072 0.917969C7.73896 0.917969 0.144531 8.5124 0.144531 17.8806C0.144531 27.2488 7.73896 34.8432 17.1072 34.8432C26.4754 34.8432 34.0698 27.2488 34.0698 17.8806C34.0589 8.51692 26.4708 0.928874 17.1072 0.917969Z" fill="#5243C2" fill-opacity="0.15"/>
<path id="Path" d="M26.8989 12.509L17.2231 25.6394C16.9923 25.9456 16.6482 26.1462 16.2681 26.1962C15.888 26.2462 15.5038 26.1413 15.2017 25.9052L8.29227 20.381C7.68255 19.8931 7.58383 19.0033 8.07175 18.3936C8.55968 17.7839 9.44949 17.6851 10.0592 18.1731L15.8208 22.7827L24.623 10.8367C24.9117 10.4036 25.415 10.1641 25.9331 10.2134C26.4513 10.2627 26.9004 10.5927 27.1023 11.0725C27.3041 11.5522 27.226 12.1041 26.8989 12.509Z" fill="#BB6BD9"/>
</g>
</svg>
