<svg width="35" height="35" viewBox="0 0 35 35" fill="none" xmlns="http://www.w3.org/2000/svg">
<g id="check-circle-1">
<path id="Shape" opacity="0.1" d="M17.4138 0.618164C8.0456 0.618164 0.451172 8.21259 0.451172 17.5808C0.451172 26.949 8.0456 34.5434 17.4138 34.5434C26.782 34.5434 34.3764 26.949 34.3764 17.5808C34.3655 8.21711 26.7775 0.629069 17.4138 0.618164Z" fill="white"/>
<path id="Path" d="M27.2055 12.2091L17.5297 25.3396C17.299 25.6458 16.9549 25.8464 16.5748 25.8964C16.1947 25.9464 15.8104 25.8415 15.5084 25.6054L8.59891 20.0812C7.98919 19.5933 7.89047 18.7035 8.37839 18.0938C8.86632 17.4841 9.75613 17.3853 10.3658 17.8733L16.1275 22.4829L24.9297 10.5369C25.2183 10.1038 25.7216 9.86432 26.2398 9.91359C26.7579 9.96286 27.2071 10.2929 27.4089 10.7727C27.6108 11.2524 27.5326 11.8043 27.2055 12.2091Z" fill="white"/>
</g>
</svg>
