<svg width="20" height="19" viewBox="0 0 20 19" fill="none" xmlns="http://www.w3.org/2000/svg">
<g id="message 1" clip-path="url(#clip0_106_2509)">
<g id="Group">
<g id="Group_2">
<path id="Vector" d="M1.90862 2.96094H17.3831C18.293 2.96094 19.0332 3.70118 19.0332 4.61106V14.1738C19.0332 15.0836 18.293 15.8239 17.3831 15.8239H1.90862C0.998739 15.8239 0.258495 15.0836 0.258495 14.1738V4.61106C0.258495 3.70118 0.998739 2.96094 1.90862 2.96094ZM2.12397 4.06102L2.34421 4.2444L8.99115 9.77931C9.37054 10.0952 9.92124 10.0952 10.3005 9.77931L16.9475 4.2444L17.1677 4.06102H2.12397ZM17.9331 4.8552L12.5174 9.36491L17.9331 12.9693V4.8552ZM1.90862 14.7238H17.3831C17.6489 14.7238 17.8712 14.5343 17.9221 14.2834L11.6353 10.0994L11.0044 10.6247C10.6108 10.9524 10.1283 11.1163 9.64581 11.1163C9.16332 11.1163 8.68082 10.9524 8.28718 10.6247L7.65632 10.0994L1.36958 14.2833C1.42055 14.5343 1.64284 14.7238 1.90862 14.7238ZM1.35858 12.9693L6.77435 9.36495L1.35858 4.8552V12.9693Z" fill="#191D39"/>
</g>
</g>
</g>
<defs>
<clipPath id="clip0_106_2509">
<rect width="18.7747" height="18.7747" fill="white" transform="matrix(-1 0 0 1 19.0371 0.00488281)"/>
</clipPath>
</defs>
</svg>
