<svg width="52" height="53" viewBox="0 0 52 53" fill="none" xmlns="http://www.w3.org/2000/svg">
<g id="Frame">
<path id="Vector" d="M6.5 13.5C6.5 13.069 6.67121 12.6557 6.97595 12.351C7.2807 12.0462 7.69402 11.875 8.125 11.875H43.875C44.306 11.875 44.7193 12.0462 45.024 12.351C45.3288 12.6557 45.5 13.069 45.5 13.5C45.5 13.931 45.3288 14.3443 45.024 14.649C44.7193 14.9538 44.306 15.125 43.875 15.125H8.125C7.69402 15.125 7.2807 14.9538 6.97595 14.649C6.67121 14.3443 6.5 13.931 6.5 13.5ZM8.125 28.125H22.75C23.181 28.125 23.5943 27.9538 23.899 27.649C24.2038 27.3443 24.375 26.931 24.375 26.5C24.375 26.069 24.2038 25.6557 23.899 25.351C23.5943 25.0462 23.181 24.875 22.75 24.875H8.125C7.69402 24.875 7.2807 25.0462 6.97595 25.351C6.67121 25.6557 6.5 26.069 6.5 26.5C6.5 26.931 6.67121 27.3443 6.97595 27.649C7.2807 27.9538 7.69402 28.125 8.125 28.125ZM26 37.875H8.125C7.69402 37.875 7.2807 38.0462 6.97595 38.351C6.67121 38.6557 6.5 39.069 6.5 39.5C6.5 39.931 6.67121 40.3443 6.97595 40.649C7.2807 40.9538 7.69402 41.125 8.125 41.125H26C26.431 41.125 26.8443 40.9538 27.149 40.649C27.4538 40.3443 27.625 39.931 27.625 39.5C27.625 39.069 27.4538 38.6557 27.149 38.351C26.8443 38.0462 26.431 37.875 26 37.875ZM48.2747 40.6497C48.1238 40.8008 47.9445 40.9206 47.7473 41.0024C47.55 41.0842 47.3386 41.1263 47.125 41.1263C46.9114 41.1263 46.7 41.0842 46.5027 41.0024C46.3055 40.9206 46.1262 40.8008 45.9753 40.6497L41.8438 36.5263C40.1636 37.6348 38.1317 38.0801 36.1419 37.7761C34.1521 37.472 32.346 36.4401 31.0736 34.8804C29.8011 33.3206 29.153 31.3441 29.2547 29.3338C29.3564 27.3234 30.2007 25.4224 31.6241 23.9991C33.0474 22.5757 34.9484 21.7314 36.9588 21.6297C38.9691 21.528 40.9456 22.1761 42.5054 23.4486C44.0651 24.721 45.097 26.5271 45.4011 28.5169C45.7051 30.5067 45.2598 32.5386 44.1512 34.2188L48.2747 38.3422C48.427 38.4933 48.5479 38.673 48.6304 38.871C48.7129 39.069 48.7554 39.2814 48.7554 39.4959C48.7554 39.7105 48.7129 39.9229 48.6304 40.1209C48.5479 40.3189 48.427 40.4986 48.2747 40.6497ZM37.375 34.625C38.3392 34.625 39.2817 34.3391 40.0834 33.8034C40.8851 33.2677 41.5099 32.5064 41.8789 31.6156C42.2479 30.7248 42.3444 29.7446 42.1563 28.7989C41.9682 27.8533 41.5039 26.9846 40.8221 26.3029C40.1404 25.6211 39.2717 25.1568 38.3261 24.9687C37.3804 24.7806 36.4002 24.8771 35.5094 25.2461C34.6186 25.6151 33.8573 26.2399 33.3216 27.0416C32.7859 27.8433 32.5 28.7858 32.5 29.75C32.5 31.0429 33.0136 32.2829 33.9279 33.1971C34.8421 34.1114 36.0821 34.625 37.375 34.625Z" fill="#4F36F5"/>
</g>
</svg>
