<svg width="19" height="20" viewBox="0 0 19 20" fill="none" xmlns="http://www.w3.org/2000/svg">
<g id="padlock 1" clip-path="url(#clip0_106_2518)">
<g id="Group">
<g id="Group_2">
<path id="Vector" d="M14.4135 8.57612V5.6029C14.4215 4.25758 13.8842 2.96401 12.9249 2.0207C11.9975 1.09729 10.7836 0.591797 9.49796 0.591797C9.47805 0.591797 9.45417 0.591797 9.43427 0.591797C6.6919 0.595777 4.46297 2.84062 4.46297 5.6029V8.57612C3.42812 8.69951 2.67188 9.5672 2.67188 10.618V17.2968C2.67188 18.4312 3.57937 19.3665 4.71373 19.3665H14.1668C15.3011 19.3665 16.2086 18.4312 16.2086 17.2968V10.618C16.2046 9.57118 15.4484 8.69951 14.4135 8.57612ZM5.25504 5.6029H5.25902C5.25902 3.27845 7.1337 1.3759 9.43825 1.3759H9.44223C10.5368 1.37192 11.5876 1.80576 12.3637 2.57793C13.1717 3.37795 13.6215 4.46853 13.6135 5.6029V8.5801H12.7379V5.6029C12.7458 4.69939 12.3876 3.8317 11.7468 3.19486C11.1418 2.58987 10.3219 2.24757 9.46611 2.24757H9.44223C7.61133 2.24757 6.13069 3.75209 6.13069 5.59892V8.5801H5.25504V5.6029ZM11.9458 5.6029V8.5801H6.93071V5.6029C6.93071 4.1939 8.05313 3.04759 9.44621 3.04759H9.47009C10.1149 3.04759 10.7358 3.30631 11.1935 3.76403C11.6791 4.24962 11.9538 4.91432 11.9458 5.6029ZM15.4484 17.3087C15.4484 18.0053 14.8832 18.5705 14.1867 18.5705H4.72965C4.03311 18.5705 3.46792 18.0053 3.46792 17.3087V10.6379C3.46792 9.94134 4.03311 9.37615 4.72965 9.37615H14.1867C14.8832 9.37615 15.4484 9.94134 15.4484 10.6379V17.3087Z" fill="#191D39"/>
</g>
</g>
<g id="Group_3">
<g id="Group_4">
<path id="Vector_2" d="M10.8199 13.7263C10.6447 13.1094 10.0835 12.6875 9.44272 12.6875C8.65066 12.6875 8.00586 13.3283 8.00586 14.1244C8.00586 14.7652 8.42776 15.3264 9.0447 15.5015V16.616C9.0447 16.8349 9.22381 17.014 9.44272 17.014C9.66163 17.014 9.84074 16.8349 9.84074 16.616V15.5015C10.601 15.2826 11.0428 14.4866 10.8199 13.7263ZM9.44272 14.7612C9.08848 14.7612 8.8019 14.4746 8.8019 14.1204C8.8019 13.7661 9.08848 13.4796 9.44272 13.4796C9.79696 13.4796 10.0835 13.7661 10.0835 14.1204C10.0835 14.4746 9.79696 14.7612 9.44272 14.7612Z" fill="#191D39"/>
</g>
</g>
</g>
<defs>
<clipPath id="clip0_106_2518">
<rect width="18.7747" height="18.7747" fill="white" transform="translate(0.0546875 0.591797)"/>
</clipPath>
</defs>
</svg>
