<svg width="24" height="24" viewBox="0 0 24 24" fill="none" xmlns="http://www.w3.org/2000/svg">
<g id="trash-x">
<g id="Path">
<path d="M4 7H20" stroke="#787486" stroke-width="1.75" stroke-linecap="round" stroke-linejoin="round"/>
<path d="M4 7H20" stroke="#787486" stroke-opacity="0.2" stroke-width="1.75" stroke-linecap="round" stroke-linejoin="round"/>
</g>
<g id="Path_2">
<path d="M5 7L6 19C6 20.1046 6.89543 21 8 21H16C17.1046 21 18 20.1046 18 19L19 7" stroke="#787486" stroke-width="1.75" stroke-linecap="round" stroke-linejoin="round"/>
<path d="M5 7L6 19C6 20.1046 6.89543 21 8 21H16C17.1046 21 18 20.1046 18 19L19 7" stroke="#787486" stroke-opacity="0.2" stroke-width="1.75" stroke-linecap="round" stroke-linejoin="round"/>
</g>
<g id="Path_3">
<path d="M9 7V4C9 3.44772 9.44772 3 10 3H14C14.5523 3 15 3.44772 15 4V7" stroke="#787486" stroke-width="1.75" stroke-linecap="round" stroke-linejoin="round"/>
<path d="M9 7V4C9 3.44772 9.44772 3 10 3H14C14.5523 3 15 3.44772 15 4V7" stroke="#787486" stroke-opacity="0.2" stroke-width="1.75" stroke-linecap="round" stroke-linejoin="round"/>
</g>
<g id="Shape">
<path d="M10.6187 11.3813C10.277 11.0396 9.72299 11.0396 9.38128 11.3813C9.03957 11.723 9.03957 12.277 9.38128 12.6187L10.6187 11.3813ZM13.3813 16.6187C13.723 16.9604 14.277 16.9604 14.6187 16.6187C14.9604 16.277 14.9604 15.723 14.6187 15.3813L13.3813 16.6187ZM14.6187 12.6187C14.9604 12.277 14.9604 11.723 14.6187 11.3813C14.277 11.0396 13.723 11.0396 13.3813 11.3813L14.6187 12.6187ZM9.38128 15.3813C9.03957 15.723 9.03957 16.277 9.38128 16.6187C9.72299 16.9604 10.277 16.9604 10.6187 16.6187L9.38128 15.3813ZM9.38128 12.6187L13.3813 16.6187L14.6187 15.3813L10.6187 11.3813L9.38128 12.6187ZM13.3813 11.3813L9.38128 15.3813L10.6187 16.6187L14.6187 12.6187L13.3813 11.3813Z" fill="#787486"/>
<path d="M10.6187 11.3813C10.277 11.0396 9.72299 11.0396 9.38128 11.3813C9.03957 11.723 9.03957 12.277 9.38128 12.6187L10.6187 11.3813ZM13.3813 16.6187C13.723 16.9604 14.277 16.9604 14.6187 16.6187C14.9604 16.277 14.9604 15.723 14.6187 15.3813L13.3813 16.6187ZM14.6187 12.6187C14.9604 12.277 14.9604 11.723 14.6187 11.3813C14.277 11.0396 13.723 11.0396 13.3813 11.3813L14.6187 12.6187ZM9.38128 15.3813C9.03957 15.723 9.03957 16.277 9.38128 16.6187C9.72299 16.9604 10.277 16.9604 10.6187 16.6187L9.38128 15.3813ZM9.38128 12.6187L13.3813 16.6187L14.6187 15.3813L10.6187 11.3813L9.38128 12.6187ZM13.3813 11.3813L9.38128 15.3813L10.6187 16.6187L14.6187 12.6187L13.3813 11.3813Z" fill="#787486" fill-opacity="0.2"/>
</g>
</g>
</svg>
