<svg width="48" height="49" viewBox="0 0 48 49" fill="none" xmlns="http://www.w3.org/2000/svg">
<g id="vuesax/bold/profile-2user">
<g id="profile-2user">
<path id="Vector" d="M18 4.29883C12.76 4.29883 8.5 8.55883 8.5 13.7988C8.5 18.9388 12.52 23.0988 17.76 23.2788C17.92 23.2588 18.08 23.2588 18.2 23.2788C18.24 23.2788 18.26 23.2788 18.3 23.2788C18.32 23.2788 18.32 23.2788 18.34 23.2788C23.46 23.0988 27.48 18.9388 27.5 13.7988C27.5 8.55883 23.24 4.29883 18 4.29883Z" fill="white"/>
<path id="Vector_2" d="M28.1599 28.5986C22.5799 24.8786 13.4799 24.8786 7.85992 28.5986C5.31992 30.2986 3.91992 32.5986 3.91992 35.0586C3.91992 37.5186 5.31992 39.7986 7.83992 41.4786C10.6399 43.3586 14.3199 44.2986 17.9999 44.2986C21.6799 44.2986 25.3599 43.3586 28.1599 41.4786C30.6799 39.7786 32.0799 37.4986 32.0799 35.0186C32.0599 32.5586 30.6799 30.2786 28.1599 28.5986Z" fill="white"/>
<path id="Vector_3" d="M39.9797 14.979C40.2997 18.859 37.5397 22.259 33.7197 22.719C33.6997 22.719 33.6997 22.719 33.6797 22.719H33.6197C33.4997 22.719 33.3797 22.719 33.2797 22.759C31.3397 22.859 29.5597 22.239 28.2197 21.099C30.2797 19.259 31.4597 16.499 31.2197 13.499C31.0797 11.879 30.5197 10.399 29.6797 9.13903C30.4397 8.75903 31.3197 8.51903 32.2197 8.43903C36.1397 8.09903 39.6397 11.019 39.9797 14.979Z" fill="white"/>
<path id="Vector_4" d="M43.9805 33.4786C43.8205 35.4186 42.5805 37.0986 40.5005 38.2386C38.5005 39.3386 35.9805 39.8586 33.4805 39.7986C34.9205 38.4986 35.7605 36.8786 35.9205 35.1586C36.1205 32.6786 34.9405 30.2986 32.5805 28.3986C31.2405 27.3386 29.6805 26.4986 27.9805 25.8786C32.4005 24.5986 37.9605 25.4586 41.3805 28.2186C43.2205 29.6986 44.1605 31.5586 43.9805 33.4786Z" fill="white"/>
</g>
</g>
</svg>
