<svg width="52" height="53" viewBox="0 0 52 53" fill="none" xmlns="http://www.w3.org/2000/svg">
<g id="Frame">
<path id="Vector" d="M50.375 26.5C50.3767 24.6338 49.9193 22.7959 49.043 21.1483C48.1667 19.5006 46.8986 18.0939 45.3503 17.0521C43.802 16.0103 42.0212 15.3654 40.1648 15.1743C38.3085 14.9832 36.4336 15.2517 34.7055 15.9563C32.9775 16.6608 31.4493 17.7797 30.2557 19.2143C29.0622 20.6489 28.2399 22.355 27.8614 24.1824C27.4829 26.0098 27.5598 27.9022 28.0854 29.6929C28.6109 31.4835 29.569 33.1173 30.875 34.4503V46C30.8748 46.2771 30.9455 46.5497 31.0803 46.7918C31.2152 47.034 31.4097 47.2376 31.6454 47.3833C31.8811 47.529 32.1502 47.6121 32.4271 47.6245C32.7039 47.637 32.9794 47.5784 33.2272 47.4544L39 44.5659L44.7728 47.4544C45.0206 47.5784 45.2961 47.637 45.5729 47.6245C45.8498 47.6121 46.1189 47.529 46.3546 47.3833C46.5903 47.2376 46.7848 47.034 46.9197 46.7918C47.0545 46.5497 47.1252 46.2771 47.125 46V34.4503C49.2092 32.3291 50.3764 29.4738 50.375 26.5ZM39 18.375C40.607 18.375 42.1779 18.8515 43.514 19.7443C44.8502 20.6371 45.8916 21.906 46.5065 23.3907C47.1215 24.8753 47.2824 26.509 46.9689 28.0851C46.6554 29.6612 45.8815 31.1089 44.7452 32.2452C43.6089 33.3815 42.1612 34.1554 40.5851 34.4689C39.009 34.7824 37.3753 34.6215 35.8907 34.0065C34.406 33.3916 33.1371 32.3502 32.2443 31.014C31.3515 29.6779 30.875 28.107 30.875 26.5C30.875 24.3451 31.731 22.2785 33.2548 20.7548C34.7785 19.231 36.8451 18.375 39 18.375ZM39.7272 41.2956C39.5014 41.1827 39.2524 41.1238 39 41.1238C38.7476 41.1238 38.4986 41.1827 38.2728 41.2956L34.125 43.3716V36.7761C35.6483 37.4996 37.3136 37.875 39 37.875C40.6864 37.875 42.3517 37.4996 43.875 36.7761V43.3716L39.7272 41.2956ZM27.625 39.5C27.625 39.931 27.4538 40.3443 27.149 40.6491C26.8443 40.9538 26.431 41.125 26 41.125H8.125C7.26305 41.125 6.4364 40.7826 5.8269 40.1731C5.21741 39.5636 4.875 38.737 4.875 37.875V11.875C4.875 11.013 5.21741 10.1864 5.8269 9.5769C6.4364 8.96741 7.26305 8.625 8.125 8.625H43.875C44.737 8.625 45.5636 8.96741 46.1731 9.5769C46.7826 10.1864 47.125 11.013 47.125 11.875C47.125 12.306 46.9538 12.7193 46.649 13.024C46.3443 13.3288 45.931 13.5 45.5 13.5C45.069 13.5 44.6557 13.3288 44.351 13.024C44.0462 12.7193 43.875 12.306 43.875 11.875H8.125V37.875H26C26.431 37.875 26.8443 38.0462 27.149 38.351C27.4538 38.6557 27.625 39.069 27.625 39.5ZM24.375 28.125C24.375 28.556 24.2038 28.9693 23.899 29.2741C23.5943 29.5788 23.181 29.75 22.75 29.75H14.625C14.194 29.75 13.7807 29.5788 13.476 29.2741C13.1712 28.9693 13 28.556 13 28.125C13 27.694 13.1712 27.2807 13.476 26.976C13.7807 26.6712 14.194 26.5 14.625 26.5H22.75C23.181 26.5 23.5943 26.6712 23.899 26.976C24.2038 27.2807 24.375 27.694 24.375 28.125ZM24.375 21.625C24.375 22.056 24.2038 22.4693 23.899 22.774C23.5943 23.0788 23.181 23.25 22.75 23.25H14.625C14.194 23.25 13.7807 23.0788 13.476 22.774C13.1712 22.4693 13 22.056 13 21.625C13 21.194 13.1712 20.7807 13.476 20.476C13.7807 20.1712 14.194 20 14.625 20H22.75C23.181 20 23.5943 20.1712 23.899 20.476C24.2038 20.7807 24.375 21.194 24.375 21.625Z" fill="#6BB93B"/>
</g>
</svg>
