<svg width="520" height="358" viewBox="0 0 520 358" fill="none" xmlns="http://www.w3.org/2000/svg">
<rect y="0.298828" width="520" height="717.791" rx="20" fill="white"/>
<path d="M32.7063 42.0947C32.7063 39.7212 34.6204 38.1133 37.4724 38.1133C40.1139 38.1133 41.8174 39.5872 41.9706 41.9798H40.0756C39.9799 40.6017 39.0037 39.7977 37.4533 39.7977C35.7114 39.7977 34.5821 40.6782 34.5821 42.0372C34.5821 43.1474 35.2138 43.8174 36.5154 44.1236L38.7931 44.6596C41.0518 45.1764 42.2003 46.4014 42.2003 48.3538C42.2003 50.8422 40.267 52.4309 37.3193 52.4309C34.5055 52.4309 32.6297 50.957 32.5149 48.5835H34.429C34.4673 49.9042 35.5774 50.7464 37.3193 50.7464C39.1568 50.7464 40.3244 49.8851 40.3244 48.5069C40.3244 47.4159 39.7311 46.7268 38.4103 46.4206L36.1325 45.9037C33.8739 45.3869 32.7063 44.0853 32.7063 42.0947ZM44.902 52.182H43.1027V38.1133H44.902V44.2768C45.4954 43.2623 46.6247 42.5732 48.0794 42.5732C50.4721 42.5732 51.6205 44.0853 51.6205 46.478V52.2012H49.8213V46.8799C49.8213 44.985 48.9216 44.2193 47.5818 44.2193C45.8399 44.2193 44.902 45.4826 44.902 47.0905V52.182ZM55.7013 52.4309C53.6915 52.4309 52.5048 51.3015 52.5048 49.598C52.5048 47.8753 53.7872 46.8034 55.9884 46.6311L58.9362 46.4014V46.1334C58.9362 44.5639 57.9983 44.0088 56.7349 44.0088C55.2228 44.0088 54.3614 44.6787 54.3614 45.808H52.7919C52.7919 43.8556 54.3997 42.5732 56.8115 42.5732C59.1276 42.5732 60.6971 43.7982 60.6971 46.3249V52.2012H59.1659L58.9744 50.689C58.4959 51.7609 57.2135 52.4309 55.7013 52.4309ZM56.2181 51.0336C57.9217 51.0336 58.9553 49.9234 58.9553 48.1624V47.6647L56.5627 47.8561C54.974 48.0093 54.3232 48.6218 54.3232 49.5406C54.3232 50.5359 55.0505 51.0336 56.2181 51.0336ZM67.4 42.7646V44.4107H66.596C64.8925 44.4107 63.8397 45.4444 63.8397 47.2436V52.2012H62.0405V42.8603H63.7249L63.8397 44.2768C64.2226 43.3006 65.1605 42.6498 66.4429 42.6498C66.7683 42.6498 67.0363 42.688 67.4 42.7646ZM71.6414 52.4309C68.8851 52.4309 66.9901 50.4402 66.9901 47.5307C66.9901 44.6022 68.8468 42.5732 71.5648 42.5732C74.2254 42.5732 75.9673 44.4107 75.9673 47.1862V47.8561L68.7319 47.8753C68.8659 49.8468 69.8995 50.9379 71.6797 50.9379C73.077 50.9379 73.9957 50.3636 74.302 49.2917H75.9864C75.527 51.3015 73.9574 52.4309 71.6414 52.4309ZM71.5648 44.0853C69.9952 44.0853 68.9999 45.0233 68.7702 46.6694H74.168C74.168 45.119 73.1535 44.0853 71.5648 44.0853ZM83.5554 52.2012H81.7561V44.3533H79.9186V42.8412H81.7561V39.9126H83.5554V42.8412H85.3929V44.3533H83.5554V52.2012ZM87.6584 52.182H85.8592V38.1133H87.6584V44.2768C88.2518 43.2623 89.3811 42.5732 90.8359 42.5732C93.2285 42.5732 94.377 44.0853 94.377 46.478V52.2012H92.5777V46.8799C92.5777 44.985 91.6781 44.2193 90.3382 44.2193C88.5964 44.2193 87.6584 45.4826 87.6584 47.0905V52.182ZM96.6011 40.6208C95.9503 40.6208 95.4143 40.0849 95.4143 39.4341C95.4143 38.7641 95.9503 38.2473 96.6011 38.2473C97.2519 38.2473 97.7878 38.7641 97.7878 39.4341C97.7878 40.0849 97.2519 40.6208 96.6011 40.6208ZM95.7206 52.2012V42.8412H97.5199V52.2012H95.7206ZM98.2179 49.4831H99.9406C99.9406 50.4402 100.668 51.0144 101.855 51.0144C103.118 51.0144 103.845 50.4976 103.845 49.6363C103.845 49.0046 103.539 48.6218 102.563 48.373L100.917 47.9901C99.2515 47.5882 98.4667 46.7651 98.4667 45.3869C98.4667 43.6642 99.9215 42.5732 101.989 42.5732C104.037 42.5732 105.377 43.7217 105.415 45.5018H103.692C103.654 44.5639 103.022 43.9705 101.931 43.9705C100.802 43.9705 100.17 44.4682 100.17 45.3295C100.17 45.9612 100.63 46.3823 101.548 46.612L103.195 47.0139C104.783 47.3968 105.568 48.1241 105.568 49.5214C105.568 51.3015 104.037 52.4309 101.816 52.4309C99.6152 52.4309 98.2179 51.2633 98.2179 49.4831ZM110.5 56.3931V42.8412H112.127L112.261 44.5256C112.893 43.2431 114.156 42.5732 115.649 42.5732C118.329 42.5732 119.994 44.583 119.994 47.4542C119.994 50.3062 118.425 52.45 115.649 52.45C114.156 52.45 112.912 51.8183 112.3 50.6699V56.3931H110.5ZM112.319 47.5307C112.319 49.4449 113.429 50.823 115.266 50.823C117.104 50.823 118.195 49.4449 118.195 47.5307C118.195 45.5975 117.104 44.2193 115.266 44.2193C113.429 44.2193 112.319 45.5783 112.319 47.5307ZM126.189 42.7646V44.4107H125.385C123.681 44.4107 122.628 45.4444 122.628 47.2436V52.2012H120.829V42.8603H122.513L122.628 44.2768C123.011 43.3006 123.949 42.6498 125.232 42.6498C125.557 42.6498 125.825 42.688 126.189 42.7646ZM125.779 47.5116C125.779 44.6213 127.846 42.5923 130.66 42.5923C133.454 42.5923 135.522 44.6213 135.522 47.5116C135.522 50.4019 133.454 52.4309 130.66 52.4309C127.846 52.4309 125.779 50.4019 125.779 47.5116ZM127.597 47.5116C127.597 49.464 128.841 50.823 130.66 50.823C132.459 50.823 133.722 49.464 133.722 47.5116C133.722 45.5592 132.459 44.2002 130.66 44.2002C128.841 44.2002 127.597 45.5592 127.597 47.5116ZM137.264 40.6208C136.594 40.6208 136.078 40.0849 136.078 39.4341C136.078 38.7641 136.594 38.2473 137.264 38.2473C137.896 38.2473 138.451 38.7641 138.451 39.4341C138.451 40.0849 137.896 40.6208 137.264 40.6208ZM133.991 56.4505L134.298 54.8235C134.661 54.9192 134.872 54.9575 135.159 54.9575C136.02 54.9575 136.365 54.4598 136.365 53.4071V42.8412H138.164V53.5793C138.164 55.4552 137.13 56.6228 135.312 56.6228C134.833 56.6228 134.527 56.6036 133.991 56.4505ZM143.667 52.4309C140.91 52.4309 139.015 50.4402 139.015 47.5307C139.015 44.6022 140.872 42.5732 143.59 42.5732C146.251 42.5732 147.992 44.4107 147.992 47.1862V47.8561L140.757 47.8753C140.891 49.8468 141.925 50.9379 143.705 50.9379C145.102 50.9379 146.021 50.3636 146.327 49.2917H148.012C147.552 51.3015 145.983 52.4309 143.667 52.4309ZM143.59 44.0853C142.02 44.0853 141.025 45.0233 140.795 46.6694H146.193C146.193 45.119 145.179 44.0853 143.59 44.0853ZM148.241 47.5307C148.241 44.6022 150.098 42.5732 152.835 42.5732C155.189 42.5732 156.835 43.9131 157.161 45.9995H155.362C155.055 44.8127 154.098 44.181 152.892 44.181C151.189 44.181 150.021 45.4826 150.021 47.5116C150.021 49.5214 151.112 50.823 152.816 50.823C154.098 50.823 155.055 50.1531 155.381 49.0429H157.18C156.816 51.0718 155.074 52.4309 152.816 52.4309C150.059 52.4309 148.241 50.4785 148.241 47.5307ZM160.571 52.2012H158.772V44.3533H156.935V42.8412H158.772V39.9126H160.571V42.8412H162.409V44.3533H160.571V52.2012Z" fill="#171717"/>
<path d="M480.753 39.787L469.925 50.6148M480.753 50.6148L469.925 39.787" stroke="#918EA4" stroke-width="2.39264" stroke-linecap="round"/>
<path d="M33.9313 75.8252V84.9619H33.0125V75.8252H33.9313ZM36.3315 84.9619H35.451V78.7857H36.2167L36.3443 79.8576C36.7526 79.0665 37.5693 78.6198 38.4626 78.6198C40.1597 78.6198 40.8616 79.6279 40.8616 81.1847V84.9619H39.9811V81.3761C39.9811 79.9342 39.3303 79.4238 38.3094 79.4238C37.0461 79.4238 36.3315 80.3425 36.3315 81.7334V84.9619ZM43.7041 84.9619L41.1775 78.7857H42.1218L43.7169 82.7671C43.8828 83.2137 44.0487 83.6348 44.1635 84.0431C44.2784 83.622 44.4443 83.2137 44.6229 82.7671L46.2435 78.7857H47.1495L44.5846 84.9619H43.7041ZM48.1108 77.0885C47.7535 77.0885 47.46 76.795 47.46 76.4377C47.46 76.0804 47.7535 75.7742 48.1108 75.7742C48.4681 75.7742 48.7743 76.0804 48.7743 76.4377C48.7743 76.795 48.4681 77.0885 48.1108 77.0885ZM47.6769 84.9619V78.7857H48.5574V84.9619H47.6769ZM51.2996 84.9619H50.4318V79.5258H49.194V78.7857H50.4318V76.8333H51.2996V78.7857H52.5374V79.5258H51.2996V84.9619ZM55.7016 85.115C53.8896 85.115 52.6773 83.8134 52.6773 81.8738C52.6773 79.9469 53.8768 78.6198 55.6378 78.6198C57.3095 78.6198 58.4452 79.8066 58.4452 81.5548V81.9887H53.5323C53.5961 83.4944 54.3873 84.3622 55.7144 84.3622C56.7225 84.3622 57.3733 83.9283 57.603 83.1116H58.4452C58.1134 84.4132 57.1563 85.115 55.7016 85.115ZM55.6378 79.3727C54.4766 79.3727 53.7109 80.1384 53.5578 81.3506H57.5647C57.5647 80.1639 56.799 79.3727 55.6378 79.3727ZM61.9373 81.8738C61.9373 79.9852 63.2644 78.6198 65.0765 78.6198C66.8885 78.6198 68.2156 79.9852 68.2156 81.8738C68.2156 83.7496 66.8885 85.115 65.0765 85.115C63.2644 85.115 61.9373 83.7496 61.9373 81.8738ZM62.8306 81.8611C62.8306 83.3158 63.7494 84.3239 65.0765 84.3239C66.3908 84.3239 67.3224 83.3158 67.3224 81.8611C67.3224 80.4319 66.3908 79.411 65.0765 79.411C63.7494 79.411 62.8306 80.4319 62.8306 81.8611ZM70.4676 84.9619H69.5999V79.5258H68.3621V78.7857H69.5999V76.8333H70.4676V78.7857H71.7054V79.5258H70.4676V84.9619ZM73.222 84.9492H72.3415V75.6593H73.222V79.8576C73.6176 79.1175 74.3705 78.6198 75.4041 78.6198C77.0247 78.6198 77.7521 79.6279 77.7521 81.1847V84.9619H76.8716V81.3761C76.8716 79.9342 76.1953 79.4238 75.2382 79.4238C73.9111 79.4238 73.222 80.4063 73.222 81.5931V84.9492ZM81.587 85.115C79.7749 85.115 78.5627 83.8134 78.5627 81.8738C78.5627 79.9469 79.7622 78.6198 81.5232 78.6198C83.1948 78.6198 84.3305 79.8066 84.3305 81.5548V81.9887H79.4176C79.4815 83.4944 80.2726 84.3622 81.5997 84.3622C82.6078 84.3622 83.2586 83.9283 83.4883 83.1116H84.3305C83.9988 84.4132 83.0417 85.115 81.587 85.115ZM81.5232 79.3727C80.3619 79.3727 79.5963 80.1384 79.4432 81.3506H83.45C83.45 80.1639 82.6844 79.3727 81.5232 79.3727ZM88.4563 78.7092V79.5003H87.9714C86.8357 79.5003 86.1084 80.266 86.1084 81.44V84.9619H85.2279V78.7857H86.0573L86.1211 79.7428C86.3636 79.0792 87.0144 78.6453 87.8821 78.6453C88.0735 78.6453 88.2394 78.6581 88.4563 78.7092ZM92.1451 87.6544V78.7857H92.9107L93.0001 80.0363C93.4339 79.0792 94.3017 78.6198 95.3353 78.6198C97.1218 78.6198 98.1937 79.9852 98.1937 81.8483C98.1937 83.7114 97.1601 85.115 95.3353 85.115C94.2889 85.115 93.4594 84.6684 93.0256 83.7752V87.6544H92.1451ZM93.0383 81.8738C93.0383 83.2903 93.8295 84.3239 95.1821 84.3239C96.522 84.3239 97.3004 83.2903 97.3004 81.8738C97.3004 80.4446 96.522 79.4238 95.1821 79.4238C93.8295 79.4238 93.0383 80.4446 93.0383 81.8738ZM101.677 85.115C99.8651 85.115 98.6529 83.8134 98.6529 81.8738C98.6529 79.9469 99.8524 78.6198 101.613 78.6198C103.285 78.6198 104.421 79.8066 104.421 81.5548V81.9887H99.5078C99.5716 83.4944 100.363 84.3622 101.69 84.3622C102.698 84.3622 103.349 83.9283 103.579 83.1116H104.421C104.089 84.4132 103.132 85.115 101.677 85.115ZM101.613 79.3727C100.452 79.3727 99.6865 80.1384 99.5334 81.3506H103.54C103.54 80.1639 102.775 79.3727 101.613 79.3727ZM104.884 81.8738C104.884 79.9852 106.211 78.6198 108.023 78.6198C109.835 78.6198 111.162 79.9852 111.162 81.8738C111.162 83.7496 109.835 85.115 108.023 85.115C106.211 85.115 104.884 83.7496 104.884 81.8738ZM105.777 81.8611C105.777 83.3158 106.696 84.3239 108.023 84.3239C109.338 84.3239 110.269 83.3158 110.269 81.8611C110.269 80.4319 109.338 79.411 108.023 79.411C106.696 79.411 105.777 80.4319 105.777 81.8611ZM112.06 87.6544V78.7857H112.826L112.915 80.0363C113.349 79.0792 114.217 78.6198 115.25 78.6198C117.037 78.6198 118.109 79.9852 118.109 81.8483C118.109 83.7114 117.075 85.115 115.25 85.115C114.204 85.115 113.375 84.6684 112.941 83.7752V87.6544H112.06ZM112.954 81.8738C112.954 83.2903 113.745 84.3239 115.097 84.3239C116.437 84.3239 117.216 83.2903 117.216 81.8738C117.216 80.4446 116.437 79.4238 115.097 79.4238C113.745 79.4238 112.954 80.4446 112.954 81.8738ZM119.921 84.9619H119.04V75.6593H119.921V84.9619ZM123.873 85.115C122.061 85.115 120.849 83.8134 120.849 81.8738C120.849 79.9469 122.049 78.6198 123.81 78.6198C125.481 78.6198 126.617 79.8066 126.617 81.5548V81.9887H121.704C121.768 83.4944 122.559 84.3622 123.886 84.3622C124.894 84.3622 125.545 83.9283 125.775 83.1116H126.617C126.285 84.4132 125.328 85.115 123.873 85.115ZM123.81 79.3727C122.648 79.3727 121.883 80.1384 121.73 81.3506H125.736C125.736 80.1639 124.971 79.3727 123.81 79.3727ZM131.959 84.9619H131.092V79.5258H129.854V78.7857H131.092V76.8333H131.959V78.7857H133.197V79.5258H131.959V84.9619ZM133.337 81.8738C133.337 79.9852 134.664 78.6198 136.476 78.6198C138.288 78.6198 139.615 79.9852 139.615 81.8738C139.615 83.7496 138.288 85.115 136.476 85.115C134.664 85.115 133.337 83.7496 133.337 81.8738ZM134.23 81.8611C134.23 83.3158 135.149 84.3239 136.476 84.3239C137.791 84.3239 138.722 83.3158 138.722 81.8611C138.722 80.4319 137.791 79.411 136.476 79.411C135.149 79.411 134.23 80.4319 134.23 81.8611ZM145.316 85.115C144.001 85.115 143.223 84.3749 143.223 83.2903C143.223 82.1546 144.091 81.44 145.533 81.3251L147.574 81.1592V80.955C147.574 79.7428 146.847 79.36 145.941 79.36C144.869 79.36 144.231 79.8449 144.231 80.6743H143.427C143.427 79.4238 144.448 78.6198 145.966 78.6198C147.396 78.6198 148.442 79.3344 148.442 80.9678V84.9619H147.702L147.587 83.8773C147.204 84.6557 146.362 85.115 145.316 85.115ZM145.52 84.4004C146.821 84.4004 147.574 83.4944 147.574 82.1546V81.8228L145.75 81.9631C144.588 82.0652 144.116 82.5757 144.116 83.2647C144.116 84.0176 144.678 84.4004 145.52 84.4004ZM149.265 81.8866C149.265 79.9469 150.451 78.6198 152.251 78.6198C153.68 78.6198 154.726 79.4493 154.969 80.7253H154.088C153.859 79.8704 153.118 79.3982 152.263 79.3982C151.013 79.3982 150.132 80.3553 150.132 81.8738C150.132 83.3413 150.949 84.3239 152.2 84.3239C153.118 84.3239 153.859 83.8134 154.101 83.0223H154.994C154.701 84.2856 153.603 85.115 152.2 85.115C150.451 85.115 149.265 83.8262 149.265 81.8866ZM155.384 81.8866C155.384 79.9469 156.571 78.6198 158.37 78.6198C159.799 78.6198 160.845 79.4493 161.088 80.7253H160.207C159.978 79.8704 159.238 79.3982 158.383 79.3982C157.132 79.3982 156.252 80.3553 156.252 81.8738C156.252 83.3413 157.068 84.3239 158.319 84.3239C159.238 84.3239 159.978 83.8134 160.22 83.0223H161.113C160.82 84.2856 159.722 85.115 158.319 85.115C156.571 85.115 155.384 83.8262 155.384 81.8866ZM164.527 85.115C162.715 85.115 161.503 83.8134 161.503 81.8738C161.503 79.9469 162.702 78.6198 164.463 78.6198C166.135 78.6198 167.271 79.8066 167.271 81.5548V81.9887H162.358C162.422 83.4944 163.213 84.3622 164.54 84.3622C165.548 84.3622 166.199 83.9283 166.429 83.1116H167.271C166.939 84.4132 165.982 85.115 164.527 85.115ZM164.463 79.3727C163.302 79.3727 162.537 80.1384 162.383 81.3506H166.39C166.39 80.1639 165.625 79.3727 164.463 79.3727ZM167.645 83.2265H168.487C168.487 83.9411 169.023 84.3877 169.891 84.3877C170.848 84.3877 171.409 83.9793 171.409 83.3158C171.409 82.8053 171.154 82.5119 170.427 82.3332L169.368 82.0652C168.296 81.7973 167.773 81.2358 167.773 80.3936C167.773 79.3089 168.679 78.6198 170.006 78.6198C171.307 78.6198 172.15 79.3344 172.188 80.4829H171.333C171.307 79.7683 170.81 79.3472 169.98 79.3472C169.112 79.3472 168.628 79.7173 168.628 80.3808C168.628 80.853 168.959 81.1847 169.636 81.3506L170.695 81.6186C171.767 81.8866 172.252 82.3842 172.252 83.2775C172.252 84.3877 171.307 85.115 169.904 85.115C168.513 85.115 167.645 84.3749 167.645 83.2265ZM172.668 83.2265H173.51C173.51 83.9411 174.046 84.3877 174.913 84.3877C175.87 84.3877 176.432 83.9793 176.432 83.3158C176.432 82.8053 176.177 82.5119 175.449 82.3332L174.39 82.0652C173.318 81.7973 172.795 81.2358 172.795 80.3936C172.795 79.3089 173.701 78.6198 175.028 78.6198C176.33 78.6198 177.172 79.3344 177.21 80.4829H176.355C176.33 79.7683 175.832 79.3472 175.003 79.3472C174.135 79.3472 173.65 79.7173 173.65 80.3808C173.65 80.853 173.982 81.1847 174.658 81.3506L175.717 81.6186C176.789 81.8866 177.274 82.3842 177.274 83.2775C177.274 84.3877 176.33 85.115 174.926 85.115C173.535 85.115 172.668 84.3749 172.668 83.2265ZM179.67 84.528C179.67 85.3192 179.058 86.0083 178.267 86.1231V85.651C178.726 85.5744 179.058 85.2427 179.058 84.8853C178.981 84.9364 178.879 84.9747 178.726 84.9747C178.369 84.9747 178.063 84.7195 178.063 84.2856C178.063 83.839 178.369 83.52 178.815 83.52C179.275 83.52 179.67 83.89 179.67 84.528ZM187.2 78.7092V79.5003H186.715C185.579 79.5003 184.852 80.266 184.852 81.44V84.9619H183.972V78.7857H184.801L184.865 79.7428C185.107 79.0792 185.758 78.6453 186.626 78.6453C186.817 78.6453 186.983 78.6581 187.2 78.7092ZM190.214 85.115C188.402 85.115 187.189 83.8134 187.189 81.8738C187.189 79.9469 188.389 78.6198 190.15 78.6198C191.822 78.6198 192.957 79.8066 192.957 81.5548V81.9887H188.044C188.108 83.4944 188.899 84.3622 190.227 84.3622C191.235 84.3622 191.885 83.9283 192.115 83.1116H192.957C192.626 84.4132 191.668 85.115 190.214 85.115ZM190.15 79.3727C188.989 79.3727 188.223 80.1384 188.07 81.3506H192.077C192.077 80.1639 191.311 79.3727 190.15 79.3727ZM195.415 84.9619L192.889 78.7857H193.833L195.428 82.7671C195.594 83.2137 195.76 83.6348 195.875 84.0431C195.99 83.622 196.155 83.2137 196.334 82.7671L197.955 78.7857H198.861L196.296 84.9619H195.415ZM199.822 77.0885C199.465 77.0885 199.171 76.795 199.171 76.4377C199.171 76.0804 199.465 75.7742 199.822 75.7742C200.179 75.7742 200.486 76.0804 200.486 76.4377C200.486 76.795 200.179 77.0885 199.822 77.0885ZM199.388 84.9619V78.7857H200.269V84.9619H199.388ZM204.185 85.115C202.373 85.115 201.16 83.8134 201.16 81.8738C201.16 79.9469 202.36 78.6198 204.121 78.6198C205.793 78.6198 206.928 79.8066 206.928 81.5548V81.9887H202.015C202.079 83.4944 202.87 84.3622 204.198 84.3622C205.206 84.3622 205.856 83.9283 206.086 83.1116H206.928C206.597 84.4132 205.639 85.115 204.185 85.115ZM204.121 79.3727C202.96 79.3727 202.194 80.1384 202.041 81.3506H206.048C206.048 80.1639 205.282 79.3727 204.121 79.3727ZM208.965 84.9619L206.924 78.7857H207.83L209.042 82.5119C209.182 82.9202 209.297 83.3413 209.425 83.839C209.527 83.3413 209.731 82.716 209.795 82.5119L211.02 78.7857H211.926L213.138 82.5119C213.253 82.8436 213.406 83.3796 213.521 83.839C213.648 83.3285 213.674 83.1754 213.891 82.5119L215.116 78.7857H216.035L213.942 84.9619H213.087L211.811 81.0826C211.658 80.6233 211.556 80.2404 211.479 79.8704C211.39 80.2022 211.288 80.5722 211.122 81.0826L209.846 84.9619H208.965ZM221.069 84.9619H220.201V79.5258H218.964V78.7857H220.201V76.8333H221.069V78.7857H222.307V79.5258H221.069V84.9619ZM222.447 81.8738C222.447 79.9852 223.774 78.6198 225.586 78.6198C227.398 78.6198 228.725 79.9852 228.725 81.8738C228.725 83.7496 227.398 85.115 225.586 85.115C223.774 85.115 222.447 83.7496 222.447 81.8738ZM223.34 81.8611C223.34 83.3158 224.259 84.3239 225.586 84.3239C226.9 84.3239 227.832 83.3158 227.832 81.8611C227.832 80.4319 226.9 79.411 225.586 79.411C224.259 79.411 223.34 80.4319 223.34 81.8611ZM234.068 84.9619H233.2V79.5258H231.963V78.7857H233.2V76.8333H234.068V78.7857H235.306V79.5258H234.068V84.9619ZM236.823 84.9492H235.942V75.6593H236.823V79.8576C237.218 79.1175 237.971 78.6198 239.005 78.6198C240.625 78.6198 241.353 79.6279 241.353 81.1847V84.9619H240.472V81.3761C240.472 79.9342 239.796 79.4238 238.839 79.4238C237.512 79.4238 236.823 80.4063 236.823 81.5931V84.9492ZM243.031 77.0885C242.674 77.0885 242.38 76.795 242.38 76.4377C242.38 76.0804 242.674 75.7742 243.031 75.7742C243.388 75.7742 243.695 76.0804 243.695 76.4377C243.695 76.795 243.388 77.0885 243.031 77.0885ZM242.597 84.9619V78.7857H243.478V84.9619H242.597ZM244.28 83.2265H245.122C245.122 83.9411 245.658 84.3877 246.526 84.3877C247.483 84.3877 248.045 83.9793 248.045 83.3158C248.045 82.8053 247.789 82.5119 247.062 82.3332L246.003 82.0652C244.931 81.7973 244.408 81.2358 244.408 80.3936C244.408 79.3089 245.314 78.6198 246.641 78.6198C247.943 78.6198 248.785 79.3344 248.823 80.4829H247.968C247.943 79.7683 247.445 79.3472 246.615 79.3472C245.748 79.3472 245.263 79.7173 245.263 80.3808C245.263 80.853 245.595 81.1847 246.271 81.3506L247.33 81.6186C248.402 81.8866 248.887 82.3842 248.887 83.2775C248.887 84.3877 247.943 85.115 246.539 85.115C245.148 85.115 244.28 84.3749 244.28 83.2265ZM252.855 87.6544V78.7857H253.62L253.71 80.0363C254.143 79.0792 255.011 78.6198 256.045 78.6198C257.831 78.6198 258.903 79.9852 258.903 81.8483C258.903 83.7114 257.87 85.115 256.045 85.115C254.998 85.115 254.169 84.6684 253.735 83.7752V87.6544H252.855ZM253.748 81.8738C253.748 83.2903 254.539 84.3239 255.892 84.3239C257.232 84.3239 258.01 83.2903 258.01 81.8738C258.01 80.4446 257.232 79.4238 255.892 79.4238C254.539 79.4238 253.748 80.4446 253.748 81.8738ZM263.025 78.7092V79.5003H262.54C261.404 79.5003 260.677 80.266 260.677 81.44V84.9619H259.796V78.7857H260.626L260.69 79.7428C260.932 79.0792 261.583 78.6453 262.45 78.6453C262.642 78.6453 262.808 78.6581 263.025 78.7092ZM263.014 81.8738C263.014 79.9852 264.341 78.6198 266.153 78.6198C267.965 78.6198 269.292 79.9852 269.292 81.8738C269.292 83.7496 267.965 85.115 266.153 85.115C264.341 85.115 263.014 83.7496 263.014 81.8738ZM263.907 81.8611C263.907 83.3158 264.826 84.3239 266.153 84.3239C267.468 84.3239 268.399 83.3158 268.399 81.8611C268.399 80.4319 267.468 79.411 266.153 79.411C264.826 79.411 263.907 80.4319 263.907 81.8611ZM270.637 77.0885C270.267 77.0885 269.973 76.795 269.973 76.4377C269.973 76.0804 270.267 75.7742 270.637 75.7742C270.981 75.7742 271.288 76.0804 271.288 76.4377C271.288 76.795 270.981 77.0885 270.637 77.0885ZM268.544 87.6672L268.71 86.8633C268.965 86.9271 269.118 86.9526 269.31 86.9526C269.922 86.9526 270.19 86.5953 270.19 85.8424V78.7857H271.071V85.8934C271.071 87.0674 270.458 87.782 269.374 87.782C269.042 87.782 268.863 87.7565 268.544 87.6672ZM274.987 85.115C273.175 85.115 271.963 83.8134 271.963 81.8738C271.963 79.9469 273.162 78.6198 274.923 78.6198C276.595 78.6198 277.73 79.8066 277.73 81.5548V81.9887H272.818C272.881 83.4944 273.673 84.3622 275 84.3622C276.008 84.3622 276.659 83.9283 276.888 83.1116H277.73C277.399 84.4132 276.442 85.115 274.987 85.115ZM274.923 79.3727C273.762 79.3727 272.996 80.1384 272.843 81.3506H276.85C276.85 80.1639 276.084 79.3727 274.923 79.3727ZM278.194 81.8866C278.194 79.9469 279.381 78.6198 281.18 78.6198C282.609 78.6198 283.656 79.4493 283.898 80.7253H283.018C282.788 79.8704 282.048 79.3982 281.193 79.3982C279.942 79.3982 279.062 80.3553 279.062 81.8738C279.062 83.3413 279.878 84.3239 281.129 84.3239C282.048 84.3239 282.788 83.8134 283.03 83.0223H283.924C283.63 84.2856 282.533 85.115 281.129 85.115C279.381 85.115 278.194 83.8262 278.194 81.8866ZM286.163 84.9619H285.296V79.5258H284.058V78.7857H285.296V76.8333H286.163V78.7857H287.401V79.5258H286.163V84.9619ZM292.84 85.115C291.525 85.115 290.747 84.3749 290.747 83.2903C290.747 82.1546 291.615 81.44 293.057 81.3251L295.098 81.1592V80.955C295.098 79.7428 294.371 79.36 293.465 79.36C292.393 79.36 291.755 79.8449 291.755 80.6743H290.951C290.951 79.4238 291.972 78.6198 293.491 78.6198C294.92 78.6198 295.966 79.3344 295.966 80.9678V84.9619H295.226L295.111 83.8773C294.728 84.6557 293.886 85.115 292.84 85.115ZM293.044 84.4004C294.346 84.4004 295.098 83.4944 295.098 82.1546V81.8228L293.274 81.9631C292.112 82.0652 291.64 82.5757 291.64 83.2647C291.64 84.0176 292.202 84.4004 293.044 84.4004ZM298.103 84.9619H297.223V78.7857H297.988L298.116 79.8576C298.524 79.0665 299.341 78.6198 300.234 78.6198C301.931 78.6198 302.633 79.6279 302.633 81.1847V84.9619H301.753V81.3761C301.753 79.9342 301.102 79.4238 300.081 79.4238C298.818 79.4238 298.103 80.3425 298.103 81.7334V84.9619ZM306.302 85.115C304.503 85.115 303.444 83.7369 303.444 81.8866C303.444 80.0235 304.503 78.6198 306.34 78.6198C307.361 78.6198 308.178 79.0665 308.612 79.9597V75.6593H309.492V84.9619H308.727L308.637 83.6986C308.204 84.6557 307.336 85.115 306.302 85.115ZM306.455 84.3111C307.808 84.3111 308.599 83.2903 308.599 81.8611C308.599 80.4446 307.808 79.411 306.455 79.411C305.115 79.411 304.337 80.4446 304.337 81.8611C304.337 83.2903 305.115 84.3111 306.455 84.3111ZM313.325 83.2265H314.167C314.167 83.9411 314.703 84.3877 315.571 84.3877C316.528 84.3877 317.089 83.9793 317.089 83.3158C317.089 82.8053 316.834 82.5119 316.107 82.3332L315.047 82.0652C313.976 81.7973 313.452 81.2358 313.452 80.3936C313.452 79.3089 314.358 78.6198 315.685 78.6198C316.987 78.6198 317.829 79.3344 317.868 80.4829H317.013C316.987 79.7683 316.489 79.3472 315.66 79.3472C314.792 79.3472 314.307 79.7173 314.307 80.3808C314.307 80.853 314.639 81.1847 315.315 81.3506L316.375 81.6186C317.446 81.8866 317.931 82.3842 317.931 83.2775C317.931 84.3877 316.987 85.115 315.583 85.115C314.192 85.115 313.325 84.3749 313.325 83.2265ZM320.287 84.9619H319.419V79.5258H318.181V78.7857H319.419V76.8333H320.287V78.7857H321.525V79.5258H320.287V84.9619ZM323.835 85.115C322.521 85.115 321.742 84.3749 321.742 83.2903C321.742 82.1546 322.61 81.44 324.052 81.3251L326.094 81.1592V80.955C326.094 79.7428 325.366 79.36 324.46 79.36C323.388 79.36 322.75 79.8449 322.75 80.6743H321.946C321.946 79.4238 322.967 78.6198 324.486 78.6198C325.915 78.6198 326.961 79.3344 326.961 80.9678V84.9619H326.221L326.106 83.8773C325.724 84.6557 324.881 85.115 323.835 85.115ZM324.039 84.4004C325.341 84.4004 326.094 83.4944 326.094 82.1546V81.8228L324.269 81.9631C323.108 82.0652 322.635 82.5757 322.635 83.2647C322.635 84.0176 323.197 84.4004 324.039 84.4004ZM331.446 78.7092V79.5003H330.961C329.826 79.5003 329.098 80.266 329.098 81.44V84.9619H328.218V78.7857H329.047L329.111 79.7428C329.353 79.0792 330.004 78.6453 330.872 78.6453C331.063 78.6453 331.229 78.6581 331.446 78.7092ZM333.772 84.9619H332.904V79.5258H331.666V78.7857H332.904V76.8333H333.772V78.7857H335.01V79.5258H333.772V84.9619ZM338.241 81.8866C338.241 79.9469 339.427 78.6198 341.227 78.6198C342.656 78.6198 343.702 79.4493 343.945 80.7253H343.064C342.835 79.8704 342.094 79.3982 341.239 79.3982C339.989 79.3982 339.108 80.3553 339.108 81.8738C339.108 83.3413 339.925 84.3239 341.176 84.3239C342.094 84.3239 342.835 83.8134 343.077 83.0223H343.97C343.677 84.2856 342.579 85.115 341.176 85.115C339.427 85.115 338.241 83.8262 338.241 81.8866ZM344.36 81.8738C344.36 79.9852 345.687 78.6198 347.499 78.6198C349.311 78.6198 350.638 79.9852 350.638 81.8738C350.638 83.7496 349.311 85.115 347.499 85.115C345.687 85.115 344.36 83.7496 344.36 81.8738ZM345.253 81.8611C345.253 83.3158 346.172 84.3239 347.499 84.3239C348.813 84.3239 349.745 83.3158 349.745 81.8611C349.745 80.4319 348.813 79.411 347.499 79.411C346.172 79.411 345.253 80.4319 345.253 81.8611ZM352.455 84.9619H351.574V75.6593H352.455V84.9619ZM354.736 84.9619H353.855V75.6593H354.736V84.9619ZM357.872 85.115C356.557 85.115 355.779 84.3749 355.779 83.2903C355.779 82.1546 356.647 81.44 358.089 81.3251L360.13 81.1592V80.955C360.13 79.7428 359.403 79.36 358.497 79.36C357.425 79.36 356.787 79.8449 356.787 80.6743H355.983C355.983 79.4238 357.004 78.6198 358.522 78.6198C359.952 78.6198 360.998 79.3344 360.998 80.9678V84.9619H360.258L360.143 83.8773C359.76 84.6557 358.918 85.115 357.872 85.115ZM358.076 84.4004C359.377 84.4004 360.13 83.4944 360.13 82.1546V81.8228L358.306 81.9631C357.144 82.0652 356.672 82.5757 356.672 83.2647C356.672 84.0176 357.234 84.4004 358.076 84.4004ZM363.02 84.9619H362.254V75.6593H363.135V79.9852C363.569 79.0792 364.411 78.6198 365.457 78.6198C367.257 78.6198 368.303 80.0235 368.303 81.8866C368.303 83.7369 367.231 85.115 365.432 85.115C364.398 85.115 363.543 84.6557 363.109 83.6986L363.02 84.9619ZM363.148 81.8611C363.148 83.2903 363.939 84.3111 365.292 84.3111C366.631 84.3111 367.41 83.2903 367.41 81.8611C367.41 80.4446 366.631 79.411 365.292 79.411C363.939 79.411 363.148 80.4446 363.148 81.8611ZM368.762 81.8738C368.762 79.9852 370.089 78.6198 371.901 78.6198C373.713 78.6198 375.041 79.9852 375.041 81.8738C375.041 83.7496 373.713 85.115 371.901 85.115C370.089 85.115 368.762 83.7496 368.762 81.8738ZM369.656 81.8611C369.656 83.3158 370.574 84.3239 371.901 84.3239C373.216 84.3239 374.147 83.3158 374.147 81.8611C374.147 80.4319 373.216 79.411 371.901 79.411C370.574 79.411 369.656 80.4319 369.656 81.8611ZM379.167 78.7092V79.5003H378.682C377.546 79.5003 376.819 80.266 376.819 81.44V84.9619H375.938V78.7857H376.768L376.832 79.7428C377.074 79.0792 377.725 78.6453 378.593 78.6453C378.784 78.6453 378.95 78.6581 379.167 78.7092ZM381.351 85.115C380.037 85.115 379.259 84.3749 379.259 83.2903C379.259 82.1546 380.126 81.44 381.568 81.3251L383.61 81.1592V80.955C383.61 79.7428 382.883 79.36 381.977 79.36C380.905 79.36 380.267 79.8449 380.267 80.6743H379.463C379.463 79.4238 380.484 78.6198 382.002 78.6198C383.431 78.6198 384.478 79.3344 384.478 80.9678V84.9619H383.738L383.623 83.8773C383.24 84.6557 382.398 85.115 381.351 85.115ZM381.556 84.4004C382.857 84.4004 383.61 83.4944 383.61 82.1546V81.8228L381.785 81.9631C380.624 82.0652 380.152 82.5757 380.152 83.2647C380.152 84.0176 380.713 84.4004 381.556 84.4004ZM387.039 84.9619H386.171V79.5258H384.933V78.7857H386.171V76.8333H387.039V78.7857H388.276V79.5258H387.039V84.9619ZM391.441 85.115C389.629 85.115 388.416 83.8134 388.416 81.8738C388.416 79.9469 389.616 78.6198 391.377 78.6198C393.048 78.6198 394.184 79.8066 394.184 81.5548V81.9887H389.271C389.335 83.4944 390.126 84.3622 391.453 84.3622C392.461 84.3622 393.112 83.9283 393.342 83.1116H394.184C393.852 84.4132 392.895 85.115 391.441 85.115ZM391.377 79.3727C390.216 79.3727 389.45 80.1384 389.297 81.3506H393.304C393.304 80.1639 392.538 79.3727 391.377 79.3727ZM33.255 97.0885C32.8977 97.0885 32.6042 96.795 32.6042 96.4377C32.6042 96.0804 32.8977 95.7742 33.255 95.7742C33.6123 95.7742 33.9185 96.0804 33.9185 96.4377C33.9185 96.795 33.6123 97.0885 33.255 97.0885ZM32.8211 104.962V98.7857H33.7016V104.962H32.8211ZM35.9078 104.962H35.0273V98.7857H35.793L35.9206 99.8576C36.3289 99.0665 37.1456 98.6198 38.0389 98.6198C39.736 98.6198 40.4379 99.6279 40.4379 101.185V104.962H39.5574V101.376C39.5574 99.9342 38.9066 99.4238 37.8857 99.4238C36.6224 99.4238 35.9078 100.343 35.9078 101.733V104.962ZM47.9395 98.7092V99.5003H47.4546C46.3189 99.5003 45.5915 100.266 45.5915 101.44V104.962H44.711V98.7857H45.5405L45.6043 99.7428C45.8467 99.0792 46.4975 98.6453 47.3653 98.6453C47.5567 98.6453 47.7226 98.6581 47.9395 98.7092ZM50.9532 105.115C49.1412 105.115 47.9289 103.813 47.9289 101.874C47.9289 99.9469 49.1284 98.6198 50.8894 98.6198C52.5611 98.6198 53.6968 99.8066 53.6968 101.555V101.989H48.7839C48.8477 103.494 49.6389 104.362 50.966 104.362C51.9741 104.362 52.6249 103.928 52.8546 103.112H53.6968C53.365 104.413 52.408 105.115 50.9532 105.115ZM50.8894 99.3727C49.7282 99.3727 48.9626 100.138 48.8094 101.351H52.8163C52.8163 100.164 52.0507 99.3727 50.8894 99.3727ZM56.3056 105.115C54.9912 105.115 54.2128 104.375 54.2128 103.29C54.2128 102.155 55.0805 101.44 56.5225 101.325L58.5642 101.159V100.955C58.5642 99.7428 57.8368 99.36 56.9308 99.36C55.8589 99.36 55.2209 99.8449 55.2209 100.674H54.417C54.417 99.4238 55.4378 98.6198 56.9564 98.6198C58.3856 98.6198 59.4319 99.3344 59.4319 100.968V104.962H58.6918L58.577 103.877C58.1941 104.656 57.3519 105.115 56.3056 105.115ZM56.5097 104.4C57.8113 104.4 58.5642 103.494 58.5642 102.155V101.823L56.7394 101.963C55.5782 102.065 55.106 102.576 55.106 103.265C55.106 104.018 55.6675 104.4 56.5097 104.4ZM61.6071 104.962H60.7267V95.6593H61.6071V104.962ZM67.4145 104.962H66.5468V99.5258H65.309V98.7857H66.5468V96.8333H67.4145V98.7857H68.6523V99.5258H67.4145V104.962ZM69.7223 97.0885C69.365 97.0885 69.0715 96.795 69.0715 96.4377C69.0715 96.0804 69.365 95.7742 69.7223 95.7742C70.0796 95.7742 70.3858 96.0804 70.3858 96.4377C70.3858 96.795 70.0796 97.0885 69.7223 97.0885ZM69.2884 104.962V98.7857H70.1689V104.962H69.2884ZM72.3751 104.962H71.4946V98.7857H72.2603L72.3624 99.6662C72.6686 99.0154 73.3577 98.6198 74.2254 98.6198C75.1952 98.6198 75.9226 99.1303 76.2161 99.9342C76.4968 99.1303 77.2497 98.6198 78.2451 98.6198C79.5849 98.6198 80.4654 99.4876 80.4654 100.917V104.962H79.6105V101.095C79.6105 100.036 79.0235 99.411 78.0792 99.411C77.0455 99.411 76.433 100.189 76.433 101.146V104.962H75.5653V101.083C75.5653 100.036 74.9655 99.4238 74.034 99.4238C73.0004 99.4238 72.3751 100.189 72.3751 101.134V104.962ZM84.3166 105.115C82.5046 105.115 81.2923 103.813 81.2923 101.874C81.2923 99.9469 82.4918 98.6198 84.2528 98.6198C85.9244 98.6198 87.0601 99.8066 87.0601 101.555V101.989H82.1473C82.2111 103.494 83.0022 104.362 84.3293 104.362C85.3374 104.362 85.9882 103.928 86.2179 103.112H87.0601C86.7284 104.413 85.7713 105.115 84.3166 105.115ZM84.2528 99.3727C83.0915 99.3727 82.3259 100.138 82.1728 101.351H86.1796C86.1796 100.164 85.414 99.3727 84.2528 99.3727ZM88.324 105.102C87.8902 105.102 87.5201 104.745 87.5201 104.324C87.5201 103.89 87.8902 103.52 88.324 103.52C88.7579 103.52 89.128 103.89 89.128 104.324C89.128 104.745 88.7579 105.102 88.324 105.102Z" fill="#918EA4"/>
<rect x="32.5005" y="142.461" width="455" height="56.4663" rx="8.97239" fill="white"/>
<rect x="32.5005" y="142.461" width="455" height="56.4663" rx="8.97239" stroke="#EEF0F4" stroke-width="1.19632"/>
<rect x="43.0684" y="153.148" width="35.092" height="35.092" rx="6.38037" fill="#F6F7F9"/>
<path d="M64.6019 177.473H56.6264C54.2338 177.473 52.6387 176.277 52.6387 173.486V167.903C52.6387 165.111 54.2338 163.915 56.6264 163.915H64.6019C66.9945 163.915 68.5896 165.111 68.5896 167.903V173.486C68.5896 176.277 66.9945 177.473 64.6019 177.473Z" stroke="#171717" stroke-width="1.59509" stroke-miterlimit="10" stroke-linecap="round" stroke-linejoin="round"/>
<path d="M64.6024 168.302L62.1061 170.296C61.2846 170.95 59.9368 170.95 59.1153 170.296L56.627 168.302" stroke="#171717" stroke-width="1.59509" stroke-miterlimit="10" stroke-linecap="round" stroke-linejoin="round"/>
<path d="M94.4299 174.694H88.8024V165.468H94.4299V166.617H90.0529V169.501H93.996V170.611H90.0529V173.533H94.4299V174.694ZM96.7269 174.694H95.5274V168.454H96.612L96.7396 169.411C97.1352 168.697 97.9264 168.276 98.8069 168.276C100.453 168.276 101.206 169.284 101.206 170.879V174.694H100.006V171.147C100.006 169.884 99.4194 169.373 98.5006 169.373C97.3777 169.373 96.7269 170.177 96.7269 171.389V174.694ZM104.118 174.694H102.918V169.462H101.693V168.454H102.918V166.502H104.118V168.454H105.343V169.462H104.118V174.694ZM108.539 174.847C106.702 174.847 105.438 173.52 105.438 171.581C105.438 169.628 106.676 168.276 108.488 168.276C110.262 168.276 111.423 169.501 111.423 171.351V171.798L106.6 171.81C106.689 173.125 107.378 173.852 108.565 173.852C109.496 173.852 110.109 173.469 110.313 172.755H111.436C111.13 174.095 110.083 174.847 108.539 174.847ZM108.488 169.284C107.442 169.284 106.778 169.909 106.625 171.006H110.224C110.224 169.973 109.547 169.284 108.488 169.284ZM115.825 168.403V169.501H115.289C114.154 169.501 113.452 170.19 113.452 171.389V174.694H112.252V168.467H113.375L113.452 169.411C113.707 168.761 114.332 168.327 115.187 168.327C115.404 168.327 115.583 168.352 115.825 168.403ZM122.111 174.847C120.274 174.847 119.011 173.52 119.011 171.581C119.011 169.628 120.248 168.276 122.06 168.276C123.834 168.276 124.995 169.501 124.995 171.351V171.798L120.172 171.81C120.261 173.125 120.95 173.852 122.137 173.852C123.068 173.852 123.681 173.469 123.885 172.755H125.008C124.702 174.095 123.655 174.847 122.111 174.847ZM122.06 169.284C121.014 169.284 120.35 169.909 120.197 171.006H123.796C123.796 169.973 123.119 169.284 122.06 169.284ZM127.024 174.694H125.825V168.454H126.897L127.011 169.271C127.33 168.684 127.994 168.276 128.874 168.276C129.844 168.276 130.533 168.761 130.852 169.539C131.146 168.761 131.899 168.276 132.869 168.276C134.298 168.276 135.166 169.169 135.166 170.611V174.694H133.992V170.904C133.992 169.922 133.443 169.36 132.601 169.36C131.695 169.36 131.095 169.998 131.095 170.994V174.694H129.908V170.892C129.908 169.909 129.372 169.373 128.53 169.373C127.624 169.373 127.024 169.998 127.024 170.994V174.694ZM138.143 174.847C136.803 174.847 136.012 174.095 136.012 172.959C136.012 171.81 136.867 171.096 138.334 170.981L140.299 170.828V170.649C140.299 169.603 139.674 169.233 138.832 169.233C137.824 169.233 137.249 169.679 137.249 170.432H136.203C136.203 169.131 137.275 168.276 138.883 168.276C140.427 168.276 141.473 169.092 141.473 170.777V174.694H140.452L140.325 173.686C140.006 174.401 139.151 174.847 138.143 174.847ZM138.487 173.916C139.623 173.916 140.312 173.176 140.312 172.002V171.67L138.717 171.798C137.658 171.9 137.224 172.308 137.224 172.921C137.224 173.584 137.709 173.916 138.487 173.916ZM143.211 166.974C142.777 166.974 142.42 166.617 142.42 166.183C142.42 165.736 142.777 165.392 143.211 165.392C143.645 165.392 144.002 165.736 144.002 166.183C144.002 166.617 143.645 166.974 143.211 166.974ZM142.624 174.694V168.454H143.823V174.694H142.624ZM146.28 174.694H145.08V165.302H146.28V174.694ZM152.338 174.847C150.999 174.847 150.207 174.095 150.207 172.959C150.207 171.81 151.062 171.096 152.53 170.981L154.495 170.828V170.649C154.495 169.603 153.87 169.233 153.028 169.233C152.019 169.233 151.445 169.679 151.445 170.432H150.399C150.399 169.131 151.471 168.276 153.079 168.276C154.623 168.276 155.669 169.092 155.669 170.777V174.694H154.648L154.521 173.686C154.202 174.401 153.347 174.847 152.338 174.847ZM152.683 173.916C153.819 173.916 154.508 173.176 154.508 172.002V171.67L152.913 171.798C151.854 171.9 151.42 172.308 151.42 172.921C151.42 173.584 151.905 173.916 152.683 173.916ZM159.321 174.847C157.509 174.847 156.411 173.495 156.411 171.593C156.411 169.679 157.522 168.276 159.372 168.276C160.329 168.276 161.133 168.697 161.554 169.462V165.302H162.741V174.694H161.669L161.567 173.559C161.158 174.414 160.316 174.847 159.321 174.847ZM159.563 173.763C160.788 173.763 161.541 172.857 161.541 171.555C161.541 170.279 160.788 169.36 159.563 169.36C158.338 169.36 157.624 170.279 157.624 171.555C157.624 172.844 158.338 173.763 159.563 173.763ZM166.462 174.847C164.65 174.847 163.552 173.495 163.552 171.593C163.552 169.679 164.663 168.276 166.513 168.276C167.47 168.276 168.274 168.697 168.695 169.462V165.302H169.882V174.694H168.81L168.708 173.559C168.299 174.414 167.457 174.847 166.462 174.847ZM166.704 173.763C167.929 173.763 168.682 172.857 168.682 171.555C168.682 170.279 167.929 169.36 166.704 169.36C165.479 169.36 164.765 170.279 164.765 171.555C164.765 172.844 165.479 173.763 166.704 173.763ZM174.675 168.403V169.501H174.139C173.003 169.501 172.301 170.19 172.301 171.389V174.694H171.102V168.467H172.225L172.301 169.411C172.557 168.761 173.182 168.327 174.037 168.327C174.254 168.327 174.432 168.352 174.675 168.403ZM177.758 174.847C175.92 174.847 174.657 173.52 174.657 171.581C174.657 169.628 175.895 168.276 177.707 168.276C179.48 168.276 180.642 169.501 180.642 171.351V171.798L175.818 171.81C175.907 173.125 176.596 173.852 177.783 173.852C178.715 173.852 179.327 173.469 179.531 172.755H180.654C180.348 174.095 179.302 174.847 177.758 174.847ZM177.707 169.284C176.66 169.284 175.997 169.909 175.844 171.006H179.442C179.442 169.973 178.766 169.284 177.707 169.284ZM180.961 172.882H182.109C182.109 173.52 182.594 173.903 183.385 173.903C184.227 173.903 184.712 173.559 184.712 172.984C184.712 172.563 184.508 172.308 183.857 172.142L182.76 171.887C181.65 171.619 181.126 171.07 181.126 170.152C181.126 169.003 182.096 168.276 183.474 168.276C184.84 168.276 185.733 169.041 185.759 170.228H184.61C184.585 169.603 184.163 169.207 183.436 169.207C182.683 169.207 182.262 169.539 182.262 170.113C182.262 170.534 182.568 170.815 183.181 170.968L184.278 171.236C185.337 171.491 185.861 171.976 185.861 172.908C185.861 174.095 184.84 174.847 183.36 174.847C181.892 174.847 180.961 174.069 180.961 172.882ZM186.17 172.882H187.318C187.318 173.52 187.803 173.903 188.595 173.903C189.437 173.903 189.922 173.559 189.922 172.984C189.922 172.563 189.717 172.308 189.067 172.142L187.969 171.887C186.859 171.619 186.336 171.07 186.336 170.152C186.336 169.003 187.306 168.276 188.684 168.276C190.049 168.276 190.943 169.041 190.968 170.228H189.82C189.794 169.603 189.373 169.207 188.646 169.207C187.893 169.207 187.472 169.539 187.472 170.113C187.472 170.534 187.778 170.815 188.39 170.968L189.488 171.236C190.547 171.491 191.07 171.976 191.07 172.908C191.07 174.095 190.049 174.847 188.569 174.847C187.102 174.847 186.17 174.069 186.17 172.882Z" fill="#918EA4" fill-opacity="0.7"/>
<g filter="url(#filter0_d_8_9422)">
<rect x="390.798" y="153.029" width="86.135" height="35.3313" rx="6.38037" fill="url(#paint0_linear_8_9422)" shape-rendering="crispEdges"/>
<path d="M421.742 174.195H420.336V166.328H421.742V174.195ZM423.095 174.195V168.231H424.398V169.185H424.491C424.774 168.52 425.374 168.111 426.262 168.111C427.593 168.111 428.318 168.912 428.318 170.335V174.195H426.966V170.657C426.966 169.747 426.584 169.289 425.761 169.289C424.954 169.289 424.447 169.845 424.447 170.722V174.195H423.095ZM434.49 168.231L432.38 174.195H430.892L428.771 168.231H430.221L431.6 172.843H431.693L433.061 168.231H434.49ZM435.205 174.195V168.231H436.551V174.195H435.205ZM435.875 167.26C435.384 167.26 435.041 166.944 435.041 166.513C435.041 166.083 435.384 165.767 435.875 165.767C436.371 165.767 436.709 166.083 436.709 166.513C436.709 166.944 436.371 167.26 435.875 167.26ZM438.214 166.77H439.561V168.269H440.837V169.349H439.561V172.276C439.561 172.865 439.812 173.127 440.379 173.127C440.57 173.127 440.673 173.116 440.837 173.099V174.157C440.641 174.195 440.39 174.223 440.128 174.223C438.76 174.223 438.214 173.759 438.214 172.603V169.349H437.271V168.269H438.214V166.77ZM444.19 169.185C443.383 169.185 442.816 169.763 442.756 170.635H445.564C445.537 169.752 445.003 169.185 444.19 169.185ZM445.575 172.554H446.856C446.6 173.639 445.613 174.315 444.207 174.315C442.451 174.315 441.393 173.154 441.393 171.235C441.393 169.316 442.467 168.111 444.196 168.111C445.897 168.111 446.916 169.239 446.916 171.12V171.557H442.751V171.627C442.784 172.62 443.356 173.241 444.245 173.241C444.915 173.241 445.379 172.996 445.575 172.554Z" fill="white"/>
</g>
<path d="M39.6761 246.428L38.8209 243.841H35.0988L34.2296 246.428H32.4L35.989 236.313H38.0218L41.6178 246.428H39.6761ZM36.9073 238.24L35.5193 242.411H38.4003L37.0264 238.24H36.9073ZM48.8032 241.339H47.149C46.9877 240.596 46.4129 240.063 45.4596 240.063C44.268 240.063 43.56 240.981 43.56 242.572C43.56 244.185 44.275 245.124 45.4596 245.124C46.3639 245.124 46.9667 244.696 47.149 243.897H48.8032C48.614 245.502 47.4083 246.582 45.4666 246.582C43.1605 246.582 41.8006 245.096 41.8006 242.572C41.8006 240.084 43.1534 238.605 45.4596 238.605C47.4294 238.605 48.621 239.726 48.8032 241.339ZM56.5145 241.339H54.8602C54.699 240.596 54.1242 240.063 53.1708 240.063C51.9792 240.063 51.2712 240.981 51.2712 242.572C51.2712 244.185 51.9862 245.124 53.1708 245.124C54.0751 245.124 54.6779 244.696 54.8602 243.897H56.5145C56.3252 245.502 55.1195 246.582 53.1779 246.582C50.8717 246.582 49.5118 245.096 49.5118 242.572C49.5118 240.084 50.8647 238.605 53.1708 238.605C55.1406 238.605 56.3322 239.726 56.5145 241.339ZM60.819 239.986C59.7815 239.986 59.0525 240.729 58.9754 241.85H62.5854C62.5504 240.715 61.8634 239.986 60.819 239.986ZM62.5994 244.318H64.2467C63.9172 245.713 62.6485 246.582 60.84 246.582C58.5829 246.582 57.223 245.089 57.223 242.621C57.223 240.154 58.6039 238.605 60.826 238.605C63.013 238.605 64.3238 240.056 64.3238 242.474V243.035H58.9684V243.126C59.0105 244.402 59.7465 245.201 60.8891 245.201C61.7513 245.201 62.3471 244.886 62.5994 244.318ZM65.3197 240.953C65.3197 239.565 66.5815 238.605 68.39 238.605C70.2125 238.605 71.3551 239.411 71.4813 240.806H69.848C69.7218 240.266 69.2101 239.923 68.397 239.923C67.6049 239.923 67.0091 240.301 67.0091 240.855C67.0091 241.29 67.3736 241.556 68.1446 241.731L69.4975 242.04C70.9625 242.369 71.6425 243 71.6425 244.129C71.6425 245.601 70.2896 246.582 68.376 246.582C66.4623 246.582 65.2567 245.755 65.1235 244.36H66.8408C67.0091 244.928 67.5488 245.264 68.418 245.264C69.2942 245.264 69.9041 244.879 69.9041 244.311C69.9041 243.876 69.5746 243.603 68.8456 243.442L67.4857 243.126C66.0137 242.79 65.3197 242.11 65.3197 240.953ZM72.5122 240.953C72.5122 239.565 73.774 238.605 75.5825 238.605C77.405 238.605 78.5476 239.411 78.6738 240.806H77.0405C76.9143 240.266 76.4026 239.923 75.5895 239.923C74.7974 239.923 74.2016 240.301 74.2016 240.855C74.2016 241.29 74.5661 241.556 75.3371 241.731L76.69 242.04C78.155 242.369 78.835 243 78.835 244.129C78.835 245.601 77.4821 246.582 75.5685 246.582C73.6548 246.582 72.4492 245.755 72.316 244.36H74.0333C74.2016 244.928 74.7413 245.264 75.6105 245.264C76.4867 245.264 77.0966 244.879 77.0966 244.311C77.0966 243.876 76.7671 243.603 76.0381 243.442L74.6782 243.126C73.2062 242.79 72.5122 242.11 72.5122 240.953ZM83.098 240.953C83.098 239.565 84.3597 238.605 86.1682 238.605C87.9907 238.605 89.1333 239.411 89.2595 240.806H87.6262C87.5001 240.266 86.9884 239.923 86.1752 239.923C85.3831 239.923 84.7873 240.301 84.7873 240.855C84.7873 241.29 85.1518 241.556 85.9229 241.731L87.2758 242.04C88.7408 242.369 89.4207 243 89.4207 244.129C89.4207 245.601 88.0678 246.582 86.1542 246.582C84.2406 246.582 83.0349 245.755 82.9017 244.36H84.6191C84.7873 244.928 85.3271 245.264 86.1963 245.264C87.0725 245.264 87.6823 244.879 87.6823 244.311C87.6823 243.876 87.3529 243.603 86.6239 243.442L85.264 243.126C83.7919 242.79 83.098 242.11 83.098 240.953ZM93.8234 239.986C92.7859 239.986 92.0569 240.729 91.9798 241.85H95.5898C95.5547 240.715 94.8678 239.986 93.8234 239.986ZM95.6038 244.318H97.2511C96.9216 245.713 95.6529 246.582 93.8444 246.582C91.5873 246.582 90.2274 245.089 90.2274 242.621C90.2274 240.154 91.6083 238.605 93.8304 238.605C96.0174 238.605 97.3282 240.056 97.3282 242.474V243.035H91.9728V243.126C92.0149 244.402 92.7509 245.201 93.8935 245.201C94.7556 245.201 95.3515 244.886 95.6038 244.318ZM99.0531 236.881H100.785V238.808H102.425V240.196H100.785V243.96C100.785 244.717 101.107 245.054 101.836 245.054C102.081 245.054 102.215 245.04 102.425 245.019V246.379C102.172 246.428 101.85 246.463 101.514 246.463C99.7541 246.463 99.0531 245.867 99.0531 244.381V240.196H97.8405V238.808H99.0531V236.881ZM104.185 236.881H105.916V238.808H107.556V240.196H105.916V243.96C105.916 244.717 106.239 245.054 106.968 245.054C107.213 245.054 107.346 245.04 107.556 245.019V246.379C107.304 246.428 106.982 246.463 106.645 246.463C104.886 246.463 104.185 245.867 104.185 244.381V240.196H102.972V238.808H104.185V236.881ZM108.742 246.428V238.759H110.473V246.428H108.742ZM109.604 237.511C108.973 237.511 108.531 237.105 108.531 236.551C108.531 235.997 108.973 235.591 109.604 235.591C110.242 235.591 110.676 235.997 110.676 236.551C110.676 237.105 110.242 237.511 109.604 237.511ZM112.058 246.428V238.759H113.733V239.986H113.852C114.217 239.131 114.988 238.605 116.13 238.605C117.841 238.605 118.773 239.635 118.773 241.465V246.428H117.035V241.878C117.035 240.708 116.544 240.119 115.486 240.119C114.448 240.119 113.796 240.834 113.796 241.963V246.428H112.058ZM123.554 244.9C124.767 244.9 125.496 243.974 125.496 242.509C125.496 241.044 124.76 240.112 123.554 240.112C122.342 240.112 121.655 241.044 121.655 242.509C121.655 243.974 122.342 244.9 123.554 244.9ZM123.554 249.344C121.585 249.344 120.295 248.475 120.155 247.157H121.9C122.012 247.682 122.629 248.019 123.582 248.019C124.774 248.019 125.468 247.458 125.468 246.498V245.047H125.349C124.907 245.867 124.073 246.316 123.007 246.316C121.073 246.316 119.867 244.816 119.867 242.509C119.867 240.161 121.08 238.633 123.036 238.633C124.08 238.633 124.991 239.152 125.412 239.986H125.531V238.759H127.206V246.456C127.206 248.229 125.79 249.344 123.554 249.344ZM128.595 240.953C128.595 239.565 129.856 238.605 131.665 238.605C133.488 238.605 134.63 239.411 134.756 240.806H133.123C132.997 240.266 132.485 239.923 131.672 239.923C130.88 239.923 130.284 240.301 130.284 240.855C130.284 241.29 130.649 241.556 131.42 241.731L132.773 242.04C134.238 242.369 134.917 243 134.917 244.129C134.917 245.601 133.565 246.582 131.651 246.582C129.737 246.582 128.532 245.755 128.398 244.36H130.116C130.284 244.928 130.824 245.264 131.693 245.264C132.569 245.264 133.179 244.879 133.179 244.311C133.179 243.876 132.85 243.603 132.121 243.442L130.761 243.126C129.289 242.79 128.595 242.11 128.595 240.953Z" fill="#171717"/>
<rect x="31.9023" y="270.569" width="51.0429" height="51.0429" rx="12.7607" fill="#F6F7F9"/>
<path d="M64.6021 295.66L56.9456 290.588L56.9456 293.459C50.2461 294.895 50.2461 301.594 50.2461 301.594C50.2461 301.594 53.1173 297.766 56.9456 298.244L56.9456 301.211L64.6021 295.66Z" stroke="#171717" stroke-width="1.59509" stroke-linejoin="round"/>
<path d="M97.3426 288.9H95.8783L99.6683 278.521H101.233L105.037 288.9H103.559L102.626 286.316H98.2614L97.3426 288.9ZM100.271 280.761L98.6921 285.096H102.209L100.616 280.761C100.544 280.56 100.472 280.316 100.443 280.158C100.415 280.301 100.343 280.545 100.271 280.761ZM107.25 288.9H105.9V281.88H107.121L107.264 282.957C107.709 282.153 108.599 281.679 109.59 281.679C111.442 281.679 112.289 282.814 112.289 284.608V288.9H110.939V284.909C110.939 283.488 110.279 282.914 109.245 282.914C107.982 282.914 107.25 283.818 107.25 285.182V288.9ZM113.056 292.044V290.939H113.96C114.606 290.939 115.123 290.838 115.453 289.948L115.697 289.274L112.869 281.88H114.29L116.329 287.537L118.41 281.88H119.803L116.487 290.48C116.013 291.685 115.31 292.188 114.233 292.188C113.788 292.188 113.415 292.13 113.056 292.044ZM119.867 285.383C119.867 283.215 121.418 281.694 123.528 281.694C125.624 281.694 127.174 283.215 127.174 285.383C127.174 287.551 125.624 289.073 123.528 289.073C121.418 289.073 119.867 287.551 119.867 285.383ZM121.231 285.383C121.231 286.848 122.164 287.867 123.528 287.867C124.878 287.867 125.825 286.848 125.825 285.383C125.825 283.919 124.878 282.9 123.528 282.9C122.164 282.9 121.231 283.919 121.231 285.383ZM129.731 288.9H128.381V281.88H129.601L129.745 282.957C130.19 282.153 131.08 281.679 132.071 281.679C133.923 281.679 134.77 282.814 134.77 284.608V288.9H133.42V284.909C133.42 283.488 132.76 282.914 131.726 282.914C130.463 282.914 129.731 283.818 129.731 285.182V288.9ZM139.381 289.073C137.313 289.073 135.892 287.58 135.892 285.398C135.892 283.201 137.285 281.679 139.323 281.679C141.319 281.679 142.625 283.058 142.625 285.139V285.642L137.198 285.656C137.299 287.135 138.074 287.953 139.409 287.953C140.457 287.953 141.146 287.522 141.376 286.718H142.639C142.295 288.226 141.118 289.073 139.381 289.073ZM139.323 282.814C138.146 282.814 137.399 283.517 137.227 284.752H141.275C141.275 283.589 140.515 282.814 139.323 282.814ZM148.991 288.9L146.694 281.88H148.086L149.249 285.527C149.407 286.044 149.551 286.575 149.68 287.192C149.795 286.575 149.981 285.986 150.139 285.527L151.316 281.88H152.695L153.857 285.527C153.972 285.871 154.202 286.69 154.317 287.192C154.432 286.632 154.561 286.144 154.762 285.527L155.939 281.88H157.346L154.948 288.9H153.671L152.451 285.139C152.221 284.436 152.077 283.89 152.005 283.503C151.934 283.847 151.804 284.307 151.546 285.154L150.326 288.9H148.991ZM158.876 280.215C158.388 280.215 157.986 279.813 157.986 279.325C157.986 278.823 158.388 278.435 158.876 278.435C159.364 278.435 159.766 278.823 159.766 279.325C159.766 279.813 159.364 280.215 158.876 280.215ZM158.215 288.9V281.88H159.565V288.9H158.215ZM163.218 288.9H161.869V283.014H160.49V281.88H161.869V279.684H163.218V281.88H164.596V283.014H163.218V288.9ZM166.87 288.886H165.52V278.334H166.87V282.957C167.315 282.196 168.162 281.679 169.253 281.679C171.047 281.679 171.908 282.814 171.908 284.608V288.9H170.559V284.909C170.559 283.488 169.884 282.914 168.879 282.914C167.573 282.914 166.87 283.861 166.87 285.067V288.886ZM179.11 288.9H177.76V283.014H176.382V281.88H177.76V279.684H179.11V281.88H180.488V283.014H179.11V288.9ZM182.761 288.886H181.412V278.334H182.761V282.957C183.206 282.196 184.053 281.679 185.144 281.679C186.939 281.679 187.8 282.814 187.8 284.608V288.9H186.451V284.909C186.451 283.488 185.776 282.914 184.771 282.914C183.465 282.914 182.761 283.861 182.761 285.067V288.886ZM192.411 289.073C190.344 289.073 188.923 287.58 188.923 285.398C188.923 283.201 190.315 281.679 192.354 281.679C194.349 281.679 195.656 283.058 195.656 285.139V285.642L190.229 285.656C190.33 287.135 191.105 287.953 192.44 287.953C193.488 287.953 194.177 287.522 194.407 286.718H195.67C195.326 288.226 194.148 289.073 192.411 289.073ZM192.354 282.814C191.177 282.814 190.43 283.517 190.258 284.752H194.306C194.306 283.589 193.545 282.814 192.354 282.814ZM201.892 288.9H200.543V278.334H201.892V288.9ZM204.252 280.215C203.764 280.215 203.362 279.813 203.362 279.325C203.362 278.823 203.764 278.435 204.252 278.435C204.74 278.435 205.142 278.823 205.142 279.325C205.142 279.813 204.74 280.215 204.252 280.215ZM203.592 288.9V281.88H204.941V288.9H203.592ZM207.963 288.9H206.613V281.88H207.833L207.977 282.957C208.422 282.153 209.312 281.679 210.303 281.679C212.154 281.679 213.001 282.814 213.001 284.608V288.9H211.652V284.909C211.652 283.488 210.992 282.914 209.958 282.914C208.695 282.914 207.963 283.818 207.963 285.182V288.9ZM215.962 288.9H214.612V278.334H215.962V285.182L219.077 281.88H220.771L218.086 284.68L220.756 288.9H219.206L217.153 285.656L215.962 286.905V288.9Z" fill="#171717"/>
<path d="M230.214 282.338L232.873 284.773L235.531 282.338" stroke="#918EA4" stroke-width="1.19632" stroke-linecap="round" stroke-linejoin="round"/>
<path d="M100.946 310.576H98.3188V314.28H96.9119V303.901H100.946C102.984 303.901 104.291 305.236 104.291 307.232C104.291 309.17 102.97 310.576 100.946 310.576ZM100.702 305.164H98.3188V309.313H100.644C102.037 309.313 102.812 308.495 102.812 307.217C102.812 305.911 102.023 305.164 100.702 305.164ZM109.387 307.203V308.437H108.784C107.507 308.437 106.717 309.213 106.717 310.562V314.28H105.368V307.275H106.631L106.717 308.337C107.004 307.605 107.708 307.117 108.669 307.117C108.913 307.117 109.114 307.145 109.387 307.203ZM109.654 310.763C109.654 308.595 111.204 307.074 113.315 307.074C115.411 307.074 116.961 308.595 116.961 310.763C116.961 312.931 115.411 314.453 113.315 314.453C111.204 314.453 109.654 312.931 109.654 310.763ZM111.018 310.763C111.018 312.227 111.951 313.247 113.315 313.247C114.664 313.247 115.612 312.227 115.612 310.763C115.612 309.299 114.664 308.28 113.315 308.28C111.951 308.28 111.018 309.299 111.018 310.763ZM118.842 305.595C118.34 305.595 117.952 305.193 117.952 304.705C117.952 304.202 118.34 303.815 118.842 303.815C119.316 303.815 119.733 304.202 119.733 304.705C119.733 305.193 119.316 305.595 118.842 305.595ZM116.388 317.467L116.617 316.247C116.89 316.319 117.048 316.348 117.263 316.348C117.909 316.348 118.168 315.974 118.168 315.185V307.26H119.517V315.314C119.517 316.721 118.742 317.596 117.378 317.596C117.019 317.596 116.79 317.582 116.388 317.467ZM124.218 314.453C122.151 314.453 120.73 312.96 120.73 310.777C120.73 308.581 122.122 307.059 124.161 307.059C126.156 307.059 127.463 308.437 127.463 310.519V311.021L122.036 311.036C122.137 312.515 122.912 313.333 124.247 313.333C125.295 313.333 125.984 312.902 126.214 312.098H127.477C127.133 313.606 125.955 314.453 124.218 314.453ZM124.161 308.193C122.984 308.193 122.237 308.897 122.065 310.131H126.113C126.113 308.969 125.352 308.193 124.161 308.193ZM128.223 310.777C128.223 308.581 129.616 307.059 131.669 307.059C133.435 307.059 134.669 308.064 134.913 309.629H133.564C133.334 308.739 132.616 308.265 131.712 308.265C130.434 308.265 129.559 309.241 129.559 310.763C129.559 312.27 130.377 313.247 131.655 313.247C132.616 313.247 133.334 312.744 133.578 311.912H134.928C134.655 313.433 133.348 314.453 131.655 314.453C129.587 314.453 128.223 312.988 128.223 310.777ZM138.045 314.28H136.696V308.394H135.318V307.26H136.696V305.064H138.045V307.26H139.424V308.394H138.045V314.28ZM145.364 314.28H144.015V303.714H145.364V314.28ZM147.724 305.595C147.236 305.595 146.834 305.193 146.834 304.705C146.834 304.202 147.236 303.815 147.724 303.815C148.212 303.815 148.614 304.202 148.614 304.705C148.614 305.193 148.212 305.595 147.724 305.595ZM147.063 314.28V307.26H148.413V314.28H147.063ZM151.434 314.28H150.085V307.26H151.305L151.449 308.337C151.894 307.533 152.784 307.059 153.774 307.059C155.626 307.059 156.473 308.193 156.473 309.988V314.28H155.124V310.289C155.124 308.868 154.463 308.294 153.43 308.294C152.166 308.294 151.434 309.198 151.434 310.562V314.28ZM159.433 314.28H158.084V303.714H159.433V310.562L162.548 307.26H164.242L161.558 310.06L164.228 314.28H162.678L160.625 311.036L159.433 312.285V314.28ZM164.526 312.242H165.818C165.818 312.96 166.363 313.39 167.253 313.39C168.201 313.39 168.747 313.003 168.747 312.357C168.747 311.883 168.517 311.596 167.785 311.409L166.55 311.122C165.301 310.821 164.713 310.203 164.713 309.17C164.713 307.878 165.804 307.059 167.354 307.059C168.89 307.059 169.895 307.921 169.924 309.256H168.632C168.603 308.552 168.129 308.107 167.311 308.107C166.464 308.107 165.99 308.481 165.99 309.127C165.99 309.6 166.335 309.916 167.024 310.088L168.258 310.39C169.45 310.677 170.039 311.222 170.039 312.27C170.039 313.606 168.89 314.453 167.225 314.453C165.574 314.453 164.526 313.577 164.526 312.242ZM176.939 314.453C175.432 314.453 174.542 313.606 174.542 312.328C174.542 311.036 175.504 310.232 177.154 310.103L179.365 309.93V309.729C179.365 308.552 178.662 308.136 177.714 308.136C176.58 308.136 175.934 308.638 175.934 309.485H174.757C174.757 308.021 175.963 307.059 177.772 307.059C179.509 307.059 180.686 307.978 180.686 309.873V314.28H179.537L179.394 313.146C179.035 313.95 178.073 314.453 176.939 314.453ZM177.327 313.405C178.604 313.405 179.38 312.572 179.38 311.251V310.878L177.585 311.021C176.394 311.136 175.905 311.596 175.905 312.285C175.905 313.031 176.451 313.405 177.327 313.405ZM186.287 307.203V308.437H185.684C184.407 308.437 183.617 309.213 183.617 310.562V314.28H182.268V307.275H183.531L183.617 308.337C183.904 307.605 184.608 307.117 185.57 307.117C185.814 307.117 186.015 307.145 186.287 307.203ZM190.043 314.453C187.975 314.453 186.554 312.96 186.554 310.777C186.554 308.581 187.947 307.059 189.985 307.059C191.981 307.059 193.287 308.437 193.287 310.519V311.021L187.861 311.036C187.961 312.515 188.736 313.333 190.071 313.333C191.119 313.333 191.808 312.902 192.038 312.098H193.301C192.957 313.606 191.78 314.453 190.043 314.453ZM189.985 308.193C188.808 308.193 188.061 308.897 187.889 310.131H191.938C191.938 308.969 191.177 308.193 189.985 308.193ZM198.145 317.424V307.26H199.366L199.466 308.524C199.94 307.562 200.887 307.059 202.007 307.059C204.017 307.059 205.266 308.567 205.266 310.72C205.266 312.859 204.089 314.467 202.007 314.467C200.887 314.467 199.954 313.993 199.495 313.132V317.424H198.145ZM199.509 310.777C199.509 312.213 200.342 313.247 201.72 313.247C203.098 313.247 203.916 312.213 203.916 310.777C203.916 309.328 203.098 308.294 201.72 308.294C200.342 308.294 199.509 309.313 199.509 310.777ZM211.15 307.26H212.485V314.28H211.279L211.136 313.218C210.734 313.95 209.801 314.453 208.767 314.453C207.131 314.453 206.212 313.347 206.212 311.624V307.26H207.561V311.179C207.561 312.687 208.207 313.261 209.241 313.261C210.476 313.261 211.15 312.471 211.15 310.964V307.26ZM215.376 314.28H214.156V303.714H215.506V308.466C215.965 307.547 216.912 307.059 218.061 307.059C220.071 307.059 221.277 308.638 221.277 310.806C221.277 312.931 220.013 314.453 217.975 314.453C216.869 314.453 215.936 313.964 215.477 313.003L215.376 314.28ZM215.52 310.749C215.52 312.213 216.353 313.232 217.731 313.232C219.109 313.232 219.927 312.199 219.927 310.749C219.927 309.313 219.109 308.28 217.731 308.28C216.353 308.28 215.52 309.313 215.52 310.749ZM223.855 314.28H222.506V303.714H223.855V314.28ZM226.215 305.595C225.727 305.595 225.325 305.193 225.325 304.705C225.325 304.202 225.727 303.815 226.215 303.815C226.703 303.815 227.105 304.202 227.105 304.705C227.105 305.193 226.703 305.595 226.215 305.595ZM225.554 314.28V307.26H226.904V314.28H225.554ZM228.116 310.777C228.116 308.581 229.509 307.059 231.562 307.059C233.328 307.059 234.562 308.064 234.806 309.629H233.457C233.227 308.739 232.509 308.265 231.605 308.265C230.327 308.265 229.452 309.241 229.452 310.763C229.452 312.27 230.27 313.247 231.548 313.247C232.509 313.247 233.227 312.744 233.471 311.912H234.821C234.548 313.433 233.242 314.453 231.548 314.453C229.48 314.453 228.116 312.988 228.116 310.777ZM237.336 314.28H235.986V303.714H237.336V314.28ZM238.36 317.424V316.319H239.265C239.911 316.319 240.427 316.218 240.758 315.328L241.002 314.654L238.174 307.26H239.595L241.633 312.916L243.715 307.26H245.107L241.791 315.859C241.317 317.065 240.614 317.568 239.537 317.568C239.092 317.568 238.719 317.51 238.36 317.424ZM251.503 314.28L248.675 307.26H250.11L251.646 311.179C251.89 311.84 252.091 312.428 252.206 312.859C252.321 312.4 252.551 311.797 252.795 311.179L254.36 307.26H255.766L252.838 314.28H251.503ZM257.213 305.595C256.725 305.595 256.323 305.193 256.323 304.705C256.323 304.202 256.725 303.815 257.213 303.815C257.701 303.815 258.103 304.202 258.103 304.705C258.103 305.193 257.701 305.595 257.213 305.595ZM256.553 314.28V307.26H257.902V314.28H256.553ZM262.603 314.453C260.536 314.453 259.115 312.96 259.115 310.777C259.115 308.581 260.508 307.059 262.546 307.059C264.542 307.059 265.848 308.437 265.848 310.519V311.021L260.421 311.036C260.522 312.515 261.297 313.333 262.632 313.333C263.68 313.333 264.369 312.902 264.599 312.098H265.862C265.518 313.606 264.341 314.453 262.603 314.453ZM262.546 308.193C261.369 308.193 260.622 308.897 260.45 310.131H264.498C264.498 308.969 263.738 308.193 262.546 308.193ZM268.337 314.28L266.04 307.26H267.433L268.595 310.907C268.753 311.423 268.897 311.955 269.026 312.572C269.141 311.955 269.328 311.366 269.486 310.907L270.663 307.26H272.041L273.204 310.907C273.319 311.251 273.548 312.069 273.663 312.572C273.778 312.012 273.907 311.524 274.108 310.907L275.285 307.26H276.692L274.295 314.28H273.017L271.797 310.519C271.567 309.816 271.424 309.27 271.352 308.882C271.28 309.227 271.151 309.686 270.892 310.533L269.672 314.28H268.337ZM279.292 314.453C277.785 314.453 276.895 313.606 276.895 312.328C276.895 311.036 277.857 310.232 279.508 310.103L281.718 309.93V309.729C281.718 308.552 281.015 308.136 280.067 308.136C278.933 308.136 278.287 308.638 278.287 309.485H277.11C277.11 308.021 278.316 307.059 280.125 307.059C281.862 307.059 283.039 307.978 283.039 309.873V314.28H281.891L281.747 313.146C281.388 313.95 280.426 314.453 279.292 314.453ZM279.68 313.405C280.957 313.405 281.733 312.572 281.733 311.251V310.878L279.938 311.021C278.747 311.136 278.259 311.596 278.259 312.285C278.259 313.031 278.804 313.405 279.68 313.405ZM285.841 314.28H284.621V303.714H285.97V308.466C286.43 307.547 287.377 307.059 288.526 307.059C290.535 307.059 291.741 308.638 291.741 310.806C291.741 312.931 290.478 314.453 288.439 314.453C287.334 314.453 286.401 313.964 285.942 313.003L285.841 314.28ZM285.985 310.749C285.985 312.213 286.817 313.232 288.195 313.232C289.574 313.232 290.392 312.199 290.392 310.749C290.392 309.313 289.574 308.28 288.195 308.28C286.817 308.28 285.985 309.313 285.985 310.749ZM294.32 314.28H292.97V303.714H294.32V314.28ZM299.048 314.453C296.981 314.453 295.56 312.96 295.56 310.777C295.56 308.581 296.952 307.059 298.991 307.059C300.986 307.059 302.293 308.437 302.293 310.519V311.021L296.866 311.036C296.967 312.515 297.742 313.333 299.077 313.333C300.125 313.333 300.814 312.902 301.044 312.098H302.307C301.962 313.606 300.785 314.453 299.048 314.453ZM298.991 308.193C297.814 308.193 297.067 308.897 296.895 310.131H300.943C300.943 308.969 300.182 308.193 298.991 308.193Z" fill="#918EA4"/>
<g clip-path="url(#clip0_8_9422)">
<rect x="443.437" y="283.33" width="44.6626" height="25.5215" rx="12.7607" fill="#F3F4F7"/>
<g filter="url(#filter1_d_8_9422)">
<circle cx="456.198" cy="296.091" r="9.57055" fill="white"/>
</g>
</g>
<defs>
<filter id="filter0_d_8_9422" x="352.148" y="137.569" width="163.435" height="112.632" filterUnits="userSpaceOnUse" color-interpolation-filters="sRGB">
<feFlood flood-opacity="0" result="BackgroundImageFix"/>
<feColorMatrix in="SourceAlpha" type="matrix" values="0 0 0 0 0 0 0 0 0 0 0 0 0 0 0 0 0 0 127 0" result="hardAlpha"/>
<feOffset dy="23.1902"/>
<feGaussianBlur stdDeviation="19.3252"/>
<feComposite in2="hardAlpha" operator="out"/>
<feColorMatrix type="matrix" values="0 0 0 0 0.803922 0 0 0 0 0.996078 0 0 0 0 0.490196 0 0 0 0.08 0"/>
<feBlend mode="normal" in2="BackgroundImageFix" result="effect1_dropShadow_8_9422"/>
<feBlend mode="normal" in="SourceGraphic" in2="effect1_dropShadow_8_9422" result="shape"/>
</filter>
<filter id="filter1_d_8_9422" x="433.867" y="276.95" width="44.6621" height="44.6621" filterUnits="userSpaceOnUse" color-interpolation-filters="sRGB">
<feFlood flood-opacity="0" result="BackgroundImageFix"/>
<feColorMatrix in="SourceAlpha" type="matrix" values="0 0 0 0 0 0 0 0 0 0 0 0 0 0 0 0 0 0 127 0" result="hardAlpha"/>
<feOffset dy="3.19018"/>
<feGaussianBlur stdDeviation="6.38037"/>
<feComposite in2="hardAlpha" operator="out"/>
<feColorMatrix type="matrix" values="0 0 0 0 0 0 0 0 0 0 0 0 0 0 0 0 0 0 0.08 0"/>
<feBlend mode="normal" in2="BackgroundImageFix" result="effect1_dropShadow_8_9422"/>
<feBlend mode="normal" in="SourceGraphic" in2="effect1_dropShadow_8_9422" result="shape"/>
</filter>
<linearGradient id="paint0_linear_8_9422" x1="433.865" y1="153.029" x2="433.865" y2="188.361" gradientUnits="userSpaceOnUse">
<stop stop-color="#CE4FFF"/>
<stop offset="1" stop-color="#5633FF"/>
</linearGradient>
<clipPath id="clip0_8_9422">
<rect x="443.437" y="283.33" width="44.6626" height="25.5215" rx="12.7607" fill="white"/>
</clipPath>
</defs>
</svg>
