<svg width="135" height="109" viewBox="0 0 135 109" fill="none" xmlns="http://www.w3.org/2000/svg">
<g id="Logo">
<path id="Vector" d="M44.9118 37.8056C44.9118 37.5313 44.9118 33.54 44.9118 33.54H42.5377C42.5377 33.54 42.5377 37.4694 42.5377 37.5934C42.5377 38.319 41.8645 38.8057 40.7306 38.8057C39.5436 38.8057 38.8969 38.3366 38.8969 37.5844C38.8969 37.4605 38.8969 33.54 38.8969 33.54H36.4961C36.4961 33.54 36.4961 37.2658 36.4961 37.5844C36.4961 39.6906 38.2235 40.5845 40.6331 40.5845C43.211 40.5845 44.9118 39.6818 44.9118 37.8056Z" fill="#AFAFAF"/>
<path id="Vector_2" d="M52.9047 40.4871V38.6376H48.6703V33.54H46.2695V40.4871H52.9047Z" fill="#AFAFAF"/>
<path id="Vector_3" d="M60.0408 35.2836V33.54H51.7402V35.2836H54.6724V40.4871H57.0997V35.2836H60.0408Z" fill="#AFAFAF"/>
<path id="Vector_4" d="M63.231 40.4871V33.54H60.7949V40.4871H63.231Z" fill="#AFAFAF"/>
<path id="Vector_5" d="M74.4101 40.4871V33.54H71.4069L69.5112 37.7084L67.7041 33.54H64.6035V40.4871H66.8625V36.7349L68.4924 40.4871H70.5123L72.1599 36.7349V40.4871H74.4101Z" fill="#AFAFAF"/>
<path id="Vector_6" d="M78.1712 39.2039H81.9273L82.5387 40.4871H85.0988L81.5907 33.54H78.7294L75.0176 40.4871H77.5245L78.1712 39.2039ZM81.1743 37.6463H78.9508L79.8278 35.9737L80.0936 35.3367L80.3417 35.9649L81.1743 37.6463Z" fill="#AFAFAF"/>
<path id="Vector_7" d="M92.6264 35.2836V33.54H84.3262V35.2836H87.2583V40.4871H89.6858V35.2836H92.6264Z" fill="#AFAFAF"/>
<path id="Vector_8" d="M100.7 40.4871V38.7614H95.7138V37.8587H100.496V36.1685H95.7138V35.2746H100.638V33.54H93.375V40.4871H100.7Z" fill="#AFAFAF"/>
<path id="Vector_9" d="M54.5967 44.1797H52.3022C52.3022 44.1797 50.8051 48.5515 50.8051 48.6577C50.8051 48.5515 49.4054 44.1797 49.4054 44.1797H46.9161C46.9161 44.1797 45.5253 48.5515 45.5253 48.6577C45.5253 48.5515 44.0193 44.1797 44.0193 44.1797H41.4414L44.046 51.1268H46.6415C46.6415 51.1268 48.0412 46.9762 48.0501 46.8612C48.0589 46.9762 49.4497 51.1268 49.4497 51.1268H52.0541L54.5967 44.1797Z" fill="#AFAFAF"/>
<path id="Vector_10" d="M57.7388 51.1268V44.1797H55.3027V51.1268H57.7388Z" fill="#AFAFAF"/>
<path id="Vector_11" d="M67.2132 51.1268V44.1797H64.9454V47.9585L61.6057 44.1797H59.1074V51.1268H61.3931V47.2594L64.8391 51.1268H67.2132Z" fill="#AFAFAF"/>
<path id="Vector_12" d="M76.7033 51.1268V44.1797H74.4355V47.9585L71.0957 44.1797H68.5977V51.1268H70.8831V47.2594L74.3292 51.1268H76.7033Z" fill="#AFAFAF"/>
<path id="Vector_13" d="M85.416 51.1268V49.4011H80.4286V48.4984H85.2122V46.8081H80.4286V45.9142H85.354V44.1797H78.0898V51.1268H85.416Z" fill="#AFAFAF"/>
<path id="Vector_14" d="M94.7798 46.2947C94.7798 45.6665 94.6284 45.2151 94.3095 44.8876C93.8933 44.4452 93.1761 44.1797 92.077 44.1797H86.541V51.1268H88.9063V48.6755H91.059L92.7869 51.1268H95.4267L93.3275 48.2948C93.796 48.224 94.178 47.9409 94.4248 47.6046C94.6465 47.2949 94.7798 46.8346 94.7798 46.2947ZM92.477 46.516C92.477 46.6312 92.459 46.7727 92.3959 46.8789C92.3077 47.0558 92.077 47.1267 91.6968 47.1267H88.9151V45.8611H91.6518C92.0248 45.8611 92.2734 45.923 92.3959 46.1533C92.459 46.2416 92.477 46.3833 92.477 46.516Z" fill="#AFAFAF"/>
<path id="Vector_15" d="M45.9096 57.9621C45.9096 57.8485 45.9096 54.5674 45.9096 54.5674H45.0802C45.0802 54.5674 45.0802 57.835 45.0802 57.9086C45.0802 58.6971 44.3376 59.1449 43.2673 59.1449C42.0032 59.1449 41.381 58.6637 41.381 57.902C41.381 57.8283 41.381 54.5674 41.381 54.5674H40.5449C40.5449 54.5674 40.5449 57.7482 40.5449 57.8751C40.5449 59.2651 41.6286 59.8799 43.234 59.8799C44.8928 59.8799 45.9096 59.225 45.9096 57.9621Z" fill="#AFAFAF"/>
<path id="Vector_16" d="M51.8592 59.8131V59.0446H48.2404V54.5674H47.4043V59.8131H51.8592Z" fill="#AFAFAF"/>
<path id="Vector_17" d="M56.6101 55.3292V54.5674H51.0312V55.3292H53.3992V59.8131H54.2421V55.3292H56.6101Z" fill="#AFAFAF"/>
<path id="Vector_18" d="M62.5564 56.0508C62.5564 55.6766 62.476 55.4026 62.3356 55.1821C62.0881 54.8145 61.6131 54.5674 60.8239 54.5674H57.4258V59.8131H58.2485V57.6012H60.6432L62.1081 59.8131H63.0713L61.4861 57.4608C61.8873 57.4142 62.2018 57.1868 62.369 56.8929C62.4895 56.6923 62.5564 56.3984 62.5564 56.0508ZM61.7268 56.1176C61.7268 56.2646 61.6935 56.4452 61.6333 56.5654C61.5263 56.7591 61.2787 56.8594 60.8774 56.866H58.2552C58.2552 56.8527 58.2552 55.3158 58.2552 55.3158H60.7235C61.2252 55.3158 61.4927 55.4361 61.6333 55.6632C61.6935 55.7702 61.7268 55.9505 61.7268 56.1176Z" fill="#AFAFAF"/>
<path id="Vector_19" d="M64.9375 58.5167H68.2086L68.8774 59.8131H69.7738L67.1114 54.5674H66.1282L63.3789 59.8131H64.2551L64.9375 58.5167ZM67.8606 57.7749H65.2988L66.3622 55.7635L66.5965 55.2757L66.8305 55.7635L67.8606 57.7749Z" fill="#AFAFAF"/>
<path id="Vector_20" d="M78.2558 59.3119C78.4632 59.0713 78.5569 58.7305 78.5569 58.363C78.5569 58.0156 78.4566 57.668 78.2492 57.4541C78.0418 57.2538 77.7074 57.0867 77.3394 57.0532C77.5535 57.0198 77.7207 56.8862 77.8344 56.7458C78.0151 56.5386 78.122 56.2045 78.122 55.8704C78.122 55.5162 78.0151 55.1954 77.7875 54.9749C77.5401 54.7278 77.1187 54.5674 76.53 54.5674H72.998V59.8131H76.7909C77.5 59.8131 77.9949 59.6327 78.2558 59.3119ZM77.2591 56.0375C77.2591 56.2713 77.1855 56.4785 77.0585 56.5987C76.9313 56.7391 76.7172 56.7993 76.4899 56.7993H73.8141V55.289H76.336C76.6437 55.289 76.8778 55.3491 77.0383 55.4962C77.1789 55.6298 77.2591 55.8236 77.2591 56.0375ZM77.5266 58.804C77.3594 58.9912 77.0718 59.0848 76.6504 59.0848H73.8141V57.5277H76.6706C77.0585 57.5277 77.3261 57.6078 77.4866 57.7616C77.6337 57.902 77.694 58.0823 77.694 58.2895C77.694 58.5034 77.6472 58.6837 77.5266 58.804Z" fill="#AFAFAF"/>
<path id="Vector_21" d="M84.629 59.8131V59.0446H80.5487V57.5477H84.4684V56.7859H80.5487V55.3292H84.5821V54.5674H79.7324V59.8131H84.629Z" fill="#AFAFAF"/>
<path id="Vector_22" d="M91.1666 58.2622C91.1666 57.4068 90.599 56.9658 89.2008 56.8054C88.966 56.7721 88.4575 56.7186 88.1832 56.6851C86.8856 56.5314 86.491 56.3577 86.491 55.91C86.491 55.4757 86.9257 55.2284 88.2368 55.2284C89.253 55.2284 89.7755 55.4289 90.0368 55.7896C90.1107 55.8899 90.1503 56.0103 90.1702 56.1037H91.0657C91.0404 55.95 90.9792 55.7361 90.8855 55.5624C90.5251 54.9411 89.7828 54.4932 88.2368 54.4932C86.3906 54.4866 85.628 55.1549 85.628 55.9835C85.628 56.812 86.2234 57.2331 87.7686 57.4136C88.0362 57.4469 88.511 57.5004 88.7452 57.5272C89.9431 57.6741 90.3179 57.8546 90.3179 58.3558C90.3179 58.8169 89.8891 59.151 88.5177 59.151C87.394 59.151 86.7919 58.9505 86.5511 58.5629C86.4776 58.456 86.4308 58.289 86.4241 58.1754H85.541C85.5612 58.4159 85.628 58.6765 85.7484 58.8837C86.0963 59.5186 86.9124 59.8862 88.491 59.8862C90.3774 59.8862 91.1666 59.2779 91.1666 58.2622Z" fill="#AFAFAF"/>
<path id="Vector_23" d="M97.1625 55.3292V54.5674H91.584V55.3292H93.9516V59.8131H94.7949V55.3292H97.1625Z" fill="#AFAFAF"/>
<path id="Vector_24" d="M38.1766 64.3725C38.1766 63.8378 38.0696 63.4769 37.8888 63.203C37.6348 62.8086 37.1396 62.6016 36.2767 62.6016H32.959V67.8473H33.7884V66.1365C33.7884 66.1365 36.1297 66.1365 36.2434 66.1365C37.0528 66.1298 37.6079 65.9428 37.9024 65.5151C38.0896 65.2545 38.1766 64.8802 38.1766 64.3725ZM37.3337 64.3725C37.3337 64.6396 37.3068 64.8401 37.22 64.9738C37.0661 65.221 36.7517 65.3747 36.1029 65.3747C36.0427 65.3747 33.7884 65.3747 33.7884 65.3747V63.35H36.1297C36.7384 63.35 37.0528 63.4902 37.22 63.7642C37.3002 63.8845 37.3337 64.1051 37.3337 64.3725Z" fill="#AFAFAF"/>
<path id="Vector_25" d="M44.2305 67.8473V67.0788H40.15V65.5819H44.07V64.8201H40.15V63.3633H44.1837V62.6016H39.334V67.8473H44.2305Z" fill="#AFAFAF"/>
<path id="Vector_26" d="M50.613 64.085C50.613 63.7108 50.5328 63.4368 50.3923 63.2163C50.1447 62.8487 49.6699 62.6016 48.8805 62.6016H45.4824V67.8473H46.3051V65.6354H48.7L50.1649 67.8473H51.1282L49.5427 65.495C49.9442 65.4483 50.2586 65.221 50.4258 64.927C50.5462 64.7265 50.613 64.4326 50.613 64.085ZM49.7836 64.1518C49.7836 64.2988 49.7501 64.4794 49.6899 64.5996C49.5829 64.7933 49.3353 64.8936 48.934 64.9002H46.3118C46.3118 64.8869 46.3118 63.35 46.3118 63.35H48.7802C49.2818 63.35 49.5494 63.4703 49.6899 63.6974C49.7501 63.8044 49.7836 63.9847 49.7836 64.1518Z" fill="#AFAFAF"/>
<path id="Vector_27" d="M56.8117 63.3633V62.6016H52.1426V67.8473H52.972V65.6154H56.6378V64.8334H52.972V63.3633H56.8117Z" fill="#AFAFAF"/>
<path id="Vector_28" d="M60.6206 62.5078C59.5035 62.5078 58.7343 62.7818 58.1856 63.3565C57.7242 63.8042 57.5234 64.4258 57.5234 65.2075C57.5234 66.0629 57.7843 66.7044 58.266 67.1388C58.7811 67.6534 59.5703 67.9206 60.6206 67.9206C61.7043 67.9206 62.547 67.6534 63.0488 67.112C63.4836 66.671 63.711 66.0429 63.711 65.2009C63.711 64.3856 63.5169 63.7641 63.0555 63.3231C62.527 62.7751 61.7376 62.5078 60.6206 62.5078ZM60.6206 67.1723C59.8848 67.1723 59.3629 67.0119 58.9683 66.6911C58.5671 66.3637 58.373 65.8624 58.373 65.2208C58.373 64.6194 58.5402 64.1183 58.8613 63.8175C59.2292 63.4701 59.7911 63.2629 60.614 63.2629C61.4634 63.2629 61.9918 63.4635 62.3864 63.8109C62.7211 64.105 62.8681 64.6261 62.8681 65.2142C62.8681 65.8089 62.7144 66.3169 62.3731 66.6242C61.9785 66.9917 61.4234 67.1723 60.6206 67.1723Z" fill="#AFAFAF"/>
<path id="Vector_29" d="M69.9861 64.085C69.9861 63.7108 69.9057 63.4368 69.7653 63.2163C69.5178 62.8487 69.0428 62.6016 68.2536 62.6016H64.8555V67.8473H65.6782V65.6354H68.0728L69.5379 67.8473H70.501L68.9158 65.495C69.317 65.4483 69.6315 65.221 69.7987 64.927C69.9192 64.7265 69.9861 64.4326 69.9861 64.085ZM69.1565 64.1518C69.1565 64.2988 69.1231 64.4794 69.063 64.5996C68.9559 64.7933 68.7084 64.8936 68.3071 64.9002H65.6849C65.6849 64.8869 65.6849 63.35 65.6849 63.35H68.1532C68.6548 63.35 68.9224 63.4703 69.063 63.6974C69.1231 63.8044 69.1565 63.9847 69.1565 64.1518Z" fill="#AFAFAF"/>
<path id="Vector_30" d="M77.988 67.8473V62.6016H76.9044L74.7438 66.9184L72.6232 62.6016H71.5195V67.8473H72.3156V63.811L74.2955 67.8473H75.165L77.1919 63.811V67.8473H77.988Z" fill="#AFAFAF"/>
<path id="Vector_31" d="M80.3359 66.5509H83.607L84.2759 67.8473H85.1723L82.5099 62.6016H81.5266L78.7773 67.8473H79.6536L80.3359 66.5509ZM83.2591 65.8091H80.6972L81.7607 63.7977L81.9949 63.3099L82.229 63.7977L83.2591 65.8091Z" fill="#AFAFAF"/>
<path id="Vector_32" d="M91.1997 67.8473V62.6016H90.4033V66.6778L86.9257 62.6016H85.9824V67.8473H86.7918V63.7442L90.297 67.8473H91.1997Z" fill="#AFAFAF"/>
<path id="Vector_33" d="M98.4166 65.8892H97.5463C97.5193 66.1297 97.4256 66.3704 97.258 66.5507C96.8976 66.9717 96.3228 67.1521 95.4399 67.1521C94.6976 67.1521 93.9011 66.9449 93.5191 66.4037C93.3191 66.1498 93.1912 65.7756 93.1912 65.2142C93.1912 64.713 93.2795 64.3388 93.4723 64.0848C93.793 63.5704 94.4687 63.3031 95.4201 63.3031C96.3426 63.3031 96.9246 63.5569 97.2328 63.9111C97.4057 64.0982 97.5066 64.3188 97.5391 64.5793H98.4094C98.3823 64.2854 98.2886 63.9378 98.0886 63.6438C97.6598 63.0089 96.8706 62.5078 95.4255 62.5078C94.0489 62.5078 93.2254 62.9488 92.7696 63.6103C92.4759 63.9912 92.3281 64.5258 92.3281 65.2075C92.3281 65.9693 92.5101 66.5307 92.8236 66.9249C93.2795 67.5465 94.1552 67.9206 95.4796 67.9206C96.8382 67.9206 97.6472 67.513 98.049 66.8648C98.276 66.5507 98.3896 66.1765 98.4166 65.8892Z" fill="#AFAFAF"/>
<path id="Vector_34" d="M104.401 67.8473V67.0788H100.32V65.5819H104.241V64.8201H100.32V63.3633H104.354V62.6016H99.5039V67.8473H104.401Z" fill="#AFAFAF"/>
<path id="Vector_35" d="M43.228 73.0586L44.2284 76.1345H47.4658L44.8468 78.0355L45.8472 81.1113L43.228 79.2104L40.6088 81.1113L41.6094 78.0355L38.9902 76.1345H42.2276L43.228 73.0586Z" fill="#AFAFAF"/>
<path id="Vector_36" d="M54.7754 73.0586L55.7962 76.1343H59.0997L56.4272 78.0354L57.4479 81.1113L54.7754 79.2103L52.1029 81.1113L53.1237 78.0354L50.4512 76.1343H53.7547L54.7754 73.0586Z" fill="#AFAFAF"/>
<path id="Vector_37" d="M66.2325 73.0586L67.2534 76.1343H70.5567L67.8842 78.0354L68.9051 81.1113L66.2325 79.2103L63.56 81.1113L64.5807 78.0354L61.9082 76.1343H65.2117L66.2325 73.0586Z" fill="#AFAFAF"/>
<path id="Vector_38" d="M77.6934 73.0586L78.7141 76.1343H82.0177L79.3452 78.0354L80.3659 81.1113L77.6934 79.2103L75.0209 81.1113L76.0416 78.0354L73.3691 76.1343H76.6727L77.6934 73.0586Z" fill="#AFAFAF"/>
<path id="Vector_39" d="M89.2399 73.0586L90.2399 76.1343H93.4779L90.858 78.0354L91.858 81.1113L89.2399 79.2103L86.6206 81.1113L87.6211 78.0354L85.002 76.1343H88.2393L89.2399 73.0586Z" fill="#AFAFAF"/>
<path id="Vector_40" d="M48.8388 21.1631L49.5952 23.4887H52.043L50.0628 24.9261L50.8192 27.2516L48.8388 25.8144L46.8586 27.2516L47.615 24.9261L45.6348 23.4887H48.0826L48.8388 21.1631Z" fill="#AFAFAF"/>
<path id="Vector_41" d="M57.5685 21.1602L58.3404 23.4858H60.8379L58.8173 24.9232L59.5891 27.2486L57.5685 25.8113L55.5477 27.2486L56.3196 24.9232L54.2988 23.4858H56.7966L57.5685 21.1602Z" fill="#AFAFAF"/>
<path id="Vector_42" d="M66.2345 21.1602L67.0062 23.4858H69.5039L67.4833 24.9232L68.2551 27.2486L66.2345 25.8113L64.2137 27.2486L64.9856 24.9232L62.9648 23.4858H65.4626L66.2345 21.1602Z" fill="#AFAFAF"/>
<path id="Vector_43" d="M74.8985 21.1602L75.6703 23.4858H78.168L76.1474 24.9232L76.9191 27.2486L74.8985 25.8113L72.8778 27.2486L73.6497 24.9232L71.6289 23.4858H74.1266L74.8985 21.1602Z" fill="#AFAFAF"/>
<path id="Vector_44" d="M83.6279 21.1602L84.3843 23.4858H86.8321L84.8519 24.9232L85.6083 27.2486L83.6279 25.8113L81.6476 27.2486L82.4041 24.9232L80.4238 23.4858H82.8715L83.6279 21.1602Z" fill="#AFAFAF"/>
<path id="Vector_45" fill-rule="evenodd" clip-rule="evenodd" d="M13.9741 63.0227C10.636 42.1585 20.3782 21.5159 39.8816 12.6514L40.0616 13.0467C20.7545 21.8219 11.0928 42.2625 14.4033 62.9541C18.0659 85.8458 36.5518 99.5748 59.1894 100.237L59.1766 100.671C36.3626 100.004 17.6744 86.1506 13.9741 63.0227Z" fill="#AFAFAF"/>
<path id="Vector_46" d="M35.6534 17.9757C32.0492 18.0578 27.8309 20.0882 25.3418 23.0374C27.3379 24.8891 30.5495 24.2046 32.8607 23.8258C36.1594 23.2855 39.6672 22.2386 42.7799 20.7566C41.5001 18.0349 38.0524 17.9212 35.6534 17.9757Z" fill="#AFAFAF"/>
<path id="Vector_47" d="M32.8187 13.5349C30.6838 16.8571 28.1396 20.1589 25.3709 23.0665C23.0544 20.8942 24.4527 17.2792 25.3981 15.0311C27.1108 10.9576 31.217 7.44481 35.5099 5.64746C36.6881 8.32539 34.129 11.4958 32.8187 13.5349Z" fill="#AFAFAF"/>
<path id="Vector_48" d="M25.2232 27.2919C21.8483 28.4903 18.9483 31.864 17.4922 35.251C19.9189 36.3781 22.6777 34.7504 24.696 33.6666C27.4672 32.1783 30.2945 30.1248 32.5191 27.7484C30.5091 25.6297 27.4571 26.4988 25.2232 27.2919Z" fill="#AFAFAF"/>
<path id="Vector_49" d="M21.1307 23.974C20.3919 27.7631 19.1534 31.6905 17.5266 35.2701C14.6873 33.9323 14.7954 30.1007 14.917 27.6623C15.1246 23.5004 17.4553 18.7544 20.7002 15.7383C22.6868 17.8659 21.6013 21.5604 21.1307 23.974Z" fill="#AFAFAF"/>
<path id="Vector_50" d="M18.7298 39.3194C15.9177 41.5356 14.2131 45.6428 13.8184 49.3104C16.4786 49.6155 18.605 47.197 20.1872 45.5377C22.3413 43.2784 24.3804 40.4448 25.6754 37.4803C23.1395 36.0982 20.5616 37.8758 18.7298 39.3194Z" fill="#AFAFAF"/>
<path id="Vector_51" d="M13.8532 37.4503C14.3546 41.2767 14.3557 45.4163 13.8541 49.3173C10.7603 48.9377 9.73414 45.2267 9.128 42.8987C8.08149 38.8803 8.78313 33.6897 10.8217 29.7832C13.3694 31.1921 13.5328 35.0046 13.8532 37.4503Z" fill="#AFAFAF"/>
<path id="Vector_52" d="M16.5221 52.4496C14.2968 55.706 13.5142 60.8093 14.515 64.9113C17.4556 64.2157 18.9133 60.8898 20.0838 58.5409C21.6393 55.4191 22.9541 51.7771 23.4248 48.2038C20.2353 47.5406 17.9879 50.3043 16.5221 52.4496Z" fill="#AFAFAF"/>
<path id="Vector_53" d="M10.6797 52.1191C12.4134 56.129 13.7664 60.5426 14.5582 64.9001C11.1856 65.6239 8.75836 62.0861 7.34824 59.7403C4.83772 55.5645 4.10635 49.7758 5.02601 44.7803C8.11276 45.3986 9.62325 49.6764 10.6797 52.1191Z" fill="#AFAFAF"/>
<path id="Vector_54" d="M18.0775 66.6168C16.8827 70.5672 17.7132 75.9376 20.1324 79.6515C22.7908 77.9224 23.1588 74.1167 23.5355 71.388C24.0323 67.7872 24.2662 63.7983 23.649 60.0645C20.2488 60.4981 18.8756 63.9778 18.0775 66.6168Z" fill="#AFAFAF"/>
<path id="Vector_55" d="M12.1686 68.3081C15.1518 71.7277 17.9035 75.6266 20.173 79.6261C17.095 81.5457 13.4832 78.9232 11.2927 77.0673C7.40668 73.7752 4.88337 68.1798 4.28516 62.9046C7.51912 62.4704 10.3691 66.2451 12.1686 68.3081Z" fill="#AFAFAF"/>
<path id="Vector_56" d="M24.3461 80.0633C24.6025 84.6615 27.5992 89.4865 31.5892 92.2328C33.5161 89.5974 32.3083 85.5594 31.651 82.7407C30.7661 78.9456 29.5414 74.9938 27.7213 71.4873C24.5476 73.1628 24.1773 77.035 24.3461 80.0633Z" fill="#AFAFAF"/>
<path id="Vector_57" d="M18.9826 83.9477C23.3054 86.3474 27.6158 89.179 31.6235 92.1921C29.2234 95.3494 24.4261 94.0905 21.4524 93.0756C16.2119 91.2873 11.5399 86.5729 9.09961 81.3353C12.1936 79.7432 16.429 82.5302 18.9826 83.9477Z" fill="#AFAFAF"/>
<path id="Vector_58" d="M36.6589 91.296C39.2534 96.0262 45.1658 99.112 50.7335 99.8549C51.3328 96.4161 47.6082 93.0113 45.5786 90.7839C42.6889 87.6128 39.6779 84.3219 36.3019 81.5801C33.7727 84.5138 35.1098 88.4719 36.6589 91.296Z" fill="#AFAFAF"/>
<path id="Vector_59" d="M32.9527 97.2902C38.8503 97.9028 44.848 98.7846 50.7422 99.8015C50.1795 104.14 43.2872 104.841 40.1583 105.097C33.7428 105.622 26.606 103.046 21.6367 98.7087C24.1049 95.8073 29.8112 96.9641 32.9527 97.2902Z" fill="#AFAFAF"/>
<path id="Vector_60" d="M44.3136 9.00944C40.354 10.1379 35.7193 12.2787 33.4297 16.2305C37.5857 15.778 41.6703 14.3007 45.6648 13.1751C50.1391 11.9142 54.8504 10.9711 59.1824 9.23067C54.4382 7.3345 48.8456 7.71773 44.3136 9.00944Z" fill="#AFAFAF"/>
<path id="Vector_61" fill-rule="evenodd" clip-rule="evenodd" d="M120.915 62.9541C124.225 42.2625 114.563 21.8223 95.2563 13.0467L95.4364 12.6514C114.94 21.5161 124.682 42.1585 121.343 63.0227C117.644 86.1506 98.9555 100.004 76.1415 100.671L76.1289 100.237C98.7663 99.5748 117.251 85.8458 120.915 62.9541Z" fill="#AFAFAF"/>
<path id="Vector_62" d="M99.6654 17.9757C103.269 18.0578 107.487 20.0882 109.977 23.0374C107.981 24.8891 104.768 24.2046 102.458 23.8258C99.1591 23.2855 95.6509 22.2386 92.5391 20.7566C93.8184 18.0349 97.2653 17.9212 99.6654 17.9757Z" fill="#AFAFAF"/>
<path id="Vector_63" d="M102.5 13.5349C104.635 16.8571 107.179 20.1589 109.947 23.0665C112.264 20.8942 110.866 17.2792 109.92 15.0311C108.208 10.9576 104.102 7.44481 99.8079 5.64746C98.6295 8.32539 101.19 11.4958 102.5 13.5349Z" fill="#AFAFAF"/>
<path id="Vector_64" d="M110.098 27.2919C113.473 28.4903 116.372 31.864 117.828 35.251C115.401 36.3781 112.643 34.7504 110.625 33.6666C107.853 32.1783 105.026 30.1248 102.803 27.7484C104.812 25.6297 107.864 26.4988 110.098 27.2919Z" fill="#AFAFAF"/>
<path id="Vector_65" d="M114.189 23.974C114.927 27.7631 116.165 31.6905 117.792 35.2701C120.632 33.9323 120.524 30.1007 120.401 27.6623C120.194 23.5004 117.864 18.7544 114.619 15.7383C112.632 17.8659 113.718 21.5604 114.189 23.974Z" fill="#AFAFAF"/>
<path id="Vector_66" d="M116.589 39.3194C119.402 41.5356 121.106 45.6428 121.501 49.3104C118.841 49.6155 116.715 47.197 115.133 45.5377C112.978 43.2784 110.938 40.4448 109.645 37.4803C112.18 36.0982 114.758 37.8758 116.589 39.3194Z" fill="#AFAFAF"/>
<path id="Vector_67" d="M121.463 37.4503C120.96 41.2763 120.96 45.4163 121.461 49.3173C124.555 48.9377 125.582 45.2267 126.188 42.8987C127.235 38.8803 126.532 33.6897 124.494 29.7832C121.946 31.1921 121.782 35.0046 121.463 37.4503Z" fill="#AFAFAF"/>
<path id="Vector_68" d="M118.795 52.4496C121.021 55.706 121.803 60.8093 120.803 64.9113C117.862 64.2157 116.404 60.89 115.233 58.5409C113.678 55.4191 112.363 51.7771 111.893 48.2038C115.082 47.5406 117.331 50.3043 118.795 52.4496Z" fill="#AFAFAF"/>
<path id="Vector_69" d="M124.639 52.1191C122.906 56.129 121.553 60.5426 120.762 64.9001C124.133 65.6239 126.56 62.0861 127.971 59.7403C130.481 55.5645 131.212 49.7758 130.294 44.7803C127.207 45.3986 125.695 49.6764 124.639 52.1191Z" fill="#AFAFAF"/>
<path id="Vector_70" d="M117.242 66.6168C118.437 70.5672 117.608 75.9376 115.188 79.6515C112.53 77.9224 112.161 74.1167 111.784 71.388C111.289 67.7872 111.055 63.7983 111.671 60.0645C115.071 60.4981 116.444 63.9778 117.242 66.6168Z" fill="#AFAFAF"/>
<path id="Vector_71" d="M123.146 68.3081C120.164 71.7279 117.413 75.6266 115.143 79.6261C118.22 81.5457 121.833 78.9232 124.024 77.0673C127.909 73.7752 130.433 68.1798 131.031 62.9046C127.797 62.4704 124.946 66.2451 123.146 68.3081Z" fill="#AFAFAF"/>
<path id="Vector_72" d="M110.969 80.0633C110.713 84.6615 107.717 89.4865 103.728 92.2328C101.8 89.5974 103.009 85.5595 103.665 82.7407C104.549 78.9456 105.775 74.9938 107.594 71.4873C110.769 73.1628 111.139 77.035 110.969 80.0633Z" fill="#AFAFAF"/>
<path id="Vector_73" d="M116.335 83.9477C112.013 86.3474 107.703 89.179 103.695 92.1921C106.095 95.3494 110.892 94.0905 113.865 93.0756C119.107 91.2873 123.779 86.5729 126.218 81.3353C123.125 79.7432 118.888 82.5302 116.335 83.9477Z" fill="#AFAFAF"/>
<path id="Vector_74" d="M98.659 91.296C96.0643 96.0262 90.1524 99.112 84.584 99.8549C83.9847 96.4161 87.7091 93.0113 89.7398 90.7839C92.6282 87.6128 95.6391 84.3219 99.0157 81.5801C101.546 84.5138 100.207 88.4719 98.659 91.296Z" fill="#AFAFAF"/>
<path id="Vector_75" d="M102.364 97.2902C96.4661 97.9028 90.4695 98.7846 84.5742 99.8015C85.1371 104.14 92.0299 104.841 95.1579 105.097C101.574 105.622 108.711 103.046 113.679 98.7087C111.212 95.8073 105.506 96.9641 102.364 97.2902Z" fill="#AFAFAF"/>
<path id="Vector_76" d="M91.0058 9.00944C94.9644 10.1379 99.6006 12.2787 101.889 16.2305C97.7339 15.778 93.6491 14.3007 89.6544 13.1751C85.18 11.9142 80.4687 10.9711 76.1367 9.23067C80.8812 7.3345 86.4736 7.71773 91.0058 9.00944Z" fill="#AFAFAF"/>
<path id="Vector_77" d="M70.2332 6.96369L68.2016 2.48535L66.2082 6.88035L61.5723 4.00891L64.5513 10.2628H71.9597L74.8312 4.00891L70.2332 6.96369Z" fill="#AFAFAF"/>
<path id="Vector_78" d="M71.9124 11.2363H64.4922V12.3302H71.9124V11.2363Z" fill="#AFAFAF"/>
<path id="Vector_79" d="M68.7326 95.8574L69.9283 99.5335H73.7974L70.6673 101.805L71.8628 105.481L68.7326 103.21L65.6024 105.481L66.7981 101.805L63.668 99.5335H67.5371L68.7326 95.8574Z" fill="#AFAFAF"/>
</g>
</svg>
