<svg width="187" height="93" viewBox="0 0 187 93" fill="none" xmlns="http://www.w3.org/2000/svg">
<g id="Logo" clip-path="url(#clip0_109_439)">
<g id="Group 3">
<path id="Vector" d="M169.251 8.65043C170.999 11.2013 172.677 14.3481 171.852 17.7203C169.004 16.129 166.713 13.5308 164.897 10.9658C163.068 8.38361 161.168 5.63778 160.518 2.45508C164.11 3.35208 167.326 5.8421 169.251 8.65043Z" fill="#AFAFAF"/>
<path id="Vector_2" d="M14.85 17.7148C14.0269 14.3419 15.7084 11.1963 17.46 8.64692C19.388 5.84025 22.605 3.35252 26.1979 2.45801C25.5451 5.64009 23.6428 8.38488 21.8117 10.9654C19.9929 13.5292 17.699 16.1257 14.85 17.7148Z" fill="#AFAFAF"/>
<path id="Vector_3" d="M12.341 24.185C12.9836 21.5139 12.9693 18.5897 12.3576 16.0843C11.8197 13.8825 11.037 10.77 8.46084 9.71973C6.58828 12.652 5.83556 16.6451 6.92689 19.6372C7.71599 21.8015 9.13508 24.6629 12.0781 25.1058C14.7787 25.7136 17.5095 24.3073 19.6662 23.1461C22.0643 21.8552 24.4133 19.8015 25.8405 17.3598C23.2225 16.0698 20.2409 17.1167 17.9978 18.12C15.5799 19.2016 13.3588 21.5222 12.341 24.185Z" fill="#AFAFAF"/>
<path id="Vector_4" d="M64.7506 26.7514V13.3408H60.0607V18.2268H53.0259V13.3408H48.3359V26.7514H53.0259V21.8827H60.0607V26.7514H64.7506Z" fill="#AFAFAF"/>
<path id="Vector_5" d="M80.2996 13.3408H85.4794L78.1297 22.3268V26.7514H73.4224V22.3439L66.1602 13.3408H71.4973L75.8373 18.705L80.2996 13.3408Z" fill="#AFAFAF"/>
<path id="Vector_6" fill-rule="evenodd" clip-rule="evenodd" d="M101.814 14.4853C102.742 15.2029 103.267 16.416 103.267 18.1755C103.267 19.6105 102.899 20.6867 102.199 21.4386C101.254 22.4977 99.6966 22.9759 97.6667 22.9932C97.0367 23.0102 91.6468 22.9932 91.6468 22.9932V26.7514H86.9395V13.3408H97.5967C99.4865 13.3408 100.922 13.7166 101.814 14.4853ZM98.3316 19.2176C98.4717 18.9784 98.5417 18.6709 98.5417 18.2438C98.5417 17.7997 98.4541 17.4238 98.2967 17.2189C97.9991 16.7918 97.4391 16.5866 96.5292 16.5866H91.6119V19.8667H96.4941C97.4742 19.8667 98.0517 19.6448 98.3316 19.2176Z" fill="#AFAFAF"/>
<path id="Vector_7" d="M119.614 23.4201V26.7514H105.143V13.3408H119.493V16.6892H109.762V18.4147H119.212V21.6776H109.762V23.4201H119.614Z" fill="#AFAFAF"/>
<path id="Vector_8" fill-rule="evenodd" clip-rule="evenodd" d="M137.186 14.7075C137.817 15.3396 138.113 16.2108 138.113 17.4239C138.113 18.466 137.851 19.3543 137.413 19.9523C136.924 20.6014 136.171 21.1481 135.244 21.2847L139.391 26.7514H134.176L130.764 22.0193H126.513V26.7514H121.84V13.3408H132.777C134.946 13.3408 136.365 13.8533 137.186 14.7075ZM133.406 18.5513C133.53 18.3464 133.564 18.0729 133.564 17.851C133.564 17.5947 133.53 17.3213 133.406 17.1504C133.162 16.7062 132.672 16.5866 131.936 16.5866H126.53V19.0297H132.024C132.777 19.0297 133.232 18.8931 133.406 18.5513Z" fill="#AFAFAF"/>
<path id="Vector_9" d="M117.107 43.5721C117.107 40.5067 115.112 38.8957 110.459 38.4033C109.703 38.3139 107.479 38.09 106.081 37.9781C102.482 37.5977 101.405 37.3965 101.405 36.5014C101.405 35.6959 102.253 35.3155 105.485 35.3155C107.777 35.3155 109.061 35.7406 109.565 36.3894C109.817 36.7028 109.909 36.9488 109.932 37.1951H116.533C116.464 36.6579 116.235 35.8971 115.868 35.226C114.676 32.9883 111.811 31.1982 105.646 31.1982C98.7006 31.1982 94.8959 33.5925 94.8959 36.7252C94.8959 39.7459 97.0503 41.5136 102.872 42.0283C103.53 42.0833 104.944 42.2137 106.102 42.3205L106.173 42.3271L106.186 42.3284L106.191 42.3288L106.815 42.3863C109.863 42.6996 110.688 42.9008 110.688 43.8408C110.688 44.7133 109.886 45.1832 106.517 45.1832C103.904 45.1832 102.368 44.8028 101.818 44.1539C101.589 43.8855 101.428 43.4826 101.382 43.2142H94.7812C94.85 43.6616 94.9646 44.3778 95.2166 44.9596C96.3399 47.4209 99.2738 49.3005 106.081 49.3005C113.393 49.3005 117.107 47.2866 117.107 43.5721Z" fill="#AFAFAF"/>
<path id="Vector_10" fill-rule="evenodd" clip-rule="evenodd" d="M70.3111 47.2411C70.9988 46.4578 71.3425 45.2718 71.3425 44.0635C71.3425 43.0343 71.0675 42.0496 70.4945 41.4008C69.8068 40.5281 68.5919 39.9016 67.3085 39.745C68.1795 39.6331 69.0045 39.1857 69.4859 38.6039C70.0818 37.9101 70.3569 36.9704 70.3569 35.8292C70.3569 34.688 70.0131 33.6811 69.2338 32.9203C68.3628 32.0476 66.7812 31.4658 64.3059 31.4658H48.7656V49.0311H64.7413C67.2856 49.0311 69.2568 48.494 70.3111 47.2411ZM63.985 36.8809C63.985 37.3061 63.8474 37.6641 63.6183 37.9101C63.2973 38.201 62.7014 38.313 61.922 38.313H54.7708V35.4488H61.7617C62.6327 35.4488 63.2286 35.5607 63.5494 35.8516C63.8473 36.0976 63.985 36.4556 63.985 36.8809ZM64.6726 44.5783C64.3059 44.9138 63.664 45.0482 62.5867 45.0482H54.7708V42.1169H62.6556C63.664 42.1169 64.26 42.2511 64.6037 42.542C64.8789 42.8104 64.9933 43.1462 64.9933 43.5937C64.9933 44.0189 64.9017 44.3544 64.6726 44.5783Z" fill="#AFAFAF"/>
<path id="Vector_11" d="M92.926 44.6678V49.0311H73.9707V31.4658H92.7656V35.8516H80.0216V38.1115H92.399V42.3854H80.0216V44.6678H92.926Z" fill="#AFAFAF"/>
<path id="Vector_12" d="M139.411 35.874V31.4658H117.936V35.874H125.522V49.0311H131.801V35.874H139.411Z" fill="#AFAFAF"/>
<path id="Vector_13" d="M138.867 64.5742H137.857L137.784 63.6245C137.476 64.1052 136.823 64.6822 135.445 64.6822C133.116 64.6822 132.033 63.3118 132.033 59.8128C132.033 57.1077 132.722 54.9316 135.566 54.9316C138.031 54.9316 138.782 56.5068 138.818 58.202H137.587C137.55 57.0959 137.044 56.0739 135.592 56.0739C133.843 56.0739 133.337 57.0959 133.337 59.8492C133.337 62.7227 133.967 63.6245 135.617 63.6245C136.774 63.6245 137.451 62.9993 137.674 62.2539V60.4623H135.185V59.3681H138.854V62.1336C138.854 62.9598 138.863 63.8417 138.865 64.285L138.867 64.496V64.5742Z" fill="#AFAFAF"/>
<path id="Vector_14" fill-rule="evenodd" clip-rule="evenodd" d="M48.9971 62.1813H52.4455L53.1598 64.5739H54.4653L51.608 55.0518H50.0193L46.9648 64.5739H48.258L48.9971 62.1813ZM52.1376 61.1113H49.3296C49.3296 61.1113 50.5487 57.264 50.5734 57.1799C50.5858 57.1196 50.7829 56.266 50.7829 56.266L50.9193 56.8975L50.9799 57.1799C50.9922 57.2399 52.1376 61.1113 52.1376 61.1113Z" fill="#AFAFAF"/>
<path id="Vector_15" d="M63.8149 55.0518H64.9973L62.6942 64.5739H61.2285C61.2285 64.5739 59.5906 57.1678 59.5906 56.8551C59.5782 57.1678 57.9033 64.5739 57.9033 64.5739H56.4378L54.1348 55.0518H55.4647C55.4647 55.0518 57.2505 62.5901 57.2505 62.8908C57.2505 62.5901 58.8887 55.0518 58.8887 55.0518H60.3541C60.3541 55.0518 61.9921 62.6022 61.9921 62.8908C61.9921 62.6022 63.8149 55.0518 63.8149 55.0518Z" fill="#AFAFAF"/>
<path id="Vector_16" fill-rule="evenodd" clip-rule="evenodd" d="M70.0528 62.1813H66.6043L65.8655 64.5739H64.5723L67.6266 55.0518H69.2154L72.0727 64.5739H70.7672L70.0528 62.1813ZM66.937 61.1113H69.745C69.745 61.1113 68.5996 57.2399 68.5873 57.1799L68.4941 56.7465L68.3901 56.266C68.3901 56.266 68.1932 57.1196 68.1808 57.1799C68.1562 57.264 66.937 61.1113 66.937 61.1113Z" fill="#AFAFAF"/>
<path id="Vector_17" fill-rule="evenodd" clip-rule="evenodd" d="M76.8204 55.0518C78.3229 55.0518 79.1358 55.737 79.1358 57.7328C79.1358 59.4282 78.4831 59.9932 77.8056 60.1854L79.6778 64.5739H78.3229L76.5865 60.4261H74.222V64.5739H72.9902V55.0518H76.8204ZM76.6358 59.3439C77.6087 59.3439 77.8426 58.8509 77.8426 57.7689C77.8426 56.5426 77.4732 56.1699 76.5741 56.1699H74.2341V59.3439H76.6358Z" fill="#AFAFAF"/>
<path id="Vector_18" fill-rule="evenodd" clip-rule="evenodd" d="M87.3344 59.6566C87.3344 61.9049 87.1621 62.8185 86.6695 63.504C86.1769 64.1653 85.401 64.5739 84.1447 64.5739H80.7949V55.0518H84.0585C85.2902 55.0518 86.2508 55.4124 86.6942 56.0617C87.1868 56.759 87.3344 57.6246 87.3344 59.6566ZM83.8862 63.4437C84.6375 63.4437 85.2656 63.2515 85.5857 62.8306C85.9306 62.3738 86.0291 61.4479 86.0291 59.6566C86.0291 58.1537 85.9428 57.3481 85.5857 56.831C85.2532 56.3863 84.6128 56.1938 83.8616 56.1938H82.0388V63.4437H83.8862Z" fill="#AFAFAF"/>
<path id="Vector_19" d="M100.329 55.0518H101.511L99.2079 64.5739H97.7422C97.7422 64.5739 96.1043 57.1678 96.1043 56.8551C96.0919 57.1678 94.417 64.5739 94.417 64.5739H92.9515L90.6484 55.0518H91.9784C91.9784 55.0518 93.7642 62.5901 93.7642 62.8908C93.7642 62.5901 95.4022 55.0518 95.4022 55.0518H96.8678C96.8678 55.0518 98.5058 62.6022 98.5058 62.8908C98.5058 62.6022 100.329 55.0518 100.329 55.0518Z" fill="#AFAFAF"/>
<path id="Vector_20" d="M103.687 55.0518V64.5739H102.406V55.0518H103.687Z" fill="#AFAFAF"/>
<path id="Vector_21" d="M111.709 55.0518V64.5739H110.293L106.66 57.1917V64.5739H105.465V55.0518H106.955L110.502 62.3256V55.0518H111.709Z" fill="#AFAFAF"/>
<path id="Vector_22" d="M119.693 55.0518V64.5739H118.277L114.644 57.1917V64.5739H113.449V55.0518H114.94L118.487 62.3256V55.0518H119.693Z" fill="#AFAFAF"/>
<path id="Vector_23" d="M122.712 55.0518V64.5739H121.432V55.0518H122.712Z" fill="#AFAFAF"/>
<path id="Vector_24" d="M130.735 55.0518V64.5739H129.318L125.686 57.1917V64.5739H124.49V55.0518H125.981L129.529 62.3256V55.0518H130.735Z" fill="#AFAFAF"/>
<path id="Vector_25" d="M62.8623 83.342L61.4511 79.1016L60.0396 83.342H55.4727L59.1674 85.9628L57.7561 90.2032L61.4511 87.5824L65.146 90.2032L63.7346 85.9628L67.4295 83.342H62.8623Z" fill="#AFAFAF"/>
<path id="Vector_26" d="M79.1832 83.342L77.7431 79.1016L76.3029 83.342H71.6426L75.413 85.9626L73.9728 90.203L77.7431 87.5824L81.5135 90.203L80.0734 85.9626L83.8436 83.342H79.1832Z" fill="#AFAFAF"/>
<path id="Vector_27" d="M95.3512 83.342L93.911 79.1016L92.4709 83.342H87.8105L91.5808 85.9626L90.1406 90.203L93.911 87.5824L97.6813 90.203L96.2411 85.9626L100.012 83.342H95.3512Z" fill="#AFAFAF"/>
<path id="Vector_28" d="M111.513 83.342L110.073 79.1016L108.633 83.342H103.973L107.743 85.9626L106.303 90.203L110.073 87.5824L113.843 90.203L112.403 85.9626L116.174 83.342H111.513Z" fill="#AFAFAF"/>
<path id="Vector_29" d="M127.776 83.342L126.366 79.1016L124.953 83.342H120.387L124.081 85.9626L122.671 90.203L126.366 87.5824L130.06 90.203L128.648 85.9626L132.344 83.342H127.776Z" fill="#AFAFAF"/>
<path id="Vector_30" d="M4.02551 31.3936C5.35357 33.3716 7.40862 35.8491 10.4051 35.7785C13.1299 35.9114 15.484 34.096 17.3378 32.5809C19.3344 30.949 21.1365 28.5626 21.8974 25.9827C19.1104 25.1912 16.4422 26.6575 14.4524 28.0406C12.3746 29.4852 10.7766 32.1288 10.4333 34.8433C10.4076 32.1239 9.65361 29.3151 8.43806 27.0525C7.32673 24.984 5.77811 22.1879 3.01521 21.6289C1.92664 24.8475 2.27397 28.7856 4.02551 31.3936Z" fill="#AFAFAF"/>
<path id="Vector_31" d="M11.2896 46.4309C8.5086 46.8859 5.7959 45.2225 4.03415 43.2659C1.76598 40.7468 0.416431 37.3675 0.691657 33.9844C3.54857 34.0552 5.71231 36.4661 7.31155 38.2892C9.03395 40.2526 10.4452 42.8359 11.1222 45.5007C10.8244 42.845 11.7377 39.9773 13.4331 38.2053C15.0696 36.4947 17.362 34.6305 20.2142 34.9298C20.1528 37.6226 18.77 40.1882 17.3439 42.1097C16.0146 43.9004 13.9668 46.1153 11.2896 46.4309Z" fill="#AFAFAF"/>
<path id="Vector_32" d="M6.15346 55.3786C8.71472 57.0065 11.8211 58.6177 15.0858 57.3983C17.764 56.4732 19.4668 53.8414 20.5142 51.4257C21.6236 48.8662 22.3646 45.9148 21.8516 43.1133C18.9085 43.3683 16.4681 45.4239 15.1719 47.9332C13.8168 50.5565 13.5569 53.679 14.5978 56.4294C13.0599 53.5999 10.8106 51.3105 8.42801 49.1951C6.26215 47.2721 3.14235 45.2464 0 45.6274C0.597884 49.4199 2.96858 53.3545 6.15346 55.3786Z" fill="#AFAFAF"/>
<path id="Vector_33" d="M21.6838 67.6514C24.2042 66.1805 25.2185 63.0854 25.6331 60.4332C26.0799 57.573 26.0608 54.4185 24.844 51.7051C21.9199 52.5024 19.9127 55.0718 19.2499 57.8859C18.5497 60.8591 19.1406 64.0279 20.8438 66.5594C18.5797 64.0235 15.569 61.9297 12.6838 60.4615C9.89688 59.0433 6.47782 57.3327 3.13086 58.3657C4.74478 62.211 8.19724 65.7912 12.0236 67.272C14.9869 68.4186 18.5918 69.5525 21.6838 67.6514Z" fill="#AFAFAF"/>
<path id="Vector_34" d="M33.6314 68.6466C34.0013 71.4073 33.9909 74.909 31.7952 77.034C29.0515 79.7757 24.8053 79.2466 21.5302 78.6434C17.1334 77.833 12.184 74.9055 9.53125 71.0074C12.771 69.266 16.7333 70.3799 19.9407 71.2817L20.1239 71.333C23.7041 72.3386 27.5194 73.9582 30.7103 76.1712C28.1639 73.925 26.3086 70.6281 26.2178 67.305C26.1361 64.3329 27.4576 61.1531 30.3013 59.7363C32.2866 62.2801 33.2163 65.5461 33.6314 68.6466Z" fill="#AFAFAF"/>
<path id="Vector_35" d="M46.3743 84.8513C47.9912 81.8465 46.3892 78.3199 45.1126 75.7134C43.6033 72.6321 41.5413 69.4917 38.5901 67.2363C35.7564 69.6204 36.0259 73.0318 36.8684 75.9964C37.8702 79.5215 41.3433 82.5265 44.9397 84.2389C40.7745 82.7225 36.2256 81.8124 31.8977 81.5438L31.4594 81.5161C27.9824 81.295 23.4561 81.0072 20.6855 83.4912C24.8746 86.9677 30.8247 88.9735 36.0689 88.8693C39.5832 88.7995 44.405 88.3936 46.3743 84.8513Z" fill="#AFAFAF"/>
<path id="Vector_36" d="M174.355 24.1942C173.34 21.5295 171.12 19.206 168.703 18.1224C166.459 17.1174 163.48 16.0686 160.861 17.3564C162.286 19.799 164.632 21.8545 167.029 23.1472C169.184 24.3096 171.913 25.7178 174.614 25.1126C177.558 24.6724 178.981 21.8115 179.772 19.6473C180.867 16.6566 180.119 12.6627 178.249 9.72852C175.671 10.7773 174.884 13.889 174.346 16.0906C173.731 18.5966 173.714 21.5218 174.355 24.1942Z" fill="#AFAFAF"/>
<path id="Vector_37" d="M172.239 28.0458C174.315 29.491 175.908 32.1332 176.25 34.8458C176.28 32.1278 177.037 29.3218 178.254 27.0614C179.366 24.9935 180.919 22.1987 183.682 21.6416C184.767 24.8613 184.416 28.7992 182.661 31.4057C181.334 33.3801 179.279 35.8525 176.289 35.7862C173.56 35.9222 171.203 34.1025 169.349 32.5842C167.353 30.9507 165.554 28.5631 164.797 25.9827C167.583 25.1929 170.25 26.6613 172.239 28.0458Z" fill="#AFAFAF"/>
<path id="Vector_38" d="M175.545 45.5186C175.849 42.8606 174.939 39.9869 173.241 38.2113C171.608 36.4996 169.317 34.6337 166.465 34.9308C166.522 37.6237 167.903 40.1906 169.328 42.1131C170.655 43.904 172.699 46.1189 175.375 46.438C178.157 46.898 180.873 45.2354 182.638 43.279C184.908 40.7618 186.26 37.3835 185.99 34C183.132 34.0689 180.966 36.478 179.365 38.2998C177.638 40.2645 176.223 42.8506 175.545 45.5186Z" fill="#AFAFAF"/>
<path id="Vector_39" d="M171.499 47.9382C172.852 50.563 173.109 53.6861 172.065 56.4357C173.605 53.6066 175.857 51.3186 178.241 49.2046C180.409 47.2831 183.531 45.2601 186.673 45.6432C186.073 49.4355 183.697 53.3684 180.511 55.39C177.95 57.0137 174.847 58.6217 171.586 57.4072C168.904 56.4838 167.2 53.8466 166.154 51.4268C165.046 48.8664 164.308 45.9146 164.825 43.1133C167.766 43.3705 170.206 45.4281 171.499 47.9382Z" fill="#AFAFAF"/>
<path id="Vector_40" d="M165.811 66.5555C167.513 64.0265 168.106 60.8608 167.41 57.8891C166.751 55.0743 164.745 52.5035 161.821 51.7041C160.602 54.4163 160.581 57.5705 161.023 60.4314C161.436 63.0784 162.444 66.1673 164.95 67.6436C168.044 69.5597 171.658 68.4264 174.625 67.2802C178.454 65.802 181.91 62.2244 183.526 58.3799C180.181 57.3448 176.76 59.0529 173.972 60.469C171.088 61.9343 168.076 64.0238 165.811 66.5555Z" fill="#AFAFAF"/>
<path id="Vector_41" d="M153.016 68.6386C152.644 71.3988 152.65 74.9002 154.845 77.0271C157.585 79.7708 161.832 79.2447 165.108 78.6436C169.506 77.8365 174.458 74.9121 177.114 71.0163C173.877 69.2728 169.913 70.3834 166.705 71.2827L166.52 71.3342C162.941 72.3367 159.125 73.953 155.932 76.1627C158.48 73.9183 160.337 70.6241 160.431 67.3023C160.516 64.3303 159.197 61.1495 156.355 59.7305C154.367 62.2728 153.435 65.5384 153.016 68.6386Z" fill="#AFAFAF"/>
<path id="Vector_42" d="M150.561 88.859C147.047 88.7866 142.225 88.3773 140.26 84.8333L140.233 84.7847C138.663 81.7891 140.258 78.2879 141.53 75.6967C143.042 72.6164 145.107 69.4775 148.06 67.2246C150.893 69.6106 150.618 73.0217 149.774 75.9855C148.768 79.51 145.293 82.5129 141.694 84.2224C145.86 82.7091 150.41 81.8024 154.738 81.5366L155.179 81.5092C158.656 81.2908 163.182 81.0067 165.949 83.4922C161.757 86.9651 155.806 88.967 150.561 88.859Z" fill="#AFAFAF"/>
</g>
</g>
<defs>
<clipPath id="clip0_109_439">
<rect width="186.672" height="92.0024" fill="white" transform="translate(0.00195312 0.685547)"/>
</clipPath>
</defs>
</svg>
