<svg width="188" height="93" viewBox="0 0 188 93" fill="none" xmlns="http://www.w3.org/2000/svg">
<g id="Logo">
<path id="Vector" d="M14.8976 20.4632C13.7462 17.6065 14.2461 14.3219 15.3067 11.5593C16.4225 8.6524 18.3655 5.75344 21.2696 4.22461C21.4137 7.28794 20.4551 10.3145 19.4078 13.0436C18.4659 15.4983 17.3102 18.1134 15.4018 20.1435C15.1086 21.6817 14.8838 23.2157 14.7258 24.7426C15.3583 23.1295 16.3839 21.6592 17.6636 20.477C19.3112 18.9547 21.762 17.7801 24.0626 18.4747C23.3888 20.9574 21.8528 23.3372 20.0338 25.0067C18.602 26.3208 16.7119 28.0046 14.4857 28.0708C14.394 30.3177 14.4458 32.5442 14.6352 34.7404C14.9493 33.1332 15.6222 31.6198 16.5945 30.4927C17.9302 28.9441 19.9107 27.052 22.44 27.3685C22.3019 29.8813 21.2752 32.4557 19.8455 34.3903C18.7093 35.9276 17.2094 37.8869 15.0805 38.3931C15.4214 40.5511 15.8962 42.6733 16.4986 44.7499C16.5044 43.1599 16.8642 41.5992 17.5779 40.3474C18.5837 38.5822 20.1503 36.3809 22.6825 36.2087C23.0537 38.6739 22.5507 41.3686 21.5362 43.512C20.7254 45.2251 19.6443 47.4098 17.6738 48.3138C18.5012 50.548 19.4805 52.7198 20.6032 54.816C20.209 53.0093 20.2248 51.1053 20.6913 49.3923C21.3341 47.0307 22.9299 44.55 25.4918 43.8301C26.3975 46.4373 26.2726 49.347 25.7465 51.9971C25.3135 54.1789 24.4628 56.7415 22.5558 58.1589C23.8025 60.123 25.1817 62.008 26.6858 63.8015C25.8777 62.0425 25.4761 60.1187 25.6915 58.3574C26.0054 55.7916 26.744 53.0468 29.4286 51.6788C30.9517 54.2442 31.3046 57.1223 31.434 59.965C31.5385 62.2631 31.1994 65.0977 29.5645 66.9673C31.3629 68.7926 33.3034 70.501 35.376 72.0764C34.0379 70.4007 33.101 68.4344 32.9025 66.4897C32.6223 63.7422 32.7593 60.7176 35.2569 58.7014C37.393 60.8794 38.6676 64.0869 39.2923 66.8728C39.8447 69.336 40.4214 72.2514 39.1062 74.6755C41.7439 76.3563 44.5597 77.8372 47.5368 79.0912C45.4419 77.6339 43.7271 75.6344 42.9101 73.57C41.8395 70.8639 41.1773 67.6394 43.2628 64.9292C46.0569 66.6764 48.1104 69.6573 49.7283 72.3759C51.1166 74.7087 52.5536 77.9285 51.8406 80.7068C53.4889 81.2528 55.1799 81.7322 56.9112 82.1413L56.8083 82.5562C55.0704 82.1455 53.373 81.6645 51.7179 81.1169C50.5584 84.4621 46.7599 85.5672 43.688 86.0551C39.311 86.7503 34.0992 85.4033 30.3625 82.69C32.3347 79.969 36.3586 79.693 39.3929 79.4847L39.4324 79.4821C42.7564 79.254 46.3516 79.5587 49.6943 80.4065C45.8327 78.9715 42.2194 77.1672 38.8876 75.046L38.8385 75.1217C37.0127 78.0118 33.3471 78.1245 30.4698 77.9417C26.5655 77.6937 22.0578 75.3761 19.4489 72.1725C21.9028 70.0706 25.5273 70.6589 28.3358 71.1146L28.3493 71.1168C31.4838 71.6254 34.909 72.7351 37.7841 74.4437C37.5102 74.2332 37.2422 74.0104 36.9817 73.7769C34.1864 71.8312 31.6078 69.6548 29.2678 67.2818C29.2407 67.3084 29.2131 67.3347 29.1854 67.3609C26.9102 69.5954 23.5965 69.0103 21.0104 68.2831C17.5498 67.31 13.9608 64.3742 12.2409 61.0039C14.9061 59.546 18.0926 60.7474 20.5711 61.6976C23.2915 62.7406 26.1696 64.4091 28.3827 66.5359C28.1545 66.255 27.9369 65.9614 27.7312 65.6576C25.6741 63.3912 23.8237 60.9643 22.197 58.404L22.1154 58.4539C19.5415 60.0754 16.6253 58.9011 14.314 57.7463C11.1803 56.1807 8.66205 52.7398 7.57392 49.3559C10.3539 48.4866 13.1005 50.1927 15.2356 51.5439C17.5708 53.0216 19.9363 55.1292 21.5599 57.5462C21.4407 57.3081 21.3296 57.0646 21.2272 56.8166C19.6671 54.1595 18.3418 51.37 17.2689 48.4764L17.2136 48.4948L17.2091 48.4964C14.8688 49.3649 12.2626 48.0146 10.5636 46.5337C8.20208 44.4757 6.53762 41.3117 6.14742 38.2206C8.58738 37.912 10.8862 39.7549 12.4578 41.3267C14.2669 43.1358 15.8906 45.274 16.8888 47.6489C16.816 47.3909 16.7535 47.1289 16.7009 46.8642C15.7925 44.145 15.1044 41.3407 14.6508 38.4738L14.6154 38.478L14.6035 38.4799C12.1293 38.8832 9.84171 37.0468 8.47502 35.2646C6.55756 32.7638 5.5691 29.3025 5.81685 26.1654C8.28146 26.3337 10.1581 28.6226 11.3751 30.4741C12.7837 32.6176 13.9517 35.0435 14.4634 37.5813C14.4478 37.3795 14.4385 37.1763 14.4353 36.9727C14.0596 34.0548 13.9256 31.0771 14.0482 28.0626L14.0411 28.0623C11.5256 27.9738 9.66645 25.6937 8.70664 23.6713C7.33324 20.7771 7.11213 17.1188 8.02882 14.0356C10.4264 14.6925 11.763 17.3774 12.5519 19.4441C13.4615 21.827 14.0964 24.4259 14.1014 27.0097C14.2323 24.842 14.4958 22.6571 14.8976 20.4632Z" fill="#AFAFAF"/>
<path id="Vector_2" d="M64.4405 15.1143V25.4642C64.4405 30.0164 60.2174 32.2065 53.8168 32.2065C47.834 32.2065 43.5449 30.0379 43.5449 24.9274V15.1143H49.5057V24.9274C49.5057 26.7526 51.1113 27.8906 54.0587 27.8906C56.8742 27.8906 58.5459 26.7096 58.5459 24.9488V15.1143H64.4405Z" fill="#AFAFAF"/>
<path id="Vector_3" d="M84.2949 27.4826V31.9703H67.8203V15.1143H73.7811V27.4826H84.2949Z" fill="#AFAFAF"/>
<path id="Vector_4" d="M102.008 19.3444V15.1143H81.3984V19.3444H88.679V31.9703H94.7058V19.3444H102.008Z" fill="#AFAFAF"/>
<path id="Vector_5" fill-rule="evenodd" clip-rule="evenodd" d="M123.153 16.8322C123.945 17.6266 124.32 18.7218 124.32 20.2462C124.32 21.5562 123.99 22.6728 123.439 23.4242C122.823 24.2402 121.877 24.9274 120.711 25.0992L125.926 31.9703H119.37L115.08 26.0224H109.736V31.9703H103.863V15.1143H117.61C120.338 15.1143 122.12 15.7585 123.153 16.8322ZM118.402 21.6636C118.557 21.4058 118.6 21.0622 118.6 20.7832C118.6 20.461 118.557 20.1174 118.402 19.9028C118.094 19.3444 117.478 19.1942 116.554 19.1942H109.758V22.2648H116.664C117.61 22.2648 118.183 22.093 118.402 21.6636Z" fill="#AFAFAF"/>
<path id="Vector_6" fill-rule="evenodd" clip-rule="evenodd" d="M133.859 28.8569H143.185L144.702 31.9703H151.06L142.349 15.1143H135.245L126.029 31.9703H132.253L133.859 28.8569ZM141.315 25.0776H135.794L137.973 21.0194L138.632 19.4732L139.249 20.9978L141.315 25.0776Z" fill="#AFAFAF"/>
<path id="Vector_7" fill-rule="evenodd" clip-rule="evenodd" d="M122.524 35.1455C118.834 35.1455 116.893 36.8529 116.893 39.3617C116.893 42.1934 118.93 43.6299 122.524 43.6299C126.48 43.6299 128.144 41.9643 128.144 39.3617C128.144 36.7175 126.266 35.1455 122.524 35.1455ZM122.524 41.5376C120.423 41.5376 119.814 40.6943 119.814 39.393C119.814 38.1126 120.476 37.2693 122.513 37.2693C124.742 37.2693 125.242 38.2166 125.242 39.393C125.242 40.6423 124.635 41.5376 122.524 41.5376Z" fill="#AFAFAF"/>
<path id="Vector_8" d="M111.422 43.5052V38.6645H105.856V40.4239H108.831C108.81 40.5592 108.703 40.8195 108.564 40.9755C108.255 41.3295 107.434 41.6418 106.367 41.6418C105.258 41.6418 104.544 41.3607 104.16 40.9235C103.904 40.6008 103.755 40.1427 103.755 39.4557C103.755 38.7374 103.904 38.2482 104.192 37.9255C104.608 37.4674 105.312 37.2696 106.346 37.2696C107.274 37.2696 107.914 37.4777 108.212 37.7379C108.404 37.8941 108.553 38.1128 108.586 38.2584H111.347C111.337 37.9982 111.252 37.5819 111.102 37.28C110.441 35.9683 108.905 35.1875 106.293 35.1875C104.022 35.1875 102.497 35.8641 101.654 36.8844C101.1 37.5819 100.844 38.4562 100.844 39.4348C100.844 40.5176 101.142 41.444 101.633 42.0583C102.465 43.1098 103.947 43.6301 105.728 43.6301C107.295 43.6301 108.372 43.2658 109.055 42.7142L109.129 43.5052H111.422Z" fill="#AFAFAF"/>
<path id="Vector_9" d="M82.3742 38.5611C84.5389 38.79 85.4666 39.5396 85.4666 40.9659C85.4666 42.6939 83.7391 43.6307 80.3373 43.6307C77.1703 43.6307 75.8054 42.7564 75.2827 41.6113C75.1654 41.3406 75.1122 41.0074 75.0801 40.7992H78.1513C78.1727 40.9241 78.2473 41.1115 78.3539 41.2364C78.6098 41.5384 79.3242 41.7153 80.54 41.7153C82.1076 41.7153 82.4808 41.4966 82.4808 41.0908C82.4808 40.6534 82.0969 40.5598 80.6786 40.414C80.1135 40.362 79.2177 40.2787 78.8445 40.2475C76.136 40.008 75.1335 39.1856 75.1335 37.7803C75.1335 36.3227 76.9037 35.209 80.1347 35.209C83.0033 35.209 84.3363 36.0418 84.8908 37.0828C85.0614 37.3951 85.168 37.749 85.2 37.9988H82.1288C82.1181 37.8843 82.0756 37.7698 81.9583 37.624C81.7236 37.3222 81.1264 37.1244 80.06 37.1244C78.5565 37.1244 78.162 37.3013 78.162 37.6761C78.162 38.0926 78.6633 38.1863 80.3373 38.3633C80.9878 38.4153 82.0223 38.5193 82.3742 38.5611Z" fill="#AFAFAF"/>
<path id="Vector_10" fill-rule="evenodd" clip-rule="evenodd" d="M51.7576 36.0305C52.3227 36.4676 52.6426 37.2069 52.6426 38.279C52.6426 39.1536 52.4188 39.8093 51.9921 40.2673C51.4164 40.9128 50.4672 41.2044 49.2303 41.2148C48.8463 41.2252 45.5619 41.2148 45.5619 41.2148V43.5049H42.6934V35.333H49.1875C50.3393 35.333 51.2137 35.562 51.7576 36.0305ZM49.6355 38.914C49.7207 38.7684 49.7635 38.5809 49.7635 38.3206C49.7635 38.0501 49.71 37.821 49.6142 37.6961C49.4329 37.4358 49.0917 37.3109 48.5371 37.3109H45.5406V39.3096H48.5157C49.1129 39.3096 49.4648 39.1743 49.6355 38.914Z" fill="#AFAFAF"/>
<path id="Vector_11" fill-rule="evenodd" clip-rule="evenodd" d="M63.1372 36.1658C63.5213 36.551 63.7025 37.0819 63.7025 37.821C63.7025 38.456 63.5425 38.9974 63.2759 39.3617C62.9774 39.7573 62.5188 40.0904 61.9536 40.1738L64.4809 43.5049H61.3031L59.2236 40.6214H56.6323V43.5049H53.7852V35.333H60.4501C61.7723 35.333 62.6361 35.6453 63.1372 36.1658ZM60.8339 38.5082C60.9086 38.3832 60.9298 38.2166 60.9298 38.0812C60.9298 37.9252 60.9086 37.7585 60.8339 37.6545C60.6846 37.3838 60.3861 37.3109 59.9383 37.3109H56.643V38.7996H59.9915C60.4501 38.7996 60.7273 38.7162 60.8339 38.5082Z" fill="#AFAFAF"/>
<path id="Vector_12" d="M74.2154 43.5049V41.4751H68.2118V40.4131H73.9702V38.4248H68.2118V37.3733H74.1407V35.333H65.3965V43.5049H74.2154Z" fill="#AFAFAF"/>
<path id="Vector_13" d="M95.8434 37.3838V35.333H85.8516V37.3838H89.3811V43.5049H92.303V37.3838H95.8434Z" fill="#AFAFAF"/>
<path id="Vector_14" d="M99.6865 35.333V43.5049H96.7539V35.333H99.6865Z" fill="#AFAFAF"/>
<path id="Vector_15" d="M115.734 35.333V43.5049H112.801V35.333H115.734Z" fill="#AFAFAF"/>
<path id="Vector_16" d="M139.457 35.333V40.3507C139.457 42.5577 137.409 43.6196 134.307 43.6196C131.407 43.6196 129.326 42.5681 129.326 40.0904V35.333H132.217V40.0904C132.217 40.9752 132.994 41.5271 134.424 41.5271C135.789 41.5271 136.599 40.9545 136.599 40.1009V35.333H139.457Z" fill="#AFAFAF"/>
<path id="Vector_17" d="M150.969 40.9659C150.969 39.5396 150.041 38.79 147.877 38.5611C147.523 38.5193 146.49 38.4153 145.84 38.3633C144.165 38.1863 143.663 38.0926 143.663 37.6761C143.663 37.3013 144.058 37.1244 145.562 37.1244C146.628 37.1244 147.226 37.3222 147.46 37.624C147.578 37.7698 147.619 37.8843 147.63 37.9988H150.702C150.67 37.749 150.563 37.3951 150.392 37.0828C149.838 36.0418 148.506 35.209 145.637 35.209C142.405 35.209 140.635 36.3227 140.635 37.7803C140.635 39.1856 141.639 40.008 144.346 40.2475L144.52 40.2626L144.81 40.2884L146.18 40.414C147.599 40.5598 147.982 40.6534 147.982 41.0908C147.982 41.4966 147.61 41.7153 146.043 41.7153C144.827 41.7153 144.112 41.5384 143.855 41.2364C143.75 41.1115 143.674 40.9241 143.654 40.7992H140.582C140.615 41.0074 140.667 41.3406 140.785 41.6113C141.307 42.7564 142.672 43.6307 145.84 43.6307C149.241 43.6307 150.969 42.6939 150.969 40.9659Z" fill="#AFAFAF"/>
<path id="Vector_18" fill-rule="evenodd" clip-rule="evenodd" d="M76.3995 46.6338C74.0016 46.6338 72.7402 47.7435 72.7402 49.374C72.7402 51.2143 74.064 52.1479 76.3995 52.1479C78.9709 52.1479 80.052 51.0655 80.052 49.374C80.052 47.6555 78.8323 46.6338 76.3995 46.6338ZM76.3995 50.7881C75.0343 50.7881 74.6392 50.2399 74.6392 49.3942C74.6392 48.5621 75.0689 48.014 76.3927 48.014C77.8411 48.014 78.1669 48.6297 78.1669 49.3942C78.1669 50.2061 77.7719 50.7881 76.3995 50.7881Z" fill="#AFAFAF"/>
<path id="Vector_19" d="M63.0649 50.4163C63.0649 49.4894 62.4619 49.0021 61.055 48.8533C60.8263 48.8262 60.1541 48.7587 59.7313 48.7249C58.6431 48.6097 58.3175 48.5488 58.3175 48.2783C58.3175 48.0347 58.5739 47.9197 59.5511 47.9197C60.2442 47.9197 60.6322 48.0481 60.7848 48.2443C60.8609 48.3392 60.8886 48.4135 60.8957 48.488H62.8916C62.8708 48.3255 62.8016 48.0955 62.6906 47.8926C62.3302 47.216 61.4639 46.6748 59.5995 46.6748C57.4997 46.6748 56.3492 47.3986 56.3492 48.3459C56.3492 49.2594 57.0006 49.7939 58.7609 49.9494C59.0036 49.9697 59.5857 50.0239 59.9531 50.0577C60.8749 50.1523 61.1242 50.2134 61.1242 50.4975C61.1242 50.7613 60.8817 50.9034 59.863 50.9034C59.0728 50.9034 58.6085 50.7884 58.4421 50.5922C58.3729 50.511 58.3243 50.3892 58.3106 50.308H56.3145C56.3353 50.4434 56.3699 50.6598 56.4462 50.8358C56.7858 51.58 57.673 52.1482 59.7313 52.1482C61.9421 52.1482 63.0649 51.5394 63.0649 50.4163Z" fill="#AFAFAF"/>
<path id="Vector_20" fill-rule="evenodd" clip-rule="evenodd" d="M49.227 50.5651C49.227 50.9305 49.1229 51.2891 48.9151 51.5258C48.5963 51.9048 48.0002 52.0671 47.231 52.0671H42.4004V46.7559H47.0993C47.8478 46.7559 48.326 46.9319 48.5894 47.1957C48.825 47.4257 48.929 47.7302 48.929 48.0752C48.929 48.4204 48.8458 48.7045 48.6657 48.9142C48.52 49.0902 48.2706 49.2254 48.0072 49.2594C48.3953 49.3066 48.7626 49.4961 48.9705 49.7599C49.1438 49.9561 49.227 50.2539 49.227 50.5651ZM46.8914 48.7045C46.9606 48.6301 47.0023 48.5218 47.0023 48.3933C47.0023 48.2647 46.9606 48.1564 46.8705 48.0821C46.7736 47.994 46.5933 47.9602 46.3299 47.9602H44.2162V48.8263H46.3785C46.6141 48.8263 46.7944 48.7925 46.8914 48.7045ZM46.5795 50.8629C46.9052 50.8629 47.0993 50.8222 47.2102 50.7208C47.2794 50.653 47.3071 50.5517 47.3071 50.423C47.3071 50.2877 47.2725 50.1863 47.1893 50.1051C47.0855 50.0172 46.9052 49.9765 46.6003 49.9765H44.2162V50.8629H46.5795Z" fill="#AFAFAF"/>
<path id="Vector_21" d="M55.7511 50.7479V52.0671H50.0195V46.7559H55.7025V48.0821H51.8491V48.7654H55.5916V50.0577H51.8491V50.7479H55.7511Z" fill="#AFAFAF"/>
<path id="Vector_22" d="M69.8083 46.7559V48.0888H67.5073V52.0671H65.6085V48.0888H63.3145V46.7559H69.8083Z" fill="#AFAFAF"/>
<path id="Vector_23" d="M86.3942 46.7559V48.1023H82.7003V48.8533H86.221V50.1863H82.7003V52.0671H80.8359V46.7559H86.3942Z" fill="#AFAFAF"/>
<path id="Vector_24" d="M95.7829 48.0888V46.7559H89.2891V48.0888H91.5831V52.0671H93.4821V48.0888H95.7829Z" fill="#AFAFAF"/>
<path id="Vector_25" d="M102.868 46.7559V52.0671H101.011V50.1389H98.2245V52.0671H96.3672V46.7559H98.2245V48.6909H101.011V46.7559H102.868Z" fill="#AFAFAF"/>
<path id="Vector_26" d="M109.7 52.0671V50.7479H105.798V50.0577H109.541V48.7654H105.798V48.0821H109.652V46.7559H103.969V52.0671H109.7Z" fill="#AFAFAF"/>
<path id="Vector_27" d="M121.19 46.7559H122.984L120.996 52.0671H118.959C118.959 52.0671 117.87 48.894 117.863 48.8059C117.857 48.894 116.761 52.0671 116.761 52.0671H114.731L112.693 46.7559H114.709C114.709 46.7559 115.889 50.0982 115.889 50.1794C115.889 50.0982 116.976 46.7559 116.976 46.7559H118.925C118.925 46.7559 120.019 50.0982 120.019 50.1794C120.019 50.0982 121.19 46.7559 121.19 46.7559Z" fill="#AFAFAF"/>
<path id="Vector_28" fill-rule="evenodd" clip-rule="evenodd" d="M126.542 46.6338C124.144 46.6338 122.883 47.7435 122.883 49.374C122.883 51.2143 124.206 52.1479 126.542 52.1479C129.114 52.1479 130.194 51.0655 130.194 49.374C130.194 47.6555 128.974 46.6338 126.542 46.6338ZM126.542 50.7881C125.177 50.7881 124.782 50.2399 124.782 49.3942C124.782 48.5621 125.212 48.014 126.535 48.014C127.985 48.014 128.309 48.6297 128.309 49.3942C128.309 50.2061 127.914 50.7881 126.542 50.7881Z" fill="#AFAFAF"/>
<path id="Vector_29" fill-rule="evenodd" clip-rule="evenodd" d="M137.059 47.2973C137.307 47.5476 137.425 47.8926 137.425 48.373C137.425 48.7858 137.322 49.1375 137.148 49.3744C136.954 49.6315 136.657 49.848 136.289 49.902L137.931 52.0671H135.867L134.515 50.193H132.831V52.0671H130.98V46.7559H135.312C136.171 46.7559 136.733 46.959 137.059 47.2973ZM135.562 48.8195C135.609 48.7383 135.624 48.6301 135.624 48.5421C135.624 48.4406 135.609 48.3325 135.562 48.2647C135.464 48.0888 135.27 48.0414 134.979 48.0414H132.838V49.009H135.013C135.312 49.009 135.491 48.9549 135.562 48.8195Z" fill="#AFAFAF"/>
<path id="Vector_30" d="M143.718 52.0671V50.653H140.405V46.7559H138.527V52.0671H143.718Z" fill="#AFAFAF"/>
<path id="Vector_31" fill-rule="evenodd" clip-rule="evenodd" d="M151.067 49.3133C151.067 50.1389 150.983 50.5855 150.735 51.005C150.36 51.6746 149.618 52.0671 148.308 52.0671H144.455V46.7559H148.266C149.57 46.7559 150.34 47.1145 150.72 47.7302C150.99 48.143 151.067 48.5826 151.067 49.3133ZM147.955 50.7613C148.544 50.7613 148.877 50.626 149.078 50.3284C149.203 50.1456 149.238 49.7194 149.238 49.3473C149.231 49.009 149.189 48.6504 149.078 48.488C148.863 48.17 148.538 48.055 147.969 48.055H146.313V50.7613H147.955Z" fill="#AFAFAF"/>
<path id="Vector_32" d="M76.7244 77.8975H73.8526C73.8526 77.8975 71.9786 83.2451 71.9786 83.375C71.9786 83.2451 70.2266 77.8975 70.2266 77.8975H67.1107C67.1107 77.8975 65.3697 83.2451 65.3697 83.375C65.3697 83.2451 63.4847 77.8975 63.4847 77.8975H60.2578L63.5179 86.3951H66.7669C66.7669 86.3951 68.5188 81.3182 68.5299 81.1775C68.5411 81.3182 70.2819 86.3951 70.2819 86.3951H73.5419L76.7244 77.8975Z" fill="#AFAFAF"/>
<path id="Vector_33" d="M80.653 86.3951V77.8975H77.6035V86.3951H80.653Z" fill="#AFAFAF"/>
<path id="Vector_34" d="M92.5132 77.8975V86.3951H89.5414L85.228 81.6646V86.3951H82.3672V77.8975H85.494L89.6744 82.5199V77.8975H92.5132Z" fill="#AFAFAF"/>
<path id="Vector_35" d="M104.394 86.3951V77.8975H101.555V82.5199L97.3751 77.8975H94.248V86.3951H97.1088V81.6646L101.422 86.3951H104.394Z" fill="#AFAFAF"/>
<path id="Vector_36" d="M115.296 84.2842V86.3951H106.125V77.8975H115.218V80.0192H109.052V81.1126H115.041V83.1802H109.052V84.2842H115.296Z" fill="#AFAFAF"/>
<path id="Vector_37" fill-rule="evenodd" clip-rule="evenodd" d="M127.015 80.4847C127.015 79.7161 126.827 79.1641 126.428 78.7635C125.906 78.2223 125.009 77.8975 123.634 77.8975H116.703V86.3951H119.664V83.3966H122.359L124.522 86.3951H127.825L125.198 82.9312C125.785 82.8445 126.261 82.4981 126.573 82.0868C126.849 81.708 127.015 81.145 127.015 80.4847ZM124.132 80.7554C124.132 80.896 124.11 81.0692 124.032 81.1991C123.922 81.4157 123.634 81.5022 123.157 81.5022H119.675V79.9543H123.101C123.566 79.9543 123.878 80.03 124.032 80.3115C124.11 80.4197 124.132 80.593 124.132 80.7554Z" fill="#AFAFAF"/>
<path id="Vector_38" d="M67.8691 62.9062L66.6666 59.293L65.4639 62.9062H61.5723L64.7207 65.1392L63.5182 68.7524L66.6666 66.5194L69.8148 68.7524L68.6123 65.1392L71.7607 62.9062H67.8691Z" fill="#AFAFAF"/>
<path id="Vector_39" d="M80.5478 59.29L81.7749 62.9033H85.7459L82.5334 65.1364L83.7605 68.7495L80.5478 66.5165L77.3352 68.7495L78.5624 65.1364L75.3496 62.9033H79.3206L80.5478 59.29Z" fill="#AFAFAF"/>
<path id="Vector_40" d="M95.5503 62.9033L94.3233 59.29L93.0962 62.9033H89.125L92.3377 65.1364L91.1106 68.7495L94.3233 66.5165L97.5359 68.7495L96.3088 65.1364L99.5215 62.9033H95.5503Z" fill="#AFAFAF"/>
<path id="Vector_41" d="M108.099 59.29L109.326 62.9033H113.297L110.084 65.1364L111.311 68.7495L108.099 66.5165L104.886 68.7495L106.113 65.1364L102.9 62.9033H106.872L108.099 59.29Z" fill="#AFAFAF"/>
<path id="Vector_42" d="M123.181 62.9033L121.977 59.29L120.774 62.9033H116.883L120.031 65.1364L118.829 68.7495L121.977 66.5165L125.125 68.7495L123.924 65.1364L127.072 62.9033H123.181Z" fill="#AFAFAF"/>
<path id="Vector_43" d="M173.672 20.5407C174.823 17.6842 174.323 14.3992 173.262 11.6367C172.146 8.7299 170.203 5.83059 167.3 4.30176C167.155 7.36526 168.114 10.3916 169.161 13.1207C170.103 15.5752 171.258 18.1902 173.166 20.2201C173.46 21.758 173.685 23.2916 173.842 24.8181C173.21 23.2058 172.186 21.7362 170.906 20.5543C169.259 19.0319 166.807 17.8574 164.507 18.5521C165.181 21.0345 166.716 23.4146 168.536 25.084C169.968 26.3981 171.858 28.0817 174.083 28.1481C174.176 30.3952 174.123 32.6219 173.933 34.8183C173.619 33.211 172.947 31.6976 171.974 30.5706C170.638 29.0218 168.657 27.1299 166.129 27.4464C166.267 29.9591 167.294 32.5336 168.724 34.4681C169.859 36.0054 171.359 37.9649 173.489 38.4711C173.148 40.6287 172.673 42.7506 172.07 44.8271C172.064 43.2372 171.706 41.6765 170.992 40.4247C169.986 38.6597 168.418 36.4582 165.886 36.2861C165.515 38.7512 166.018 41.446 167.033 43.5893C167.843 45.3025 168.925 47.4872 170.895 48.3911C170.067 50.6257 169.089 52.798 167.965 54.8944C168.36 53.0873 168.344 51.183 167.878 49.4695C167.235 47.1078 165.64 44.627 163.077 43.9072C162.171 46.5148 162.296 49.4242 162.823 52.0742C163.256 54.2562 164.106 56.8189 166.013 58.2362C164.766 60.2014 163.387 62.0872 161.881 63.8816C162.691 62.1219 163.092 60.1971 162.876 58.4351C162.562 55.8689 161.825 53.1243 159.141 51.7566C157.616 54.3221 157.263 57.2001 157.134 60.0428C157.029 62.3411 157.368 65.1759 159.005 67.0456C157.205 68.8705 155.266 70.5784 153.194 72.1534C154.532 70.4777 155.469 68.5115 155.666 66.5671C155.947 63.8195 155.811 60.7951 153.312 58.7787C151.177 60.9567 149.901 64.1642 149.278 66.9501C148.725 69.4131 148.149 72.3287 149.463 74.7528C146.826 76.434 144.009 77.915 141.032 79.1694C143.127 77.7119 144.841 75.7121 145.659 73.6473C146.73 70.9414 147.391 67.7167 145.307 65.0065C142.512 66.7537 140.459 69.7344 138.841 72.4533C137.452 74.7862 136.015 78.0061 136.729 80.7844C135.08 81.3304 133.389 81.8099 131.658 82.219L131.762 82.6339C133.498 82.2232 135.196 81.7421 136.851 81.1946C138.01 84.5396 141.809 85.645 144.881 86.1328C149.258 86.8279 154.47 85.4812 158.207 82.7676C156.234 80.0467 152.21 79.7706 149.176 79.5624L149.136 79.5597C145.813 79.3317 142.217 79.6364 138.875 80.4844C142.735 79.0493 146.349 77.2447 149.682 75.1233L149.727 75.1941C151.552 78.0889 155.221 78.2022 158.099 78.0192C162.004 77.7712 166.511 75.4536 169.119 72.25C166.665 70.1484 163.043 70.7364 160.233 71.1919L160.219 71.1944C157.085 71.7029 153.662 72.8121 150.788 74.5201C151.061 74.3098 151.328 74.0874 151.589 73.854C154.383 71.9087 156.96 69.7326 159.3 67.36C159.333 67.3917 159.365 67.4229 159.398 67.4538C161.674 69.6709 164.978 69.086 167.559 68.3604C171.021 67.3873 174.609 64.4515 176.329 61.0812C173.663 59.6234 170.477 60.8245 167.999 61.775C165.275 62.8188 162.396 64.4892 160.181 66.6189C160.409 66.3376 160.629 66.0435 160.835 65.7392C162.892 63.4715 164.744 61.0432 166.372 58.4813L166.443 58.5239L166.461 58.5351C169.032 60.1508 171.947 58.9776 174.256 57.8236C177.389 56.258 179.908 52.8171 180.996 49.4332C178.216 48.564 175.47 50.2701 173.335 51.6213C170.997 53.0998 168.63 55.2088 167.006 57.6276C167.126 57.3889 167.238 57.1448 167.341 56.8962C168.902 54.2382 170.227 51.4481 171.3 48.5537L171.356 48.5721L171.365 48.5756C173.705 49.4403 176.309 48.0908 178.007 46.611C180.367 44.553 182.032 41.389 182.422 38.2979C179.983 37.9893 177.683 39.8322 176.111 41.4039C174.303 43.2142 172.677 45.3538 171.678 47.7306C171.753 47.4712 171.816 47.2078 171.869 46.9415C172.777 44.2225 173.465 41.4184 173.918 38.5518L173.987 38.5606C176.452 38.9502 178.732 37.1192 180.095 35.342C182.012 32.8411 183 29.3799 182.752 26.2426C180.289 26.411 178.411 28.6997 177.195 30.5515C175.785 32.696 174.616 35.1233 174.105 37.6627C174.121 37.4596 174.131 37.2554 174.134 37.0506C174.509 34.1325 174.643 31.1546 174.52 28.1401C177.038 28.054 178.902 25.7723 179.863 23.7489C181.235 20.8549 181.456 17.1964 180.541 14.1135C178.143 14.7704 176.806 17.4549 176.017 19.5216C175.107 21.9045 174.473 24.5037 174.468 27.0876C174.337 24.9199 174.073 22.7348 173.672 20.5407Z" fill="#AFAFAF"/>
</g>
</svg>
