<svg width="1920" height="1536" viewBox="0 0 1920 1536" fill="none" xmlns="http://www.w3.org/2000/svg">
<rect x="1680" y="763.5" width="103.5" height="103.5" fill="url(#paint0_linear_52_2945)" fill-opacity="0.04"/>
<line x1="0.75" x2="0.75" y2="486" stroke="#918EA4" stroke-opacity="0.15" stroke-width="1.5"/>
<line x1="240.75" x2="240.75" y2="486" stroke="#918EA4" stroke-opacity="0.15" stroke-width="1.5"/>
<line x1="480.75" x2="480.75" y2="486" stroke="#918EA4" stroke-opacity="0.15" stroke-width="1.5"/>
<line x1="720.75" x2="720.75" y2="486" stroke="#918EA4" stroke-opacity="0.15" stroke-width="1.5"/>
<line x1="960.75" x2="960.75" y2="486" stroke="#918EA4" stroke-opacity="0.15" stroke-width="1.5"/>
<line x1="1200.75" x2="1200.75" y2="486" stroke="#918EA4" stroke-opacity="0.15" stroke-width="1.5"/>
<line x1="1440.75" x2="1440.75" y2="486" stroke="#918EA4" stroke-opacity="0.15" stroke-width="1.5"/>
<line x1="1680.75" y1="-3.27835e-08" x2="1680.75" y2="486" stroke="#918EA4" stroke-opacity="0.15" stroke-width="1.5"/>
<rect width="103.5" height="103.5" transform="matrix(-1 0 0 1 480 82.5)" fill="url(#paint1_linear_52_2945)" fill-opacity="0.04"/>
<rect width="103.5" height="103.5" transform="matrix(-1 0 0 1 105 276)" fill="url(#paint2_linear_52_2945)" fill-opacity="0.04"/>
<rect x="1440" y="33" width="120" height="120" fill="url(#paint3_linear_52_2945)" fill-opacity="0.04"/>
<rect x="1816.5" y="465" width="103.5" height="103.5" fill="url(#paint4_linear_52_2945)" fill-opacity="0.04"/>
<rect x="1680" y="237" width="103.5" height="103.5" fill="url(#paint5_linear_52_2945)" fill-opacity="0.04"/>
<line x1="0.75" y1="489" x2="0.75" y2="1311" stroke="#918EA4" stroke-opacity="0.15" stroke-width="1.5"/>
<line x1="240.75" y1="489" x2="240.75" y2="1488" stroke="#918EA4" stroke-opacity="0.15" stroke-width="1.5"/>
<line x1="480.75" y1="489" x2="480.75" y2="1435.5" stroke="#918EA4" stroke-opacity="0.15" stroke-width="1.5"/>
<line x1="720.75" y1="486" x2="720.75" y2="1536" stroke="#918EA4" stroke-opacity="0.15" stroke-width="1.5"/>
<line x1="960.75" y1="486" x2="960.75" y2="1435.5" stroke="#918EA4" stroke-opacity="0.15" stroke-width="1.5"/>
<line x1="1200.75" y1="486" x2="1200.75" y2="1536" stroke="#918EA4" stroke-opacity="0.15" stroke-width="1.5"/>
<line x1="1440.75" y1="486" x2="1440.75" y2="1435.5" stroke="#918EA4" stroke-opacity="0.15" stroke-width="1.5"/>
<line x1="1680.75" y1="486" x2="1680.75" y2="1536" stroke="#918EA4" stroke-opacity="0.15" stroke-width="1.5"/>
<rect x="1816.5" y="1213.5" width="103.5" height="103.5" fill="url(#paint6_linear_52_2945)" fill-opacity="0.04"/>
<rect width="118.5" height="118.5" transform="matrix(-1 0 0 1 193.5 714)" fill="url(#paint7_linear_52_2945)" fill-opacity="0.04"/>
<rect width="118.5" height="118.5" transform="matrix(-1 0 0 1 358.5 1369.5)" fill="url(#paint8_linear_52_2945)" fill-opacity="0.04"/>
<rect width="118.5" height="118.5" transform="matrix(-1 0 0 1 601.5 1234.5)" fill="url(#paint9_linear_52_2945)" fill-opacity="0.04"/>
<rect width="103.5" height="103.5" transform="matrix(-1 0 0 1 103.5 1222.5)" fill="url(#paint10_linear_52_2945)" fill-opacity="0.04"/>
<rect x="1576.5" y="1383" width="103.5" height="103.5" fill="url(#paint11_linear_52_2945)" fill-opacity="0.04"/>
<rect x="1336.5" y="1242" width="103.5" height="103.5" fill="url(#paint12_linear_52_2945)" fill-opacity="0.04"/>
<circle opacity="0.7" cx="960" cy="768" r="720" fill="url(#paint13_linear_52_2945)"/>
<rect opacity="0.25" x="433.5" y="241.5" width="1053" height="1053" rx="526.5" fill="url(#paint14_linear_52_2945)"/>
<rect opacity="0.25" x="601.5" y="409.5" width="717" height="717" rx="358.5" fill="url(#paint15_linear_52_2945)"/>
<defs>
<linearGradient id="paint0_linear_52_2945" x1="1798.5" y1="763.5" x2="1731.75" y2="867" gradientUnits="userSpaceOnUse">
<stop stop-color="#010101"/>
<stop offset="1" stop-color="#010101" stop-opacity="0"/>
</linearGradient>
<linearGradient id="paint1_linear_52_2945" x1="118.5" y1="3.63005e-06" x2="51.75" y2="103.5" gradientUnits="userSpaceOnUse">
<stop stop-color="#010101"/>
<stop offset="1" stop-color="#010101" stop-opacity="0"/>
</linearGradient>
<linearGradient id="paint2_linear_52_2945" x1="118.5" y1="3.63005e-06" x2="51.75" y2="103.5" gradientUnits="userSpaceOnUse">
<stop stop-color="#010101"/>
<stop offset="1" stop-color="#010101" stop-opacity="0"/>
</linearGradient>
<linearGradient id="paint3_linear_52_2945" x1="1577.39" y1="33" x2="1500" y2="153" gradientUnits="userSpaceOnUse">
<stop stop-color="#010101"/>
<stop offset="1" stop-color="#010101" stop-opacity="0"/>
</linearGradient>
<linearGradient id="paint4_linear_52_2945" x1="1935" y1="465" x2="1868.25" y2="568.5" gradientUnits="userSpaceOnUse">
<stop stop-color="#010101"/>
<stop offset="1" stop-color="#010101" stop-opacity="0"/>
</linearGradient>
<linearGradient id="paint5_linear_52_2945" x1="1798.5" y1="237" x2="1731.75" y2="340.5" gradientUnits="userSpaceOnUse">
<stop stop-color="#010101"/>
<stop offset="1" stop-color="#010101" stop-opacity="0"/>
</linearGradient>
<linearGradient id="paint6_linear_52_2945" x1="1935" y1="1213.5" x2="1868.25" y2="1317" gradientUnits="userSpaceOnUse">
<stop stop-color="#010101"/>
<stop offset="1" stop-color="#010101" stop-opacity="0"/>
</linearGradient>
<linearGradient id="paint7_linear_52_2945" x1="135.674" y1="4.15615e-06" x2="59.25" y2="118.5" gradientUnits="userSpaceOnUse">
<stop stop-color="#010101"/>
<stop offset="1" stop-color="#010101" stop-opacity="0"/>
</linearGradient>
<linearGradient id="paint8_linear_52_2945" x1="135.674" y1="4.15615e-06" x2="59.25" y2="118.5" gradientUnits="userSpaceOnUse">
<stop stop-color="#010101"/>
<stop offset="1" stop-color="#010101" stop-opacity="0"/>
</linearGradient>
<linearGradient id="paint9_linear_52_2945" x1="135.674" y1="4.15615e-06" x2="59.25" y2="118.5" gradientUnits="userSpaceOnUse">
<stop stop-color="#010101"/>
<stop offset="1" stop-color="#010101" stop-opacity="0"/>
</linearGradient>
<linearGradient id="paint10_linear_52_2945" x1="118.5" y1="3.63005e-06" x2="51.75" y2="103.5" gradientUnits="userSpaceOnUse">
<stop stop-color="#010101"/>
<stop offset="1" stop-color="#010101" stop-opacity="0"/>
</linearGradient>
<linearGradient id="paint11_linear_52_2945" x1="1695" y1="1383" x2="1628.25" y2="1486.5" gradientUnits="userSpaceOnUse">
<stop stop-color="#010101"/>
<stop offset="1" stop-color="#010101" stop-opacity="0"/>
</linearGradient>
<linearGradient id="paint12_linear_52_2945" x1="1455" y1="1242" x2="1388.25" y2="1345.5" gradientUnits="userSpaceOnUse">
<stop stop-color="#010101"/>
<stop offset="1" stop-color="#010101" stop-opacity="0"/>
</linearGradient>
<linearGradient id="paint13_linear_52_2945" x1="960" y1="48" x2="960" y2="768" gradientUnits="userSpaceOnUse">
<stop stop-color="#F6F7F9"/>
<stop offset="1" stop-color="#F6F7F9" stop-opacity="0"/>
</linearGradient>
<linearGradient id="paint14_linear_52_2945" x1="960" y1="241.5" x2="960" y2="768" gradientUnits="userSpaceOnUse">
<stop stop-color="#E0E4EB"/>
<stop offset="1" stop-color="#E0E4EB" stop-opacity="0"/>
</linearGradient>
<linearGradient id="paint15_linear_52_2945" x1="960" y1="409.5" x2="960" y2="768" gradientUnits="userSpaceOnUse">
<stop stop-color="#E0E4EB"/>
<stop offset="1" stop-color="#E0E4EB" stop-opacity="0"/>
</linearGradient>
</defs>
</svg>
