<svg width="41" height="41" viewBox="0 0 41 41" fill="none" xmlns="http://www.w3.org/2000/svg">
<g id="Malaysia (MY)">
<g clip-path="url(#clip0_16_2008)">
<path id="Vector" d="M0.5 0.0595703H40.5V40.0596H0.5V0.0595703Z" fill="#CC0000"/>
<path id="Vector_2" d="M0.53125 3.37988H40.4688V6.58301H0.53125V3.37988ZM0.53125 9.94238H40.4688V13.1455H0.53125V9.94238ZM0.53125 16.5127H40.4688V19.7158H0.53125V16.5127Z" fill="white"/>
<path id="Vector_3" d="M0.5 0.0595703H20.5V23.3955H0.5V0.0595703Z" fill="#000066"/>
<path id="Vector_4" d="M13.9769 6.84082L14.4144 9.8252L16.1019 7.3252L15.1957 10.2002L17.7972 8.68457L15.7347 10.8799L18.7426 10.6455L15.9301 11.7236L18.7426 12.8174L15.7347 12.5752L17.7972 14.7627L15.1879 13.2627L16.0941 16.1299L14.4066 13.6377L13.9691 16.6143L13.5316 13.6455L11.8519 16.1299L12.7504 13.2627L10.1566 14.7783L12.2113 12.583L9.2113 12.8174L12.0238 11.7314L9.2113 10.6455L12.2113 10.8877L10.1566 8.69238L12.7504 10.208L11.8597 7.3252L13.5394 9.8252L13.9769 6.84082ZM11.5394 6.96582C10.7461 6.61317 9.87714 6.46434 9.01163 6.53285C8.14612 6.60137 7.31144 6.88506 6.58344 7.35815C5.85543 7.83123 5.25717 8.47873 4.84301 9.24179C4.42885 10.0049 4.21191 10.8593 4.21191 11.7275C4.21191 12.5958 4.42885 13.4502 4.84301 14.2133C5.25717 14.9764 5.85543 15.6238 6.58344 16.0969C7.31144 16.57 8.14612 16.8537 9.01163 16.9222C9.87714 16.9907 10.7461 16.8419 11.5394 16.4893C10.6638 17.1171 9.63196 17.4914 8.5574 17.5709C7.48284 17.6505 6.40716 17.4321 5.44863 16.94C4.49011 16.4478 3.68585 15.7009 3.12429 14.7813C2.56274 13.8617 2.26563 12.805 2.26562 11.7275C2.26562 10.65 2.56274 9.59341 3.12429 8.67382C3.68585 7.75423 4.49011 7.00728 5.44863 6.51512C6.40716 6.02296 7.48284 5.80463 8.5574 5.88414C9.63196 5.96366 10.6638 6.33793 11.5394 6.96582Z" fill="#FFCC00"/>
<path id="Vector_5" d="M0.53125 23.0752H40.4688V26.2783H0.53125V23.0752ZM0.53125 29.5986H40.4688V32.8018H0.53125V29.5986ZM0.5 36.8564H40.4375V40.0596H0.5V36.8564Z" fill="white"/>
</g>
</g>
<defs>
<clipPath id="clip0_16_2008">
<rect x="0.5" y="0.0595703" width="40" height="40" rx="20" fill="white"/>
</clipPath>
</defs>
</svg>
