<svg width="41" height="41" viewBox="0 0 41 41" fill="none" xmlns="http://www.w3.org/2000/svg">
<g id="Portugal (PT)">
<g clip-path="url(#clip0_16_2033)">
<path id="Vector" d="M16.5 0.0595703H40.5V40.0596H16.4922L16.5 0.0595703Z" fill="#FF0000"/>
<path id="Vector_2" d="M0.5 0.0595703H16.5V40.0596H0.492188L0.5 0.0595703Z" fill="#006600"/>
<g id="Group">
<path id="Vector_3" fill-rule="evenodd" clip-rule="evenodd" d="M23.4531 25.5752C20.7656 25.4971 8.45312 17.8096 8.375 16.583L9.04687 15.4502C10.2656 17.2236 22.8594 24.7002 24.0938 24.4346L23.4531 25.5752Z" fill="#FFFF00" stroke="#171717" stroke-width="0.0875" stroke-linecap="round" stroke-linejoin="round"/>
<path id="Vector_4" fill-rule="evenodd" clip-rule="evenodd" d="M8.90588 15.2939C8.6637 15.9424 12.1168 18.0752 16.2731 20.6064C20.4293 23.1299 24.0074 24.6924 24.2809 24.4736L24.3981 24.2471C24.3512 24.3252 24.2262 24.3486 24.0387 24.2939C22.9137 23.9658 19.984 22.6221 16.359 20.4268C12.734 18.2314 9.57776 16.2002 9.09338 15.3408C9.05346 15.261 9.03464 15.1722 9.0387 15.083H9.02307L8.92151 15.2627L8.90588 15.2939ZM23.5153 25.6064C23.4684 25.6924 23.3824 25.6924 23.2262 25.6846C22.2184 25.5674 19.1637 24.083 15.5699 21.9268C11.3668 19.4111 7.89807 17.1221 8.28088 16.5283L8.38245 16.3408L8.39807 16.3486C8.06213 17.3643 15.2418 21.4658 15.6637 21.7314C19.8121 24.3096 23.3199 25.8096 23.6324 25.4189L23.5153 25.6064Z" fill="#FFFF00" stroke="#171717" stroke-width="0.0875" stroke-linecap="round" stroke-linejoin="round"/>
<path id="Vector_5" fill-rule="evenodd" clip-rule="evenodd" d="M16.5156 17.3252C19.1953 17.3018 22.5156 16.958 24.4219 16.2002L24.0156 15.5283C22.8828 16.1533 19.5547 16.5674 16.4922 16.6221C12.8672 16.5908 10.3125 16.2549 9.03125 15.3955L8.64062 16.1064C11 17.0986 13.4063 17.3174 16.5156 17.3252Z" fill="#FFFF00" stroke="#171717" stroke-width="0.0875" stroke-linecap="round" stroke-linejoin="round"/>
<g id="Vector_6">
<path fill-rule="evenodd" clip-rule="evenodd" d="M24.5391 16.2158C24.4688 16.3174 23.2266 16.7471 21.3906 17.0596C19.7718 17.3024 18.1369 17.4225 16.5 17.4189C14.9326 17.4259 13.3665 17.3268 11.8125 17.1221C9.89844 16.8174 8.89844 16.3955 8.53125 16.2471L8.625 16.0674C9.66393 16.4769 10.7466 16.7652 11.8516 16.9268C13.3927 17.1284 14.9458 17.2249 16.5 17.2158C18.1239 17.2169 19.7456 17.0968 21.3516 16.8564C23.2266 16.5518 24.2578 16.1611 24.3984 15.9814L24.5391 16.2158ZM24.1719 15.5283C23.9687 15.6846 22.9531 16.0518 21.1719 16.333C19.6323 16.554 18.0788 16.6637 16.5234 16.6611C15.0236 16.6725 13.525 16.5759 12.0391 16.3721C10.2187 16.1377 9.25781 15.708 8.91406 15.583L9.01562 15.4033C9.28125 15.5439 10.2187 15.9189 12.0625 16.1846C13.5416 16.3763 15.032 16.4676 16.5234 16.458C18.0658 16.4601 19.6063 16.3505 21.1328 16.1299C22.9297 15.8799 23.8984 15.4268 24.0469 15.3096L24.1719 15.5283ZM7.6875 20.5596C9.34375 21.4502 13.0078 21.9033 16.4844 21.9346C19.6484 21.9346 23.7734 21.4424 25.3125 20.6221L25.2656 19.7314C24.7891 20.4893 20.375 21.2158 16.4531 21.1846C12.5312 21.1533 8.89062 20.5439 7.67969 19.7627V20.5596" fill="#FFFF00"/>
<path d="M7.6875 20.5596C9.34375 21.4502 13.0078 21.9033 16.4844 21.9346C19.6484 21.9346 23.7734 21.4424 25.3125 20.6221L25.2656 19.7314C24.7891 20.4893 20.375 21.2158 16.4531 21.1846C12.5312 21.1533 8.89062 20.5439 7.67969 19.7627V20.5596M24.5391 16.2158C24.4687 16.3174 23.2266 16.7471 21.3906 17.0596C19.7718 17.3024 18.1369 17.4225 16.5 17.4189C14.9326 17.4259 13.3665 17.3268 11.8125 17.1221C9.89844 16.8174 8.89844 16.3955 8.53125 16.2471L8.625 16.0674C9.66393 16.4769 10.7466 16.7652 11.8516 16.9268C13.3927 17.1284 14.9458 17.2249 16.5 17.2158C18.1239 17.2169 19.7456 17.0968 21.3516 16.8564C23.2266 16.5518 24.2578 16.1611 24.3984 15.9814L24.5391 16.2158ZM24.1719 15.5283C23.9687 15.6846 22.9531 16.0518 21.1719 16.333C19.6323 16.554 18.0788 16.6637 16.5234 16.6611C15.0236 16.6725 13.525 16.5759 12.0391 16.3721C10.2187 16.1377 9.25781 15.708 8.91406 15.583L9.01562 15.4033C9.28125 15.5439 10.2187 15.9189 12.0625 16.1846C13.5416 16.3763 15.032 16.4676 16.5234 16.458C18.0658 16.4601 19.6063 16.3505 21.1328 16.1299C22.9297 15.8799 23.8984 15.4268 24.0469 15.3096L24.1719 15.5283Z" stroke="#171717" stroke-width="0.0875" stroke-linecap="round" stroke-linejoin="round"/>
</g>
<g id="Vector_7">
<path fill-rule="evenodd" clip-rule="evenodd" d="M25.3984 20.4346V20.6455C25.1641 20.9268 23.7109 21.3486 21.8906 21.6377C20.0875 21.8996 18.2673 22.025 16.4453 22.0127C14.3047 22.0127 12.6016 21.8564 11.2734 21.6533C9.99912 21.5085 8.7536 21.1741 7.57812 20.6611V20.4111C8.39062 20.9502 10.5703 21.3408 11.3047 21.458C12.6172 21.6611 14.3125 21.8096 16.4453 21.8096C18.6875 21.8096 20.4844 21.6533 21.8594 21.4424C23.1719 21.2549 25.0312 20.7627 25.3984 20.4346ZM25.3984 19.6768V19.8955C25.1641 20.1689 23.7109 20.5908 21.8906 20.8799C20.0875 21.1418 18.2673 21.2671 16.4453 21.2549C14.3047 21.2549 12.6016 21.0986 11.2812 20.9033C10.0039 20.7565 8.75572 20.4195 7.57812 19.9033V19.6533C8.39062 20.1924 10.5703 20.5908 11.3047 20.7002C12.625 20.9033 14.3203 21.0596 16.4453 21.0596C18.6875 21.0596 20.4844 20.9033 21.8594 20.6846C23.1719 20.4971 25.0312 20.0049 25.3984 19.6768ZM16.4766 25.4189C12.6797 25.3955 9.42188 24.3877 8.73438 24.2158L9.23438 24.9971C10.4453 25.5127 13.625 26.2783 16.5156 26.1924C19.4062 26.1064 21.9297 25.8799 23.7031 25.0205L24.2188 24.2002C23.0078 24.7705 18.8828 25.4189 16.4844 25.4189" fill="#FFFF00"/>
<path d="M16.4766 25.4189C12.6797 25.3955 9.42188 24.3877 8.73438 24.2158L9.23438 24.9971C10.4453 25.5127 13.625 26.2783 16.5156 26.1924C19.4063 26.1064 21.9297 25.8799 23.7031 25.0205L24.2188 24.2002C23.0078 24.7705 18.8828 25.4189 16.4844 25.4189M25.3984 20.4346V20.6455C25.1641 20.9268 23.7109 21.3486 21.8906 21.6377C20.0875 21.8996 18.2673 22.025 16.4453 22.0127C14.3047 22.0127 12.6016 21.8564 11.2734 21.6533C9.99912 21.5085 8.7536 21.1741 7.57812 20.6611V20.4111C8.39062 20.9502 10.5703 21.3408 11.3047 21.458C12.6172 21.6611 14.3125 21.8096 16.4453 21.8096C18.6875 21.8096 20.4844 21.6533 21.8594 21.4424C23.1719 21.2549 25.0313 20.7627 25.3984 20.4346ZM25.3984 19.6768V19.8955C25.1641 20.1689 23.7109 20.5908 21.8906 20.8799C20.0875 21.1418 18.2673 21.2671 16.4453 21.2549C14.3047 21.2549 12.6016 21.0986 11.2813 20.9033C10.0039 20.7565 8.75572 20.4195 7.57812 19.9033V19.6533C8.39062 20.1924 10.5703 20.5908 11.3047 20.7002C12.625 20.9033 14.3203 21.0596 16.4453 21.0596C18.6875 21.0596 20.4844 20.9033 21.8594 20.6846C23.1719 20.4971 25.0313 20.0049 25.3984 19.6768Z" stroke="#171717" stroke-width="0.0875" stroke-linecap="round" stroke-linejoin="round"/>
</g>
<path id="Vector_8" fill-rule="evenodd" clip-rule="evenodd" d="M23.8984 24.833C23.8223 24.9489 23.7442 25.0635 23.6641 25.1768C22.7776 25.4708 21.8717 25.7032 20.9531 25.8721C19.479 26.1433 17.9832 26.2793 16.4844 26.2783C13.1172 26.2314 10.3594 25.5752 9.0625 25.0127L8.95312 24.833L8.97656 24.8018L9.14844 24.8721C11.5205 25.6581 14.0012 26.0667 16.5 26.083C18.0625 26.0908 19.625 25.9033 20.8828 25.6846C22.8203 25.2939 23.6016 25.0049 23.8438 24.8721L23.8984 24.833ZM24.3438 24.0986H24.3516C24.295 24.198 24.2377 24.297 24.1797 24.3955C23.7344 24.5518 22.5156 24.9111 20.7422 25.1611C19.5703 25.3174 18.8438 25.4736 16.5234 25.5205C13.8649 25.4918 11.2229 25.0975 8.67187 24.3486L8.57812 24.1533C11.1693 24.8644 13.8373 25.258 16.5234 25.3252C18.6484 25.2783 19.5547 25.1221 20.7109 24.958C22.7813 24.6455 23.8203 24.3018 24.1328 24.2002C24.1304 24.1949 24.1278 24.1897 24.125 24.1846L24.3438 24.0986Z" fill="#FFFF00" stroke="#171717" stroke-width="0.075" stroke-linecap="round" stroke-linejoin="round"/>
<path id="Vector_9" fill-rule="evenodd" clip-rule="evenodd" d="M24.3906 19.8564C24.4062 22.3564 23.125 24.6064 22.0937 25.5986C20.5789 27.0719 18.5582 27.9104 16.4453 27.9424C13.9219 27.9893 11.5469 26.3408 10.9062 25.6221C9.65625 24.208 8.64062 22.4189 8.60938 19.9971C8.76562 17.2627 9.83594 15.3643 11.3906 14.0596C12.895 12.8222 14.7865 12.1529 16.7344 12.1689C18.7188 12.2236 21.0469 13.2002 22.6484 15.1377C23.6953 16.4033 24.1562 17.7783 24.3906 19.8643V19.8564ZM16.4687 11.2939C21.3125 11.2939 25.2969 15.2393 25.2969 20.0674C25.2824 22.3993 24.346 24.6307 22.6919 26.2745C21.0379 27.9183 18.8007 28.8409 16.4687 28.8408C11.625 28.8408 7.67188 24.9033 7.67188 20.0674C7.67188 15.2314 11.625 11.2939 16.4687 11.2939Z" fill="#FFFF00" stroke="#171717" stroke-width="0.0875" stroke-linecap="round" stroke-linejoin="round"/>
<path id="Vector_10" fill-rule="evenodd" clip-rule="evenodd" d="M16.4922 11.2627C21.3359 11.2627 25.2891 15.2236 25.2891 20.0674C25.2891 24.9111 21.3359 28.8721 16.4922 28.8721C14.1576 28.8659 11.9205 27.9352 10.2704 26.2836C8.62033 24.6321 7.69162 22.3942 7.6875 20.0596C7.69369 17.7263 8.62331 15.4904 10.2732 13.8405C11.923 12.1907 14.1589 11.2611 16.4922 11.2549V11.2627ZM7.88281 20.0674C7.88281 24.8018 11.7734 28.6768 16.4922 28.6768C21.2109 28.6768 25.0938 24.8018 25.0938 20.0674C25.0938 15.333 21.2109 11.4658 16.4922 11.4658C14.2127 11.474 12.0288 12.3827 10.4163 13.9938C8.80371 15.6049 7.8931 17.7879 7.88281 20.0674Z" fill="#FFFF00" stroke="#171717" stroke-width="0.0875" stroke-linecap="round" stroke-linejoin="round"/>
<path id="Vector_11" fill-rule="evenodd" clip-rule="evenodd" d="M16.5 11.9971C20.9141 11.9971 24.5547 15.6299 24.5547 20.0596C24.5547 24.4971 20.9141 28.1221 16.5 28.1221C14.3629 28.1159 12.3149 27.2647 10.803 25.7543C9.29109 24.2438 8.43793 22.1967 8.42969 20.0596C8.42969 15.6299 12.0703 11.9971 16.4922 11.9971H16.5ZM8.625 20.0596C8.625 24.3877 12.1797 27.9268 16.5 27.9268C20.8125 27.9268 24.3672 24.3877 24.3672 20.0596C24.3672 15.7314 20.8125 12.1924 16.4922 12.1924C12.1719 12.1924 8.625 15.7314 8.625 20.0596Z" fill="#FFFF00" stroke="#171717" stroke-width="0.0875" stroke-linecap="round" stroke-linejoin="round"/>
<path id="Vector_12" fill-rule="evenodd" clip-rule="evenodd" d="M16.8516 11.2314H16.0938V28.9189H16.8516V11.2314Z" fill="#FFFF00" stroke="#171717" stroke-width="0.0875" stroke-linecap="round" stroke-linejoin="round"/>
<path id="Vector_13" fill-rule="evenodd" clip-rule="evenodd" d="M16.7734 11.1299H16.9688V29.0205H16.7734V11.1299ZM16.0234 11.1299H16.2188V29.0205H16.0234V11.1299Z" fill="#FFFF00" stroke="#171717" stroke-width="0.0875" stroke-linecap="round" stroke-linejoin="round"/>
<path id="Vector_14" fill-rule="evenodd" clip-rule="evenodd" d="M25.2969 20.4111V19.7471L24.7656 19.2549L21.7422 18.4502L17.3828 18.0049L12.1484 18.2705L8.40625 19.1611L7.65625 19.7236V20.3721L9.5625 19.5127L14.0938 18.8096H18.4531L21.6562 19.1611L23.875 19.7002L25.2969 20.4111Z" fill="#FFFF00" stroke="#171717" stroke-width="0.0875" stroke-linecap="round" stroke-linejoin="round"/>
<path id="Vector_15" fill-rule="evenodd" clip-rule="evenodd" d="M16.4922 18.7084C18.4023 18.7006 20.3089 18.8706 22.1875 19.2162C23.8359 19.5443 25 19.9584 25.3906 20.4193V20.6537C24.9219 20.0756 23.3594 19.6537 22.1484 19.4037C20.5625 19.099 18.5547 18.9037 16.4922 18.9037C14.3047 18.9037 12.2734 19.1146 10.7109 19.4193C9.46094 19.6693 7.78906 20.1615 7.57812 20.6537V20.4193C7.69531 20.0756 8.9375 19.5678 10.6875 19.2162C12.6027 18.8687 14.5458 18.6987 16.4922 18.7084ZM16.4922 17.9506C18.4048 17.9432 20.3141 18.1132 22.1953 18.4584C23.8359 18.7865 25.0078 19.2006 25.3984 19.6693V19.8959C24.9219 19.3178 23.3516 18.8959 22.1484 18.6537C20.5625 18.3412 18.5547 18.1459 16.4922 18.1459C14.5585 18.1399 12.6285 18.3125 10.7266 18.6615C9.51562 18.8959 7.77344 19.4115 7.57812 19.8959V19.6615C7.69531 19.3256 8.96875 18.8021 10.6875 18.4662C12.6024 18.1161 14.5455 17.9435 16.4922 17.9506ZM16.4531 14.099C19.7266 14.0834 22.5859 14.5599 23.8906 15.2318L24.3672 16.0521C23.2344 15.4428 20.1484 14.8021 16.4531 14.9037C13.4453 14.9193 10.2344 15.2318 8.61719 16.0912L9.1875 15.1381C10.5156 14.4506 13.6406 14.1068 16.4531 14.099Z" fill="#FFFF00" stroke="#171717" stroke-width="0.0875" stroke-linecap="round" stroke-linejoin="round"/>
<g id="Vector_16">
<path fill-rule="evenodd" clip-rule="evenodd" d="M16.4922 14.778C18.3672 14.778 20.1641 14.8796 21.6016 15.1374C22.9375 15.3874 24.2188 15.7624 24.3984 15.9655L24.5391 16.2155C24.0938 15.9264 22.9922 15.5983 21.5703 15.3327C19.8914 15.0653 18.192 14.9476 16.4922 14.9811C14.3828 14.9811 12.7422 15.0827 11.3359 15.3327C9.85156 15.6061 8.82031 16.0046 8.5625 16.1921L8.70313 15.9343C9.19531 15.6764 9.98438 15.3718 11.3047 15.1374C12.7578 14.8718 14.4062 14.7936 16.4922 14.778ZM16.4922 14.028C18.1422 14.002 19.7914 14.117 21.4219 14.3718C22.5078 14.5827 23.5781 14.9108 23.9766 15.1999L24.1797 15.528C23.8281 15.1374 22.5078 14.7702 21.3359 14.5671C19.9766 14.3327 18.2812 14.2389 16.4922 14.2233C14.6172 14.2233 12.8828 14.3405 11.5391 14.5827C10.2578 14.8327 9.42969 15.1218 9.07813 15.3483L9.25781 15.0671C9.74219 14.8171 10.5234 14.5827 11.5078 14.3874C12.8594 14.1452 14.6094 14.028 16.4922 14.028ZM20.8672 23.7233C19.4227 23.4743 17.9577 23.3644 16.4922 23.3952C11.0312 23.4577 9.27344 24.5124 9.05469 24.8327L8.64844 24.1686C10.0313 23.1608 13 22.5983 16.5156 22.653C18.3359 22.6843 19.9062 22.8092 21.2344 23.0592L20.8594 23.7233" fill="#FFFF00"/>
<path d="M20.8672 23.7233C19.4227 23.4743 17.9577 23.3644 16.4922 23.3952C11.0312 23.4577 9.27344 24.5124 9.05469 24.8327L8.64844 24.1686C10.0313 23.1608 13 22.5983 16.5156 22.653C18.3359 22.6843 19.9062 22.8093 21.2344 23.0593L20.8594 23.7233M16.4922 14.778C18.3672 14.778 20.1641 14.8796 21.6016 15.1374C22.9375 15.3874 24.2187 15.7624 24.3984 15.9655L24.5391 16.2155C24.0938 15.9264 22.9922 15.5983 21.5703 15.3327C19.8914 15.0653 18.192 14.9476 16.4922 14.9811C14.3828 14.9811 12.7422 15.0827 11.3359 15.3327C9.85156 15.6061 8.82031 16.0046 8.5625 16.1921L8.70313 15.9343C9.19531 15.6764 9.98438 15.3718 11.3047 15.1374C12.7578 14.8718 14.4062 14.7936 16.4922 14.778ZM16.4922 14.028C18.1422 14.002 19.7914 14.117 21.4219 14.3718C22.5078 14.5827 23.5781 14.9108 23.9766 15.1999L24.1797 15.528C23.8281 15.1374 22.5078 14.7702 21.3359 14.5671C19.9766 14.3327 18.2812 14.2389 16.4922 14.2233C14.6172 14.2233 12.8828 14.3405 11.5391 14.5827C10.2578 14.8327 9.42969 15.1218 9.07813 15.3483L9.25781 15.0671C9.74219 14.8171 10.5234 14.5827 11.5078 14.3874C12.8594 14.1452 14.6094 14.028 16.4922 14.028Z" stroke="#171717" stroke-width="0.0875" stroke-linecap="round" stroke-linejoin="round"/>
</g>
<path id="Vector_17" fill-rule="evenodd" clip-rule="evenodd" d="M16.4609 23.3018C17.9766 23.3253 19.4687 23.38 20.9141 23.6534L20.8047 23.8409C19.373 23.5937 17.9214 23.4812 16.4687 23.505C14.4531 23.4893 12.4062 23.6768 10.6406 24.1846C10.0781 24.3409 9.15625 24.7003 9.05469 24.9971L8.95312 24.8253C8.98437 24.6534 9.54687 24.2862 10.5937 23.9971C12.625 23.4112 14.5234 23.3175 16.4531 23.294L16.4609 23.3018ZM16.5312 22.5362C18.1314 22.5347 19.7287 22.6732 21.3047 22.9503L21.1953 23.1456C19.6594 22.8646 18.1004 22.7286 16.5391 22.7393C14.5156 22.7393 12.375 22.8878 10.4219 23.4503C9.79687 23.6378 8.70312 24.0284 8.67187 24.3409L8.57031 24.1612C8.59375 23.88 9.53125 23.505 10.3828 23.255C12.3888 22.7303 14.4583 22.4883 16.5312 22.5362Z" fill="#FFFF00" stroke="#171717" stroke-width="0.075" stroke-linecap="round" stroke-linejoin="round"/>
<path id="Vector_18" fill-rule="evenodd" clip-rule="evenodd" d="M24.2812 24.2705L23.625 25.2861L21.7422 23.6143L16.8516 20.333L11.3438 17.3018L8.47656 16.3252L9.08594 15.1924L9.29688 15.083L11.0781 15.5283L16.9375 18.5518L20.3203 20.6846L23.1562 22.7158L24.3125 24.0518L24.2812 24.2705Z" fill="#FFFF00" stroke="#171717" stroke-width="0.0875" stroke-linecap="round" stroke-linejoin="round"/>
<path id="Vector_19" fill-rule="evenodd" clip-rule="evenodd" d="M8.375 16.3486C8.88281 16.0127 12.5703 17.6533 16.4219 19.9814C20.2734 22.3174 23.9531 24.9502 23.625 25.4502L23.5156 25.6143L23.4609 25.6533C23.4766 25.6533 23.5312 25.5752 23.4609 25.3955C23.2891 24.8564 20.6875 22.7783 16.3516 20.1611C12.1328 17.6455 8.61719 16.1299 8.26562 16.5674L8.375 16.3486ZM24.4141 24.2549C24.7266 23.6299 21.3125 21.0518 17.0703 18.5439C12.7344 16.083 9.60156 14.6377 9.03125 15.0674L8.90625 15.3018C8.90625 15.3096 8.90625 15.2861 8.9375 15.2627C9.03906 15.1768 9.21094 15.1846 9.28906 15.1846C10.2734 15.1924 13.0859 16.4814 17.0234 18.7471C18.75 19.7471 24.3203 23.3252 24.2969 24.3252C24.2969 24.4111 24.3047 24.4268 24.2734 24.4736L24.4141 24.2549Z" fill="#FFFF00" stroke="#171717" stroke-width="0.0875" stroke-linecap="round" stroke-linejoin="round"/>
</g>
<g id="Group_2">
<path id="Vector_20" d="M11.2168 21.0333C11.2181 21.7233 11.3563 22.4062 11.6233 23.0424C11.8903 23.6787 12.2809 24.2557 12.7724 24.74C13.2579 25.2329 13.8361 25.625 14.4738 25.8935C15.1115 26.162 15.796 26.3016 16.4879 26.3044C17.8882 26.3043 19.2311 25.7479 20.2213 24.7577C20.711 24.2708 21.0998 23.6918 21.3652 23.0542C21.6306 22.4166 21.7675 21.7328 21.7679 21.0422V14.0022L11.2168 13.9844V21.0333Z" fill="white" stroke="#171717" stroke-width="0.0995558"/>
<g id="Vector_21">
<path d="M11.4121 21.0425C11.414 21.7044 11.5469 22.3594 11.8032 22.9696C12.0595 23.5799 12.4341 24.1333 12.9054 24.5981C13.8518 25.5494 15.1369 26.0864 16.4788 26.0914C17.8183 26.0921 19.1034 25.5615 20.0521 24.6158C20.5218 24.1504 20.8948 23.5966 21.1496 22.9864C21.4043 22.3761 21.5359 21.7215 21.5366 21.0603V14.2158H11.4299V21.0425M19.5188 16.2692V20.6158L19.5099 21.0692C19.5129 21.4663 19.4357 21.8599 19.283 22.2265C19.1302 22.593 18.9051 22.925 18.621 23.2025C18.0557 23.7697 17.2885 24.0894 16.4877 24.0914C15.6521 24.0914 14.9143 23.7358 14.3632 23.1847C13.796 22.6195 13.4763 21.8522 13.4743 21.0514V16.2514L19.5188 16.2692Z" fill="#FF0000"/>
<path d="M11.4121 21.0425C11.414 21.7044 11.5469 22.3594 11.8032 22.9696C12.0595 23.5799 12.4341 24.1333 12.9054 24.5981C13.8518 25.5494 15.1369 26.0864 16.4788 26.0914C17.8183 26.0921 19.1034 25.5615 20.0521 24.6158C20.5218 24.1504 20.8948 23.5966 21.1496 22.9864C21.4043 22.3761 21.5359 21.7215 21.5366 21.0603V14.2158H11.4299V21.0425M19.5188 16.2692V20.6158L19.5099 21.0692C19.5129 21.4663 19.4357 21.8599 19.283 22.2265C19.1302 22.593 18.9051 22.925 18.621 23.2025C18.0557 23.7697 17.2885 24.0894 16.4877 24.0914C15.6521 24.0914 14.9143 23.7358 14.3632 23.1847C13.796 22.6195 13.4763 21.8522 13.4743 21.0514V16.2514L19.5188 16.2692Z" stroke="#171717" stroke-width="0.0711113"/>
</g>
<g id="e">
<g id="d">
<path id="Vector_22" d="M12.0703 16.0019C12.0792 15.513 12.4259 15.3975 12.4259 15.3975C12.4348 15.3975 12.8081 15.5219 12.8081 16.0108H12.0703" fill="#FFFF00"/>
<path id="Vector_23" d="M11.7672 15.4063L11.705 15.9664H12.0783C12.0783 15.5041 12.4339 15.433 12.4339 15.433C12.4428 15.433 12.7894 15.5308 12.7983 15.9664H13.1717L13.1006 15.3975H11.7672V15.4063ZM11.6783 15.9752H13.1894C13.2161 15.9752 13.2428 16.0019 13.2428 16.0375C13.2428 16.0819 13.2161 16.1086 13.1894 16.1086H11.6783C11.6517 16.1086 11.625 16.0819 11.625 16.0375C11.625 16.0019 11.6517 15.9752 11.6872 15.9752H11.6783Z" fill="#FFFF00" stroke="#171717" stroke-width="0.0711113"/>
<g id="Vector_24">
<path d="M12.229 15.9664C12.229 15.6731 12.4335 15.5931 12.4335 15.5931C12.4335 15.5931 12.6379 15.682 12.6379 15.9664H12.229ZM11.7135 15.1664H13.1624C13.189 15.1664 13.2157 15.202 13.2157 15.2375C13.2157 15.2642 13.189 15.2909 13.1624 15.2909H11.7135C11.6868 15.2909 11.6602 15.2642 11.6602 15.2286C11.6602 15.202 11.6868 15.1753 11.7135 15.1753V15.1664ZM11.749 15.2997H13.1179C13.1446 15.2997 13.1713 15.3264 13.1713 15.362C13.1713 15.3975 13.1446 15.4242 13.1179 15.4242H11.7402C11.7046 15.4242 11.6868 15.3975 11.6868 15.362C11.6868 15.3264 11.7046 15.2997 11.7402 15.2997H11.749ZM12.1935 14.3575H12.3002V14.4286H12.3802V14.3575H12.4957V14.4375H12.5757V14.3486H12.6824V14.5264C12.6824 14.562 12.6646 14.5797 12.6379 14.5797H12.2468C12.2202 14.5797 12.1935 14.562 12.1935 14.5353V14.3575ZM12.6024 14.5975L12.629 15.1664H12.2468L12.2735 14.5886H12.6024" fill="#FFFF00"/>
<path d="M12.6024 14.5975L12.629 15.1664H12.2468L12.2735 14.5886H12.6024M12.229 15.9664C12.229 15.6731 12.4335 15.5931 12.4335 15.5931C12.4335 15.5931 12.6379 15.682 12.6379 15.9664H12.229ZM11.7135 15.1664H13.1624C13.189 15.1664 13.2157 15.202 13.2157 15.2375C13.2157 15.2642 13.189 15.2909 13.1624 15.2909H11.7135C11.6868 15.2909 11.6602 15.2642 11.6602 15.2286C11.6602 15.202 11.6868 15.1753 11.7135 15.1753V15.1664ZM11.749 15.2997H13.1179C13.1446 15.2997 13.1713 15.3264 13.1713 15.362C13.1713 15.3975 13.1446 15.4242 13.1179 15.4242H11.7402C11.7046 15.4242 11.6868 15.3975 11.6868 15.362C11.6868 15.3264 11.7046 15.2997 11.7402 15.2997H11.749ZM12.1935 14.3575H12.3002V14.4286H12.3802V14.3575H12.4957V14.4375H12.5757V14.3486H12.6824V14.5264C12.6824 14.562 12.6646 14.5797 12.6379 14.5797H12.2468C12.2202 14.5797 12.1935 14.562 12.1935 14.5353V14.3575Z" stroke="#171717" stroke-width="0.0711113"/>
</g>
<path id="a" d="M12.1407 14.8643V15.1665H11.7852V14.8643H12.1407Z" fill="#FFFF00" stroke="#171717" stroke-width="0.0711113"/>
<path id="Vector_25" d="M12.1407 14.8643V15.1665H11.7852V14.8643H12.1407Z" fill="#FFFF00" stroke="#171717" stroke-width="0.0711113"/>
<path id="b" d="M11.7227 14.6328H11.8293V14.7217H11.9093V14.6328H12.016V14.7217H12.096V14.6328H12.2027V14.8106C12.2027 14.8461 12.1849 14.8639 12.1582 14.8639H11.776C11.7618 14.8639 11.7483 14.8583 11.7383 14.8483C11.7283 14.8383 11.7227 14.8247 11.7227 14.8106V14.6328Z" fill="#FFFF00" stroke="#171717" stroke-width="0.0711113"/>
<path id="Vector_26" d="M11.7227 14.6328H11.8293V14.7217H11.9093V14.6328H12.016V14.7217H12.096V14.6328H12.2027V14.8106C12.2027 14.8461 12.1849 14.8639 12.1582 14.8639H11.776C11.7618 14.8639 11.7483 14.8583 11.7383 14.8483C11.7283 14.8383 11.7227 14.8247 11.7227 14.8106V14.6328Z" fill="#FFFF00" stroke="#171717" stroke-width="0.0711113"/>
<path id="Vector_27" d="M12.3984 14.7754C12.3984 14.722 12.4784 14.722 12.4784 14.7754V14.9176H12.3984V14.7754Z" fill="#171717"/>
<path id="c" d="M11.9277 14.9707C11.9277 14.9173 11.9988 14.9173 11.9988 14.9707V15.0773H11.9277V14.9707Z" fill="#171717"/>
<path id="Vector_28" d="M11.9277 14.9707C11.9277 14.9173 11.9988 14.9173 11.9988 14.9707V15.0773H11.9277V14.9707Z" fill="#171717"/>
</g>
<g id="Group_3">
<path id="Vector_29" d="M12.0703 16.0019C12.0792 15.513 12.4259 15.3975 12.4259 15.3975C12.4348 15.3975 12.8081 15.5219 12.8081 16.0108H12.0703" fill="#FFFF00"/>
<path id="Vector_30" d="M11.7672 15.4063L11.705 15.9664H12.0783C12.0783 15.5041 12.4339 15.433 12.4339 15.433C12.4428 15.433 12.7894 15.5308 12.7983 15.9664H13.1717L13.1006 15.3975H11.7672V15.4063ZM11.6783 15.9752H13.1894C13.2161 15.9752 13.2428 16.0019 13.2428 16.0375C13.2428 16.0819 13.2161 16.1086 13.1894 16.1086H11.6783C11.6517 16.1086 11.625 16.0819 11.625 16.0375C11.625 16.0019 11.6517 15.9752 11.6872 15.9752H11.6783Z" fill="#FFFF00" stroke="#171717" stroke-width="0.0711113"/>
<g id="Vector_31">
<path d="M12.229 15.9664C12.229 15.6731 12.4335 15.5931 12.4335 15.5931C12.4335 15.5931 12.6379 15.682 12.6379 15.9664H12.229ZM11.7135 15.1664H13.1624C13.189 15.1664 13.2157 15.202 13.2157 15.2375C13.2157 15.2642 13.189 15.2909 13.1624 15.2909H11.7135C11.6868 15.2909 11.6602 15.2642 11.6602 15.2286C11.6602 15.202 11.6868 15.1753 11.7135 15.1753V15.1664ZM11.749 15.2997H13.1179C13.1446 15.2997 13.1713 15.3264 13.1713 15.362C13.1713 15.3975 13.1446 15.4242 13.1179 15.4242H11.7402C11.7046 15.4242 11.6868 15.3975 11.6868 15.362C11.6868 15.3264 11.7046 15.2997 11.7402 15.2997H11.749ZM12.1935 14.3575H12.3002V14.4286H12.3802V14.3575H12.4957V14.4375H12.5757V14.3486H12.6824V14.5264C12.6824 14.562 12.6646 14.5797 12.6379 14.5797H12.2468C12.2202 14.5797 12.1935 14.562 12.1935 14.5353V14.3575ZM12.6024 14.5975L12.629 15.1664H12.2468L12.2735 14.5886H12.6024" fill="#FFFF00"/>
<path d="M12.6024 14.5975L12.629 15.1664H12.2468L12.2735 14.5886H12.6024M12.229 15.9664C12.229 15.6731 12.4335 15.5931 12.4335 15.5931C12.4335 15.5931 12.6379 15.682 12.6379 15.9664H12.229ZM11.7135 15.1664H13.1624C13.189 15.1664 13.2157 15.202 13.2157 15.2375C13.2157 15.2642 13.189 15.2909 13.1624 15.2909H11.7135C11.6868 15.2909 11.6602 15.2642 11.6602 15.2286C11.6602 15.202 11.6868 15.1753 11.7135 15.1753V15.1664ZM11.749 15.2997H13.1179C13.1446 15.2997 13.1713 15.3264 13.1713 15.362C13.1713 15.3975 13.1446 15.4242 13.1179 15.4242H11.7402C11.7046 15.4242 11.6868 15.3975 11.6868 15.362C11.6868 15.3264 11.7046 15.2997 11.7402 15.2997H11.749ZM12.1935 14.3575H12.3002V14.4286H12.3802V14.3575H12.4957V14.4375H12.5757V14.3486H12.6824V14.5264C12.6824 14.562 12.6646 14.5797 12.6379 14.5797H12.2468C12.2202 14.5797 12.1935 14.562 12.1935 14.5353V14.3575Z" stroke="#171717" stroke-width="0.0711113"/>
</g>
<path id="a_2" d="M12.1407 14.8643V15.1665H11.7852V14.8643H12.1407Z" fill="#FFFF00" stroke="#171717" stroke-width="0.0711113"/>
<path id="Vector_32" d="M12.1407 14.8643V15.1665H11.7852V14.8643H12.1407Z" fill="#FFFF00" stroke="#171717" stroke-width="0.0711113"/>
<path id="b_2" d="M11.7227 14.6328H11.8293V14.7217H11.9093V14.6328H12.016V14.7217H12.096V14.6328H12.2027V14.8106C12.2027 14.8461 12.1849 14.8639 12.1582 14.8639H11.776C11.7618 14.8639 11.7483 14.8583 11.7383 14.8483C11.7283 14.8383 11.7227 14.8247 11.7227 14.8106V14.6328Z" fill="#FFFF00" stroke="#171717" stroke-width="0.0711113"/>
<path id="Vector_33" d="M11.7227 14.6328H11.8293V14.7217H11.9093V14.6328H12.016V14.7217H12.096V14.6328H12.2027V14.8106C12.2027 14.8461 12.1849 14.8639 12.1582 14.8639H11.776C11.7618 14.8639 11.7483 14.8583 11.7383 14.8483C11.7283 14.8383 11.7227 14.8247 11.7227 14.8106V14.6328Z" fill="#FFFF00" stroke="#171717" stroke-width="0.0711113"/>
<path id="Vector_34" d="M12.3984 14.7754C12.3984 14.722 12.4784 14.722 12.4784 14.7754V14.9176H12.3984V14.7754Z" fill="#171717"/>
<path id="c_2" d="M11.9277 14.9707C11.9277 14.9173 11.9988 14.9173 11.9988 14.9707V15.0773H11.9277V14.9707Z" fill="#171717"/>
<path id="Vector_35" d="M11.9277 14.9707C11.9277 14.9173 11.9988 14.9173 11.9988 14.9707V15.0773H11.9277V14.9707Z" fill="#171717"/>
</g>
<g id="Group_4">
<path id="Vector_36" d="M13.673 24.4074C13.3324 24.0566 13.4947 23.7292 13.4947 23.7292C13.5009 23.7228 13.8523 23.5456 14.1992 23.8901L13.6793 24.4136" fill="#FFFF00"/>
<path id="Vector_37" d="M13.0382 24.2022L13.3917 24.641L13.6547 24.3761C13.3268 24.0504 13.5268 23.748 13.5268 23.748C13.5331 23.7417 13.8468 23.5646 14.1621 23.8652L14.4251 23.6003L13.9714 23.2499L13.0319 24.196L13.0382 24.2022ZM13.3792 24.6662L14.444 23.5939C14.4628 23.575 14.5005 23.5749 14.5257 23.5999C14.5572 23.6312 14.5574 23.6689 14.5386 23.6879L13.4738 24.7601C13.455 24.779 13.4173 24.7792 13.3858 24.7478C13.3605 24.7228 13.3604 24.6851 13.3855 24.6598L13.3792 24.6662Z" fill="#FFFF00" stroke="#171717" stroke-width="0.0711113"/>
<g id="Vector_38">
<path d="M13.7617 24.2685C13.5535 24.0618 13.6408 23.8604 13.6408 23.8604C13.6408 23.8604 13.848 23.7779 14.0498 23.9784L13.7617 24.2685ZM12.8307 24.0706L13.8517 23.0425C13.8705 23.0236 13.9145 23.0297 13.9397 23.0548C13.9586 23.0736 13.9588 23.1113 13.94 23.1302L12.919 24.1583C12.9003 24.1772 12.8625 24.1774 12.8373 24.1523C12.8184 24.1335 12.8183 24.0958 12.8371 24.0769L12.8307 24.0706ZM12.9504 24.1393L13.915 23.168C13.9338 23.1491 13.9715 23.149 13.9967 23.174C14.0219 23.1991 14.0221 23.2368 14.0033 23.2557L13.0324 24.2333C13.0074 24.2586 12.9759 24.2524 12.9507 24.2273C12.9255 24.2023 12.9191 24.1709 12.9441 24.1456L12.9504 24.1393ZM12.595 23.1601L12.6702 23.0844L12.7206 23.1345L12.777 23.0777L12.7265 23.0276L12.808 22.9456L12.8647 23.002L12.9211 22.9452L12.858 22.8826L12.9332 22.8069L13.0593 22.9322C13.0846 22.9572 13.0846 22.9823 13.0659 23.0013L12.7903 23.2788C12.7715 23.2977 12.7401 23.3041 12.7211 23.2853L12.595 23.1601ZM13.0534 23.039L13.4759 23.421L13.2065 23.6922L12.8154 23.2661L13.0471 23.0328" fill="#FFFF00"/>
<path d="M13.0534 23.039L13.4759 23.421L13.2065 23.6922L12.8154 23.2661L13.0471 23.0328M13.7617 24.2685C13.5535 24.0618 13.6408 23.8604 13.6408 23.8604C13.6408 23.8604 13.848 23.7779 14.0498 23.9784L13.7617 24.2685ZM12.8307 24.0706L13.8517 23.0425C13.8705 23.0236 13.9145 23.0297 13.9397 23.0548C13.9586 23.0736 13.9588 23.1113 13.94 23.1302L12.919 24.1583C12.9003 24.1772 12.8625 24.1774 12.8373 24.1523C12.8184 24.1335 12.8183 24.0958 12.8371 24.0769L12.8307 24.0706ZM12.9504 24.1393L13.915 23.168C13.9338 23.1491 13.9715 23.149 13.9967 23.174C14.0219 23.1991 14.0221 23.2368 14.0033 23.2557L13.0324 24.2333C13.0074 24.2586 12.9759 24.2524 12.9507 24.2273C12.9255 24.2023 12.9191 24.1709 12.9441 24.1456L12.9504 24.1393ZM12.595 23.1601L12.6702 23.0844L12.7206 23.1345L12.777 23.0777L12.7265 23.0276L12.808 22.9456L12.8647 23.002L12.9211 22.9452L12.858 22.8826L12.9332 22.8069L13.0593 22.9322C13.0846 22.9572 13.0846 22.9823 13.0659 23.0013L12.7903 23.2788C12.7715 23.2977 12.7401 23.3041 12.7211 23.2853L12.595 23.1601Z" stroke="#171717" stroke-width="0.0711113"/>
</g>
<path id="a_3" d="M12.9166 23.5553L13.131 23.7683L12.8805 24.0206L12.666 23.8076L12.9166 23.5553Z" fill="#FFFF00" stroke="#171717" stroke-width="0.0711113"/>
<path id="Vector_39" d="M12.9166 23.5553L13.131 23.7683L12.8805 24.0206L12.666 23.8076L12.9166 23.5553Z" fill="#FFFF00" stroke="#171717" stroke-width="0.0711113"/>
<path id="b_3" d="M12.459 23.6885L12.5341 23.6128L12.5972 23.6754L12.6536 23.6187L12.5905 23.556L12.6657 23.4803L12.7288 23.543L12.7851 23.4862L12.722 23.4236L12.7972 23.3479L12.9234 23.4732C12.9486 23.4982 12.9487 23.5233 12.9299 23.5423L12.6606 23.8135C12.6506 23.8235 12.637 23.8292 12.6229 23.8292C12.6088 23.8293 12.5952 23.8237 12.5851 23.8137L12.459 23.6885Z" fill="#FFFF00" stroke="#171717" stroke-width="0.0711113"/>
<path id="Vector_40" d="M12.459 23.6885L12.5341 23.6128L12.5972 23.6754L12.6536 23.6187L12.5905 23.556L12.6657 23.4803L12.7288 23.543L12.7851 23.4862L12.722 23.4236L12.7972 23.3479L12.9234 23.4732C12.9486 23.4982 12.9487 23.5233 12.9299 23.5423L12.6606 23.8135C12.6506 23.8235 12.637 23.8292 12.6229 23.8292C12.6088 23.8293 12.5952 23.8237 12.5851 23.8137L12.459 23.6885Z" fill="#FFFF00" stroke="#171717" stroke-width="0.0711113"/>
<path id="Vector_41" d="M13.0342 23.3094C12.9964 23.2719 13.0528 23.2151 13.0906 23.2527L13.1915 23.3529L13.1352 23.4096L13.0342 23.3094Z" fill="#171717"/>
<path id="c_3" d="M12.8428 23.7821C12.805 23.7445 12.8551 23.6941 12.8929 23.7316L12.9686 23.8068L12.9185 23.8573L12.8428 23.7821Z" fill="#171717"/>
<path id="Vector_42" d="M12.8428 23.7821C12.805 23.7445 12.8551 23.6941 12.8929 23.7316L12.9686 23.8068L12.9185 23.8573L12.8428 23.7821Z" fill="#171717"/>
</g>
</g>
<g id="Group_5">
<path id="Vector_43" d="M12.0703 16.0019C12.0792 15.513 12.4259 15.3975 12.4259 15.3975C12.4348 15.3975 12.8081 15.5219 12.8081 16.0108H12.0703" fill="#FFFF00"/>
<path id="Vector_44" d="M11.7672 15.4063L11.705 15.9664H12.0783C12.0783 15.5041 12.4339 15.433 12.4339 15.433C12.4428 15.433 12.7894 15.5308 12.7983 15.9664H13.1717L13.1006 15.3975H11.7672V15.4063ZM11.6783 15.9752H13.1894C13.2161 15.9752 13.2428 16.0019 13.2428 16.0375C13.2428 16.0819 13.2161 16.1086 13.1894 16.1086H11.6783C11.6517 16.1086 11.625 16.0819 11.625 16.0375C11.625 16.0019 11.6517 15.9752 11.6872 15.9752H11.6783Z" fill="#FFFF00" stroke="#171717" stroke-width="0.0711113"/>
<g id="Vector_45">
<path d="M12.229 15.9664C12.229 15.6731 12.4335 15.5931 12.4335 15.5931C12.4335 15.5931 12.6379 15.682 12.6379 15.9664H12.229ZM11.7135 15.1664H13.1624C13.189 15.1664 13.2157 15.202 13.2157 15.2375C13.2157 15.2642 13.189 15.2909 13.1624 15.2909H11.7135C11.6868 15.2909 11.6602 15.2642 11.6602 15.2286C11.6602 15.202 11.6868 15.1753 11.7135 15.1753V15.1664ZM11.749 15.2997H13.1179C13.1446 15.2997 13.1713 15.3264 13.1713 15.362C13.1713 15.3975 13.1446 15.4242 13.1179 15.4242H11.7402C11.7046 15.4242 11.6868 15.3975 11.6868 15.362C11.6868 15.3264 11.7046 15.2997 11.7402 15.2997H11.749ZM12.1935 14.3575H12.3002V14.4286H12.3802V14.3575H12.4957V14.4375H12.5757V14.3486H12.6824V14.5264C12.6824 14.562 12.6646 14.5797 12.6379 14.5797H12.2468C12.2202 14.5797 12.1935 14.562 12.1935 14.5353V14.3575ZM12.6024 14.5975L12.629 15.1664H12.2468L12.2735 14.5886H12.6024" fill="#FFFF00"/>
<path d="M12.6024 14.5975L12.629 15.1664H12.2468L12.2735 14.5886H12.6024M12.229 15.9664C12.229 15.6731 12.4335 15.5931 12.4335 15.5931C12.4335 15.5931 12.6379 15.682 12.6379 15.9664H12.229ZM11.7135 15.1664H13.1624C13.189 15.1664 13.2157 15.202 13.2157 15.2375C13.2157 15.2642 13.189 15.2909 13.1624 15.2909H11.7135C11.6868 15.2909 11.6602 15.2642 11.6602 15.2286C11.6602 15.202 11.6868 15.1753 11.7135 15.1753V15.1664ZM11.749 15.2997H13.1179C13.1446 15.2997 13.1713 15.3264 13.1713 15.362C13.1713 15.3975 13.1446 15.4242 13.1179 15.4242H11.7402C11.7046 15.4242 11.6868 15.3975 11.6868 15.362C11.6868 15.3264 11.7046 15.2997 11.7402 15.2997H11.749ZM12.1935 14.3575H12.3002V14.4286H12.3802V14.3575H12.4957V14.4375H12.5757V14.3486H12.6824V14.5264C12.6824 14.562 12.6646 14.5797 12.6379 14.5797H12.2468C12.2202 14.5797 12.1935 14.562 12.1935 14.5353V14.3575Z" stroke="#171717" stroke-width="0.0711113"/>
</g>
<path id="a_4" d="M12.1407 14.8643V15.1665H11.7852V14.8643H12.1407Z" fill="#FFFF00" stroke="#171717" stroke-width="0.0711113"/>
<path id="Vector_46" d="M12.1407 14.8643V15.1665H11.7852V14.8643H12.1407Z" fill="#FFFF00" stroke="#171717" stroke-width="0.0711113"/>
<path id="b_4" d="M11.7227 14.6328H11.8293V14.7217H11.9093V14.6328H12.016V14.7217H12.096V14.6328H12.2027V14.8106C12.2027 14.8461 12.1849 14.8639 12.1582 14.8639H11.776C11.7618 14.8639 11.7483 14.8583 11.7383 14.8483C11.7283 14.8383 11.7227 14.8247 11.7227 14.8106V14.6328Z" fill="#FFFF00" stroke="#171717" stroke-width="0.0711113"/>
<path id="Vector_47" d="M11.7227 14.6328H11.8293V14.7217H11.9093V14.6328H12.016V14.7217H12.096V14.6328H12.2027V14.8106C12.2027 14.8461 12.1849 14.8639 12.1582 14.8639H11.776C11.7618 14.8639 11.7483 14.8583 11.7383 14.8483C11.7283 14.8383 11.7227 14.8247 11.7227 14.8106V14.6328Z" fill="#FFFF00" stroke="#171717" stroke-width="0.0711113"/>
<path id="Vector_48" d="M12.3984 14.7754C12.3984 14.722 12.4784 14.722 12.4784 14.7754V14.9176H12.3984V14.7754Z" fill="#171717"/>
<path id="c_4" d="M11.9277 14.9707C11.9277 14.9173 11.9988 14.9173 11.9988 14.9707V15.0773H11.9277V14.9707Z" fill="#171717"/>
<path id="Vector_49" d="M11.9277 14.9707C11.9277 14.9173 11.9988 14.9173 11.9988 14.9707V15.0773H11.9277V14.9707Z" fill="#171717"/>
</g>
<g id="Group_6">
<g id="d_2">
<path id="Vector_50" d="M20.9043 16.0019C20.8954 15.513 20.5487 15.3975 20.5487 15.3975C20.5399 15.3975 20.1665 15.5219 20.1665 16.0108H20.9043" fill="#FFFF00"/>
<path id="Vector_51" d="M21.2074 15.4063L21.2696 15.9664H20.8963C20.8963 15.5041 20.5407 15.433 20.5407 15.433C20.5318 15.433 20.1852 15.5308 20.1763 15.9664H19.8029L19.8741 15.3975H21.2074V15.4063ZM21.2963 15.9752H19.7852C19.7585 15.9752 19.7318 16.0019 19.7318 16.0375C19.7318 16.0819 19.7585 16.1086 19.7852 16.1086H21.2963C21.3229 16.1086 21.3496 16.0819 21.3496 16.0375C21.3496 16.0019 21.3229 15.9752 21.2874 15.9752H21.2963Z" fill="#FFFF00" stroke="#171717" stroke-width="0.0711113"/>
<g id="Vector_52">
<path d="M20.7456 15.9664C20.7456 15.6731 20.5411 15.5931 20.5411 15.5931C20.5411 15.5931 20.3367 15.682 20.3367 15.9664H20.7456ZM21.2611 15.1664H19.8122C19.7856 15.1664 19.7589 15.202 19.7589 15.2375C19.7589 15.2642 19.7856 15.2909 19.8122 15.2909H21.2611C21.2878 15.2909 21.3145 15.2642 21.3145 15.2286C21.3145 15.202 21.2878 15.1753 21.2611 15.1753V15.1664ZM21.2256 15.2997H19.8567C19.83 15.2997 19.8033 15.3264 19.8033 15.362C19.8033 15.3975 19.83 15.4242 19.8567 15.4242H21.2345C21.27 15.4242 21.2878 15.3975 21.2878 15.362C21.2878 15.3264 21.27 15.2997 21.2345 15.2997H21.2256ZM20.7811 14.3575H20.6745V14.4286H20.5945V14.3575H20.4789V14.4375H20.3989V14.3486H20.2922V14.5264C20.2922 14.562 20.31 14.5797 20.3367 14.5797H20.7278C20.7545 14.5797 20.7811 14.562 20.7811 14.5353V14.3575ZM20.3722 14.5975L20.3456 15.1664H20.7278L20.7011 14.5886H20.3722" fill="#FFFF00"/>
<path d="M20.3722 14.5975L20.3456 15.1664H20.7278L20.7011 14.5886H20.3722M20.7456 15.9664C20.7456 15.6731 20.5411 15.5931 20.5411 15.5931C20.5411 15.5931 20.3367 15.682 20.3367 15.9664H20.7456ZM21.2611 15.1664H19.8122C19.7856 15.1664 19.7589 15.202 19.7589 15.2375C19.7589 15.2642 19.7856 15.2909 19.8122 15.2909H21.2611C21.2878 15.2909 21.3145 15.2642 21.3145 15.2286C21.3145 15.202 21.2878 15.1753 21.2611 15.1753V15.1664ZM21.2256 15.2997H19.8567C19.83 15.2997 19.8033 15.3264 19.8033 15.362C19.8033 15.3975 19.83 15.4242 19.8567 15.4242H21.2345C21.27 15.4242 21.2878 15.3975 21.2878 15.362C21.2878 15.3264 21.27 15.2997 21.2345 15.2997H21.2256ZM20.7811 14.3575H20.6745V14.4286H20.5945V14.3575H20.4789V14.4375H20.3989V14.3486H20.2922V14.5264C20.2922 14.562 20.31 14.5797 20.3367 14.5797H20.7278C20.7545 14.5797 20.7811 14.562 20.7811 14.5353V14.3575Z" stroke="#171717" stroke-width="0.0711113"/>
</g>
<path id="a_5" d="M20.8339 14.8643V15.1665H21.1895V14.8643H20.8339Z" fill="#FFFF00" stroke="#171717" stroke-width="0.0711113"/>
<path id="Vector_53" d="M20.8339 14.8643V15.1665H21.1895V14.8643H20.8339Z" fill="#FFFF00" stroke="#171717" stroke-width="0.0711113"/>
<path id="b_5" d="M21.252 14.6328H21.1453V14.7217H21.0653V14.6328H20.9586V14.7217H20.8786V14.6328H20.772V14.8106C20.772 14.8461 20.7897 14.8639 20.8164 14.8639H21.1986C21.2128 14.8639 21.2263 14.8583 21.2363 14.8483C21.2463 14.8383 21.252 14.8247 21.252 14.8106V14.6328Z" fill="#FFFF00" stroke="#171717" stroke-width="0.0711113"/>
<path id="Vector_54" d="M21.252 14.6328H21.1453V14.7217H21.0653V14.6328H20.9586V14.7217H20.8786V14.6328H20.772V14.8106C20.772 14.8461 20.7897 14.8639 20.8164 14.8639H21.1986C21.2128 14.8639 21.2263 14.8583 21.2363 14.8483C21.2463 14.8383 21.252 14.8247 21.252 14.8106V14.6328Z" fill="#FFFF00" stroke="#171717" stroke-width="0.0711113"/>
<path id="Vector_55" d="M20.5762 14.7754C20.5762 14.722 20.4962 14.722 20.4962 14.7754V14.9176H20.5762V14.7754Z" fill="#171717"/>
<path id="c_5" d="M21.0469 14.9707C21.0469 14.9173 20.9758 14.9173 20.9758 14.9707V15.0773H21.0469V14.9707Z" fill="#171717"/>
<path id="Vector_56" d="M21.0469 14.9707C21.0469 14.9173 20.9758 14.9173 20.9758 14.9707V15.0773H21.0469V14.9707Z" fill="#171717"/>
</g>
<g id="Group_7">
<path id="Vector_57" d="M20.9043 16.0019C20.8954 15.513 20.5487 15.3975 20.5487 15.3975C20.5399 15.3975 20.1665 15.5219 20.1665 16.0108H20.9043" fill="#FFFF00"/>
<path id="Vector_58" d="M21.2074 15.4063L21.2696 15.9664H20.8963C20.8963 15.5041 20.5407 15.433 20.5407 15.433C20.5318 15.433 20.1852 15.5308 20.1763 15.9664H19.8029L19.8741 15.3975H21.2074V15.4063ZM21.2963 15.9752H19.7852C19.7585 15.9752 19.7318 16.0019 19.7318 16.0375C19.7318 16.0819 19.7585 16.1086 19.7852 16.1086H21.2963C21.3229 16.1086 21.3496 16.0819 21.3496 16.0375C21.3496 16.0019 21.3229 15.9752 21.2874 15.9752H21.2963Z" fill="#FFFF00" stroke="#171717" stroke-width="0.0711113"/>
<g id="Vector_59">
<path d="M20.7456 15.9664C20.7456 15.6731 20.5411 15.5931 20.5411 15.5931C20.5411 15.5931 20.3367 15.682 20.3367 15.9664H20.7456ZM21.2611 15.1664H19.8122C19.7856 15.1664 19.7589 15.202 19.7589 15.2375C19.7589 15.2642 19.7856 15.2909 19.8122 15.2909H21.2611C21.2878 15.2909 21.3145 15.2642 21.3145 15.2286C21.3145 15.202 21.2878 15.1753 21.2611 15.1753V15.1664ZM21.2256 15.2997H19.8567C19.83 15.2997 19.8033 15.3264 19.8033 15.362C19.8033 15.3975 19.83 15.4242 19.8567 15.4242H21.2345C21.27 15.4242 21.2878 15.3975 21.2878 15.362C21.2878 15.3264 21.27 15.2997 21.2345 15.2997H21.2256ZM20.7811 14.3575H20.6745V14.4286H20.5945V14.3575H20.4789V14.4375H20.3989V14.3486H20.2922V14.5264C20.2922 14.562 20.31 14.5797 20.3367 14.5797H20.7278C20.7545 14.5797 20.7811 14.562 20.7811 14.5353V14.3575ZM20.3722 14.5975L20.3456 15.1664H20.7278L20.7011 14.5886H20.3722" fill="#FFFF00"/>
<path d="M20.3722 14.5975L20.3456 15.1664H20.7278L20.7011 14.5886H20.3722M20.7456 15.9664C20.7456 15.6731 20.5411 15.5931 20.5411 15.5931C20.5411 15.5931 20.3367 15.682 20.3367 15.9664H20.7456ZM21.2611 15.1664H19.8122C19.7856 15.1664 19.7589 15.202 19.7589 15.2375C19.7589 15.2642 19.7856 15.2909 19.8122 15.2909H21.2611C21.2878 15.2909 21.3145 15.2642 21.3145 15.2286C21.3145 15.202 21.2878 15.1753 21.2611 15.1753V15.1664ZM21.2256 15.2997H19.8567C19.83 15.2997 19.8033 15.3264 19.8033 15.362C19.8033 15.3975 19.83 15.4242 19.8567 15.4242H21.2345C21.27 15.4242 21.2878 15.3975 21.2878 15.362C21.2878 15.3264 21.27 15.2997 21.2345 15.2997H21.2256ZM20.7811 14.3575H20.6745V14.4286H20.5945V14.3575H20.4789V14.4375H20.3989V14.3486H20.2922V14.5264C20.2922 14.562 20.31 14.5797 20.3367 14.5797H20.7278C20.7545 14.5797 20.7811 14.562 20.7811 14.5353V14.3575Z" stroke="#171717" stroke-width="0.0711113"/>
</g>
<path id="a_6" d="M20.8339 14.8643V15.1665H21.1895V14.8643H20.8339Z" fill="#FFFF00" stroke="#171717" stroke-width="0.0711113"/>
<path id="Vector_60" d="M20.8339 14.8643V15.1665H21.1895V14.8643H20.8339Z" fill="#FFFF00" stroke="#171717" stroke-width="0.0711113"/>
<path id="b_6" d="M21.252 14.6328H21.1453V14.7217H21.0653V14.6328H20.9586V14.7217H20.8786V14.6328H20.772V14.8106C20.772 14.8461 20.7897 14.8639 20.8164 14.8639H21.1986C21.2128 14.8639 21.2263 14.8583 21.2363 14.8483C21.2463 14.8383 21.252 14.8247 21.252 14.8106V14.6328Z" fill="#FFFF00" stroke="#171717" stroke-width="0.0711113"/>
<path id="Vector_61" d="M21.252 14.6328H21.1453V14.7217H21.0653V14.6328H20.9586V14.7217H20.8786V14.6328H20.772V14.8106C20.772 14.8461 20.7897 14.8639 20.8164 14.8639H21.1986C21.2128 14.8639 21.2263 14.8583 21.2363 14.8483C21.2463 14.8383 21.252 14.8247 21.252 14.8106V14.6328Z" fill="#FFFF00" stroke="#171717" stroke-width="0.0711113"/>
<path id="Vector_62" d="M20.5762 14.7754C20.5762 14.722 20.4962 14.722 20.4962 14.7754V14.9176H20.5762V14.7754Z" fill="#171717"/>
<path id="c_6" d="M21.0469 14.9707C21.0469 14.9173 20.9758 14.9173 20.9758 14.9707V15.0773H21.0469V14.9707Z" fill="#171717"/>
<path id="Vector_63" d="M21.0469 14.9707C21.0469 14.9173 20.9758 14.9173 20.9758 14.9707V15.0773H21.0469V14.9707Z" fill="#171717"/>
</g>
<g id="Group_8">
<path id="Vector_64" d="M19.3016 24.4074C19.6422 24.0566 19.4799 23.7292 19.4799 23.7292C19.4737 23.7228 19.1223 23.5456 18.7754 23.8901L19.2953 24.4136" fill="#FFFF00"/>
<path id="Vector_65" d="M19.9364 24.2022L19.5829 24.641L19.3199 24.3761C19.6478 24.0504 19.4478 23.748 19.4478 23.748C19.4415 23.7417 19.1279 23.5646 18.8125 23.8652L18.5495 23.6003L19.0032 23.2499L19.9428 24.196L19.9364 24.2022ZM19.5954 24.6662L18.5306 23.5939C18.5118 23.575 18.4741 23.5749 18.4489 23.5999C18.4174 23.6312 18.4172 23.6689 18.436 23.6879L19.5008 24.7601C19.5196 24.779 19.5573 24.7792 19.5888 24.7478C19.6141 24.7228 19.6142 24.6851 19.5891 24.6598L19.5954 24.6662Z" fill="#FFFF00" stroke="#171717" stroke-width="0.0711113"/>
<g id="Vector_66">
<path d="M19.2129 24.2685C19.4211 24.0618 19.3338 23.8604 19.3338 23.8604C19.3338 23.8604 19.1266 23.7779 18.9248 23.9784L19.2129 24.2685ZM20.1439 24.0706L19.1229 23.0425C19.1041 23.0236 19.0601 23.0297 19.0349 23.0548C19.016 23.0736 19.0158 23.1113 19.0346 23.1302L20.0556 24.1583C20.0744 24.1772 20.1121 24.1774 20.1373 24.1523C20.1562 24.1335 20.1563 24.0958 20.1376 24.0769L20.1439 24.0706ZM20.0242 24.1393L19.0596 23.168C19.0408 23.1491 19.0031 23.149 18.9779 23.174C18.9527 23.1991 18.9525 23.2368 18.9713 23.2557L19.9422 24.2333C19.9672 24.2586 19.9987 24.2524 20.0239 24.2273C20.0491 24.2023 20.0555 24.1709 20.0305 24.1456L20.0242 24.1393ZM20.3796 23.1601L20.3044 23.0844L20.254 23.1345L20.1976 23.0777L20.2481 23.0276L20.1667 22.9456L20.1099 23.002L20.0535 22.9452L20.1166 22.8826L20.0414 22.8069L19.9153 22.9322C19.89 22.9572 19.89 22.9823 19.9088 23.0013L20.1843 23.2788C20.2031 23.2977 20.2345 23.3041 20.2535 23.2853L20.3796 23.1601ZM19.9212 23.039L19.4987 23.421L19.7681 23.6922L20.1592 23.2661L19.9275 23.0328" fill="#FFFF00"/>
<path d="M19.9212 23.039L19.4987 23.421L19.7681 23.6922L20.1592 23.2661L19.9275 23.0328M19.2129 24.2685C19.4211 24.0618 19.3338 23.8604 19.3338 23.8604C19.3338 23.8604 19.1266 23.7779 18.9248 23.9784L19.2129 24.2685ZM20.1439 24.0706L19.1229 23.0425C19.1041 23.0236 19.0601 23.0297 19.0349 23.0548C19.016 23.0736 19.0158 23.1113 19.0346 23.1302L20.0556 24.1583C20.0744 24.1772 20.1121 24.1774 20.1373 24.1523C20.1562 24.1335 20.1563 24.0958 20.1376 24.0769L20.1439 24.0706ZM20.0242 24.1393L19.0596 23.168C19.0408 23.1491 19.0031 23.149 18.9779 23.174C18.9527 23.1991 18.9525 23.2368 18.9713 23.2557L19.9422 24.2333C19.9672 24.2586 19.9987 24.2524 20.0239 24.2273C20.0491 24.2023 20.0555 24.1709 20.0305 24.1456L20.0242 24.1393ZM20.3796 23.1601L20.3044 23.0844L20.254 23.1345L20.1976 23.0777L20.2481 23.0276L20.1667 22.9456L20.1099 23.002L20.0535 22.9452L20.1166 22.8826L20.0414 22.8069L19.9153 22.9322C19.89 22.9572 19.89 22.9823 19.9088 23.0013L20.1843 23.2788C20.2031 23.2977 20.2345 23.3041 20.2535 23.2853L20.3796 23.1601Z" stroke="#171717" stroke-width="0.0711113"/>
</g>
<path id="a_7" d="M20.0581 23.5553L19.8436 23.7683L20.0941 24.0206L20.3086 23.8076L20.0581 23.5553Z" fill="#FFFF00" stroke="#171717" stroke-width="0.0711113"/>
<path id="Vector_67" d="M20.0581 23.5553L19.8436 23.7683L20.0941 24.0206L20.3086 23.8076L20.0581 23.5553Z" fill="#FFFF00" stroke="#171717" stroke-width="0.0711113"/>
<path id="b_7" d="M20.5156 23.6885L20.4405 23.6128L20.3774 23.6754L20.321 23.6187L20.3841 23.556L20.3089 23.4803L20.2459 23.543L20.1895 23.4862L20.2526 23.4236L20.1774 23.3479L20.0513 23.4732C20.026 23.4982 20.0259 23.5233 20.0447 23.5423L20.3141 23.8135C20.324 23.8235 20.3376 23.8292 20.3517 23.8292C20.3659 23.8293 20.3794 23.8237 20.3895 23.8137L20.5156 23.6885Z" fill="#FFFF00" stroke="#171717" stroke-width="0.0711113"/>
<path id="Vector_68" d="M20.5156 23.6885L20.4405 23.6128L20.3774 23.6754L20.321 23.6187L20.3841 23.556L20.3089 23.4803L20.2459 23.543L20.1895 23.4862L20.2526 23.4236L20.1774 23.3479L20.0513 23.4732C20.026 23.4982 20.0259 23.5233 20.0447 23.5423L20.3141 23.8135C20.324 23.8235 20.3376 23.8292 20.3517 23.8292C20.3659 23.8293 20.3794 23.8237 20.3895 23.8137L20.5156 23.6885Z" fill="#FFFF00" stroke="#171717" stroke-width="0.0711113"/>
<path id="Vector_69" d="M19.9404 23.3094C19.9782 23.2719 19.9218 23.2151 19.884 23.2527L19.7831 23.3529L19.8395 23.4096L19.9404 23.3094Z" fill="#171717"/>
<path id="c_7" d="M20.1318 23.7821C20.1696 23.7445 20.1195 23.6941 20.0817 23.7316L20.006 23.8068L20.0561 23.8573L20.1318 23.7821Z" fill="#171717"/>
<path id="Vector_70" d="M20.1318 23.7821C20.1696 23.7445 20.1195 23.6941 20.0817 23.7316L20.006 23.8068L20.0561 23.8573L20.1318 23.7821Z" fill="#171717"/>
</g>
</g>
<g id="f">
<path id="Vector_71" d="M15.8399 20.2686C15.8383 20.4562 15.9082 20.6374 16.0354 20.7753C16.0948 20.8416 16.1674 20.8949 16.2485 20.9316C16.3296 20.9684 16.4175 20.9878 16.5065 20.9886C16.6932 20.9886 16.8621 20.8997 16.9776 20.7753C17.1049 20.6374 17.1748 20.4562 17.1732 20.2686V19.3086H15.8399V20.2686Z" fill="#003399"/>
<path id="Vector_72" d="M16.1509 19.8067C16.2245 19.8067 16.2842 19.747 16.2842 19.6734C16.2842 19.5997 16.2245 19.54 16.1509 19.54C16.0773 19.54 16.0176 19.5997 16.0176 19.6734C16.0176 19.747 16.0773 19.8067 16.1509 19.8067Z" fill="white"/>
<path id="Vector_73" d="M16.8892 19.8057C16.9628 19.8057 17.0225 19.746 17.0225 19.6724C17.0225 19.5988 16.9628 19.5391 16.8892 19.5391C16.8156 19.5391 16.7559 19.5988 16.7559 19.6724C16.7559 19.746 16.8156 19.8057 16.8892 19.8057Z" fill="white"/>
<path id="Vector_74" d="M16.5161 20.1612C16.5898 20.1612 16.6495 20.1015 16.6495 20.0279C16.6495 19.9542 16.5898 19.8945 16.5161 19.8945C16.4425 19.8945 16.3828 19.9542 16.3828 20.0279C16.3828 20.1015 16.4425 20.1612 16.5161 20.1612Z" fill="white"/>
<path id="Vector_75" d="M16.1509 20.5352C16.2245 20.5352 16.2842 20.4755 16.2842 20.4019C16.2842 20.3283 16.2245 20.2686 16.1509 20.2686C16.0773 20.2686 16.0176 20.3283 16.0176 20.4019C16.0176 20.4755 16.0773 20.5352 16.1509 20.5352Z" fill="white"/>
<path id="Vector_76" d="M16.8892 20.5352C16.9628 20.5352 17.0225 20.4755 17.0225 20.4019C17.0225 20.3283 16.9628 20.2686 16.8892 20.2686C16.8156 20.2686 16.7559 20.3283 16.7559 20.4019C16.7559 20.4755 16.8156 20.5352 16.8892 20.5352Z" fill="white"/>
</g>
<g id="Group_9">
<path id="Vector_77" d="M15.8399 20.2686C15.8383 20.4562 15.9082 20.6374 16.0354 20.7753C16.0948 20.8416 16.1674 20.8949 16.2485 20.9316C16.3296 20.9684 16.4175 20.9878 16.5065 20.9886C16.6932 20.9886 16.8621 20.8997 16.9776 20.7753C17.1049 20.6374 17.1748 20.4562 17.1732 20.2686V19.3086H15.8399V20.2686Z" fill="#003399"/>
<path id="Vector_78" d="M16.1509 19.8067C16.2245 19.8067 16.2842 19.747 16.2842 19.6734C16.2842 19.5997 16.2245 19.54 16.1509 19.54C16.0773 19.54 16.0176 19.5997 16.0176 19.6734C16.0176 19.747 16.0773 19.8067 16.1509 19.8067Z" fill="white"/>
<path id="Vector_79" d="M16.8892 19.8057C16.9628 19.8057 17.0225 19.746 17.0225 19.6724C17.0225 19.5988 16.9628 19.5391 16.8892 19.5391C16.8156 19.5391 16.7559 19.5988 16.7559 19.6724C16.7559 19.746 16.8156 19.8057 16.8892 19.8057Z" fill="white"/>
<path id="Vector_80" d="M16.5161 20.1612C16.5898 20.1612 16.6495 20.1015 16.6495 20.0279C16.6495 19.9542 16.5898 19.8945 16.5161 19.8945C16.4425 19.8945 16.3828 19.9542 16.3828 20.0279C16.3828 20.1015 16.4425 20.1612 16.5161 20.1612Z" fill="white"/>
<path id="Vector_81" d="M16.1509 20.5352C16.2245 20.5352 16.2842 20.4755 16.2842 20.4019C16.2842 20.3283 16.2245 20.2686 16.1509 20.2686C16.0773 20.2686 16.0176 20.3283 16.0176 20.4019C16.0176 20.4755 16.0773 20.5352 16.1509 20.5352Z" fill="white"/>
<path id="Vector_82" d="M16.8892 20.5352C16.9628 20.5352 17.0225 20.4755 17.0225 20.4019C17.0225 20.3283 16.9628 20.2686 16.8892 20.2686C16.8156 20.2686 16.7559 20.3283 16.7559 20.4019C16.7559 20.4755 16.8156 20.5352 16.8892 20.5352Z" fill="white"/>
</g>
<g id="Group_10">
<path id="Vector_83" d="M15.8399 20.2686C15.8383 20.4562 15.9082 20.6374 16.0354 20.7753C16.0948 20.8416 16.1674 20.8949 16.2485 20.9316C16.3296 20.9684 16.4175 20.9878 16.5065 20.9886C16.6932 20.9886 16.8621 20.8997 16.9776 20.7753C17.1049 20.6374 17.1748 20.4562 17.1732 20.2686V19.3086H15.8399V20.2686Z" fill="#003399"/>
<path id="Vector_84" d="M16.1509 19.8067C16.2245 19.8067 16.2842 19.747 16.2842 19.6734C16.2842 19.5997 16.2245 19.54 16.1509 19.54C16.0773 19.54 16.0176 19.5997 16.0176 19.6734C16.0176 19.747 16.0773 19.8067 16.1509 19.8067Z" fill="white"/>
<path id="Vector_85" d="M16.8892 19.8057C16.9628 19.8057 17.0225 19.746 17.0225 19.6724C17.0225 19.5988 16.9628 19.5391 16.8892 19.5391C16.8156 19.5391 16.7559 19.5988 16.7559 19.6724C16.7559 19.746 16.8156 19.8057 16.8892 19.8057Z" fill="white"/>
<path id="Vector_86" d="M16.5161 20.1612C16.5898 20.1612 16.6495 20.1015 16.6495 20.0279C16.6495 19.9542 16.5898 19.8945 16.5161 19.8945C16.4425 19.8945 16.3828 19.9542 16.3828 20.0279C16.3828 20.1015 16.4425 20.1612 16.5161 20.1612Z" fill="white"/>
<path id="Vector_87" d="M16.1509 20.5352C16.2245 20.5352 16.2842 20.4755 16.2842 20.4019C16.2842 20.3283 16.2245 20.2686 16.1509 20.2686C16.0773 20.2686 16.0176 20.3283 16.0176 20.4019C16.0176 20.4755 16.0773 20.5352 16.1509 20.5352Z" fill="white"/>
<path id="Vector_88" d="M16.8892 20.5352C16.9628 20.5352 17.0225 20.4755 17.0225 20.4019C17.0225 20.3283 16.9628 20.2686 16.8892 20.2686C16.8156 20.2686 16.7559 20.3283 16.7559 20.4019C16.7559 20.4755 16.8156 20.5352 16.8892 20.5352Z" fill="white"/>
</g>
<g id="Group_11">
<path id="Vector_89" d="M15.8399 20.2686C15.8383 20.4562 15.9082 20.6374 16.0354 20.7753C16.0948 20.8416 16.1674 20.8949 16.2485 20.9316C16.3296 20.9684 16.4175 20.9878 16.5065 20.9886C16.6932 20.9886 16.8621 20.8997 16.9776 20.7753C17.1049 20.6374 17.1748 20.4562 17.1732 20.2686V19.3086H15.8399V20.2686Z" fill="#003399"/>
<path id="Vector_90" d="M16.1509 19.8067C16.2245 19.8067 16.2842 19.747 16.2842 19.6734C16.2842 19.5997 16.2245 19.54 16.1509 19.54C16.0773 19.54 16.0176 19.5997 16.0176 19.6734C16.0176 19.747 16.0773 19.8067 16.1509 19.8067Z" fill="white"/>
<path id="Vector_91" d="M16.8892 19.8057C16.9628 19.8057 17.0225 19.746 17.0225 19.6724C17.0225 19.5988 16.9628 19.5391 16.8892 19.5391C16.8156 19.5391 16.7559 19.5988 16.7559 19.6724C16.7559 19.746 16.8156 19.8057 16.8892 19.8057Z" fill="white"/>
<path id="Vector_92" d="M16.5161 20.1612C16.5898 20.1612 16.6495 20.1015 16.6495 20.0279C16.6495 19.9542 16.5898 19.8945 16.5161 19.8945C16.4425 19.8945 16.3828 19.9542 16.3828 20.0279C16.3828 20.1015 16.4425 20.1612 16.5161 20.1612Z" fill="white"/>
<path id="Vector_93" d="M16.1509 20.5352C16.2245 20.5352 16.2842 20.4755 16.2842 20.4019C16.2842 20.3283 16.2245 20.2686 16.1509 20.2686C16.0773 20.2686 16.0176 20.3283 16.0176 20.4019C16.0176 20.4755 16.0773 20.5352 16.1509 20.5352Z" fill="white"/>
<path id="Vector_94" d="M16.8892 20.5352C16.9628 20.5352 17.0225 20.4755 17.0225 20.4019C17.0225 20.3283 16.9628 20.2686 16.8892 20.2686C16.8156 20.2686 16.7559 20.3283 16.7559 20.4019C16.7559 20.4755 16.8156 20.5352 16.8892 20.5352Z" fill="white"/>
</g>
<g id="Group_12">
<path id="Vector_95" d="M15.8399 20.2686C15.8383 20.4562 15.9082 20.6374 16.0354 20.7753C16.0948 20.8416 16.1674 20.8949 16.2485 20.9316C16.3296 20.9684 16.4175 20.9878 16.5065 20.9886C16.6932 20.9886 16.8621 20.8997 16.9776 20.7753C17.1049 20.6374 17.1748 20.4562 17.1732 20.2686V19.3086H15.8399V20.2686Z" fill="#003399"/>
<path id="Vector_96" d="M16.1509 19.8067C16.2245 19.8067 16.2842 19.747 16.2842 19.6734C16.2842 19.5997 16.2245 19.54 16.1509 19.54C16.0773 19.54 16.0176 19.5997 16.0176 19.6734C16.0176 19.747 16.0773 19.8067 16.1509 19.8067Z" fill="white"/>
<path id="Vector_97" d="M16.8892 19.8057C16.9628 19.8057 17.0225 19.746 17.0225 19.6724C17.0225 19.5988 16.9628 19.5391 16.8892 19.5391C16.8156 19.5391 16.7559 19.5988 16.7559 19.6724C16.7559 19.746 16.8156 19.8057 16.8892 19.8057Z" fill="white"/>
<path id="Vector_98" d="M16.5161 20.1612C16.5898 20.1612 16.6495 20.1015 16.6495 20.0279C16.6495 19.9542 16.5898 19.8945 16.5161 19.8945C16.4425 19.8945 16.3828 19.9542 16.3828 20.0279C16.3828 20.1015 16.4425 20.1612 16.5161 20.1612Z" fill="white"/>
<path id="Vector_99" d="M16.1509 20.5352C16.2245 20.5352 16.2842 20.4755 16.2842 20.4019C16.2842 20.3283 16.2245 20.2686 16.1509 20.2686C16.0773 20.2686 16.0176 20.3283 16.0176 20.4019C16.0176 20.4755 16.0773 20.5352 16.1509 20.5352Z" fill="white"/>
<path id="Vector_100" d="M16.8892 20.5352C16.9628 20.5352 17.0225 20.4755 17.0225 20.4019C17.0225 20.3283 16.9628 20.2686 16.8892 20.2686C16.8156 20.2686 16.7559 20.3283 16.7559 20.4019C16.7559 20.4755 16.8156 20.5352 16.8892 20.5352Z" fill="white"/>
</g>
</g>
</g>
</g>
<defs>
<clipPath id="clip0_16_2033">
<rect x="0.5" y="0.0595703" width="40" height="40" rx="20" fill="white"/>
</clipPath>
</defs>
</svg>
