<svg width="41" height="41" viewBox="0 0 41 41" fill="none" xmlns="http://www.w3.org/2000/svg">
<g id="Saudi Arabia (SA)">
<g clip-path="url(#clip0_16_1413)">
<g id="Clip path group">
<mask id="mask0_16_1413" style="mask-type:luminance" maskUnits="userSpaceOnUse" x="0" y="0" width="41" height="41">
<g id="a">
<path id="Vector" d="M0.498047 0.0595703H40.4919V40.0534H0.498047V0.0595703Z" fill="white"/>
</g>
</mask>
<g mask="url(#mask0_16_1413)">
<g id="Group">
<path id="Vector_2" fill-rule="evenodd" clip-rule="evenodd" d="M-9.5 0.0595703H50.4908V40.0534H-9.5V0.0595703Z" fill="#199D00"/>
<path id="Vector_3" fill-rule="evenodd" clip-rule="evenodd" d="M5.61814 11.3966C5.55363 12.3319 5.46494 13.9768 6.2632 14.1462C7.22273 14.2349 6.69055 12.5174 7.03728 12.211C7.10985 12.0497 7.23079 12.0497 7.23886 12.2513V13.7027C7.23079 14.1865 7.5372 14.3155 7.7791 14.4203C8.03712 14.3961 8.19839 14.4042 8.30321 14.6461L8.4161 17.1699C8.4161 17.1699 9.00472 17.3312 9.02891 15.7508C9.06116 14.8235 8.84345 14.0413 8.97246 13.8639C8.97246 13.6866 9.19823 13.6785 9.3595 13.7591C9.60946 13.9365 9.72235 14.1623 10.1094 14.0655C10.7061 13.9043 11.0609 13.614 11.077 13.1624C11.0565 12.7177 10.9639 12.2793 10.8028 11.8643C10.827 11.7836 10.6819 11.582 10.7141 11.5014C10.819 11.6627 10.9802 11.6546 11.0205 11.5014C10.9157 11.1627 10.7625 10.8483 10.5045 10.7112C10.2948 10.5257 9.98844 10.5661 9.87555 10.9531C9.86233 11.4614 10.0343 11.9571 10.3593 12.348C10.4607 12.5672 10.5025 12.8091 10.4803 13.0496C10.311 13.1544 10.1416 13.106 9.9965 12.9609C9.9965 12.9609 9.52077 12.598 9.52077 12.5254C9.64978 11.7191 9.55302 11.6304 9.48045 11.4046C9.43207 11.0982 9.28693 11.0015 9.16598 10.7918C9.04503 10.6628 8.89183 10.6628 8.8112 10.7918C8.60155 11.1547 8.69831 11.9288 8.85151 12.2755C8.9644 12.598 9.12567 12.7996 9.04503 12.7996C8.98053 12.977 8.85151 12.9367 8.75475 12.727C8.63508 12.2829 8.57808 11.8242 8.58543 11.3643C8.54511 11.0015 8.50479 10.2355 8.26289 10.0419C8.11776 9.84843 7.90005 9.94519 7.82748 10.1226C7.80708 10.4721 7.81517 10.8226 7.85167 11.1708C8.01293 11.7352 8.06131 12.2513 8.14195 12.8399C8.16614 13.6301 7.68234 13.1866 7.70653 12.7915C7.81941 12.2835 7.78716 11.4772 7.6904 11.2756C7.60977 11.074 7.52107 11.0257 7.33562 11.0579C7.17435 11.0418 6.79538 11.4611 6.69055 12.1707C6.69055 12.1707 6.5938 12.5335 6.55348 12.848C6.49704 13.2108 6.2632 13.4688 6.09387 12.7996C5.94873 12.3158 5.86004 11.1144 5.61814 11.3966Z" fill="#F6F7F9"/>
<path id="Vector_4" fill-rule="evenodd" clip-rule="evenodd" d="M8.23204 15.2345L5.73242 16.4359C5.75661 15.8715 6.91772 14.8394 7.70793 14.8232C8.22398 14.8394 8.09496 15.0248 8.23204 15.2264V15.2345Z" fill="#F6F7F9"/>
<path id="Vector_5" fill-rule="evenodd" clip-rule="evenodd" d="M7.79651 16.0161C6.47413 19.4107 10.8767 19.8865 11.3685 16.1532C11.4169 16 11.6104 15.8468 11.6346 16.0967C11.5298 19.4833 8.23193 19.7091 7.6675 18.6447C7.53042 18.4028 7.49011 17.8384 7.47398 17.4997C7.39335 16.8386 7.03856 17.0966 6.99018 17.7578C6.93374 18.1206 6.9418 18.2254 6.9418 18.5802C7.1192 21.2411 11.3766 20.0961 12.0701 17.8948C12.4329 16.6773 12.0055 15.7742 12.2071 15.7742C12.6264 16.2338 13.2231 15.8387 13.3521 15.6774C13.4086 15.5968 13.5456 15.5484 13.6424 15.6533C13.9649 15.8952 14.5535 15.7742 14.6745 15.363C14.739 14.9517 14.7954 14.5325 14.8116 14.097C14.5455 14.1777 14.3439 14.2341 14.3278 14.3389L14.2713 14.7098C14.2471 14.8227 14.0133 14.8308 14.0052 14.6776C13.9004 14.218 13.4811 14.1535 13.2231 14.8711C13.0538 15.0163 12.7393 15.0324 12.7071 14.8308C12.7474 14.347 12.5538 14.2825 12.1668 14.5083L11.7878 11.6861C11.9491 11.6861 12.1023 11.799 12.2474 11.6136C12.0862 11.1056 11.7395 10.0815 11.554 10.0009C11.4572 9.88801 11.3847 9.96058 11.2637 9.98477C11.0541 10.0493 10.8606 10.2267 10.9251 10.5734L11.5701 14.6212C11.6024 14.7905 11.4572 15.0243 11.2718 15.0001C10.9573 14.7824 10.8767 14.3551 10.3445 14.3712C9.94941 14.3712 9.50593 14.7985 9.45755 15.2098C9.38498 15.5323 9.36079 15.8871 9.45755 16.1693C9.72364 16.4918 10.0542 16.4676 10.3445 16.387C10.5783 16.2903 10.7719 16.0564 10.8606 16.1129C10.917 16.1854 10.8686 16.9595 9.73976 17.5643C9.06245 17.8707 8.51414 17.9352 8.22387 17.3788C8.04647 17.0321 8.23999 15.7097 7.79651 16.008V16.0161Z" fill="#F6F7F9"/>
<path id="Vector_6" fill-rule="evenodd" clip-rule="evenodd" d="M13.3841 12.5578C13.6502 12.4691 14.9 11.0258 14.9 11.0258L14.7145 10.8806C14.6419 10.8161 14.65 10.7597 14.7145 10.6952C15.0209 10.5178 14.9242 10.1146 14.7629 9.93721C14.6577 9.88469 14.5418 9.85735 14.4242 9.85735C14.3067 9.85735 14.1907 9.88469 14.0856 9.93721C13.8679 10.1549 13.8195 10.4855 13.9888 10.6952C14.1501 10.7758 14.3275 10.9371 14.2146 11.0338C13.6985 11.5821 12.2955 12.5255 12.4568 12.5658C12.489 12.6062 13.3599 12.6062 13.3841 12.5658V12.5578ZM5.81264 17.6376C5.34497 18.3875 5.30466 19.5083 5.57075 19.8389C5.69976 20.0002 5.92553 20.0647 6.09486 20.0163C6.3932 19.8873 6.52221 19.2906 6.44964 19.0729C6.35289 18.9116 6.27225 18.8955 6.17549 19.0245C5.96585 19.4438 5.87715 19.1535 5.86103 18.9197C5.82877 18.4762 5.86909 18.0569 5.91747 17.7344C5.97391 17.4038 5.91747 17.5006 5.81264 17.6376ZM25.8983 16.4282C25.4467 15.4525 24.8178 14.4849 24.6162 14.114C24.0081 13.1511 23.3626 12.2123 22.681 11.2999C22.1972 10.7194 23.4793 11.5418 22.5198 10.3888C22.1569 10.0662 22.1327 10.0582 21.8263 9.80014C21.6731 9.68725 21.3022 9.49373 21.2377 9.81627C21.2057 10.0474 21.2166 10.2825 21.27 10.5097C21.3022 10.671 21.536 10.9371 21.657 11.0983C23.189 13.1545 24.5517 15.2429 25.858 17.8554C26.0676 17.7586 26.0192 16.5975 25.8983 16.4282Z" fill="#F6F7F9"/>
<path id="Vector_7" fill-rule="evenodd" clip-rule="evenodd" d="M23.906 19.7093C23.8173 19.8142 24.1237 20.2415 24.5269 20.2415C25.2042 20.1609 25.7928 19.7819 26.3411 18.7901C26.4863 18.5482 26.7443 18.0644 26.7523 17.6693C26.8088 15.4116 26.6395 13.6538 26.3008 12.025C26.2847 11.8638 26.3008 11.6702 26.325 11.6219C26.3653 11.5735 26.5105 11.6219 26.5911 11.5009C26.704 11.38 26.2847 10.4043 26.0508 10.0334C25.9621 9.86407 25.9299 9.75119 25.7928 10.0495C25.6396 10.2914 25.5509 10.7188 25.5509 11.1139C25.8735 13.3393 25.9783 15.2907 26.1879 17.5081C26.204 17.7258 26.1718 18.0402 26.0267 18.1612C25.4369 18.821 24.7142 19.3487 23.906 19.7093ZM33.0014 19.7013C32.5176 19.9754 32.5176 20.298 32.9127 20.3141C33.5819 20.2335 34.3802 20.177 34.9285 19.3465C35.0737 19.1127 35.251 18.4837 35.2591 18.1047C35.3075 15.847 35.2269 14.1537 34.8882 12.525C34.8721 12.3637 34.7995 12.0008 34.8237 11.9525C34.8721 11.8396 35.0898 11.9605 35.1704 11.8315C35.2833 11.7186 34.606 10.8397 34.3641 10.4608C34.2754 10.2995 34.2431 10.1866 34.1061 10.4849C33.9529 10.7268 33.9045 11.1623 33.9609 11.5412C34.3238 13.9602 34.5899 15.7745 34.6382 17.9112C34.614 18.1209 34.606 18.2338 34.5092 18.4837C34.2996 18.7579 34.0657 19.0965 33.84 19.2578C33.6223 19.4191 33.1546 19.5803 33.0014 19.7013Z" fill="#F6F7F9"/>
<path id="Vector_8" fill-rule="evenodd" clip-rule="evenodd" d="M33.364 17.532V16.0564C33.3578 15.6887 33.2754 15.3263 33.1221 14.9921C32.977 14.6695 33.0657 14.4196 33.0012 14.0728C32.9366 13.7342 32.9528 13.2181 32.856 12.815C32.8238 12.6537 32.7431 12.1538 32.7754 12.1054C32.8076 11.9925 32.9608 12.1054 33.0334 11.9764C33.1463 11.8554 32.6464 10.5653 32.3964 10.2025C32.3077 10.0412 32.1464 10.0896 31.9368 10.3637C31.7513 10.5331 31.8239 10.9362 31.8965 11.3152C32.3803 13.839 32.7351 16.129 32.6625 18.5238C32.6383 18.7334 33.3721 17.919 33.364 17.532ZM29.792 14.4034C29.4936 14.4034 28.8566 13.8068 28.6631 13.4681C28.6352 13.3865 28.6243 13.2999 28.6313 13.2139C28.6382 13.1279 28.6628 13.0443 28.7034 12.9682C28.8163 12.8875 28.9937 12.8069 29.1227 12.8875C29.1227 12.8875 29.2517 13.0811 29.2275 13.1052C29.3888 13.1859 29.4694 13.1375 29.4856 13.0649C29.4936 12.952 29.4291 12.8795 29.4291 12.7424C29.5098 12.3957 29.9129 12.3392 30.0581 12.565C30.1709 12.7021 30.2113 12.9924 30.2274 13.1939C30.2274 13.2907 30.0661 13.1698 29.9694 13.1939C29.8807 13.2262 29.8565 13.331 29.8484 13.4278C29.8323 13.6858 29.8 14.097 29.792 14.3954V14.4034ZM24.1799 18.1609C24.2606 17.3869 24.1557 16.0242 24.1477 15.5726C24.1154 14.5002 23.938 12.4279 23.8574 12.0893C23.7606 11.4361 24.1235 12.1618 24.0751 11.7829C23.9542 11.1378 23.5913 10.6863 23.172 10.0896C23.0349 9.90413 23.043 9.86381 22.8253 10.138C22.5995 10.6701 22.8011 11.033 22.8575 11.4442C23.1639 12.7908 23.3413 14.0245 23.422 15.2501C23.5123 16.5249 23.5231 17.804 23.4542 19.0801C23.6881 19.0963 24.059 18.7092 24.1799 18.1609Z" fill="#F6F7F9"/>
<path id="Vector_9" fill-rule="evenodd" clip-rule="evenodd" d="M34.405 16.9285C33.8647 16.0335 33.0584 15.0579 32.8407 14.695C32.1187 13.6815 31.3603 12.6944 30.5668 11.7358C29.8976 11.0343 30.8733 11.6229 30.4378 11.0827C30.0669 10.6795 29.954 10.5505 29.6476 10.3086C29.4864 10.2038 29.3896 10.0103 29.3412 10.3408C29.317 10.6311 29.3009 10.9698 29.317 11.2197C29.317 11.3568 29.4622 11.6068 29.5831 11.76C31.1958 13.7516 32.9697 15.7916 34.3969 18.3477C34.5985 18.2348 34.534 17.0898 34.3969 16.9285H34.405Z" fill="#F6F7F9"/>
<path id="Vector_10" fill-rule="evenodd" clip-rule="evenodd" d="M10.0783 15.2663C10.038 15.3389 9.94928 15.4276 9.98153 15.5082C10.046 15.5889 10.0944 15.613 10.1912 15.6211C10.2718 15.6211 10.4008 15.6372 10.425 15.5889C10.4541 15.5533 10.4731 15.5107 10.4802 15.4653C10.4873 15.42 10.4822 15.3735 10.4653 15.3308C10.3847 15.1051 10.1267 15.1857 10.0783 15.2663Z" fill="#1BA400"/>
<path id="Vector_11" fill-rule="evenodd" clip-rule="evenodd" d="M28.1719 28.3857C28.8895 28.4099 29.3572 28.4179 29.9942 28.4905L30.736 28.4099C31.5665 28.3292 31.6068 29.5952 31.6068 29.5952C31.5987 30.337 31.3085 30.3692 30.9456 30.4499C30.736 30.4821 30.6231 30.3289 30.5183 30.1677C30.3812 30.2241 30.1957 30.2322 29.9619 30.1999C29.6636 30.1838 29.3652 30.1838 29.0749 30.1596C28.7524 30.1354 28.5831 30.1999 28.2686 30.1677C28.196 30.2725 28.1073 30.4095 27.9219 30.3692C27.7606 30.3531 27.5671 29.8935 27.6235 29.5548C27.7364 29.3049 27.7042 29.3855 27.6961 29.2726C24.7611 29.2001 21.8099 29.071 18.9313 29.1114C16.6736 29.1114 14.4562 29.2081 12.2388 29.3049C11.0535 29.2888 10.1424 29.0952 9.52148 28.176C9.57793 28.176 12.5452 28.3534 13.408 28.297C15.0206 28.2728 16.4801 28.1438 18.1169 28.0954C21.3423 28.1518 24.5273 28.1518 27.7526 28.3776C27.4462 28.168 27.43 27.668 27.9138 27.5471C27.9461 27.5229 27.9703 27.789 28.0428 27.789C28.4138 27.7648 28.2525 28.2728 28.1719 28.3857ZM15.2383 10.6223C14.7546 12.0172 15.5125 13.5412 16.0447 13.396C16.4317 13.5573 16.6736 12.8235 16.8349 12.0253C16.9397 11.7995 17.0203 11.7753 17.0768 11.8882C17.0607 12.9525 17.1574 13.1864 17.4316 13.5089C17.5893 13.6497 17.7922 13.7296 18.0036 13.734C18.215 13.7384 18.4211 13.6672 18.5846 13.5331L19.0603 13.0493C19.1652 12.9445 19.3022 12.9364 19.4554 13.0332C19.6006 13.1703 19.5764 13.396 19.8909 13.5573C20.1489 13.6621 20.7133 13.5815 20.8423 13.3557C21.0117 13.0574 21.06 12.9525 21.1407 12.8397C21.2616 12.6784 21.4713 12.7429 21.4713 12.7993C21.4551 12.888 21.3342 12.9848 21.4148 13.1461C21.56 13.259 21.6003 13.1864 21.689 13.1622C21.9954 13.0171 22.2292 12.3397 22.2292 12.3397C22.2373 12.0978 22.1002 12.114 22.0115 12.1623L21.7696 12.3317C21.6083 12.3559 21.3181 12.4526 21.1729 12.2269C21.0278 11.9608 21.0197 11.5818 20.9068 11.3076C20.9068 11.2915 20.7133 10.8803 20.8988 10.8561C20.9875 10.8722 21.1891 10.9206 21.2213 10.7593C21.3181 10.5981 21.0117 10.1385 20.802 9.90463C20.6246 9.71111 20.3666 9.68692 20.1247 9.8885C19.9634 10.0498 19.9796 10.211 19.9473 10.3804C19.9194 10.498 19.9195 10.6206 19.9475 10.7382C19.9755 10.8558 20.0307 10.9652 20.1086 11.0577C20.2779 11.3883 20.5924 11.8156 20.4875 12.4284C20.4875 12.4284 20.3021 12.7106 19.9876 12.6703C19.8586 12.6381 19.649 12.5897 19.5361 11.7511C19.4554 11.1141 19.5522 10.2272 19.2861 9.81593C19.1894 9.55791 19.1249 9.31601 18.883 9.75142C18.8184 9.91269 18.5443 10.1707 18.7378 10.7029C18.9223 11.1716 18.978 11.681 18.8991 12.1785C18.7862 12.3478 18.762 12.4123 18.6088 12.5816C18.4072 12.7993 18.1814 12.7429 18.0121 12.6623C17.8509 12.5574 17.7218 12.501 17.6493 12.1543C17.6654 11.606 17.6896 10.711 17.5928 10.5174C17.4477 10.2272 17.2058 10.332 17.101 10.4207C16.6331 10.9395 16.3202 11.5793 16.1979 12.2672C16.0608 12.7106 15.9157 12.5897 15.8108 12.4042C15.5609 12.1623 15.5448 10.3159 15.2383 10.6223Z" fill="#F6F7F9"/>
<path id="Vector_12" fill-rule="evenodd" clip-rule="evenodd" d="M16.7055 13.6627C16.9313 13.5014 16.8265 13.3966 17.1571 13.7272C17.5826 14.4754 17.8309 15.3112 17.8828 16.1703C17.8586 16.3719 18.0037 16.4929 18.0682 16.4526C18.1005 15.9849 19.2535 15.3237 20.3018 15.2269C20.463 15.1947 20.3824 14.8883 20.4066 14.727C20.3421 14.1465 20.7291 13.6143 21.2855 13.574C22.0273 13.6869 22.2773 14.082 22.2934 14.6867C22.2128 15.8559 20.9952 16.0575 20.3098 16.1381C20.205 16.1865 20.1647 16.2349 20.3098 16.2913L23.1723 16.2994L23.3174 16.38C23.3336 16.4606 23.2771 16.3961 23.1562 16.5816C23.0352 16.767 22.882 17.2024 22.874 17.4847C22.0158 17.7351 21.1355 17.9026 20.2453 17.9846C19.9389 18.1458 19.7857 18.3555 19.8422 18.5893C19.947 18.8554 20.6404 19.1134 20.6404 19.1296C20.7694 19.2102 20.9226 19.4037 20.6001 19.7908C19.2052 19.7343 18.1247 19.1376 17.7538 18.2991C17.6409 18.2184 17.5119 18.2991 17.4393 18.4119C16.9538 19.1582 16.2539 19.74 15.4315 20.081C14.8752 20.2181 14.3108 20.0004 14.0447 19.6376C13.8673 19.4279 13.8753 19.2021 13.8028 19.1538C13.5044 19.2828 10.9322 20.3794 11.2628 19.8714C11.8837 19.1941 12.9722 18.7022 13.9237 18.041C14.0043 17.8233 14.1253 17.0734 14.5043 16.8315C14.5204 16.8315 14.4398 17.267 14.4478 17.4524C14.4478 17.6056 14.4398 17.6621 14.472 17.6217C14.5365 17.5814 15.6976 16.6703 15.7863 16.3881C15.8992 16.2268 15.8186 15.8236 15.8186 15.8075C15.6089 15.2431 15.3025 15.2028 15.1896 14.9205C15.0848 14.5496 15.1332 14.1303 15.3429 14.0094C15.5283 13.8401 15.746 13.8562 15.9557 14.0416C16.1976 14.2513 16.3991 14.6625 16.4636 14.9689C16.4233 15.0899 16.1572 14.8883 16.0605 14.9528C16.2217 15.1141 16.3024 15.3156 16.3588 15.5575C16.5201 16.2026 16.4636 16.4445 16.3185 16.8638C15.8025 17.9443 15.1413 18.2749 14.5607 18.67C14.5446 18.678 14.5365 18.9522 14.7542 19.0973C14.8349 19.1779 15.1332 19.2102 15.4799 19.0973C16.2341 18.6809 16.8442 18.0455 17.2297 17.275C17.3345 16.6945 17.1893 16.0816 17.0361 15.5495C16.8604 15.125 16.699 14.6947 16.5523 14.2593C16.5362 13.9368 16.5604 13.8239 16.7136 13.6627H16.7055ZM9.22282 10.647C9.54535 10.8002 10.1662 10.7276 10.142 10.2035L10.1259 9.95355C10.0614 9.79229 9.87595 9.83261 9.83563 10.0019C9.8195 10.0503 9.85982 10.139 9.81144 10.1632C9.77919 10.1874 9.67436 10.1713 9.68243 10.0261C9.68243 9.97774 9.65017 9.92937 9.62598 9.89711C9.60179 9.88905 9.59373 9.88099 9.55342 9.88099C9.50504 9.88099 9.5131 9.89711 9.48085 9.93743L9.45666 10.0584C9.45666 10.1148 9.43247 10.1309 9.39215 10.139C9.35183 10.139 9.3599 10.139 9.32764 10.1229C9.30345 10.0987 9.27926 10.0906 9.27926 10.0503L9.26314 9.9213C9.24166 9.89752 9.21359 9.88068 9.1825 9.87292C8.99705 9.87292 8.98898 10.0826 8.99705 10.1632C8.98092 10.1713 8.97286 10.5422 9.22282 10.647Z" fill="#F6F7F9"/>
<path id="Vector_13" fill-rule="evenodd" clip-rule="evenodd" d="M18.8673 14.7272C19.1899 14.8885 19.9801 14.7917 19.7866 14.2837L19.7704 14.0418C19.7059 13.8806 19.5285 13.9209 19.4801 14.0821C19.4721 14.1305 19.5043 14.2192 19.456 14.2434C19.4318 14.2757 19.3269 14.2595 19.3269 14.1144C19.3269 14.066 19.2947 14.0176 19.2705 13.9854C19.2544 13.9692 19.2383 13.9692 19.1979 13.9692C19.1576 13.9692 19.1576 13.9773 19.1334 14.0176L19.1092 14.1386C19.1012 14.195 19.077 14.2192 19.0447 14.2192C18.9964 14.2192 19.0125 14.2192 18.9722 14.2031C18.956 14.1789 18.9238 14.1708 18.9238 14.1305C18.9238 14.0902 18.9238 14.0257 18.9077 14.0015C18.8915 13.9773 18.8593 13.9692 18.827 13.9612C18.6496 13.9612 18.6335 14.1628 18.6416 14.2434C18.6335 14.2595 18.6254 14.6224 18.8673 14.7272ZM24.4955 13.0339C24.818 13.1952 25.4389 13.1226 25.4147 12.5985L25.3986 12.3485C25.3341 12.1873 25.1486 12.2276 25.1083 12.3888C25.0922 12.4453 25.1325 12.5259 25.0841 12.5501C25.0519 12.5824 24.9471 12.5662 24.9551 12.4211C24.9551 12.3727 24.9148 12.3243 24.8987 12.2921C24.8745 12.284 24.8664 12.276 24.818 12.276C24.7777 12.276 24.7777 12.2921 24.7535 12.3324L24.7293 12.4534C24.7293 12.5017 24.7052 12.5259 24.6648 12.534C24.6245 12.534 24.6326 12.534 24.6003 12.5098C24.5761 12.4937 24.552 12.4775 24.552 12.4453C24.552 12.405 24.5439 12.3405 24.5278 12.3082C24.5116 12.284 24.4874 12.276 24.4471 12.2679C24.2697 12.2679 24.2617 12.4775 24.2697 12.5501C24.2536 12.5662 24.2455 12.9371 24.4955 13.0339ZM27.3983 17.2833C26.8339 17.9283 27.0838 18.9927 27.2128 19.2184C27.4064 19.6055 27.5515 19.8474 27.9224 20.0328C28.2611 20.2747 28.5191 20.1215 28.6642 19.9522C29.0029 19.6055 29.0029 18.7105 29.1642 18.5331C29.277 18.2105 29.5512 18.267 29.6883 18.4121C29.8128 18.5874 29.9791 18.7287 30.1721 18.8233C30.4865 19.0975 30.8574 19.1459 31.2284 18.904C31.4783 18.7588 31.6476 18.5734 31.7928 18.2105C31.954 17.7671 31.8734 15.7351 31.8331 14.5337C31.825 14.4369 31.5106 12.8726 31.5106 12.8565C31.5106 12.8404 31.4622 12.0583 31.4299 11.8728C31.4299 11.8002 31.4057 11.776 31.4864 11.7922C31.567 11.8567 31.5831 11.8647 31.6315 11.8889C31.7121 11.905 31.7928 11.7599 31.7444 11.6228L30.9542 10.1714C30.8978 10.115 30.8171 10.0505 30.7123 10.1956C30.6513 10.2488 30.6024 10.3145 30.569 10.3883C30.5356 10.462 30.5185 10.542 30.5188 10.623C30.543 10.9697 30.5994 11.3164 30.6236 11.6631L30.9461 13.4209C31.0429 14.6788 31.0671 15.7029 31.1638 16.9688C31.1477 17.4929 30.9865 17.9606 30.8252 18.017C30.8252 18.017 30.5914 18.1622 30.4381 18.017C30.3172 17.9606 29.8576 17.2429 29.8576 17.2429C29.6157 17.0252 29.4706 17.0817 29.2932 17.2429C28.8416 17.6864 28.632 18.525 28.3175 19.0975C28.2369 19.2265 28.003 19.3394 27.7531 19.0894C27.108 18.2025 27.487 16.9607 27.4064 17.2833H27.3983ZM24.6406 9.95373C24.939 10.0747 25.1406 10.6794 25.0761 10.9697C25.0196 11.3245 24.8584 11.7196 24.7535 11.6631C24.6245 11.6228 24.8342 11.3084 24.7132 10.9778C24.6487 10.7681 24.2455 10.373 24.2859 10.2601C24.2052 10.0182 24.4633 9.91342 24.6406 9.95373Z" fill="#F6F7F9"/>
<path id="Vector_14" fill-rule="evenodd" clip-rule="evenodd" d="M28.357 17.6379C28.4134 16.9122 28.3086 16.4768 28.2925 16.0575C28.2763 15.6382 27.8087 12.429 27.728 12.1065C27.6071 11.5017 28.1715 12.0258 28.107 11.671C27.9135 11.2276 27.4377 10.5825 27.2845 10.2035C27.1958 10.0423 27.2281 9.88906 27.0265 10.1551C26.8525 10.6347 26.7917 11.148 26.8491 11.6549C27.3329 14.1787 27.8248 16.2752 27.7442 18.678C27.978 18.678 28.2441 18.1539 28.357 17.6298V17.6379ZM33.3885 10.9695C33.6626 11.1066 33.8158 11.8565 33.7916 12.0661C33.7352 12.4612 33.59 12.8725 33.4852 12.8241C33.3804 12.7757 33.5094 12.2435 33.453 12.0823C33.3965 11.8484 33.0337 11.4291 33.0659 11.3001C32.9933 11.0421 33.2272 10.9292 33.3885 10.9776V10.9695ZM13.4157 16.2752C13.6737 16.38 13.8189 16.9202 13.7947 17.0815C13.7463 17.3718 13.6092 17.6782 13.5125 17.6459C13.4076 17.6056 13.5286 17.2186 13.4802 17.0976C13.456 16.7993 13.1012 16.6461 13.1093 16.5251C13.0448 16.2832 13.2625 16.2429 13.4157 16.2832V16.2752Z" fill="#F6F7F9"/>
<path id="Vector_15" fill-rule="evenodd" clip-rule="evenodd" d="M19.632 17.1058C19.9545 17.122 20.1239 17.388 19.8174 17.4929C19.511 17.5977 19.2127 17.6783 19.2127 18.1218C19.3256 18.7427 19.0514 18.525 18.8902 18.4443C18.7047 18.3073 18.1725 17.9847 18.1 17.2752C18.0919 17.1139 18.2209 16.9688 18.4306 16.9688C18.7531 17.0494 19.2208 17.0655 19.6239 17.1058H19.632Z" fill="#1B9D00"/>
<path id="Vector_16" fill-rule="evenodd" clip-rule="evenodd" d="M6.54571 9.77626C6.92469 9.88915 6.94888 10.4455 6.91663 10.6148C6.86825 10.9132 6.73117 11.2277 6.63441 11.1873C6.52959 11.1551 6.63441 10.7519 6.58603 10.6229C6.52959 10.4455 6.20706 10.123 6.24737 10.0262C6.16674 9.83271 6.39251 9.74401 6.54571 9.78433V9.77626ZM14.0365 12.4049C13.7462 12.5662 13.6333 13.0338 13.8107 13.308C13.9801 13.5499 14.2461 13.4612 14.2865 13.4612C14.5687 13.4934 14.738 12.9209 14.738 12.9209C14.738 12.9209 14.7461 12.7597 14.4155 13.0661C14.2703 13.0903 14.2542 13.0419 14.2139 12.9613C14.1795 12.8095 14.1965 12.6507 14.2623 12.5097C14.3107 12.3726 14.1978 12.3081 14.0365 12.4049ZM16.2136 9.55855C16.0765 9.66338 15.7782 9.96172 15.7701 10.3084C15.7701 10.502 15.7298 10.502 15.8507 10.631C15.9475 10.76 16.0443 10.7519 16.2297 10.6552C16.2759 10.6253 16.3154 10.5862 16.3459 10.5405C16.3764 10.4947 16.3973 10.4432 16.4071 10.3891C16.4555 10.1633 16.1733 10.4939 16.141 10.2439C16.0765 10.0182 16.2539 9.9214 16.4232 9.69563C16.4232 9.54243 16.4232 9.4376 16.2217 9.55855H16.2136ZM17.9794 9.88109C17.9091 10.1639 17.8659 10.4528 17.8504 10.7439C17.8021 10.9616 18.0762 11.0503 18.2052 10.768C18.3907 10.2601 18.3907 10.0424 18.4068 9.82464C18.3504 9.50211 18.1246 9.50211 17.9794 9.87302V9.88109ZM29.0665 15.5173C29.0987 15.477 30.6307 14.3885 30.6307 14.3885C30.7839 14.3401 30.7517 14.9529 30.6791 14.9529C30.2059 15.4115 29.6613 15.7901 29.0665 16.0737C28.9858 16.1221 28.9133 15.6544 29.0665 15.5093V15.5173ZM30.4533 15.5093C30.7194 15.6383 30.8323 16.4285 30.8001 16.6381C30.8081 17.0574 30.542 17.388 30.4372 17.3316C30.3243 17.2832 30.4453 16.8155 30.3969 16.6542C30.3405 16.4204 30.1066 15.985 30.1469 15.864C30.0663 15.598 30.2921 15.4609 30.4533 15.5093ZM21.3902 18.8958C21.495 18.7346 21.8176 18.5169 21.8256 18.5169C21.9788 18.4362 22.124 18.5733 22.1159 18.5652C22.1401 18.7184 22.0191 18.8555 22.0595 19.0571C22.0917 19.1377 22.1159 19.2264 22.2691 19.1942C22.511 19.0087 22.7368 18.9926 22.9787 18.9765C23.1641 18.9926 23.1641 19.299 23.0513 19.3071C22.5997 19.4038 22.4062 19.5248 22.0837 19.6457C21.9305 19.7344 21.8014 19.6215 21.8014 19.6135C21.8014 19.6054 21.7208 19.5248 21.7773 19.3232C21.7853 19.1619 21.7208 19.0813 21.5918 19.0974C21.487 19.1458 21.3983 19.178 21.3499 19.0652C21.3257 18.9845 21.3257 18.9442 21.3902 18.8958ZM32.0579 19.3151C32.1224 19.3958 32.1708 19.4764 32.0579 19.6135L31.7677 19.8554C31.7112 19.9521 31.687 20.0811 31.8402 20.1215C32.1224 20.2021 32.7836 19.7747 32.7836 19.7667C32.8885 19.686 32.8562 19.5328 32.8401 19.5328C32.7836 19.4603 32.6385 19.5006 32.5498 19.4925C32.5014 19.4925 32.3563 19.4683 32.4208 19.3393C32.4853 19.2587 32.5014 19.2103 32.5417 19.1055C32.5901 19.0087 32.5498 18.9442 32.3885 18.8878C32.2273 18.8636 32.1628 18.8797 31.9854 18.8878C31.8805 18.912 31.8483 18.9523 31.8241 19.0732C31.8402 19.2506 31.945 19.2426 32.066 19.3151H32.0579Z" fill="#F6F7F9"/>
<path id="Vector_17" fill-rule="evenodd" clip-rule="evenodd" d="M21.4477 14.8797C21.4074 14.9603 21.2623 14.9522 21.1252 14.8797C20.9881 14.8071 20.9236 14.6781 20.9639 14.6055C21.0043 14.5329 21.1494 14.5329 21.2865 14.6055C21.4235 14.6781 21.4881 14.8071 21.4477 14.8797ZM14.4891 10.7029C14.4085 10.7271 14.3037 10.6545 14.2553 10.5416C14.2069 10.4287 14.2311 10.34 14.3117 10.3158C14.3924 10.2917 14.4972 10.3723 14.5456 10.4771C14.594 10.5819 14.5698 10.6868 14.4891 10.7029Z" fill="#259F00"/>
<path id="Vector_18" fill-rule="evenodd" clip-rule="evenodd" d="M28.252 29.3535C28.9777 29.3858 29.6712 29.3616 30.3969 29.4019C30.5339 29.5067 30.4372 29.7889 30.3485 29.7647L29.7357 29.7486C29.7357 29.5148 29.1309 29.5551 29.1551 29.7567C28.8326 29.797 28.5423 29.7486 28.2198 29.7325C28.123 29.6115 28.1392 29.4019 28.252 29.3535Z" fill="#209000"/>
</g>
</g>
</g>
</g>
</g>
<defs>
<clipPath id="clip0_16_1413">
<rect x="0.5" y="0.0595703" width="40" height="40" rx="20" fill="white"/>
</clipPath>
</defs>
</svg>
