<svg width="41" height="41" viewBox="0 0 41 41" fill="none" xmlns="http://www.w3.org/2000/svg">
<g id="Slovakia (SK)">
<g clip-path="url(#clip0_16_2023)">
<path id="Vector" d="M0.5 0.0595703H40.5V40.0596H0.5V0.0595703Z" fill="#EE1C25"/>
<path id="Vector_2" d="M0.5 0.0595703H40.5V26.7236H0.5V0.0595703Z" fill="#0B4EA2"/>
<path id="Vector_3" d="M0.5 0.0595703H40.5V13.3955H0.5V0.0595703Z" fill="white"/>
<path id="Vector_4" d="M16.375 30.958C12.7891 29.2393 7.66406 25.8018 7.66406 19.0205C7.66406 12.2393 7.98438 9.16113 7.98438 9.16113H24.7656C24.7656 9.16113 25.0938 12.2393 25.0938 19.0205C25.0938 25.8018 19.9531 29.2314 16.375 30.958Z" fill="white"/>
<path id="Vector_5" d="M16.375 30.0596C13.0859 28.4736 8.38281 25.333 8.38281 19.1064C8.38281 12.8799 8.67969 10.0596 8.67969 10.0596H24.0703C24.0703 10.0596 24.3672 12.8877 24.3672 19.1064C24.3672 25.3252 19.6641 28.4814 16.375 30.0596Z" fill="#EE1C25"/>
<path id="Vector_6" d="M17.0781 17.4814C17.9688 17.4971 19.7109 17.5283 21.2578 17.0127C21.2578 17.0127 21.2109 17.5596 21.2109 18.208C21.2109 18.8564 21.2578 19.4033 21.2578 19.4033C19.8978 19.0286 18.4873 18.8705 17.0781 18.9346V22.3721H15.6719V18.9346C14.2627 18.8705 12.8522 19.0286 11.4922 19.4033C11.4922 19.4033 11.5391 18.8564 11.5391 18.208C11.5391 17.5596 11.4922 17.0127 11.4922 17.0127C13.0469 17.5283 14.7812 17.4971 15.6719 17.4814V15.3174C14.5514 15.2899 13.4343 15.451 12.3672 15.7939C12.3672 15.7939 12.4062 15.2471 12.4062 14.5986C12.4062 13.9502 12.3672 13.3955 12.3672 13.3955C13.6953 13.8408 14.8594 13.8799 15.6641 13.8643C15.625 12.5049 15.2266 10.7861 15.2266 10.7861C15.2266 10.7861 16.0469 10.8486 16.375 10.8486C16.7031 10.8486 17.5234 10.7861 17.5234 10.7861C17.5234 10.7861 17.125 12.5049 17.0781 13.8721C18.1983 13.9051 19.316 13.7465 20.3828 13.4033C20.3828 13.4033 20.3438 13.9502 20.3438 14.5986C20.3438 15.2471 20.3828 15.7939 20.3828 15.7939C19.0547 15.3486 17.8906 15.3174 17.0781 15.3252V17.4814Z" fill="white"/>
<path id="Vector_7" d="M16.375 21.9971C14.7188 21.9971 13.8281 24.2939 13.8281 24.2939C13.8281 24.2939 13.3359 23.2002 11.9844 23.2002C11.0703 23.2002 10.3984 24.0205 9.96875 24.7783C11.6328 27.4189 14.2891 29.0518 16.375 30.0596C18.4609 29.0518 21.1172 27.4189 22.7813 24.7705C22.3516 24.0205 21.6797 23.208 20.7656 23.208C19.4141 23.208 18.9219 24.3018 18.9219 24.3018C18.9219 24.3018 18.0312 21.9971 16.375 21.9971Z" fill="#0B4EA2"/>
</g>
</g>
<defs>
<clipPath id="clip0_16_2023">
<rect x="0.5" y="0.0595703" width="40" height="40" rx="20" fill="white"/>
</clipPath>
</defs>
</svg>
