<svg width="40" height="41" viewBox="0 0 40 41" fill="none" xmlns="http://www.w3.org/2000/svg">
<g id="South Korea (KR)">
<g clip-path="url(#clip0_16_1395)">
<path id="Vector" fill-rule="evenodd" clip-rule="evenodd" d="M0 0.0595703H40V40.0596H0V0.0595703Z" fill="white"/>
<g id="Group">
<g id="b">
<path id="a" fill-rule="evenodd" clip-rule="evenodd" d="M1.7168 13.1494L6.59336 5.83732L7.81204 6.65008L2.93548 13.9622L1.7168 13.1494ZM3.54482 14.3686L8.42138 7.05646L9.64007 7.86922L4.7635 15.1813L3.54482 14.3686ZM5.37285 15.5877L10.2494 8.2756L11.4681 9.08836L6.59153 16.4005L5.37285 15.5877Z" fill="#171717"/>
<path id="Vector_2" fill-rule="evenodd" clip-rule="evenodd" d="M1.7168 13.1494L6.59336 5.83732L7.81204 6.65008L2.93548 13.9622L1.7168 13.1494ZM3.54482 14.3686L8.42138 7.05646L9.64007 7.86922L4.7635 15.1813L3.54482 14.3686ZM5.37285 15.5877L10.2494 8.2756L11.4681 9.08836L6.59153 16.4005L5.37285 15.5877Z" fill="#171717"/>
</g>
<g id="Vector_3">
<path fill-rule="evenodd" clip-rule="evenodd" d="M30.3574 26.9678L36.4508 31.0316L30.3574 26.9678Z" fill="#171717"/>
<path d="M30.3574 26.9678L36.4508 31.0316" stroke="white" stroke-width="1.17188"/>
</g>
<path id="Vector_4" fill-rule="evenodd" clip-rule="evenodd" d="M12.6875 15.1826C13.9808 13.2433 15.9916 11.8972 18.2774 11.4405C20.5632 10.9837 22.9369 11.4537 24.8762 12.7471C26.8154 14.0404 28.1615 16.0512 28.6183 18.337C29.075 20.6228 28.605 22.9965 27.3117 24.9357L12.6875 15.1826Z" fill="#CD2E3A"/>
<path id="Vector_5" fill-rule="evenodd" clip-rule="evenodd" d="M12.6871 15.183C11.3938 17.1223 10.9238 19.4959 11.3805 21.7818C11.8373 24.0676 13.1834 26.0783 15.1226 27.3717C17.0619 28.665 19.4356 29.135 21.7214 28.6783C24.0072 28.2215 26.018 26.8754 27.3113 24.9361C27.958 23.9665 28.193 22.7797 27.9646 21.6368C27.7362 20.4939 27.0632 19.4885 26.0935 18.8418C25.1239 18.1951 23.9371 17.9601 22.7942 18.1885C21.6513 18.4169 20.6459 19.0899 19.9992 20.0596L12.6871 15.183Z" fill="#0047A0"/>
<path id="Vector_6" d="M19.9984 20.0594C21.3451 18.0402 20.7998 15.3117 18.7807 13.9651C16.7615 12.6184 14.033 13.1636 12.6863 15.1828C11.3397 17.202 11.8849 19.9305 13.9041 21.2771C15.9233 22.6238 18.6518 22.0786 19.9984 20.0594Z" fill="#CD2E3A"/>
</g>
<g id="Group_2">
<g id="Group_3">
<path id="a_2" fill-rule="evenodd" clip-rule="evenodd" d="M6.59766 34.2812L1.72109 26.9692L2.93978 26.1564L7.81634 33.4685L6.59766 34.2812ZM8.42568 33.0621L3.54912 25.75L4.7678 24.9373L9.64436 32.2493L8.42568 33.0621ZM10.2537 31.843L5.37714 24.5309L6.59582 23.7181L11.4724 31.0302L10.2537 31.843Z" fill="#171717"/>
<path id="Vector_7" fill-rule="evenodd" clip-rule="evenodd" d="M6.59766 34.2812L1.72109 26.9692L2.93978 26.1564L7.81634 33.4685L6.59766 34.2812ZM8.42568 33.0621L3.54912 25.75L4.7678 24.9373L9.64436 32.2493L8.42568 33.0621ZM10.2537 31.843L5.37714 24.5309L6.59582 23.7181L11.4724 31.0302L10.2537 31.843Z" fill="#171717"/>
</g>
<g id="Vector_8">
<path fill-rule="evenodd" clip-rule="evenodd" d="M5.68359 29.6094L7.51162 28.3902L5.68359 29.6094ZM30.3619 13.151L32.4946 11.7286L30.3619 13.151ZM34.3226 10.5095L36.1507 9.29036L34.3226 10.5095Z" fill="#171717"/>
<path d="M5.68359 29.6094L7.51162 28.3902M30.3619 13.151L32.4946 11.7286M34.3226 10.5095L36.1507 9.29036" stroke="white" stroke-width="1.17188"/>
</g>
</g>
</g>
</g>
<defs>
<clipPath id="clip0_16_1395">
<rect y="0.0595703" width="40" height="40" rx="20" fill="white"/>
</clipPath>
</defs>
</svg>
