<svg width="94" height="94" viewBox="0 0 94 94" fill="none" xmlns="http://www.w3.org/2000/svg">
<g id="Group 1000003207">
<circle id="Ellipse 21" cx="47" cy="47" r="44.5" fill="white" stroke="white" stroke-width="5"/>
<path id="Arrow 1" d="M32.2322 58.2322C31.2559 59.2085 31.2559 60.7915 32.2322 61.7678C33.2085 62.7441 34.7915 62.7441 35.7678 61.7678L32.2322 58.2322ZM62.5 34C62.5 32.6193 61.3807 31.5 60 31.5L37.5 31.5C36.1193 31.5 35 32.6193 35 34C35 35.3807 36.1193 36.5 37.5 36.5H57.5V56.5C57.5 57.8807 58.6193 59 60 59C61.3807 59 62.5 57.8807 62.5 56.5L62.5 34ZM35.7678 61.7678L61.7678 35.7678L58.2322 32.2322L32.2322 58.2322L35.7678 61.7678Z" fill="url(#paint0_linear_169_817)"/>
</g>
<defs>
<linearGradient id="paint0_linear_169_817" x1="60" y1="34" x2="32" y2="62" gradientUnits="userSpaceOnUse">
<stop stop-color="#CE4FFF"/>
<stop offset="1" stop-color="#5A34FF"/>
</linearGradient>
</defs>
</svg>
