<svg width="64" height="65" viewBox="0 0 64 65" fill="none" xmlns="http://www.w3.org/2000/svg">
<g id="attract-followers 1">
<path id="Vector" d="M45.0109 46.7887C45.0109 50.9287 42.1909 54.4187 38.3809 55.4487V63.6287C46.6409 62.4788 53.0309 55.3587 53.0309 46.7787V41.2188H45.0109V46.7787V46.7887Z" fill="#6635FF"/>
<path id="Vector_2" d="M53.02 30.8486H45V37.7386H53.02V30.8486Z" fill="#6635FF"/>
<path id="Vector_3" d="M27.0102 30.8584H18.9902V37.7484H27.0102V30.8584Z" fill="#6635FF"/>
<path id="Vector_4" d="M27.0102 46.7885V41.2285H18.9902V46.7885C18.9902 55.3585 25.3602 62.4885 33.6402 63.6385V55.4585C29.8302 54.4285 27.0102 50.9285 27.0102 46.7985V46.7885Z" fill="#6635FF"/>
<g id="Group">
<path id="Vector_5" d="M39.0307 1.63867H13.9907C12.3307 1.63867 10.9707 2.96867 10.9707 4.62867V21.0687C10.9707 21.8987 11.3107 22.6387 11.8507 23.1887C12.4007 23.7487 13.1407 24.0787 13.9807 24.0787H27.0907L35.0907 32.0587C35.4207 32.3987 36.0007 32.1687 36.0007 31.6787V24.0687H39.0107C40.6707 24.0687 42.0307 22.7287 42.0307 21.0787V4.62867C42.0307 2.96867 40.6807 1.63867 39.0307 1.63867ZM38.2507 20.5787H31.6507L31.8007 17.7487C31.8907 17.0187 31.4407 16.3287 30.7907 16.2087L28.5807 15.6787L27.8907 16.0187C27.4607 16.2387 26.9807 16.3487 26.5007 16.3487C26.0207 16.3487 25.5407 16.2287 25.1107 16.0187L24.4207 15.6687L22.2107 16.1887C21.5507 16.3187 21.1007 16.9987 21.1907 17.7287L21.3407 20.5787H14.7507V5.12867H38.2607V20.5787H38.2507Z" fill="#6635FF"/>
<path id="Vector_6" d="M23.5705 12.3083C23.5705 12.3083 23.6105 12.2983 23.6205 12.2883C23.7605 12.8783 24.0405 13.4583 24.3105 13.8583C24.8605 14.6783 25.5505 15.1983 26.5005 15.1983C27.4505 15.1983 28.1405 14.6783 28.6905 13.8583C28.9505 13.4683 29.2405 12.8883 29.3805 12.2883C29.4005 12.2983 29.4105 12.3083 29.4305 12.3083C29.5905 12.3383 29.7805 12.0383 29.8505 11.6483C29.9205 11.2483 29.8505 10.9083 29.6805 10.8783C29.6505 10.8783 29.6105 10.8783 29.5805 10.8983C29.5405 10.9183 29.4905 10.8983 29.4805 10.8483C29.3005 9.10828 28.0305 7.98828 26.5005 7.98828C24.9705 7.98828 23.7005 9.10828 23.5205 10.8483C23.5205 10.8983 23.4605 10.9183 23.4205 10.8983C23.3905 10.8783 23.3505 10.8683 23.3205 10.8783C23.1605 10.9083 23.0805 11.2483 23.1505 11.6483C23.2205 12.0483 23.4105 12.3383 23.5705 12.3083Z" fill="#6635FF"/>
</g>
</g>
</svg>
