<svg width="48" height="45" viewBox="0 0 48 45" fill="none" xmlns="http://www.w3.org/2000/svg">
<g id="ecommerce 1" clip-path="url(#clip0_72_1635)">
<g id="Layer 2">
<path id="Layer 1" d="M42.5008 4.25488V0.254883H4.50029V4.25488L0.5 18.2526V20.546C0.513534 21.5531 0.799763 22.5376 1.32825 23.395C1.85673 24.2523 2.60772 24.9504 3.50133 25.415V44.2549H11.5019V28.2549H19.5025V44.2549H43.5042V25.8226C44.6462 25.484 45.6501 24.7894 46.3697 23.8403C47.0893 22.8911 47.4868 21.737 47.5045 20.546V18.2526L42.5008 4.25488ZM6.00095 24.0444C4.35246 24.0444 2.50238 22.7006 2.50238 20.2504H9.49952C9.49952 22.7185 7.66737 24.0444 6.00095 24.0444ZM34.5002 4.25488L36.4981 18.2526H29.501L28.502 4.25488H34.5002ZM36.4981 20.2549C36.4981 22.705 34.6615 24.0488 32.9995 24.0488C31.3376 24.0488 29.501 22.6513 29.501 20.2549H36.4981ZM14.996 24.0488C13.3475 24.0488 11.4974 22.705 11.4974 20.2549H18.499C18.499 22.7185 16.649 24.0444 15.0005 24.0444L14.996 24.0488ZM18.4946 18.2571H11.5019L13.4909 4.25488H19.5025L18.4946 18.2571ZM20.4925 20.2549H27.4986C27.4986 22.723 25.6485 24.0488 24 24.0488C22.3515 24.0488 20.5014 22.723 20.5014 20.2549H20.4925ZM39.4994 40.2549H23.5028V28.2549H39.4994V40.2549ZM41.9991 24.0488C40.2968 24.0488 38.5005 22.6737 38.5005 20.2549H45.5021C45.5021 22.705 43.6655 24.0444 41.9991 24.0444V24.0488Z" fill="white"/>
</g>
</g>
<defs>
<clipPath id="clip0_72_1635">
<rect width="47" height="44" fill="white" transform="translate(0.5 0.254883)"/>
</clipPath>
</defs>
</svg>
