<svg width="182" height="93" viewBox="0 0 182 93" fill="none" xmlns="http://www.w3.org/2000/svg">
<g clip-path="url(#clip0_570_4204)">
<mask id="mask0_570_4204" style="mask-type:alpha" maskUnits="userSpaceOnUse" x="60" y="16" width="61" height="61">
<path d="M114.99 16.7998H66.99C63.6763 16.7998 60.99 19.4861 60.99 22.7998V70.7998C60.99 74.1135 63.6763 76.7998 66.99 76.7998H114.99C118.304 76.7998 120.99 74.1135 120.99 70.7998V22.7998C120.99 19.4861 118.304 16.7998 114.99 16.7998Z" fill="#EEEEFF"/>
</mask>
<g mask="url(#mask0_570_4204)">
<path d="M114.99 16.7998H66.99C63.6763 16.7998 60.99 19.4861 60.99 22.7998V70.7998C60.99 74.1135 63.6763 76.7998 66.99 76.7998H114.99C118.304 76.7998 120.99 74.1135 120.99 70.7998V22.7998C120.99 19.4861 118.304 16.7998 114.99 16.7998Z" fill="#EEEEFF"/>
<path d="M81.99 40.7998C85.3037 40.7998 87.99 38.1135 87.99 34.7998C87.99 31.4861 85.3037 28.7998 81.99 28.7998C78.6763 28.7998 75.99 31.4861 75.99 34.7998C75.99 38.1135 78.6763 40.7998 81.99 40.7998Z" fill="#5A34FF"/>
<path opacity="0.3" d="M109.634 89.3173L75.9922 55.0795C73.6697 52.7159 69.8709 52.6826 67.5073 55.005L33.2695 88.6469C30.9059 90.9694 30.8725 94.7682 33.195 97.1318L66.8369 131.37C69.1593 133.733 72.9582 133.767 75.3218 131.444L109.56 97.8023C111.923 95.4798 111.957 91.6809 109.634 89.3173Z" fill="#5A34FF"/>
<path d="M137.634 81.3173L103.992 47.0795C101.67 44.7159 97.8709 44.6826 95.5073 47.005L61.2695 80.6469C58.9059 82.9694 58.8725 86.7682 61.195 89.1318L94.8369 123.37C97.1593 125.733 100.958 125.767 103.322 123.444L137.56 89.8023C139.923 87.4798 139.957 83.6809 137.634 81.3173Z" fill="#5A34FF"/>
</g>
</g>
<g opacity="0.2" clip-path="url(#clip1_570_4204)">
<mask id="mask1_570_4204" style="mask-type:alpha" maskUnits="userSpaceOnUse" x="111" y="22" width="70" height="70">
<path d="M128.087 22.9565L175.183 32.2304C178.434 32.8706 180.551 36.0253 179.911 39.2766L170.637 86.3722C169.997 89.6235 166.842 91.7401 163.591 91.0999L116.495 81.826C113.244 81.1857 111.127 78.031 111.767 74.7798L121.041 27.6842C121.682 24.4329 124.836 22.3162 128.087 22.9565Z" fill="#EEEEFF"/>
</mask>
<g mask="url(#mask1_570_4204)">
<path d="M128.087 22.9565L175.183 32.2304C178.434 32.8706 180.551 36.0253 179.911 39.2766L170.637 86.3722C169.997 89.6235 166.842 91.7401 163.591 91.0999L116.495 81.826C113.244 81.1857 111.127 78.031 111.767 74.7798L121.041 27.6842C121.682 24.4329 124.836 22.3162 128.087 22.9565Z" fill="#EEEEFF"/>
<path d="M155.829 52.8803C152.577 52.24 150.461 49.0854 151.101 45.8341C151.741 42.5828 154.896 40.4662 158.147 41.1064C161.399 41.7466 163.515 44.9013 162.875 48.1526C162.235 51.4038 159.08 53.5205 155.829 52.8803Z" fill="#5A34FF"/>
<path opacity="0.3" d="M119.332 95.1425L158.955 68.0497C161.69 66.1793 165.424 66.8806 167.294 69.616L194.387 109.239C196.257 111.974 195.556 115.708 192.821 117.578L153.198 144.671C150.462 146.542 146.729 145.84 144.858 143.105L117.765 103.482C115.895 100.747 116.596 97.0129 119.332 95.1425Z" fill="#5A34FF"/>
<path d="M93.4049 81.8837L133.028 54.7909C135.763 52.9205 139.497 53.6218 141.367 56.3572L168.46 95.9801C170.331 98.7155 169.629 102.449 166.894 104.32L127.271 131.412C124.536 133.283 120.802 132.582 118.931 129.846L91.8386 90.2232C89.9683 87.4878 90.6695 83.7541 93.4049 81.8837Z" fill="#5A34FF"/>
</g>
</g>
<g opacity="0.2" clip-path="url(#clip2_570_4204)">
<mask id="mask2_570_4204" style="mask-type:alpha" maskUnits="userSpaceOnUse" x="1" y="22" width="70" height="70">
<path d="M53.8825 22.9565L6.78691 32.2304C3.53564 32.8706 1.41897 36.0253 2.05921 39.2766L11.3331 86.3722C11.9734 89.6235 15.1281 91.7401 18.3793 91.0999L65.4749 81.826C68.7262 81.1857 70.8429 78.031 70.2026 74.7798L60.9287 27.6842C60.2885 24.4329 57.1338 22.3162 53.8825 22.9565Z" fill="#EEEEFF"/>
</mask>
<g mask="url(#mask2_570_4204)">
<path d="M53.8825 22.9565L6.78691 32.2304C3.53564 32.8706 1.41897 36.0253 2.05921 39.2766L11.3331 86.3722C11.9734 89.6235 15.1281 91.7401 18.3793 91.0999L65.4749 81.826C68.7262 81.1857 70.8429 78.031 70.2026 74.7798L60.9287 27.6842C60.2885 24.4329 57.1338 22.3162 53.8825 22.9565Z" fill="#EEEEFF"/>
<path d="M26.1412 52.8803C29.3925 52.24 31.5092 49.0854 30.8689 45.8341C30.2287 42.5828 27.074 40.4662 23.8227 41.1064C20.5715 41.7466 18.4548 44.9013 19.095 48.1526C19.7353 51.4038 22.89 53.5205 26.1412 52.8803Z" fill="#5A34FF"/>
<path opacity="0.3" d="M62.6383 95.1425L23.0154 68.0497C20.28 66.1793 16.5463 66.8806 14.6759 69.616L-12.4169 109.239C-14.2873 111.974 -13.5861 115.708 -10.8507 117.578L28.7723 144.671C31.5077 146.542 35.2414 145.84 37.1118 143.105L64.2046 103.482C66.075 100.747 65.3737 97.0129 62.6383 95.1425Z" fill="#5A34FF"/>
<path d="M88.5651 81.8837L48.9421 54.7909C46.2067 52.9205 42.473 53.6218 40.6027 56.3572L13.5098 95.9801C11.6395 98.7155 12.3407 102.449 15.0761 104.32L54.699 131.412C57.4344 133.283 61.1682 132.582 63.0385 129.846L90.1313 90.2232C92.0017 87.4878 91.3005 83.7541 88.5651 81.8837Z" fill="#5A34FF"/>
</g>
</g>
<defs>
<clipPath id="clip0_570_4204">
<rect width="60" height="60" fill="white" transform="translate(60.99 16.7998)"/>
</clipPath>
<clipPath id="clip1_570_4204">
<rect width="60" height="60" fill="white" transform="matrix(-0.981158 -0.193207 -0.193207 0.981158 181.07 33.3896)"/>
</clipPath>
<clipPath id="clip2_570_4204">
<rect width="60" height="60" fill="white" transform="translate(0.899963 33.3896) rotate(-11.14)"/>
</clipPath>
</defs>
</svg>
