<svg width="30" height="31" viewBox="0 0 30 31" fill="none" xmlns="http://www.w3.org/2000/svg">
<g id="photography 1" clip-path="url(#clip0_72_1633)">
<path id="Vector" d="M18.5996 15.6727C17.645 15.6727 16.7295 16.0519 16.0544 16.7269C15.3794 17.4019 15.0002 18.3175 15.0002 19.2721C15.0002 20.2267 15.3794 21.1422 16.0544 21.8173C16.7295 22.4923 17.645 22.8715 18.5996 22.8715C19.5428 22.8543 20.4416 22.4675 21.1026 21.7943C21.7636 21.1212 22.1339 20.2155 22.1339 19.2721C22.1339 18.3287 21.7636 17.423 21.1026 16.7498C20.4416 16.0767 19.5428 15.6899 18.5996 15.6727ZM25.8002 8.46969L22.8356 2.48949C22.7149 2.13372 22.4856 1.8248 22.18 1.60628C21.8744 1.38776 21.5079 1.27066 21.1322 1.27149H16.1876C15.8071 1.27073 15.4361 1.39091 15.1283 1.61469C14.8206 1.83847 14.5918 2.15426 14.4752 2.51649L11.4038 8.47149H4.19901C3.24443 8.47228 2.32918 8.85193 1.6543 9.52703C0.979422 10.2021 0.600086 11.1175 0.599609 12.0721V30.0715H29.3996V12.0721C29.3994 11.1172 29.0203 10.2015 28.3454 9.52604C27.6705 8.85058 26.7551 8.47064 25.8002 8.46969ZM5.99961 15.6727C5.76324 15.6729 5.52913 15.6266 5.31069 15.5363C5.09224 15.446 4.89373 15.3135 4.7265 15.1465C4.55928 14.9794 4.42662 14.781 4.33611 14.5627C4.2456 14.3443 4.19901 14.1103 4.19901 13.8739C4.19901 12.8767 5.00421 12.0721 5.99961 12.0721C6.99501 12.0721 7.79901 12.8767 7.79901 13.8739C7.79917 14.1102 7.75273 14.3442 7.66235 14.5626C7.57197 14.7809 7.43942 14.9793 7.27229 15.1464C7.10516 15.3135 6.90673 15.446 6.68835 15.5363C6.46997 15.6266 6.23593 15.6729 5.99961 15.6727ZM18.5996 26.4751C14.6246 26.4751 11.399 23.2489 11.399 19.2715C11.399 15.2959 14.624 12.0721 18.5996 12.0721C22.5752 12.0721 25.8002 15.2953 25.8002 19.2715C25.8002 23.2489 22.5752 26.4751 18.5996 26.4751Z" fill="#6635FF"/>
</g>
<defs>
<clipPath id="clip0_72_1633">
<rect width="30" height="30" fill="white" transform="translate(0 0.671875)"/>
</clipPath>
</defs>
</svg>
