<svg width="26" height="26" viewBox="0 0 32 32" fill="none" stroke="currentColor" xmlns="http://www.w3.org/2000/svg">
<path d="M12 12C12 10.3431 13.567 9 15.5 9H16.5C18.433 9 20 10.3431 20 12C20.0756 13.3338 19.2603 14.5568 18 15C16.7397 15.5909 15.9244 17.2217 16 19" stroke-width="1.75" stroke-linecap="round" stroke-linejoin="round"/>
<path d="M12 12C12 10.3431 13.567 9 15.5 9H16.5C18.433 9 20 10.3431 20 12C20.0756 13.3338 19.2603 14.5568 18 15C16.7397 15.5909 15.9244 17.2217 16 19" stroke-width="1.75" stroke-linecap="round" stroke-linejoin="round"/>
<path d="M16 22.9999V23.0099" stroke-width="1.75" stroke-linecap="round" stroke-linejoin="round"/>
<path d="M16 22.9999V23.0099" stroke-width="1.75" stroke-linecap="round" stroke-linejoin="round"/>
<circle cx="16" cy="16" r="15" stroke-width="2"/>
</svg>
