<svg width="36" height="37" viewBox="0 0 36 37" fill="none" xmlns="http://www.w3.org/2000/svg">
<g id="save-time 1">
<path id="Vector" d="M25.5 18.3984C24.0166 18.3984 22.5666 18.8383 21.3332 19.6624C20.0999 20.4865 19.1386 21.6579 18.5709 23.0283C18.0032 24.3988 17.8547 25.9068 18.1441 27.3616C18.4335 28.8165 19.1478 30.1528 20.1967 31.2017C21.2456 32.2506 22.582 32.9649 24.0368 33.2543C25.4917 33.5437 26.9997 33.3952 28.3701 32.8275C29.7406 32.2599 30.9119 31.2986 31.736 30.0652C32.5601 28.8318 33 27.3818 33 25.8984C32.9978 23.91 32.2069 22.0036 30.8009 20.5975C29.3948 19.1915 27.4885 18.4006 25.5 18.3984ZM25.5 25.1484C26.1098 25.1468 26.6999 25.3643 27.1627 25.7615C27.6255 26.1586 27.9301 26.7088 28.0211 27.3118C28.112 27.9149 27.9832 28.5305 27.658 29.0464C27.3329 29.5623 26.8332 29.9442 26.25 30.1224V30.3984C26.25 30.5973 26.171 30.7881 26.0303 30.9288C25.8897 31.0694 25.6989 31.1484 25.5 31.1484C25.3011 31.1484 25.1103 31.0694 24.9697 30.9288C24.829 30.7881 24.75 30.5973 24.75 30.3984V30.1224C24.2305 29.9634 23.7756 29.6424 23.4517 29.2062C23.1278 28.7701 22.952 28.2417 22.95 27.6984C22.95 27.4995 23.029 27.3088 23.1697 27.1681C23.3103 27.0275 23.5011 26.9484 23.7 26.9484C23.8989 26.9484 24.0897 27.0275 24.2303 27.1681C24.371 27.3088 24.45 27.4995 24.45 27.6984C24.45 27.9061 24.5116 28.1091 24.627 28.2818C24.7423 28.4545 24.9063 28.589 25.0982 28.6685C25.29 28.748 25.5012 28.7688 25.7048 28.7283C25.9085 28.6877 26.0956 28.5877 26.2425 28.4409C26.3893 28.2941 26.4893 28.107 26.5298 27.9033C26.5703 27.6996 26.5495 27.4885 26.4701 27.2966C26.3906 27.1048 26.256 26.9408 26.0834 26.8254C25.9107 26.71 25.7077 26.6484 25.5 26.6484C24.8902 26.6501 24.3001 26.4325 23.8373 26.0354C23.3745 25.6383 23.0699 25.088 22.9789 24.485C22.888 23.882 23.0169 23.2664 23.342 22.7505C23.6671 22.2345 24.1668 21.8527 24.75 21.6744V21.3984C24.75 21.1995 24.829 21.0088 24.9697 20.8681C25.1103 20.7275 25.3011 20.6484 25.5 20.6484C25.6989 20.6484 25.8897 20.7275 26.0303 20.8681C26.171 21.0088 26.25 21.1995 26.25 21.3984V21.6744C26.7695 21.8334 27.2244 22.1545 27.5483 22.5907C27.8722 23.0268 28.048 23.5552 28.05 24.0984C28.05 24.2973 27.971 24.4881 27.8303 24.6288C27.6897 24.7694 27.4989 24.8484 27.3 24.8484C27.1011 24.8484 26.9103 24.7694 26.7697 24.6288C26.629 24.4881 26.55 24.2973 26.55 24.0984C26.55 23.8908 26.4884 23.6878 26.373 23.5151C26.2577 23.3424 26.0937 23.2078 25.9018 23.1284C25.71 23.0489 25.4988 23.0281 25.2952 23.0686C25.0915 23.1091 24.9044 23.2091 24.7575 23.356C24.6107 23.5028 24.5107 23.6899 24.4702 23.8936C24.4297 24.0973 24.4505 24.3084 24.5299 24.5003C24.6094 24.6921 24.744 24.8561 24.9167 24.9715C25.0893 25.0869 25.2923 25.1484 25.5 25.1484ZM14.25 7.89844C12.915 7.89844 11.6099 8.29432 10.4999 9.03602C9.38987 9.77772 8.52471 10.8319 8.01382 12.0653C7.50292 13.2987 7.36925 14.6559 7.6297 15.9653C7.89015 17.2747 8.53303 18.4774 9.47703 19.4214C10.421 20.3654 11.6238 21.0083 12.9331 21.2687C14.2425 21.5292 15.5997 21.3955 16.8331 20.8846C18.0665 20.3737 19.1207 19.5086 19.8624 18.3985C20.6041 17.2885 21 15.9835 21 14.6484C20.9972 12.8591 20.2852 11.1438 19.0199 9.87853C17.7546 8.61327 16.0394 7.90121 14.25 7.89844ZM16.2825 16.6809C16.1403 16.8204 15.9491 16.8985 15.75 16.8985C15.5509 16.8985 15.3597 16.8204 15.2175 16.6809L13.7175 15.1809C13.5794 15.0379 13.5015 14.8473 13.5 14.6484V10.1484C13.5 9.94953 13.579 9.75876 13.7197 9.61811C13.8603 9.47746 14.0511 9.39844 14.25 9.39844C14.4489 9.39844 14.6397 9.47746 14.7803 9.61811C14.921 9.75876 15 9.94953 15 10.1484V14.3409L16.2825 15.6159C16.423 15.7575 16.5019 15.9489 16.5019 16.1484C16.5019 16.3479 16.423 16.5393 16.2825 16.6809Z" fill="#6635FF"/>
<path id="Vector_2" d="M14.2497 3.39844C12.6783 3.40107 11.1248 3.7329 9.6894 4.37253C8.25402 5.01217 6.96856 5.94543 5.91587 7.11217C4.86317 8.27891 4.06658 9.65326 3.57744 11.1466C3.08829 12.64 2.91744 14.2193 3.07589 15.7828C3.23434 17.3462 3.71858 18.8591 4.4974 20.224C5.27622 21.5889 6.33235 22.7754 7.59772 23.7073C8.8631 24.6391 10.3097 25.2954 11.8442 25.6341C13.3787 25.9727 14.9672 25.9861 16.5072 25.6734C16.5288 24.5272 16.7733 23.3962 17.2272 22.3434C15.4626 23.0261 13.5171 23.0815 11.7165 22.5004C9.91597 21.9193 8.36987 20.737 7.33732 19.1515C6.30478 17.5661 5.84855 15.674 6.04508 13.7922C6.24161 11.9104 7.07897 10.1534 8.41682 8.81556C9.75467 7.47771 11.5117 6.64035 13.3935 6.44382C15.2752 6.24729 17.1674 6.70352 18.7528 7.73606C20.3382 8.7686 21.5206 10.3147 22.1017 12.1153C22.6828 13.9158 22.6274 15.8614 21.9447 17.6259C22.9974 17.1721 24.1285 16.9275 25.2747 16.9059C25.6064 15.2711 25.5709 13.5829 25.1708 11.9634C24.7707 10.3439 24.016 8.83347 22.9612 7.54112C21.9064 6.24877 20.5777 5.20677 19.0712 4.49036C17.5647 3.77395 15.9179 3.401 14.2497 3.39844Z" fill="#6635FF"/>
</g>
</svg>
