<svg width="32" height="33" viewBox="0 0 32 33" fill="none" xmlns="http://www.w3.org/2000/svg">
<g id="single-money 1">
<g id="single money">
<path id="Vector" d="M29 7.39844H3C2.60218 7.39844 2.22064 7.55647 1.93934 7.83778C1.65804 8.11908 1.5 8.50061 1.5 8.89844V23.8984C1.5 24.2963 1.65804 24.6778 1.93934 24.9591C2.22064 25.2404 2.60218 25.3984 3 25.3984H29C29.3978 25.3984 29.7794 25.2404 30.0607 24.9591C30.342 24.6778 30.5 24.2963 30.5 23.8984V8.89844C30.5 8.50061 30.342 8.11908 30.0607 7.83778C29.7794 7.55647 29.3978 7.39844 29 7.39844ZM29.5 20.8984C29.5 21.031 29.4473 21.1582 29.3536 21.252C29.2598 21.3458 29.1326 21.3984 29 21.3984C28.337 21.3984 27.7011 21.6618 27.2322 22.1307C26.7634 22.5995 26.5 23.2354 26.5 23.8984C26.5 24.031 26.4473 24.1582 26.3536 24.252C26.2598 24.3458 26.1326 24.3984 26 24.3984H6C5.86739 24.3984 5.74021 24.3458 5.64645 24.252C5.55268 24.1582 5.5 24.031 5.5 23.8984C5.5 23.2354 5.23661 22.5995 4.76777 22.1307C4.29893 21.6618 3.66304 21.3984 3 21.3984C2.86739 21.3984 2.74021 21.3458 2.64645 21.252C2.55268 21.1582 2.5 21.031 2.5 20.8984V11.8984C2.5 11.7658 2.55268 11.6387 2.64645 11.5449C2.74021 11.4511 2.86739 11.3984 3 11.3984C3.66304 11.3984 4.29893 11.135 4.76777 10.6662C5.23661 10.1974 5.5 9.56148 5.5 8.89844C5.5 8.76583 5.55268 8.63865 5.64645 8.54488C5.74021 8.45112 5.86739 8.39844 6 8.39844H26C26.1326 8.39844 26.2598 8.45112 26.3536 8.54488C26.4473 8.63865 26.5 8.76583 26.5 8.89844C26.5 9.56148 26.7634 10.1974 27.2322 10.6662C27.7011 11.135 28.337 11.3984 29 11.3984C29.1326 11.3984 29.2598 11.4511 29.3536 11.5449C29.4473 11.6387 29.5 11.7658 29.5 11.8984V20.8984Z" fill="#6635FF"/>
<path id="Vector_2" d="M25.535 9.39844H6.465C6.35719 10.1465 6.01011 10.8396 5.47566 11.3741C4.94121 11.9085 4.2481 12.2556 3.5 12.3634V20.4334C4.2481 20.5412 4.94121 20.8883 5.47566 21.4228C6.01011 21.9572 6.35719 22.6503 6.465 23.3984H25.535C25.6428 22.6503 25.9899 21.9572 26.5243 21.4228C27.0588 20.8883 27.7519 20.5412 28.5 20.4334V12.3634C27.7519 12.2556 27.0588 11.9085 26.5243 11.3741C25.9899 10.8396 25.6428 10.1465 25.535 9.39844ZM16 21.8984C13.5 21.8984 11.5 19.4334 11.5 16.3984C11.5 13.3634 13.5 10.8984 16 10.8984C18.5 10.8984 20.5 13.3634 20.5 16.3984C20.5 19.4334 18.5 21.8984 16 21.8984Z" fill="#6635FF"/>
<path id="Vector_3" d="M16 20.8984C17.933 20.8984 19.5 18.8837 19.5 16.3984C19.5 13.9132 17.933 11.8984 16 11.8984C14.067 11.8984 12.5 13.9132 12.5 16.3984C12.5 18.8837 14.067 20.8984 16 20.8984Z" fill="#6635FF"/>
</g>
</g>
</svg>
