<svg width="48" height="49" viewBox="0 0 48 49" fill="none" xmlns="http://www.w3.org/2000/svg">
<g id="social-media 1">
<path id="Vector" d="M44 1.51074H4C3.20435 1.51074 2.44129 1.82681 1.87868 2.38942C1.31607 2.95203 1 3.71509 1 4.51074V9.51074H47V4.51074C47 3.71509 46.6839 2.95203 46.1213 2.38942C45.5587 1.82681 44.7957 1.51074 44 1.51074ZM5 5.51074C5 5.24553 5.10536 4.99117 5.29289 4.80364C5.48043 4.6161 5.73478 4.51074 6 4.51074C6.26522 4.51074 6.51957 4.6161 6.70711 4.80364C6.89464 4.99117 7 5.24553 7 5.51074C7 5.77596 6.89464 6.03031 6.70711 6.21785C6.51957 6.40539 6.26522 6.51074 6 6.51074C5.73478 6.51074 5.48043 6.40539 5.29289 6.21785C5.10536 6.03031 5 5.77596 5 5.51074ZM10.71 6.22074C10.5217 6.40905 10.2663 6.51483 10 6.51483C9.7337 6.51483 9.4783 6.40905 9.29 6.22074C9.1017 6.03244 8.99591 5.77704 8.99591 5.51074C8.99591 5.24444 9.1017 4.98905 9.29 4.80074C9.4783 4.61244 9.7337 4.50665 10 4.50665C10.2663 4.50665 10.5217 4.61244 10.71 4.80074C10.8983 4.98905 11.0041 5.24444 11.0041 5.51074C11.0041 5.77704 10.8983 6.03244 10.71 6.22074ZM14.71 6.22074C14.5698 6.35977 14.3916 6.4542 14.1979 6.49212C14.0041 6.53004 13.8035 6.50976 13.6212 6.43384C13.439 6.35791 13.2833 6.22973 13.1738 6.06546C13.0642 5.90119 13.0058 5.70817 13.0058 5.51074C13.0058 5.31331 13.0642 5.1203 13.1738 4.95602C13.2833 4.79175 13.439 4.66358 13.6212 4.58765C13.8035 4.51172 14.0041 4.49144 14.1979 4.52936C14.3916 4.56728 14.5698 4.66171 14.71 4.80074C14.8031 4.89436 14.8767 5.00549 14.9266 5.12771C14.9765 5.24992 15.0017 5.38081 15.0008 5.51283C14.9999 5.64484 14.9728 5.77536 14.9212 5.89686C14.8696 6.01836 14.7944 6.12844 14.7 6.22074H14.71ZM26.54 28.5607C26.7012 28.3475 26.7809 28.0837 26.7646 27.8169C26.7483 27.5501 26.6371 27.298 26.4512 27.106C26.2652 26.914 26.0167 26.7948 25.7506 26.77C25.4845 26.7452 25.2182 26.8164 25 26.9707C24.8648 27.1867 24.8059 27.4418 24.8326 27.6952C24.8593 27.9486 24.9701 28.1857 25.1474 28.3687C25.3247 28.5518 25.5582 28.6701 25.8106 28.7049C26.063 28.7397 26.3198 28.689 26.54 28.5607Z" fill="#6635FF"/>
<path id="Vector_2" d="M16.4001 30.5108C23.9601 38.0708 22.8501 37.1808 23.3301 36.9108C28.886 33.7691 33.024 28.6146 34.8901 22.5108C33.1357 21.766 31.7405 20.3671 31.0001 18.6108C24.7773 20.5394 19.5441 24.8048 16.4001 30.5108ZM23.5301 25.5108C23.8932 25.149 24.3398 24.8823 24.8304 24.7341C25.3211 24.5859 25.8406 24.5609 26.3433 24.6612C26.8459 24.7615 27.316 24.9842 27.7122 25.3094C28.1083 25.6346 28.4182 26.0524 28.6145 26.5258C28.8109 26.9993 28.8875 27.5138 28.8377 28.0239C28.7879 28.534 28.6132 29.024 28.3291 29.4506C28.0449 29.8771 27.6601 30.2271 27.2085 30.4696C26.757 30.7121 26.2527 30.8396 25.7401 30.8408C25.1361 30.8241 24.5497 30.6335 24.0513 30.2918C23.5529 29.9501 23.1637 29.4718 22.9303 28.9144C22.697 28.357 22.6295 27.744 22.7359 27.1492C22.8423 26.5543 23.1181 26.0028 23.5301 25.5608V25.5108ZM35.4101 20.5908C35.6499 19.6039 35.8204 18.6015 35.9201 17.5908C34.9098 17.6929 33.9075 17.8633 32.9201 18.1008C33.4434 19.1894 34.3215 20.0675 35.4101 20.5908ZM26.4901 40.6108L27.8001 39.3008L28.3001 35.8908C27.0988 36.8949 25.8142 37.7948 24.4601 38.5808L26.4901 40.6108ZM14.2501 34.3208L19.1201 39.2508L21.1701 38.1208L15.3801 32.3308L14.2501 34.3208ZM13.2001 41.5108C13.8952 41.5164 14.5745 41.3044 15.143 40.9045C15.7115 40.5046 16.1406 39.9369 16.3701 39.2808L14.1901 37.1008C13.5242 37.3443 12.953 37.7934 12.5593 38.3831C12.1656 38.9728 11.9698 39.6724 12.0001 40.3808V41.5108H13.2001Z" fill="#6635FF"/>
<path id="Vector_3" d="M1 44.5107C1 45.3064 1.31607 46.0695 1.87868 46.6321C2.44129 47.1947 3.20435 47.5107 4 47.5107H44C44.7957 47.5107 45.5587 47.1947 46.1213 46.6321C46.6839 46.0695 47 45.3064 47 44.5107V11.5107H1V44.5107ZM12.51 33.3307L13.91 30.8607L10.78 27.7207C10.5937 27.5334 10.4892 27.2799 10.4892 27.0157C10.4892 26.7516 10.5937 26.4981 10.78 26.3107L13 24.0607C13.32 23.7407 13.08 23.8507 19.8 22.8607C24.4745 18.4396 30.5741 15.8331 37 15.5107C37.1356 15.5106 37.2699 15.538 37.3946 15.5914C37.5193 15.6447 37.6318 15.7229 37.7254 15.8211C37.8189 15.9193 37.8915 16.0355 37.9387 16.1627C37.9859 16.2898 38.0068 16.4253 38 16.5607C37.6589 22.9587 35.0537 29.0269 30.65 33.6807C29.65 40.3807 29.78 40.1507 29.45 40.4807C25.94 44.0007 27.1 44.0407 22.65 39.6007C20.76 40.6707 19.32 41.9607 17.88 40.8007C16.14 43.9507 13.07 43.5107 11 43.5107C10.7348 43.5107 10.4804 43.4054 10.2929 43.2178C10.1054 43.0303 10 42.776 10 42.5107V40.4007C9.97736 39.4248 10.2227 38.4613 10.7093 37.6151C11.1959 36.7688 11.9052 36.0721 12.76 35.6007C12.4916 35.2931 12.3238 34.9107 12.2791 34.5049C12.2345 34.0991 12.315 33.6894 12.51 33.3307Z" fill="#6635FF"/>
<path id="Vector_4" d="M17.6204 25.2109L14.2104 25.7109L12.9004 27.0209L14.9004 29.0209C15.696 27.6752 16.6061 26.4005 17.6204 25.2109Z" fill="#6635FF"/>
</g>
</svg>
