<svg width="53" height="52" viewBox="0 0 53 52" fill="none" xmlns="http://www.w3.org/2000/svg">
<g id="store-owner 1" clip-path="url(#clip0_72_1700)">
<path id="Vector" fill-rule="evenodd" clip-rule="evenodd" d="M23.8582 18.9055C23.778 18.8794 23.6978 18.8402 23.6175 18.801C23.457 18.7357 23.3099 18.6442 23.1762 18.5397C23.0425 18.4352 22.9221 18.3045 22.8151 18.1347C22.7215 17.9779 22.6412 17.795 22.5476 17.5598C22.4808 17.3507 22.3871 17.0894 22.3203 16.802C22.2267 16.5015 22.1464 16.1879 22.0929 15.9005C22.0261 15.6 21.9726 15.3256 21.9324 15.0774C21.8923 14.8161 21.8656 14.5678 21.8388 14.3457V14.3327C21.8254 14.1105 21.8254 13.8884 21.8388 13.6794C21.8522 13.4573 21.8789 13.2613 21.9458 13.0784C22.0127 12.8824 22.1464 12.7126 22.2802 12.5688C22.4273 12.4251 22.6145 12.2945 22.8285 12.2291L22.6145 9.25025C22.5209 8.38794 22.5877 7.31658 22.8552 6.34974C23.0826 5.51356 23.4704 4.74271 24.0455 4.2201C24.2327 4.05025 24.7008 4.03718 25.0351 3.95879C25.2491 3.91959 25.1956 3.98492 25.209 3.78894C25.2224 3.55376 25.1822 3.201 25.3294 2.95276C25.53 2.48241 25.7974 2.09045 26.1184 1.75075C29.4752 -1.75076 39.345 -0.0261343 39.2514 7.13366C39.2781 7.27738 39.2915 7.40804 39.3049 7.55176C39.345 7.81306 39.3717 8.07437 39.3851 8.32261C39.452 8.96281 39.452 9.65527 39.4252 10.3608C39.3985 11.001 39.345 11.6412 39.2648 12.2422L39.3584 12.2814C39.5456 12.3467 39.7195 12.4382 39.88 12.5819C40.0404 12.7256 40.1742 12.9216 40.2678 13.1568C40.3347 13.3789 40.3748 13.6271 40.3748 13.9015C40.3881 14.1497 40.3748 14.4241 40.348 14.6724C40.3213 14.9337 40.2945 15.195 40.2544 15.4563C40.2009 15.7176 40.1608 15.9789 40.0939 16.2402C40.0271 16.4884 39.9602 16.7497 39.88 16.9849C39.7863 17.2462 39.7061 17.4814 39.6259 17.6643C39.5322 17.8734 39.452 18.0301 39.3584 18.1739C39.2514 18.3307 39.1444 18.4613 39.0107 18.5658H38.9973C38.8769 18.6703 38.7298 18.7487 38.556 18.8271C38.4356 18.8925 38.3019 18.9317 38.1547 18.9839L38.0745 20.2121C38.0478 20.7085 37.9408 21.1658 37.7535 21.597C37.4326 22.3156 37.0447 22.9558 36.59 23.5045V25.5166C36.59 25.7648 36.4429 25.9477 36.2958 26.1437L31.1737 32.6894C30.9196 33.0161 30.3178 33.003 30.0637 32.6633L25.2224 26.1437C25.0886 25.9477 24.9415 25.7648 24.9415 25.5296V22.6422C24.3531 21.6231 23.9652 20.3688 23.8582 18.9055ZM17.3586 48.603C18.3215 48.603 19.0972 49.3608 19.0972 50.3015C19.0972 51.2422 18.3215 52 17.3586 52C16.3957 52 15.62 51.2422 15.62 50.3015C15.62 49.3608 16.3957 48.603 17.3586 48.603ZM17.3586 49.7136C17.6796 49.7136 17.9471 49.9749 17.9471 50.3015C17.9471 50.6281 17.6796 50.8764 17.3586 50.8764C17.0243 50.8764 16.7568 50.6281 16.7568 50.3015C16.7568 49.9749 17.0243 49.7136 17.3586 49.7136ZM9.22741 48.603C10.1903 48.603 10.966 49.3608 10.966 50.3015C10.966 51.2422 10.1903 52 9.22741 52C8.26451 52 7.48883 51.2422 7.48883 50.3015C7.48883 49.3608 8.26451 48.603 9.22741 48.603ZM9.22741 49.7136C9.54838 49.7136 9.81586 49.9749 9.81586 50.3015C9.81586 50.6281 9.54838 50.8764 9.22741 50.8764C8.89307 50.8764 8.6256 50.6281 8.6256 50.3015C8.6256 49.9749 8.89307 49.7136 9.22741 49.7136ZM0.414141 34.9759C0.146667 34.9367 -0.0405647 34.7015 -0.000443577 34.4402C0.0530512 34.1789 0.293778 33.996 0.561252 34.0352L2.84816 34.401C3.15575 34.4533 3.40985 34.5709 3.62383 34.7668C3.83781 34.9497 3.98492 35.198 4.06516 35.4854L6.84689 45.5457C6.92714 45.8332 7.12774 46.1075 7.38184 46.3035C7.63594 46.4995 7.93016 46.6171 8.25113 46.6171H20.0869C20.3543 46.6171 20.5817 46.8261 20.5817 47.1005C20.5817 47.3618 20.3543 47.5709 20.0869 47.5709H8.25113C7.70281 47.5709 7.19461 47.3749 6.78003 47.0482C6.35207 46.7216 6.0311 46.2643 5.91073 45.7809L3.11563 35.7337C3.08888 35.6161 3.03539 35.5246 2.95515 35.4593C2.88828 35.407 2.80803 35.3548 2.70105 35.3417L0.414141 34.9759ZM17.7866 37.4975H19.9799C20.6619 37.4975 21.2905 38.007 21.0498 38.8955L19.2176 45.3367C19.0571 45.9246 18.696 46.0945 18.0139 46.0945H8.63897C7.95691 46.0945 7.54233 45.598 7.40859 45.01L5.58977 37.9025C5.56302 37.798 5.58977 37.7065 5.65663 37.6281C5.7235 37.5367 5.81712 37.4975 5.91073 37.4975H10.4845H17.7866ZM13.2663 40.0322C13.2663 39.8623 13.4134 39.7186 13.5872 39.7186C13.7745 39.7186 13.9216 39.8623 13.9216 40.0322L13.9082 43.5598C13.9082 43.7427 13.7745 43.8734 13.5872 43.8734C13.4134 43.8734 13.2663 43.7427 13.2663 43.5598V40.0322ZM8.77271 40.0583C8.71921 39.8884 8.8262 39.7186 9.00006 39.6663C9.17392 39.6271 9.34778 39.7317 9.40127 39.9015L10.3909 43.5337C10.431 43.7035 10.3241 43.8864 10.1502 43.9256C9.97634 43.9648 9.80248 43.8734 9.76236 43.7035L8.77271 40.0583ZM17.2918 39.9015C17.3319 39.7317 17.5057 39.6271 17.6796 39.6663C17.8535 39.7186 17.9604 39.8884 17.9203 40.0583L16.9307 43.7035C16.8772 43.8734 16.7033 43.9648 16.5295 43.9256C16.3556 43.8864 16.2486 43.7035 16.3021 43.5337L17.2918 39.9015ZM39.2246 25.7648C42.8355 26.0392 50.151 27.5809 51.2476 34.9367L52.9862 46.6171C53.0263 46.8523 52.9594 47.0613 52.799 47.2312C52.6518 47.4141 52.4512 47.5055 52.2105 47.5055L21.9057 47.6231C21.9592 47.4663 21.9859 47.2834 21.9859 47.1005C21.9859 46.2774 21.4376 45.5719 20.6887 45.3367L22.4005 39.2613C22.8686 37.6151 21.7185 36.1256 19.9799 36.1256H9.44139C10.6985 28.6784 17.7866 25.595 22.4808 25.5296L20.4212 32.1407C20.0735 33.2774 20.8893 33.4472 21.237 33.2121L24.1658 31.1869C24.2728 31.1216 24.3932 31.1085 24.5002 31.1347C24.6206 31.1739 24.6874 31.2653 24.7543 31.3698L30.077 39.0653C30.2509 39.3136 30.505 39.4834 30.8126 39.4834C31.1202 39.4834 31.3743 39.3136 31.5481 39.0653L36.8575 31.3698C36.9377 31.2653 36.9912 31.1739 37.1116 31.1347C37.232 31.1085 37.3523 31.1216 37.4593 31.1869L40.4951 33.0683C41.0435 33.395 41.4313 32.9116 41.1906 32.1407L39.2246 25.7648ZM40.9766 38.0854H45.3899C45.6975 38.0854 45.965 38.3337 45.965 38.6342V40.6985C45.965 42.1487 44.748 43.3246 43.2769 43.3246C41.7924 43.3246 40.5888 42.1487 40.5888 40.6985V38.4513C40.5888 38.2422 40.7626 38.0854 40.9766 38.0854Z" fill="#6635FF"/>
</g>
<defs>
<clipPath id="clip0_72_1700">
<rect width="53" height="52" fill="white"/>
</clipPath>
</defs>
</svg>
