<svg width="36" height="34" viewBox="0 0 36 34" fill="none" xmlns="http://www.w3.org/2000/svg">
<g id="studio-light 1">
<path id="Vector" d="M18.0005 31.7532C17.8204 31.7532 17.6476 31.6856 17.5202 31.5653C17.3929 31.445 17.3213 31.2818 17.3213 31.1117V19.2694C17.3213 19.0993 17.3929 18.9361 17.5202 18.8158C17.6476 18.6955 17.8204 18.6279 18.0005 18.6279C18.1807 18.6279 18.3535 18.6955 18.4808 18.8158C18.6082 18.9361 18.6798 19.0993 18.6798 19.2694V31.1117C18.6798 31.2818 18.6082 31.445 18.4808 31.5653C18.3535 31.6856 18.1807 31.7532 18.0005 31.7532Z" fill="#D9D0F7"/>
<path id="Vector_2" d="M18.6798 19.2704V31.1127C18.6798 31.4655 18.3741 31.7542 18.0005 31.7542C17.6269 31.7542 17.3213 31.4655 17.3213 31.1127V19.2704C17.3213 18.9176 17.6269 18.6289 18.0005 18.6289C18.3741 18.6289 18.6798 18.9176 18.6798 19.2704Z" fill="#D9D0F7"/>
<path id="Vector_3" d="M18.6798 19.2704V23.4146H17.3213V19.2704C17.3213 18.9176 17.6269 18.6289 18.0005 18.6289C18.3741 18.6289 18.6798 18.9176 18.6798 19.2704Z" fill="#CDC2EF"/>
<path id="Vector_4" d="M21.9264 7.66773L22.6485 3.09569C22.6777 2.91101 22.6643 2.72254 22.6094 2.54316C22.5545 2.36378 22.4592 2.19769 22.3302 2.05624C22.2011 1.91479 22.0412 1.80129 21.8615 1.7235C21.6817 1.64571 21.4863 1.60545 21.2886 1.60547H14.7108C14.5131 1.60545 14.3177 1.64571 14.1379 1.7235C13.9582 1.80129 13.7983 1.91479 13.6692 2.05624C13.5402 2.19769 13.4449 2.36378 13.39 2.54316C13.335 2.72254 13.3217 2.91101 13.3509 3.09569L14.073 7.66773C14.1728 8.30411 14.7515 8.77498 15.4328 8.77498H20.5666C20.8961 8.77499 21.2147 8.66319 21.4643 8.45996C21.7139 8.25673 21.8779 7.97558 21.9264 7.66773ZM14.0737 16.3217L13.3516 20.8944C13.3224 21.0791 13.3357 21.2675 13.3907 21.4469C13.4456 21.6263 13.5408 21.7924 13.6699 21.9338C13.799 22.0753 13.9589 22.1888 14.1386 22.2666C14.3184 22.3444 14.5138 22.3846 14.7115 22.3846H21.2893C22.1295 22.3846 22.7728 21.6789 22.6491 20.8944L21.9271 16.3223C21.8786 16.0145 21.7146 15.7333 21.465 15.5301C21.2154 15.3269 20.8968 15.2151 20.5672 15.2151H15.4335C15.104 15.2151 14.7854 15.3269 14.5358 15.5301C14.2862 15.7333 14.1222 16.0145 14.0737 16.3223V16.3217ZM13.4189 8.28615L8.57721 7.60422C8.38171 7.57674 8.18223 7.58939 7.99238 7.64132C7.80253 7.69324 7.62676 7.78322 7.47707 7.90511C7.32737 8.02701 7.20726 8.17796 7.12494 8.34766C7.04261 8.51737 6.99999 8.70185 7 8.88853V15.1009C7 15.8944 7.74649 16.5026 8.57721 16.3852L13.4189 15.7039C14.092 15.609 14.5912 15.0624 14.5912 14.4196V9.57045C14.5913 9.25921 14.4729 8.95832 14.2577 8.72259C14.0425 8.48686 13.7448 8.33197 13.4189 8.28615ZM22.5819 15.7039L27.4235 16.3852C27.619 16.4127 27.8185 16.4 28.0084 16.3481C28.1982 16.2962 28.374 16.2062 28.5237 16.0843C28.6734 15.9624 28.7935 15.8115 28.8758 15.6418C28.9581 15.4721 29.0008 15.2876 29.0008 15.1009V8.88853C29.0008 8.09562 28.2543 7.48747 27.4235 7.60422L22.5819 8.28615C21.9088 8.38109 21.4095 8.92766 21.4095 9.57045V14.4196C21.4095 15.0624 21.9088 15.609 22.5819 15.7039Z" fill="#464647"/>
<path id="Vector_5" d="M13.4159 15.7057L12.5125 15.834C11.6295 14.7434 11.1064 13.377 11.1064 11.8951C11.1064 10.4966 11.5751 9.20077 12.3698 8.13586L13.4159 8.28341C14.0951 8.37964 14.591 8.92492 14.591 9.57285V14.4162C14.591 15.0642 14.0951 15.6095 13.4159 15.7057ZM21.9268 16.3215L22.0559 17.1555C20.8807 17.9714 19.4594 18.4098 18.0008 18.4064C16.4861 18.4064 15.08 17.9381 13.9389 17.1555L14.0747 16.3215C14.1766 15.6864 14.754 15.2117 15.4332 15.2117H20.5683C21.2476 15.2117 21.8249 15.6864 21.9268 16.3215ZM14.0747 7.66756L13.9117 6.65398C15.0529 5.85851 16.4725 5.38379 18.0008 5.38379C19.5291 5.38379 20.9487 5.85851 22.0898 6.65398L21.9268 7.66756C21.8249 8.30266 21.2476 8.77737 20.5683 8.77737H15.4332C14.754 8.77737 14.1766 8.30266 14.0747 7.66756ZM24.8951 11.8951C24.8951 13.377 24.3721 14.7434 23.4891 15.834L22.5789 15.7057C21.9064 15.6095 21.4106 15.0642 21.4106 14.4162V9.57285C21.4106 8.92492 21.9064 8.37964 22.5789 8.28341L23.6317 8.13586C24.4264 9.20077 24.8951 10.4966 24.8951 11.8951Z" fill="#2C2C2D"/>
<path id="Vector_6" d="M17.9999 17.4444C21.2456 17.4444 23.8767 14.9595 23.8767 11.8941C23.8767 8.82872 21.2456 6.34375 17.9999 6.34375C14.7542 6.34375 12.123 8.82872 12.123 11.8941C12.123 14.9595 14.7542 17.4444 17.9999 17.4444Z" fill="#9879F7"/>
<path id="Vector_7" d="M23.8765 11.8954C23.8765 14.9618 21.2478 17.4445 18.001 17.4445C17.1654 17.4447 16.3394 17.2766 15.578 16.9513C14.8167 16.6261 14.1375 16.1512 13.5859 15.5584C14.6559 16.4369 16.0263 16.92 17.4441 16.9184C20.6908 16.9184 23.3195 14.4358 23.3195 11.3694C23.3195 9.97728 22.7761 8.70068 21.8795 7.72559C22.5072 8.24651 23.0101 8.88792 23.3544 9.60698C23.6988 10.326 23.8768 11.1062 23.8765 11.8954Z" fill="#6635FF"/>
<path id="Vector_8" d="M18.0002 15.5708C20.1501 15.5708 21.8929 13.9247 21.8929 11.8943C21.8929 9.86379 20.1501 8.21777 18.0002 8.21777C15.8503 8.21777 14.1074 9.86379 14.1074 11.8943C14.1074 13.9247 15.8503 15.5708 18.0002 15.5708Z" fill="#6738F9"/>
<path id="Vector_9" d="M20.9959 9.54765C20.3303 9.03444 19.4744 8.72652 18.5371 8.72652C16.3907 8.72652 14.645 10.3752 14.645 12.4024C14.6417 13.2481 14.949 14.0688 15.5144 14.7246C15.0741 14.3798 14.7198 13.9475 14.4767 13.4585C14.2337 12.9695 14.1079 12.4358 14.1084 11.8956C14.1084 9.86841 15.8541 8.21973 18.0005 8.21973C19.2027 8.21973 20.2827 8.73293 20.9959 9.54765Z" fill="#5020E5"/>
<path id="Vector_10" opacity="0.3" d="M19.5494 15.2699C19.0739 15.4624 18.5509 15.5714 18.0007 15.5714C17.5388 15.5714 17.0905 15.4944 16.6829 15.3469H16.6761L14.5977 10.1122C15.0812 9.29194 15.8781 8.67699 16.8256 8.39293L19.5494 15.2699ZM21.3969 13.6854C21.1456 14.1152 20.806 14.4937 20.3916 14.7888L17.7901 8.23256C17.858 8.21973 17.926 8.21973 18.0007 8.21973C18.4626 8.21973 18.9041 8.29671 19.3184 8.44426L21.3969 13.6854Z" fill="white"/>
<path id="Vector_11" d="M12.1549 32.2068C12.0276 32.0865 11.9561 31.9233 11.9561 31.7532C11.9561 31.5831 12.0276 31.42 12.1549 31.2997L17.5203 26.2318C17.6477 26.1115 17.8204 26.0439 18.0005 26.0439C18.1806 26.0439 18.3534 26.1115 18.4807 26.2318L23.8468 31.2997C23.9117 31.3589 23.9634 31.4297 23.999 31.5079C24.0346 31.5862 24.0533 31.6704 24.0541 31.7556C24.0549 31.8407 24.0377 31.9252 24.0036 32.004C23.9694 32.0829 23.919 32.1545 23.8552 32.2147C23.7914 32.275 23.7156 32.3226 23.6321 32.3549C23.5486 32.3871 23.4592 32.4034 23.369 32.4026C23.2788 32.4019 23.1897 32.3842 23.1068 32.3506C23.0239 32.3169 22.949 32.2681 22.8863 32.2068L18.0005 27.5931L13.1154 32.2068C12.988 32.3271 12.8153 32.3946 12.6352 32.3946C12.455 32.3946 12.2823 32.3271 12.1549 32.2068Z" fill="#EAE3FF"/>
<path id="Vector_12" opacity="0.3" d="M19.3381 3.22721H19.3857C19.4687 3.22721 19.5484 3.19606 19.6071 3.14059C19.6658 3.08513 19.6988 3.00991 19.6988 2.93148C19.6988 2.85304 19.6658 2.77782 19.6071 2.72236C19.5484 2.6669 19.4687 2.63574 19.3857 2.63574H19.3381C19.2551 2.63574 19.1755 2.6669 19.1167 2.72236C19.058 2.77782 19.025 2.85304 19.025 2.93148C19.025 3.00991 19.058 3.08513 19.1167 3.14059C19.1755 3.19606 19.2551 3.22721 19.3381 3.22721ZM16.6144 3.22721H18.2303C18.3133 3.22721 18.393 3.19606 18.4517 3.14059C18.5104 3.08513 18.5434 3.00991 18.5434 2.93148C18.5434 2.85304 18.5104 2.77782 18.4517 2.72236C18.393 2.6669 18.3133 2.63574 18.2303 2.63574H16.6144C16.5313 2.63574 16.4517 2.6669 16.393 2.72236C16.3342 2.77782 16.3012 2.85304 16.3012 2.93148C16.3012 3.00991 16.3342 3.08513 16.393 3.14059C16.4517 3.19606 16.5313 3.22721 16.6144 3.22721ZM8.08984 13.2585V13.3034C8.08984 13.3818 8.12283 13.4571 8.18156 13.5125C8.24028 13.568 8.31993 13.5991 8.40298 13.5991C8.48602 13.5991 8.56567 13.568 8.62439 13.5125C8.68312 13.4571 8.71611 13.3818 8.71611 13.3034V13.2585C8.71611 13.1801 8.68315 13.105 8.62449 13.0496C8.56583 12.9942 8.48627 12.9631 8.40332 12.9631C8.32036 12.9631 8.2408 12.9942 8.18214 13.0496C8.12348 13.105 8.09052 13.1801 8.09052 13.2585H8.08984ZM8.08984 10.6867V12.2122C8.08984 12.2906 8.12283 12.3659 8.18156 12.4213C8.24028 12.4768 8.31993 12.5079 8.40298 12.5079C8.48602 12.5079 8.56567 12.4768 8.62439 12.4213C8.68312 12.3659 8.71611 12.2906 8.71611 12.2122V10.6867C8.71611 10.6083 8.68315 10.5332 8.62449 10.4778C8.56583 10.4224 8.48627 10.3913 8.40332 10.3913C8.32036 10.3913 8.2408 10.4224 8.18214 10.4778C8.12348 10.5332 8.09052 10.6083 8.09052 10.6867H8.08984ZM27.9102 10.7316V10.6867C27.9102 10.6082 27.8772 10.5329 27.8184 10.4773C27.7596 10.4218 27.6799 10.3906 27.5968 10.3906C27.5136 10.3906 27.4339 10.4218 27.3751 10.4773C27.3163 10.5329 27.2833 10.6082 27.2833 10.6867V10.7316C27.2833 10.81 27.3163 10.8852 27.375 10.9407C27.4337 10.9962 27.5134 11.0273 27.5964 11.0273C27.6795 11.0273 27.7591 10.9962 27.8178 10.9407C27.8766 10.8852 27.9102 10.81 27.9102 10.7316ZM27.9102 13.3034V11.7779C27.9102 11.6994 27.8772 11.6241 27.8184 11.5686C27.7596 11.513 27.6799 11.4818 27.5968 11.4818C27.5136 11.4818 27.4339 11.513 27.3751 11.5686C27.3163 11.6241 27.2833 11.6994 27.2833 11.7779V13.3034C27.2833 13.3818 27.3163 13.4571 27.375 13.5125C27.4337 13.568 27.5134 13.5991 27.5964 13.5991C27.6795 13.5991 27.7591 13.568 27.8178 13.5125C27.8766 13.4571 27.9102 13.3818 27.9102 13.3034ZM16.6619 21.3543H16.6144C16.5312 21.3543 16.4515 21.3232 16.3927 21.2676C16.3339 21.2121 16.3009 21.1368 16.3009 21.0583C16.3009 20.9798 16.3339 20.9045 16.3927 20.8489C16.4515 20.7934 16.5312 20.7622 16.6144 20.7622H16.6619C16.7451 20.7622 16.8248 20.7934 16.8836 20.8489C16.9424 20.9045 16.9754 20.9798 16.9754 21.0583C16.9754 21.1368 16.9424 21.2121 16.8836 21.2676C16.8248 21.3232 16.7451 21.3543 16.6619 21.3543ZM19.3857 21.3543H17.7691C17.686 21.3543 17.6062 21.3232 17.5474 21.2676C17.4886 21.2121 17.4556 21.1368 17.4556 21.0583C17.4556 20.9798 17.4886 20.9045 17.5474 20.8489C17.6062 20.7934 17.686 20.7622 17.7691 20.7622H19.3843C19.4675 20.7622 19.5472 20.7934 19.606 20.8489C19.6648 20.9045 19.6978 20.9798 19.6978 21.0583C19.6978 21.1368 19.6648 21.2121 19.606 21.2676C19.5472 21.3232 19.4675 21.3543 19.3843 21.3543H19.3857Z" fill="white"/>
</g>
</svg>
