<svg width="36" height="37" viewBox="0 0 36 37" fill="none" xmlns="http://www.w3.org/2000/svg">
<g id="visual-design 1" clip-path="url(#clip0_72_1598)">
<g id="Group">
<path id="Vector" d="M31.2042 14.3922H31.8918V15.0798H31.2042V14.3922ZM4.1084 14.3922H4.796V15.0798H4.1084V14.3922ZM31.8522 13.6269L31.1682 13.6989L31.0962 13.0149L31.7802 12.9429L31.8522 13.6269ZM4.14872 15.8459L4.83272 15.7739L4.90472 16.4579L4.22072 16.5299L4.14872 15.8459ZM31.6614 12.184L30.9889 12.3266L30.8463 11.6541L31.5188 11.5108L31.6614 12.184ZM4.34024 17.2881L5.01272 17.1448L5.15528 17.8173L4.4828 17.9606L4.34024 17.2881ZM31.3165 10.7692L30.6627 10.9816L30.4503 10.3278L31.1041 10.1147L31.3165 10.7692ZM4.68296 18.7022L5.33672 18.4898L5.54912 19.1442L4.89536 19.3566L4.68296 18.7022ZM30.8305 9.40121L30.2019 9.68129L29.9218 9.05273L30.5497 8.77337L30.8305 9.40121ZM5.16968 20.0716L5.79752 19.7922L6.07688 20.4201L5.44904 20.7002L5.16968 20.0716ZM30.2041 8.08793L29.6086 8.43137L29.2645 7.83593L29.8599 7.49177L30.2041 8.08793ZM5.79824 21.3849L6.39368 21.0407L6.73712 21.6362L6.14168 21.9803L5.79824 21.3849ZM29.4409 6.85025L28.8843 7.25417L28.4804 6.69833L29.0362 6.29369L29.4409 6.85025ZM6.55928 22.624L7.11584 22.2201L7.51976 22.7759L6.9632 23.1806L6.55928 22.624ZM28.0945 5.18633L28.5538 5.69753L28.0426 6.15689L27.5833 5.64569L28.0945 5.18633ZM7.90784 24.2872L7.44776 23.776L7.95896 23.3159L8.41976 23.8271L7.90784 24.2872ZM27.0908 5.15321L26.5796 4.69313L27.0404 4.18193L27.5516 4.64273L27.0908 5.15321ZM8.96048 25.2902L8.44928 24.8294L8.91008 24.3182L9.42128 24.779L8.96048 25.2902ZM26.0389 4.25681L25.4823 3.85217L25.8862 3.29633L26.4428 3.69953L26.0389 4.25681ZM10.1139 26.1772L9.55736 25.7733L9.962 25.2167L10.5178 25.6206L10.1139 26.1772ZM24.8998 3.47417L24.3044 3.13001L24.6486 2.53457L25.244 2.87801L24.8998 3.47417ZM11.353 26.939L10.7576 26.5955L11.101 26.0001L11.6965 26.3442L11.353 26.939ZM23.6838 2.81321L23.0559 2.53385L23.3353 1.90529L23.9638 2.18537L23.6838 2.81321ZM22.4065 2.28473L21.752 2.07305L21.9644 1.41857L22.6189 1.63097L22.4065 2.28473ZM21.0817 1.89377L20.4092 1.75049L20.5525 1.07801L21.225 1.22129L21.0817 1.89377ZM19.723 1.64105L19.039 1.56905L19.111 0.885047L19.795 0.957047L19.723 1.64105ZM17.6559 0.844727H18.3435V1.53233H17.6559V0.844727ZM16.2778 1.64033L16.2058 0.956327L16.8898 0.884327L16.9618 1.56833L16.2778 1.64033ZM14.9185 1.89377L14.7759 1.22057L15.4484 1.07801L15.5917 1.75049L14.9185 1.89377ZM13.593 2.28473L13.3798 1.63169L14.0343 1.41857L14.2467 2.07305L13.593 2.28473ZM12.3164 2.81393L12.0363 2.18609L12.6642 1.90601L12.9442 2.53385L12.3164 2.81393ZM11.1003 3.47417L10.7562 2.87873L11.3516 2.53457L11.6958 3.13001L11.1003 3.47417ZM24.6486 26.939L24.3051 26.3435L24.9006 25.9994L25.244 26.5948L24.6486 26.939ZM10.1132 3.29561L10.5171 3.85217L9.96128 4.25609L9.55664 3.70025L10.1132 3.29561ZM25.8884 26.1779L25.4845 25.6221L26.0403 25.2174L26.445 25.774L25.8884 26.1779ZM8.90936 5.15393L8.44928 4.64273L8.96048 4.18193L9.42128 4.69313L8.90936 5.15393ZM27.0397 25.2887L26.5789 24.7775L27.0901 24.3167L27.5509 24.8279L27.0397 25.2887ZM7.90568 5.18489L8.41688 5.64569L7.9568 6.15617L7.4456 5.69537L7.90568 5.18489ZM28.0938 24.2872L27.5826 23.8264L28.0434 23.3159L28.5538 23.7767L28.0938 24.2872ZM6.96392 6.29297L7.51976 6.69689L7.11656 7.25345L6.55928 6.84953L6.96392 6.29297ZM29.0355 23.1791L28.479 22.7759L28.8829 22.2194L29.4394 22.6226L29.0355 23.1791ZM6.14168 7.49249L6.7364 7.83665L6.39296 8.43209L5.79752 8.08793L6.14168 7.49249ZM29.8578 21.9789L29.2623 21.6354L29.6058 21.04L30.2012 21.3834L29.8578 21.9789ZM5.44904 8.77193L6.0776 9.05201L5.79752 9.68057L5.16968 9.40049L5.44904 8.77193ZM30.5497 20.7016L29.9218 20.4222L30.2019 19.7937L30.8298 20.0738L30.5497 20.7016ZM4.89392 10.1162L5.5484 10.3286L5.33528 10.983L4.68152 10.7706L4.89392 10.1162ZM31.1077 19.3552L30.4532 19.1428L30.6663 18.489L31.3201 18.7014L31.1077 19.3552ZM4.48352 11.5108L5.156 11.6541L5.01344 12.3266L4.34096 12.1833L4.48352 11.5108ZM31.5181 17.962L30.8456 17.8187L30.9882 17.1462L31.6606 17.2895L31.5181 17.962ZM4.22072 12.9422L4.90472 13.0142L4.83272 13.6982L4.14872 13.6262L4.22072 12.9422ZM31.7809 16.5299L31.0969 16.4579L31.1689 15.7739L31.8529 15.8459L31.7809 16.5299Z" fill="white"/>
</g>
<path id="Vector_2" d="M18.0032 29.2529L13.1201 30.0622L17.4725 35.1605C17.5381 35.2371 17.6195 35.2987 17.7111 35.3408C17.8027 35.383 17.9023 35.4049 18.0032 35.4049C18.104 35.4049 18.2036 35.383 18.2953 35.3408C18.3869 35.2987 18.4682 35.2371 18.5338 35.1605L22.879 30.0629L18.0032 29.2529Z" fill="#8B66FF"/>
<path id="Vector_3" d="M16.3477 33.8447L17.4701 35.1602C17.5357 35.2368 17.6171 35.2983 17.7087 35.3405C17.8003 35.3827 17.8999 35.4045 18.0008 35.4045C18.1016 35.4045 18.2013 35.3827 18.2929 35.3405C18.3845 35.2983 18.4659 35.2368 18.5314 35.1602L19.6525 33.8454L16.3477 33.8447Z" fill="#666666"/>
<path id="Vector_4" d="M12.1155 23.5824C13.8737 24.7106 13.5634 26.4415 13.5634 28.8089H22.436C22.436 26.4876 22.1098 24.7229 23.8889 23.5795C26.9064 21.6406 28.908 18.2587 28.908 14.4053C28.908 8.20896 23.7413 3.21864 17.4809 3.50808C11.8037 3.77088 7.18637 8.53656 7.09133 14.2188C7.02725 18.1507 9.04613 21.6118 12.1155 23.5824Z" fill="#E6E6E6"/>
<path id="Vector_5" d="M20.0647 30.0623V26.5127H15.9326V30.0623C16.9471 31.4749 19.0495 31.4749 20.0647 30.0623Z" fill="#7455D5"/>
<g id="Group_2">
<path id="Vector_6" d="M20.0628 26.5134V30.0623C20.6287 30.8478 21.1349 31.1826 22.0011 31.0904L22.878 30.063L22.8809 27.1499C22.8809 26.3341 22.0464 26.5134 20.0628 26.5134ZM13.122 27.1499L13.1191 30.063L13.9903 31.0897C14.8565 31.1819 15.3627 30.8471 15.9286 30.0616V26.5134C13.9839 26.5134 13.122 26.3262 13.122 27.1499Z" fill="white"/>
</g>
<path id="Vector_7" d="M18 22.6045C22.3455 22.6045 25.8682 19.0818 25.8682 14.7363C25.8682 10.3909 22.3455 6.86816 18 6.86816C13.6545 6.86816 10.1318 10.3909 10.1318 14.7363C10.1318 19.0818 13.6545 22.6045 18 22.6045Z" fill="white"/>
<path id="Vector_8" d="M17.9993 19.3454C20.5447 19.3454 22.6081 17.282 22.6081 14.7366C22.6081 12.1913 20.5447 10.1279 17.9993 10.1279C15.454 10.1279 13.3906 12.1913 13.3906 14.7366C13.3906 17.282 15.454 19.3454 17.9993 19.3454Z" fill="#515151"/>
<path id="Vector_9" d="M19.5504 14.5061C20.2805 14.5061 20.8724 13.9143 20.8724 13.1842C20.8724 12.4541 20.2805 11.8623 19.5504 11.8623C18.8204 11.8623 18.2285 12.4541 18.2285 13.1842C18.2285 13.9143 18.8204 14.5061 19.5504 14.5061Z" fill="white"/>
</g>
<defs>
<clipPath id="clip0_72_1598">
<rect width="36" height="36" fill="white" transform="translate(0 0.125)"/>
</clipPath>
</defs>
</svg>
