<svg width="97" height="94" viewBox="0 0 97 94" fill="none" xmlns="http://www.w3.org/2000/svg">
<g clip-path="url(#clip0_37_518)">
<path d="M94.4701 0.679688H1.94977C0.9889 0.679688 0.209961 1.45863 0.209961 2.4195V91.3846C0.209961 92.3455 0.9889 93.1244 1.94977 93.1244H94.4701C95.431 93.1244 96.21 92.3455 96.21 91.3846V2.4195C96.21 1.45863 95.431 0.679688 94.4701 0.679688Z" fill="url(#paint0_linear_37_518)"/>
<path d="M49.8957 12.7543C43.1425 12.4216 36.4423 14.0989 30.6423 17.574C24.8423 21.0492 20.203 26.1662 17.3111 32.278C14.4192 38.3897 13.4046 45.2218 14.3955 51.9102C15.3864 58.5986 18.3384 64.843 22.8781 69.8537C27.4179 74.8645 33.3415 78.4165 39.8999 80.0608C46.4584 81.705 53.3571 81.3675 59.7238 79.091C66.0904 76.8145 71.6391 72.7013 75.6681 67.2714C79.6971 61.8415 82.0255 55.3388 82.3589 48.5856C82.8049 39.5294 79.6354 30.6668 73.5475 23.9473C67.4596 17.2277 58.9519 13.2016 49.8957 12.7543ZM68.8584 52.9371C65.9601 62.6514 59.2596 71.3146 54.2353 72.5249C49.211 73.7352 39.4449 68.9816 32.4339 61.6521C25.423 54.3226 21.2586 44.473 22.9426 39.2376C24.4077 34.6751 33.2063 28.0901 43.036 25.7014C52.8657 23.3126 63.7385 25.1878 67.1624 28.5997C70.873 32.2864 71.7807 43.1432 68.8584 52.9371Z" fill="white"/>
<path d="M30.6303 59.6331C28.2365 56.7946 26.2407 53.6429 24.6983 50.2653C24.2332 49.2832 23.8419 48.2678 23.5278 47.2276C23.5266 47.2103 23.5266 47.193 23.5278 47.1758C22.5484 44.1023 22.3055 41.3114 22.9585 39.2372C23.699 36.9081 26.0877 34.7463 26.0877 34.7344C21.0276 39.5875 16.3854 48.0795 15.5215 56.9378L30.6503 59.657L30.6303 59.6331Z" fill="url(#paint1_linear_37_518)"/>
<path d="M67.9714 55.883V55.5645C66.5301 59.689 60.8449 70.9998 54.037 72.5644C52.6037 72.8949 50.7246 72.6321 48.8613 72.1663C48.8613 72.1663 49.7929 72.4131 49.785 72.4251C56.4974 74.4993 64.8023 74.0176 73.0156 70.4066L67.9714 55.883Z" fill="url(#paint2_linear_37_518)"/>
<path d="M55.701 13.707L45.8594 25.1372C50.6162 24.3624 55.4753 24.4731 60.1919 25.4637H60.2436C63.4286 26.2201 66.0045 27.2433 67.4298 28.8836C68.3495 29.9466 68.9944 31.1648 69.6673 33.4779C67.8319 26.7894 62.8076 18.7075 55.701 13.707Z" fill="url(#paint3_linear_37_518)"/>
<path d="M41.5835 46.5684C42.0791 46.6952 42.517 46.9863 42.8258 47.3941C43.1345 47.802 43.2959 48.3024 43.2835 48.8138C43.2835 50.4859 41.9498 51.4773 39.6407 51.4773C37.4908 51.4773 36.2686 50.4183 36.2686 49.4866C36.272 49.3411 36.3074 49.198 36.3721 49.0676C36.4369 48.9372 36.5295 48.8225 36.6434 48.7318C36.7573 48.6411 36.8897 48.5764 37.0313 48.5424C37.1729 48.5085 37.3203 48.506 37.4629 48.5351C37.7496 49.4588 38.5618 49.9365 39.6367 49.9365C40.7116 49.9365 41.3765 49.4588 41.3765 48.6864C41.3765 47.9141 40.8629 47.492 39.8159 47.492H39.3381C38.6732 47.492 38.4025 47.2452 38.4025 46.8112V46.7037C38.4025 46.2419 38.713 46.023 39.3142 46.023H39.9671C40.7634 46.023 41.2173 45.6248 41.2173 45.0038C41.2173 44.3827 40.6161 43.889 39.6248 43.889C39.2007 43.8535 38.7767 43.9576 38.4173 44.1854C38.0579 44.4133 37.7829 44.7524 37.6341 45.1511C37.4949 45.1777 37.3516 45.1737 37.214 45.1393C37.0765 45.1049 36.9482 45.041 36.8379 44.9519C36.7276 44.8629 36.6381 44.7508 36.5755 44.6236C36.5129 44.4965 36.4788 44.3572 36.4756 44.2155C36.4756 43.2918 37.7018 42.3522 39.6327 42.3522C41.8622 42.3522 43.0964 43.2082 43.0964 44.741C43.1044 45.6447 42.5749 46.2698 41.5835 46.5684ZM48.5985 45.7005C50.3662 45.7005 51.5486 46.652 51.5486 48.3361V48.4077C51.5486 50.2152 50.1193 51.4773 48.069 51.4773C45.6484 51.4773 44.247 49.833 44.247 47.3447V46.5485C44.247 43.9248 45.7559 42.3204 48.2044 42.3204C50.1472 42.3204 51.1943 43.1166 51.1943 44.0204C51.1943 44.8166 50.2428 44.944 50.2149 44.9042C50.0192 44.5867 49.7421 44.3273 49.4124 44.153C49.0827 43.9787 48.7123 43.8958 48.3397 43.9129C46.9383 43.9129 46.2177 44.7808 46.2177 46.4927V46.5604C46.8802 45.9937 47.7267 45.6879 48.5985 45.7005ZM48.0292 49.9684C48.9528 49.9684 49.6217 49.3991 49.6217 48.5431V48.4754C49.6217 47.5916 49.0484 47.1019 48.0292 47.1019C47.3647 47.1231 46.7312 47.3881 46.2496 47.8464C46.3292 49.1801 46.9542 49.9684 48.0292 49.9684ZM52.4444 47.3447V46.4649C52.4444 43.9209 53.9135 42.3164 56.3062 42.3164C58.6989 42.3164 60.1561 43.9089 60.1561 46.4489V47.3208C60.1561 49.8609 58.6989 51.4653 56.2943 51.4653C53.8896 51.4653 52.4444 49.9007 52.4444 47.3447ZM58.1416 47.4681V46.3375C58.1416 44.7888 57.4767 43.9487 56.2943 43.9487C55.1118 43.9487 54.4708 44.7768 54.4708 46.3375V47.4642C54.4708 49.0169 55.1238 49.8529 56.3062 49.8529C57.4886 49.8529 58.1416 49.0169 58.1416 47.4681Z" fill="white"/>
</g>
<defs>
<linearGradient id="paint0_linear_37_518" x1="1.60738" y1="93.5066" x2="94.8125" y2="0.301461" gradientUnits="userSpaceOnUse">
<stop stop-color="#9A87FE"/>
<stop offset="0.14" stop-color="#9387FD"/>
<stop offset="0.15" stop-color="#8D87FC"/>
<stop offset="0.21" stop-color="#8287FA"/>
<stop offset="0.28" stop-color="#6486F4"/>
<stop offset="0.38" stop-color="#4B86EF"/>
<stop offset="0.44" stop-color="#4286ED"/>
<stop offset="0.69" stop-color="#4286ED"/>
<stop offset="0.82" stop-color="#22BACF"/>
<stop offset="0.94" stop-color="#09E1B8"/>
<stop offset="1" stop-color="#00F0AF"/>
</linearGradient>
<linearGradient id="paint1_linear_37_518" x1="23.0531" y1="60.0767" x2="23.3589" y2="29.7813" gradientUnits="userSpaceOnUse">
<stop offset="0.01" stop-color="#BBBBBB" stop-opacity="0"/>
<stop offset="0.46" stop-color="#979797" stop-opacity="0.42"/>
<stop offset="1" stop-color="#666666"/>
</linearGradient>
<linearGradient id="paint2_linear_37_518" x1="72.3539" y1="60.0408" x2="54.2597" y2="78.1401" gradientUnits="userSpaceOnUse">
<stop offset="0.17" stop-color="#BBBBBB" stop-opacity="0"/>
<stop offset="0.34" stop-color="#AFAFAF" stop-opacity="0.12"/>
<stop offset="0.67" stop-color="#909090" stop-opacity="0.45"/>
<stop offset="1" stop-color="#6B6B6B" stop-opacity="0.84"/>
</linearGradient>
<linearGradient id="paint3_linear_37_518" x1="46.7393" y1="20.7738" x2="72.0261" y2="25.2828" gradientUnits="userSpaceOnUse">
<stop offset="0.2" stop-color="#BBBBBB" stop-opacity="0"/>
<stop offset="0.51" stop-color="#9C9C9C" stop-opacity="0.37"/>
<stop offset="1" stop-color="#666666"/>
</linearGradient>
<clipPath id="clip0_37_518">
<rect width="96" height="92.4447" fill="white" transform="translate(0.209961 0.679688)"/>
</clipPath>
</defs>
</svg>
