<svg width="97" height="97" viewBox="0 0 97 97" fill="none" xmlns="http://www.w3.org/2000/svg">
<g clip-path="url(#clip0_37_512)">
<path d="M0.797852 0.902344H96.8201V96.9246H0.797852V0.902344Z" fill="#5ABEEF"/>
<path d="M27.0649 21.7031H70.576V29.0809H27.0649V21.7031ZM48.7316 34.3698C35.8871 34.3698 26.1982 44.0587 26.1982 56.9031C26.1982 69.7476 35.8871 79.4365 48.7316 79.4365C57.1538 79.4365 62.2205 73.5476 62.2205 73.5476V78.3253H71.4649V56.9253C71.4427 44.0809 61.6871 34.3698 48.7316 34.3698ZM48.7316 71.3476C41.1538 71.3476 35.4205 65.1476 35.4205 56.9031C35.4205 48.6809 41.1316 42.4587 48.7316 42.4587C56.4205 42.4587 62.2205 48.6587 62.2205 56.9031C62.2205 65.1476 56.4205 71.3476 48.7316 71.3476Z" fill="white"/>
</g>
<defs>
<clipPath id="clip0_37_512">
<rect width="96" height="96" fill="white" transform="translate(0.820312 0.902344)"/>
</clipPath>
</defs>
</svg>
