<svg width="97" height="97" viewBox="0 0 97 97" fill="none" xmlns="http://www.w3.org/2000/svg">
<g clip-path="url(#clip0_37_506)">
<path d="M0.429688 0.902344H96.4297V96.9023H0.429688V0.902344Z" fill="#0068D9"/>
<path d="M81.1021 1.60547V75.5895C81.1021 82.8215 81.3581 90.4055 81.6141 94.7895H63.9181L63.1181 85.4775H62.7341C60.6557 88.8991 57.6983 91.7011 54.1697 93.5921C50.641 95.483 46.6701 96.3938 42.6701 96.2295C27.4381 96.2295 15.2461 83.2375 15.2461 63.3015C15.2461 41.6695 28.6221 29.0615 44.0461 29.0615C52.0461 29.0615 58.0621 31.9415 60.9421 36.2615H61.2301V1.60547H81.1661M61.2301 57.7655C61.2727 56.5319 61.1761 55.2974 60.9421 54.0855C60.4038 51.3883 58.9507 48.9597 56.8282 47.2105C54.7058 45.4613 52.0444 44.4986 49.2941 44.4855C40.1101 44.4855 35.5021 52.6135 35.5021 62.6935C35.5021 73.6055 40.8781 80.4215 49.1661 80.4215C51.9229 80.4327 54.5968 79.479 56.7243 77.7256C58.8517 75.9722 60.2986 73.5297 60.8141 70.8215C61.1072 69.2818 61.2466 67.7167 61.2301 66.1495V57.7655Z" fill="white"/>
</g>
<defs>
<clipPath id="clip0_37_506">
<rect width="96" height="96" fill="white" transform="translate(0.429688 0.902344)"/>
</clipPath>
</defs>
</svg>
