<svg width="91" height="97" viewBox="0 0 91 97" fill="none" xmlns="http://www.w3.org/2000/svg">
<g clip-path="url(#clip0_37_565)">
<path d="M32.2801 3.91718C17.5897 5.00419 5.10111 6.00387 4.51394 6.12094C2.86763 6.41452 1.36997 7.53127 0.665731 9.00106L0.0488281 10.2943L0.108289 41.1172L0.195621 71.94L1.13584 73.8502C1.66541 74.9075 5.24977 79.8446 9.15744 84.9266C16.8854 94.9457 17.4429 95.505 20.3806 95.7985C21.2335 95.8859 27.6385 95.5923 34.5731 95.1816C41.5374 94.7413 52.7011 94.0649 59.4016 93.684C88.0188 91.9466 86.549 92.0934 88.1935 90.6831C90.2504 88.9792 90.1036 91.7701 90.191 54.3081C90.2504 22.545 90.2207 20.4602 89.7506 19.4903C89.1932 18.4032 88.1935 17.6396 75.1475 8.47149C66.4216 2.36006 65.8047 2.03674 61.8952 1.97728C60.2805 1.91968 46.9409 2.80044 32.2801 3.91718ZM65.3049 7.94192C66.5387 8.49936 75.56 14.7873 76.8811 15.9932C77.2342 16.3463 77.3512 16.6399 77.1747 16.8164C76.7641 17.1694 20.9362 20.4899 19.3215 20.254C18.5875 20.1369 17.5005 19.6965 16.8836 19.284C14.3268 17.5504 7.98123 12.3494 7.98123 11.9685C7.98123 10.9688 7.77498 10.9688 32.6629 9.17758C37.4235 8.85426 45.2388 8.26709 49.9994 7.88431C60.3102 7.06116 63.3966 7.09089 65.3049 7.94192ZM83.052 24.0148C83.4626 24.4255 83.8157 25.2189 83.9328 25.9826C84.0201 26.6887 84.0796 39.8518 84.0201 55.1889C83.9328 81.515 83.903 83.1613 83.4032 83.925C83.1096 84.3951 82.5224 84.895 82.0802 85.0418C80.8482 85.5416 22.3484 88.8621 21.1443 88.5091C20.5869 88.3623 19.8213 87.8922 19.4107 87.4815L18.7046 86.7178L18.6172 58.3347C18.5578 38.4136 18.6172 29.5985 18.8532 28.8051C19.0297 28.218 19.4701 27.5119 19.8529 27.2777C20.3825 26.9247 23.8498 26.6311 35.779 25.9269C44.1537 25.4568 57.1105 24.6633 64.5449 24.2229C82.2288 23.1341 82.1712 23.1341 83.052 24.0148Z" fill="black"/>
<path d="M67.3318 33.7406C64.1581 33.9468 61.3374 34.2404 61.0141 34.4169C60.0441 34.9168 59.457 35.7399 59.3399 36.6802C59.2526 37.6501 59.5461 37.7672 62.718 38.1499L64.0986 38.3265V50.8726C64.0986 58.3349 63.9815 63.272 63.8347 63.1252C63.6879 62.9487 59.5164 56.6031 54.5496 49.0219C49.5847 41.4128 45.4707 35.1528 45.4113 35.0952C45.3518 35.0357 42.1205 35.2122 38.2426 35.4779C33.482 35.8013 30.8676 36.0948 30.338 36.3884C29.4851 36.8288 28.5449 38.3859 28.5449 39.4153C28.5449 40.0322 29.6617 40.3556 32.0122 40.3556H33.246V76.4369L31.2485 77.0538C29.6914 77.524 29.1618 77.8175 28.898 78.4047C28.4279 79.4044 28.4576 80.3149 28.9277 80.3149C29.1042 80.3149 32.4247 80.1086 36.2432 79.8745C43.7947 79.4341 44.6457 79.2279 45.4391 77.6707C45.6751 77.2006 45.8795 76.7008 45.8795 76.554C45.8795 76.4369 44.852 76.0839 43.6163 75.7903C42.3528 75.4967 41.0892 75.2031 40.8254 75.1437C40.3255 74.9969 40.2958 74.0864 40.2958 61.451V47.9052L49.2279 61.9211C58.6004 76.6116 59.7766 78.2877 61.2166 79.0216C63.0097 79.9618 67.564 79.3152 69.8551 77.8175L70.5612 77.3772L70.6207 57.339L70.708 37.271L72.2651 36.9775C74.1158 36.6244 74.9687 35.7734 74.9687 34.3036C74.9687 33.3634 74.9093 33.3039 74.0285 33.3336C73.5026 33.3578 70.4757 33.5343 67.3318 33.7406Z" fill="black"/>
</g>
<defs>
<clipPath id="clip0_37_565">
<rect width="90.2016" height="96" fill="white" transform="translate(0.0488281 0.902344)"/>
</clipPath>
</defs>
</svg>
