<?xml version="1.0" encoding="UTF-8"?>
<!DOCTYPE svg PUBLIC "-//W3C//DTD SVG 1.1//EN" "http://www.w3.org/Graphics/SVG/1.1/DTD/svg11.dtd">
<svg xmlns="http://www.w3.org/2000/svg" version="1.1" width="97px" height="97px" style="shape-rendering:geometricPrecision; text-rendering:geometricPrecision; image-rendering:optimizeQuality; fill-rule:evenodd; clip-rule:evenodd" xmlns:xlink="http://www.w3.org/1999/xlink">
<g><path style="opacity:0.988" fill="#1e8ded" d="M 10.5,-0.5 C 35.5,-0.5 60.5,-0.5 85.5,-0.5C 90.6393,0.633981 94.3059,3.63398 96.5,8.5C 96.5,35.1667 96.5,61.8333 96.5,88.5C 94.8333,92.1667 92.1667,94.8333 88.5,96.5C 61.5,96.5 34.5,96.5 7.5,96.5C 3.75025,94.4195 1.08358,91.4195 -0.5,87.5C -0.5,61.5 -0.5,35.5 -0.5,9.5C 1.30825,4.09984 4.97492,0.766508 10.5,-0.5 Z M 47.5,13.5 C 48.1499,13.8039 48.8165,14.1373 49.5,14.5C 50.6663,31.1567 50.8329,47.8233 50,64.5C 48.2859,65.9255 46.9525,65.5922 46,63.5C 45.3333,47.5 45.3333,31.5 46,15.5C 46.7172,14.9558 47.2172,14.2891 47.5,13.5 Z M 30.5,15.5 C 31.8221,15.33 32.9887,15.6634 34,16.5C 34.6667,31.8333 34.6667,47.1667 34,62.5C 32.6667,63.8333 31.3333,63.8333 30,62.5C 29.1835,46.7591 29.3501,31.0924 30.5,15.5 Z M 62.5,15.5 C 63.8221,15.33 64.9887,15.6634 66,16.5C 66.6667,31.8333 66.6667,47.1667 66,62.5C 64.6667,63.8333 63.3333,63.8333 62,62.5C 61.1835,46.7591 61.3501,31.0924 62.5,15.5 Z M 15.5,21.5 C 16.4584,21.9528 17.2917,22.6195 18,23.5C 18.6667,33.8333 18.6667,44.1667 18,54.5C 16.6667,55.8333 15.3333,55.8333 14,54.5C 13.3333,44.1667 13.3333,33.8333 14,23.5C 14.7172,22.9558 15.2172,22.2891 15.5,21.5 Z M 79.5,21.5 C 80.1499,21.8039 80.8165,22.1373 81.5,22.5C 82.6657,33.1511 82.8324,43.8177 82,54.5C 80.6667,55.8333 79.3333,55.8333 78,54.5C 77.3333,44.1667 77.3333,33.8333 78,23.5C 78.7172,22.9558 79.2172,22.2891 79.5,21.5 Z M 14.5,68.5 C 20.3231,71.2394 26.3231,73.7394 32.5,76C 49.4318,79.9364 65.2652,77.4364 80,68.5C 82.5,69.3333 83,70.8333 81.5,73C 63.8078,83.2758 45.1412,85.2758 25.5,79C 20.7583,77.0729 16.7583,74.2396 13.5,70.5C 13.8627,69.8165 14.1961,69.1499 14.5,68.5 Z"/></g>
</svg>
