<svg width="97" height="97" viewBox="0 0 97 97" fill="none" xmlns="http://www.w3.org/2000/svg">
<g clip-path="url(#clip0_37_559)">
<path d="M96.7598 0.902344H0.759766V96.9023H96.7598V0.902344Z" fill="#FF7A59"/>
<path fill-rule="evenodd" clip-rule="evenodd" d="M63.4359 63.7259C58.4183 63.7259 54.3483 59.7005 54.3483 54.734C54.3483 49.7676 58.417 45.7409 63.4359 45.7409C68.4549 45.7409 72.5262 49.7663 72.5262 54.734C72.5262 59.7018 68.4575 63.7259 63.4359 63.7259ZM66.1581 37.4209V29.4148C67.2225 28.9272 68.1256 28.1459 68.761 27.1626C69.3965 26.1793 69.7379 25.0349 69.7451 23.8642V23.6791C69.7451 20.2955 66.9468 17.5288 63.5304 17.5288H63.3427C59.9302 17.5288 57.1281 20.2968 57.1281 23.6791V23.8642C57.1356 25.0349 57.4771 26.1791 58.1125 27.1624C58.7479 28.1455 59.6508 28.927 60.7151 29.4148V37.4209C57.6504 37.8833 54.7606 39.1409 52.3336 41.0683L30.1392 23.9837C30.2946 23.4216 30.3779 22.842 30.3873 22.259C30.3873 18.4252 27.2518 15.3133 23.3787 15.3028C19.5054 15.2923 16.3633 18.399 16.3594 22.2341C16.3554 26.0692 19.4897 29.1745 23.3628 29.1811C24.576 29.1758 25.7669 28.8552 26.8187 28.2505L48.6559 45.0636C46.6914 47.9898 45.6651 51.4452 45.7135 54.9694C45.7621 58.4935 46.8832 61.9193 48.9276 64.7904L42.2838 71.3659C41.4977 71.1196 40.6677 71.0465 39.8506 71.1518C39.0336 71.2572 38.2492 71.5384 37.5513 71.976C36.8535 72.4136 36.2587 72.9974 35.8083 73.6871C35.3577 74.3767 35.0621 75.1559 34.9416 75.9707C34.8211 76.7856 34.8789 77.617 35.1106 78.4074C35.3424 79.1978 35.7429 79.9288 36.2842 80.5495C36.8256 81.1704 37.4952 81.6665 38.2468 82.0036C38.9985 82.3408 39.8142 82.5109 40.6379 82.5024C43.8193 82.5024 46.3997 79.9483 46.3997 76.7996C46.3941 76.2462 46.3056 75.6968 46.1373 75.1696L52.6997 68.6701C55.789 71.0117 59.5595 72.2779 63.4359 72.2755C73.2285 72.2755 81.1625 64.4228 81.1625 54.734C81.1625 45.964 74.6499 38.7216 66.1567 37.4209" fill="white"/>
</g>
<defs>
<clipPath id="clip0_37_559">
<rect width="96" height="96" fill="white" transform="translate(0.759766 0.902344)"/>
</clipPath>
</defs>
</svg>
