<svg width="97" height="97" viewBox="0 0 97 97" fill="none" xmlns="http://www.w3.org/2000/svg">
<g clip-path="url(#clip0_37_534)">
<path d="M96.9795 0.902344H0.979492V96.9023H96.9795V0.902344Z" fill="#F98012"/>
<path d="M67.4471 69.4582V47.3035C67.4471 42.673 65.5371 40.3572 61.717 40.3558C57.897 40.3544 55.9829 42.6703 55.9748 47.3035V69.4582H44.6886V47.3035C44.6886 42.673 42.8079 40.3572 39.0466 40.3558C35.2197 40.3558 33.3096 42.6717 33.3165 47.3035V69.4582H22.0283V45.9958C22.0283 41.1621 23.7064 37.5038 27.0626 35.0208C30.0177 32.8038 34.0124 31.6953 39.0466 31.6953C44.1503 31.6953 47.9104 33.0043 50.3266 35.6224C52.4085 33.0043 56.2025 31.6953 61.7088 31.6953C66.7431 31.6953 70.7364 32.8038 73.6887 35.0208C77.0448 37.5024 78.7236 41.1608 78.725 45.9958V69.4582H67.4471Z" fill="white"/>
<path d="M43.9392 29.9879L55.1414 21.8021L54.9982 21.3027C34.7834 23.781 25.5908 25.5368 8.17969 35.6299L8.34135 36.0883L9.72475 36.1026C9.59787 37.4963 9.37686 40.9404 9.65926 46.1199C7.72742 51.7109 9.61015 55.509 11.3783 59.6408C11.6586 55.3433 11.63 50.6365 10.31 45.9522C10.0338 40.8074 10.2609 37.4246 10.3858 36.1087L21.9277 36.2192C21.8966 38.4794 22.0108 40.7393 22.2695 42.9848C32.5835 46.6091 42.9569 42.9725 48.4639 34.0377C46.9353 32.3249 43.9392 29.9879 43.9392 29.9879Z" fill="#333333"/>
</g>
<defs>
<clipPath id="clip0_37_534">
<rect width="96" height="96" fill="white" transform="translate(0.979492 0.902344)"/>
</clipPath>
</defs>
</svg>
