<svg width="97" height="97" viewBox="0 0 97 97" fill="none" xmlns="http://www.w3.org/2000/svg">
<g clip-path="url(#clip0_37_541)">
<path d="M96.3701 0.902344H0.370117V96.9023H96.3701V0.902344Z" fill="white"/>
<mask id="mask0_37_541" style="mask-type:luminance" maskUnits="userSpaceOnUse" x="12" y="16" width="72" height="67">
<path d="M83.1701 16.502H12.3701V82.3624H83.1701V16.502Z" fill="white"/>
</mask>
<g mask="url(#mask0_37_541)">
<path d="M55.1833 52.7253L50.2438 16.502H49.8749C31.9135 16.5544 17.3659 31.102 17.3135 49.0634V49.4322L55.1833 52.7253Z" fill="#ED6C47"/>
<path d="M50.612 16.502H50.2432V49.4322L66.7084 56.0182L83.1734 49.4322V49.0634C83.121 31.102 68.5734 16.5544 50.612 16.502Z" fill="#FF8F6B"/>
<path d="M83.174 49.4316V49.7939C83.1224 67.7594 68.5714 82.3103 50.606 82.3619H49.8815C31.9162 82.3103 17.3651 67.7594 17.3135 49.7939V49.4316H83.174Z" fill="#D35230"/>
<path opacity="0.1" d="M51.8902 32.689V67.8255C51.882 69.0465 51.1421 70.1433 50.0132 70.6081C49.6538 70.7602 49.2675 70.8385 48.8771 70.8387H25.0851C24.624 70.3117 24.1794 69.7519 23.7678 69.1921C19.573 63.5962 17.308 56.7898 17.3135 49.7962V49.0717C17.3039 42.7636 19.1475 36.5916 22.6152 31.3223C22.9775 30.7625 23.3561 30.2027 23.7678 29.6758H48.8771C50.536 29.6884 51.8777 31.0301 51.8902 32.689Z" fill="black"/>
<path opacity="0.2" d="M50.2438 34.3355V69.4719C50.2437 69.8623 50.1653 70.2486 50.0133 70.6081C49.5484 71.7371 48.4516 72.4769 47.2306 72.485H26.5834C26.0624 71.9562 25.5626 71.4069 25.0851 70.8386C24.624 70.3117 24.1794 69.7519 23.7678 69.1921C19.573 63.5961 17.308 56.7897 17.3135 49.7961V49.0717C17.3039 42.7635 19.1475 36.5916 22.6152 31.3223H47.2306C48.8895 31.3349 50.2312 32.6765 50.2438 34.3355Z" fill="black"/>
<path opacity="0.2" d="M50.2437 34.3353V66.1789C50.2312 67.8378 48.8895 69.1795 47.2306 69.1921H23.7678C19.573 63.5961 17.308 56.7897 17.3135 49.7961V49.0717C17.3039 42.7635 19.1475 36.5916 22.6152 31.3223H47.2306C48.8895 31.3347 50.2312 32.6765 50.2437 34.3353Z" fill="black"/>
<path opacity="0.2" d="M48.5972 34.3353V66.1789C48.5847 67.8378 47.243 69.1795 45.5841 69.1921H23.7678C19.573 63.5961 17.308 56.7897 17.3135 49.7961V49.0717C17.3039 42.7635 19.1475 36.5916 22.6152 31.3223H45.5841C47.243 31.3347 48.5847 32.6765 48.5972 34.3353Z" fill="black"/>
<path d="M15.3881 31.3223H45.5753C47.2421 31.3223 48.5933 32.6735 48.5933 34.3403V64.5275C48.5933 66.1943 47.2421 67.5456 45.5753 67.5456H15.3881C13.7213 67.5456 12.3701 66.1943 12.3701 64.5275V34.3403C12.3701 32.6735 13.7213 31.3223 15.3881 31.3223Z" fill="url(#paint0_linear_37_541)"/>
<path d="M30.8155 39.3684C32.7806 39.2358 34.7288 39.8066 36.3116 40.9787C37.6317 42.1572 38.3372 43.8771 38.2248 45.6432C38.2464 46.871 37.9192 48.0797 37.2814 49.1289C36.6356 50.1602 35.7052 50.9824 34.6024 51.4966C33.3418 52.0829 31.9635 52.3725 30.5734 52.343H26.7552V59.4394H22.8447V39.3684H30.8155ZM26.7519 49.2771H30.1174C31.1844 49.3554 32.243 49.0397 33.0927 48.3897C33.7954 47.7155 34.1638 46.7648 34.0987 45.7931C34.0987 43.5813 32.8134 42.4754 30.2426 42.4754H26.7519V49.2771Z" fill="white"/>
</g>
</g>
<defs>
<linearGradient id="paint0_linear_37_541" x1="18.6628" y1="28.964" x2="42.3006" y2="69.9038" gradientUnits="userSpaceOnUse">
<stop stop-color="#CA4C28"/>
<stop offset="0.5" stop-color="#C5401E"/>
<stop offset="1" stop-color="#B62F14"/>
</linearGradient>
<clipPath id="clip0_37_541">
<rect width="96" height="96" fill="white" transform="translate(0.370117 0.902344)"/>
</clipPath>
</defs>
</svg>
