<svg width="96" height="30" viewBox="0 0 96 30" fill="none" xmlns="http://www.w3.org/2000/svg">
<g id="64abf259f7c5f035fff0c4ec_BSH.svg" clip-path="url(#clip0_13_1275)">
<g id="Clip path group">
<mask id="mask0_13_1275" style="mask-type:luminance" maskUnits="userSpaceOnUse" x="0" y="0" width="96" height="30">
<g id="clip0_3489_43189">
<path id="Vector" d="M96 0.974609H0V29.7746H96V0.974609Z" fill="white"/>
</g>
</mask>
<g mask="url(#mask0_13_1275)">
<g id="Group">
<path id="Vector_2" fill-rule="evenodd" clip-rule="evenodd" d="M28.5248 1.78906L17.8647 28.9589H19.6483L30.3084 1.78906H28.5248ZM58.578 1.78906L47.9384 28.9589H49.722L60.3615 1.78906H58.578ZM93.3257 1.78906L82.6861 28.9589H84.4697L95.1094 1.78906H93.3257ZM39.0208 4.20815C34.7158 4.20815 31.8048 6.73441 31.8048 10.4658C31.8048 11.8686 32.3001 13.084 33.2194 14.0445C34.1082 14.9433 35.1964 15.3927 37.1758 15.9837L39.3694 16.6435C41.9876 17.4128 43.2029 18.6715 43.2029 20.4821C43.2029 21.6856 42.7026 22.6692 41.6859 23.421C40.792 24.0822 39.9442 24.3407 38.3033 24.3407C36.009 24.3407 34.2402 23.7464 32.3788 22.4413L31.0873 24.6805C33.3825 26.0632 35.6023 26.6997 38.3033 26.6997C40.337 26.6997 41.8228 26.2775 43.2849 25.3603C45.2693 24.1223 46.3805 22.1654 46.3805 20.1222C46.3805 18.7522 45.8212 17.2856 44.9045 16.2636C43.9868 15.2416 42.9487 14.6595 40.9889 14.0645L38.4674 13.2847C35.8999 12.4811 34.9209 11.5622 34.9209 9.94601C34.9209 7.86678 36.4732 6.56727 39.1644 6.56727C41.3457 6.56727 42.7134 7.2694 44.5355 8.42658L45.8269 6.34735C43.7318 4.96227 41.5687 4.20815 39.0208 4.20815ZM64.0515 4.648V26.2599H67.024V15.9237H76.3927V26.2599H79.4266V4.648H76.3927V13.5046H67.024V4.648H64.0515ZM0.890625 4.68797V26.2998H6.99967C10.3618 26.2998 11.2342 26.1168 12.4733 25.6601C14.7397 24.8028 16.1222 22.5789 16.1222 20.3221C16.1222 18.6907 15.5384 16.9497 14.0107 15.8238C13.3293 15.3032 12.5938 14.9873 11.4893 14.7442C13.8049 13.867 15.1587 12.3467 15.1587 10.1459C15.1587 7.83959 13.5778 5.9547 11.2227 5.16779C10.0452 4.77434 8.9234 4.68798 4.45765 4.68797H0.890625ZM3.80165 7.08708H6.99967C8.14689 7.08708 8.81351 7.15185 9.41868 7.307C10.893 7.67325 11.8787 8.82722 11.8787 10.5058C11.8787 11.0959 11.7508 11.4694 11.5302 11.9652C10.9028 13.3695 9.53597 13.8045 7.7172 13.8045H3.80165V7.08708ZM3.80165 16.2037H7.77866C8.88489 16.2037 9.76474 16.3173 10.3822 16.4436C11.9082 16.7467 13.0062 18.2229 13.0062 20.1022C13.0062 22.6493 11.7574 23.8807 8.59867 23.8807H3.80165V16.2037Z" fill="#2C374F"/>
</g>
</g>
</g>
</g>
<defs>
<clipPath id="clip0_13_1275">
<rect width="96" height="28.8" fill="white" transform="translate(0 0.974609)"/>
</clipPath>
</defs>
</svg>
