<svg width="139" height="30" viewBox="0 0 139 30" fill="none" xmlns="http://www.w3.org/2000/svg">
<g id="64abf25cc8dff88b95b83711_Xerox.svg" clip-path="url(#clip0_13_1212)">
<g id="Clip path group">
<mask id="mask0_13_1212" style="mask-type:luminance" maskUnits="userSpaceOnUse" x="0" y="0" width="138" height="30">
<g id="clip0_3489_43158">
<path id="Vector" d="M137.6 0.866211H0V29.6662H137.6V0.866211Z" fill="white"/>
</g>
</mask>
<g mask="url(#mask0_13_1212)">
<g id="Group">
<g id="Mask group">
<mask id="mask1_13_1212" style="mask-type:luminance" maskUnits="userSpaceOnUse" x="0" y="0" width="138" height="30">
<g id="Group_2">
<path id="Vector_2" d="M137.6 0.866211H0V29.6662H137.6V0.866211Z" fill="white"/>
</g>
</mask>
<g mask="url(#mask1_13_1212)">
<g id="Group_3">
<path id="Vector_3" d="M94.1479 0.866211C85.2525 0.866211 79.3481 7.19758 79.3481 15.257C79.3481 23.7782 85.3324 29.6361 94.1479 29.6361C102.794 29.6361 108.917 23.5149 108.917 15.2503C108.917 6.98722 102.794 0.866211 94.1479 0.866211ZM43.5044 0.886527C40.6787 0.886527 37.103 1.81783 34.4724 3.88807C31.334 6.35834 28.9048 10.2234 28.9048 15.4231C28.9048 19.9066 30.4231 23.5175 33.1619 25.9634C35.8428 28.3586 39.6351 29.6662 44.3375 29.6662C48.1226 29.6662 52.6945 28.2992 54.6553 27.1389C55.3413 26.7331 55.5568 26.5589 55.379 25.8957L54.1544 22.5773C54.0124 22.0331 53.3817 21.8937 52.8692 22.1373C52.0084 22.5422 51.3656 22.8609 50.4928 23.1688C48.7977 23.7684 47.0437 24.1775 45.3741 24.1775C41.8588 24.1775 39.8597 23.2632 38.3291 21.5759C37.3568 20.5044 36.7871 19.1464 36.6102 17.5772H56.009C56.7146 17.5772 57.0292 17.1104 57.0292 16.3209V14.983C57.0292 14.3313 56.9984 13.3081 56.9406 12.6962C56.5835 8.95821 55.1465 5.95092 52.7489 3.91328C50.4392 1.94732 47.3383 0.886527 43.5044 0.886527ZM75.1312 0.913275C69.5298 0.913275 66.1091 2.14277 63.9141 4.85094C62.2327 6.92771 61.9285 9.25063 61.9305 14.2205V27.8608C62.008 28.8328 62.4167 29.2873 63.3659 29.2873H67.7974C68.8226 29.2873 69.2414 28.7758 69.2414 27.8608V13.9662C69.2414 10.8359 69.2813 9.08917 70.4316 7.90778C71.421 6.8918 72.7483 6.22713 75.5322 6.22713C76.084 6.22713 77.4063 6.36648 77.8675 6.42025C78.0423 6.44065 78.1843 6.4537 78.2592 6.4537C78.7394 6.4537 78.9061 6.28664 79.0603 5.70247L79.7251 2.57542C79.8479 1.93423 79.7456 1.43567 79.0782 1.28413C78.0633 1.05437 76.4476 0.913275 75.1312 0.913275ZM1.63326 1.2849C1.15139 1.2849 0.804947 1.65241 1.00331 2.27323C2.32382 6.40151 5.67308 11.3029 9.14589 15.3261C4.72037 19.1415 1.62555 24.2164 0.0726282 28.2941C-0.156404 28.8939 0.198709 29.2858 0.54778 29.2858H5.77012C6.52191 29.2858 6.86662 29.0299 7.21142 28.2992C8.62304 25.3146 10.7194 21.8708 13.4685 19.0779C15.9886 21.3998 18.1937 24.9309 19.6069 28.2992C20.0029 29.2303 20.4609 29.2858 21.0526 29.2858H26.7466C27.8364 29.2858 27.9328 28.7206 27.7369 28.2276C25.5651 22.7493 20.9446 17.1575 18.3385 14.7956C20.725 12.3579 25.0508 7.6497 26.941 2.27323C27.2194 1.48213 26.705 1.2849 26.2785 1.2849H21.5105C20.9324 1.2849 20.5461 1.47806 20.1187 2.27323C17.5509 6.90744 15.2393 9.64014 14.2441 10.6252C12.6758 8.84331 10.6138 5.63811 9.10504 2.27323C8.77726 1.54324 8.4307 1.2849 7.76747 1.2849H1.63326ZM111.415 1.2849C110.935 1.2849 110.587 1.65241 110.785 2.27323C112.105 6.40151 115.453 11.3029 118.928 15.3261C114.503 19.1415 111.408 24.2164 109.855 28.2941C109.626 28.8939 109.983 29.2858 110.331 29.2858H115.552C116.304 29.2858 116.649 29.0299 116.992 28.2992C118.404 25.3146 120.5 21.8708 123.251 19.0779C125.772 21.3998 127.977 24.9309 129.388 28.2992C129.787 29.2303 130.244 29.2858 130.835 29.2858H136.528C137.617 29.2858 137.715 28.7206 137.519 28.2276C135.346 22.7493 130.725 17.1575 128.123 14.7956C130.507 12.3579 134.834 7.6497 136.723 2.27323C137.003 1.48213 136.488 1.2849 136.06 1.2849H131.294C130.716 1.2849 130.328 1.47806 129.9 2.27323C127.333 6.90744 125.022 9.64014 124.027 10.6252C122.458 8.84331 120.396 5.63811 118.885 2.27323C118.559 1.54324 118.211 1.2849 117.549 1.2849H111.415ZM94.152 6.13429C99.3312 6.13429 101.283 10.4207 101.283 15.2521C101.283 20.0851 99.3312 24.3744 94.152 24.3737C88.9714 24.3737 86.9758 20.0851 86.9758 15.2521C86.9758 10.4215 88.9714 6.13429 94.152 6.13429ZM43.7472 6.1587C47.622 6.1587 49.9889 8.67712 49.9889 12.4151V12.5845H36.5988C36.7427 11.655 37.0205 10.7717 37.4564 9.93332C38.6499 7.62927 40.9266 6.1587 43.7472 6.1587Z" fill="#2C374F"/>
</g>
</g>
</g>
</g>
</g>
</g>
</g>
<defs>
<clipPath id="clip0_13_1212">
<rect width="138.24" height="28.8" fill="white" transform="translate(0 0.866211)"/>
</clipPath>
</defs>
</svg>
