<svg width="128" height="30" viewBox="0 0 128 30" fill="none" xmlns="http://www.w3.org/2000/svg">
<g id="650daa94ccc06003ad69fd29_Zoom.svg" clip-path="url(#clip0_13_1245)">
<g id="Clip path group">
<mask id="mask0_13_1245" style="mask-type:luminance" maskUnits="userSpaceOnUse" x="0" y="0" width="128" height="30">
<g id="clip0_12_2">
<path id="Vector" d="M128 0.974609H0V29.7392H128V0.974609Z" fill="white"/>
</g>
</mask>
<g mask="url(#mask0_13_1245)">
<g id="Group">
<path id="Vector_2" fill-rule="evenodd" clip-rule="evenodd" d="M104.216 9.60036C104.705 10.4445 104.865 11.4049 104.918 12.4847L104.987 13.9239V23.9872L105.058 25.4279C105.2 27.7806 106.935 29.5203 109.306 29.6682L110.739 29.7392V13.9239L110.81 12.4847C110.869 11.417 111.028 10.4385 111.525 9.58828C112.031 8.71624 112.758 7.99275 113.632 7.49041C114.506 6.98809 115.497 6.72461 116.506 6.72646C117.514 6.72829 118.504 6.99537 119.377 7.50088C120.249 8.00638 120.973 8.73254 121.476 9.6064C121.966 10.4506 122.118 11.4291 122.177 12.4847L122.248 13.9192V23.9872L122.319 25.4279C122.467 27.7927 124.189 29.5323 126.567 29.6682L128 29.7392V12.4847C128 9.43361 126.788 6.50743 124.631 4.34957C122.474 2.19171 119.549 0.978835 116.498 0.977634C114.865 0.975911 113.25 1.3227 111.762 1.99483C110.273 2.66697 108.946 3.64896 107.867 4.87523C106.788 3.64945 105.46 2.66769 103.972 1.99536C102.484 1.32302 100.87 0.975561 99.2369 0.976123C96.8479 0.976123 94.631 1.70098 92.7948 2.95286C91.6742 1.70249 89.1675 0.976123 87.7284 0.976123V29.7392L89.1675 29.6682C91.5747 29.5097 93.3143 27.8169 93.4079 25.4279L93.4849 23.9872V13.9239L93.5558 12.4847C93.6163 11.3989 93.7673 10.4445 94.258 9.59432C94.7648 8.72283 95.4912 7.99949 96.3649 7.49656C97.2385 6.99361 98.2289 6.72866 99.2369 6.72813C100.246 6.72835 101.237 6.99383 102.111 7.49796C102.985 8.00209 103.711 8.72713 104.216 9.60036ZM5.75201 29.6698L7.19114 29.7392H28.7631L28.6921 28.3047C28.4973 25.9397 26.8225 24.2122 24.4502 24.0581L23.0111 23.9872H10.0694L27.3239 6.72662L27.253 5.29353C27.1412 2.90453 25.3956 1.17848 23.0111 1.0471L21.572 0.982164L0 0.976123L0.0709752 2.41526C0.259739 4.75744 1.95862 6.52125 4.31136 6.65716L5.75201 6.72813H18.6936L1.43913 23.9888L1.51011 25.4279C1.65206 27.7987 3.36302 29.5157 5.75201 29.6682V29.6698ZM82.0821 5.18631C83.4177 6.52173 84.4773 8.10719 85.2003 9.85215C85.9231 11.5971 86.2952 13.4674 86.2952 15.3562C86.2952 17.2449 85.9231 19.1152 85.2003 20.8602C84.4773 22.6051 83.4177 24.1906 82.0821 25.526C79.3836 28.2224 75.7248 29.737 71.91 29.737C68.0951 29.737 64.4365 28.2224 61.7379 25.526C56.1217 19.9099 56.1217 10.8024 61.7379 5.18631C63.0724 3.85133 64.6566 2.7923 66.4005 2.06965C68.1443 1.347 70.0133 0.974907 71.9009 0.974613C73.7916 0.9733 75.6639 1.34474 77.4109 2.06768C79.1579 2.79062 80.7452 3.85088 82.0821 5.18782V5.18631ZM78.0123 9.25908C79.63 10.878 80.5386 13.0729 80.5386 15.3614C80.5386 17.6499 79.63 19.8449 78.0123 21.4638C76.3935 23.0815 74.1985 23.9902 71.91 23.9902C69.6214 23.9902 67.4264 23.0815 65.8076 21.4638C64.19 19.8449 63.2813 17.6499 63.2813 15.3614C63.2813 13.0729 64.19 10.878 65.8076 9.25908C67.4264 7.64144 69.6214 6.73275 71.91 6.73275C74.1985 6.73275 76.3935 7.64144 78.0123 9.25908ZM41.7169 0.974613C43.6045 0.975106 45.4737 1.34744 47.2174 2.07034C48.9612 2.79325 50.5455 3.85257 51.8798 5.18782C57.4975 10.8024 57.4975 19.9114 51.8798 25.526C49.1813 28.2224 45.5226 29.737 41.7078 29.737C37.893 29.737 34.2342 28.2224 31.5356 25.526C25.9195 19.9099 25.9195 10.8024 31.5356 5.18631C32.8701 3.85133 34.4545 2.7923 36.1983 2.06965C37.942 1.347 39.8111 0.974907 41.6987 0.974613H41.7169ZM47.8101 9.25606C49.4282 10.875 50.3372 13.0702 50.3372 15.3591C50.3372 17.6481 49.4282 19.8433 47.8101 21.4623C46.1912 23.08 43.9963 23.9886 41.7078 23.9886C39.4191 23.9886 37.2243 23.08 35.6054 21.4623C33.9877 19.8435 33.079 17.6485 33.079 15.3599C33.079 13.0714 33.9877 10.8764 35.6054 9.25757C37.2243 7.63993 39.4191 6.73124 41.7078 6.73124C43.9963 6.73124 46.1912 7.63993 47.8101 9.25757V9.25606Z" fill="#2C374F"/>
</g>
</g>
</g>
</g>
<defs>
<clipPath id="clip0_13_1245">
<rect width="128" height="28.8" fill="white" transform="translate(0 0.974609)"/>
</clipPath>
</defs>
</svg>
