<svg width="160" height="51" viewBox="0 0 160 51" fill="none" xmlns="http://www.w3.org/2000/svg">
<g id="airbnb logo" clip-path="url(#clip0_8_8106)">
<path id="Vector" d="M84.0875 13.0929C84.0875 14.8873 82.642 16.3328 80.8476 16.3328C79.0532 16.3328 77.6077 14.8873 77.6077 13.0929C77.6077 11.2985 79.0034 9.85306 80.8476 9.85306C82.6918 9.9029 84.0875 11.3484 84.0875 13.0929ZM70.7292 19.6225V20.42C70.7292 20.42 69.184 18.4263 65.8943 18.4263C60.4613 18.4263 56.2245 22.5633 56.2245 28.2954C56.2245 33.9777 60.4115 38.1646 65.8943 38.1646C69.2339 38.1646 70.7292 36.121 70.7292 36.121V36.9683C70.7292 37.3671 71.0283 37.6661 71.427 37.6661H75.4644V18.9247H71.427C71.0283 18.9247 70.7292 19.2736 70.7292 19.6225ZM70.7292 31.635C69.9816 32.7316 68.4862 33.6786 66.6918 33.6786C63.5018 33.6786 61.0594 31.6848 61.0594 28.2954C61.0594 24.906 63.5018 22.9123 66.6918 22.9123C68.4364 22.9123 70.0314 23.9091 70.7292 24.9559V31.635ZM78.4551 18.9247H83.2401V37.6661H78.4551V18.9247ZM149.932 18.4263C146.642 18.4263 145.097 20.42 145.097 20.42V9.9029H140.312V37.6661H144.349C144.748 37.6661 145.047 37.3172 145.047 36.9683V36.121C145.047 36.121 146.592 38.1646 149.882 38.1646C155.315 38.1646 159.552 33.9777 159.552 28.2954C159.552 22.6132 155.315 18.4263 149.932 18.4263ZM149.134 33.6288C147.29 33.6288 145.844 32.6817 145.097 31.5851V24.906C145.844 23.9091 147.439 22.8624 149.134 22.8624C152.324 22.8624 154.767 24.8562 154.767 28.2456C154.767 31.635 152.324 33.6288 149.134 33.6288ZM137.82 26.5509V37.716H133.035V27.0992C133.035 24.0088 132.038 22.7627 129.346 22.7627C127.901 22.7627 126.405 23.5104 125.458 24.607V37.6661H120.673V18.9247H124.461C124.86 18.9247 125.159 19.2736 125.159 19.6225V20.42C126.555 18.9746 128.399 18.4263 130.243 18.4263C132.337 18.4263 134.081 19.0244 135.477 20.2207C137.172 21.6163 137.82 23.4107 137.82 26.5509ZM109.059 18.4263C105.77 18.4263 104.225 20.42 104.225 20.42V9.9029H99.4395V37.6661H103.477C103.876 37.6661 104.175 37.3172 104.175 36.9683V36.121C104.175 36.121 105.72 38.1646 109.01 38.1646C114.443 38.1646 118.679 33.9777 118.679 28.2954C118.729 22.6132 114.492 18.4263 109.059 18.4263ZM108.262 33.6288C106.418 33.6288 104.972 32.6817 104.225 31.5851V24.906C104.972 23.9091 106.567 22.8624 108.262 22.8624C111.452 22.8624 113.894 24.8562 113.894 28.2456C113.894 31.635 111.452 33.6288 108.262 33.6288ZM95.3024 18.4263C96.7479 18.4263 97.4956 18.6755 97.4956 18.6755V23.1116C97.4956 23.1116 93.508 21.7658 91.0158 24.607V37.716H86.2308V18.9247H90.2682C90.6669 18.9247 90.966 19.2736 90.966 19.6225V20.42C91.8632 19.3733 93.8071 18.4263 95.3024 18.4263ZM45.6077 35.9714C45.3585 35.3733 45.1093 34.7253 44.8601 34.177C44.4613 33.2799 44.0625 32.4325 43.7136 31.635L43.6638 31.5851C40.2245 24.1085 36.5361 16.5322 32.6482 9.05555L32.4987 8.75649C32.0999 8.00882 31.7012 7.21131 31.3024 6.41381C30.804 5.51661 30.3055 4.56957 29.508 3.67237C27.913 1.6786 25.6202 0.582031 23.1778 0.582031C20.6856 0.582031 18.4426 1.6786 16.7978 3.57269C16.0501 4.46988 15.5018 5.41692 15.0034 6.31412C14.6046 7.11163 14.2059 7.90913 13.8071 8.6568L13.6576 8.95586C9.81956 16.4325 6.08124 24.0088 2.64199 31.4855L2.59215 31.5851C2.24324 32.3827 1.84448 33.23 1.44573 34.1272C1.19651 34.6755 0.947288 35.2736 0.698067 35.9216C0.0500917 37.7658 -0.149285 39.5104 0.0999359 41.3048C0.648223 45.0431 3.14043 48.1833 6.57969 49.5789C7.87564 50.1272 9.22143 50.3764 10.6171 50.3764C11.0158 50.3764 11.5143 50.3266 11.913 50.2767C13.5579 50.0774 15.2526 49.5291 16.8974 48.582C18.9411 47.4356 20.885 45.7908 23.0781 43.3982C25.2713 45.7908 27.265 47.4356 29.2588 48.582C30.9037 49.5291 32.5984 50.0774 34.2432 50.2767C34.642 50.3266 35.1404 50.3764 35.5392 50.3764C36.9348 50.3764 38.3305 50.1272 39.5766 49.5789C43.0657 48.1833 45.508 44.9932 46.0563 41.3048C46.4551 39.5602 46.2557 37.8157 45.6077 35.9714ZM23.128 38.5633C20.4364 35.1739 18.6918 31.9839 18.0937 29.2923C17.8445 28.1459 17.7946 27.149 17.9442 26.2518C18.0439 25.4543 18.3429 24.7565 18.7417 24.1584C19.6887 22.8126 21.2837 21.9652 23.128 21.9652C24.9722 21.9652 26.6171 22.7627 27.5143 24.1584C27.913 24.7565 28.2121 25.4543 28.3118 26.2518C28.4613 27.149 28.4115 28.1957 28.1622 29.2923C27.5641 31.9341 25.8196 35.1241 23.128 38.5633ZM43.0158 40.906C42.6669 43.4979 40.9224 45.7409 38.48 46.7378C37.2837 47.2362 35.9878 47.3858 34.6918 47.2362C33.4457 47.0867 32.1996 46.688 30.9037 45.9403C29.1093 44.9434 27.3149 43.3982 25.2214 41.1054C28.5112 37.068 30.5049 33.3795 31.2526 30.0898C31.6015 28.5446 31.6513 27.149 31.5018 25.8531C31.3024 24.607 30.8538 23.4605 30.156 22.4637C28.6108 20.2207 26.0189 18.9247 23.128 18.9247C20.237 18.9247 17.6451 20.2705 16.0999 22.4637C15.4021 23.4605 14.9535 24.607 14.7541 25.8531C14.5548 27.149 14.6046 28.5945 15.0034 30.0898C15.751 33.3795 17.7946 37.1179 21.0345 41.1552C18.9909 43.4481 17.1467 44.9932 15.3523 45.9901C14.0563 46.7378 12.8102 47.1365 11.5641 47.2861C10.2183 47.4356 8.92237 47.2362 7.77595 46.7876C5.33358 45.7908 3.58903 43.5478 3.24012 40.9559C3.09059 39.7098 3.19028 38.4636 3.68872 37.068C3.83825 36.5696 4.08747 36.0711 4.3367 35.473C4.68561 34.6755 5.08436 33.8281 5.48311 32.9808L5.53296 32.8811C8.97221 25.4543 12.6607 17.878 16.4987 10.501L16.6482 10.202C17.047 9.45431 17.4457 8.6568 17.8445 7.90913C18.2432 7.11163 18.6918 6.36396 19.2401 5.71599C20.2869 4.51973 21.6825 3.87175 23.2277 3.87175C24.7728 3.87175 26.1685 4.51973 27.2152 5.71599C27.7635 6.36396 28.2121 7.11163 28.6108 7.90913C29.0096 8.6568 29.4083 9.45431 29.8071 10.202L29.9566 10.501C33.7448 17.9278 37.4333 25.5042 40.8725 32.9309V32.9808C41.2713 33.7783 41.6202 34.6755 42.0189 35.473C42.2682 36.0711 42.5174 36.5696 42.6669 37.068C43.0657 38.364 43.2152 39.6101 43.0158 40.906Z" fill="#918EA4" fill-opacity="0.7"/>
</g>
<defs>
<clipPath id="clip0_8_8106">
<rect width="160" height="49.8442" fill="white" transform="translate(0 0.582031)"/>
</clipPath>
</defs>
</svg>
