<svg width="130" height="41" viewBox="0 0 130 41" fill="none" xmlns="http://www.w3.org/2000/svg">
<g id="Amazon_logo logo" clip-path="url(#clip0_8_8108)">
<path id="path8" d="M80.6317 31.5387C73.0862 37.1003 62.1495 40.0677 52.7331 40.0677C39.5299 40.0677 27.6437 35.1843 18.6512 27.0623C17.9447 26.4236 18.5778 25.5532 19.4256 26.0506C29.1301 31.697 41.1295 35.0938 53.5244 35.0938C61.8838 35.0938 71.0797 33.3643 79.5352 29.7753C80.8125 29.2327 81.8808 30.6118 80.6317 31.5387Z" fill="#918EA4" fill-opacity="0.7"/>
<path id="path10" d="M83.7688 27.9504C82.808 26.7182 77.3933 27.3682 74.9629 27.6565C74.2225 27.7469 74.1095 27.1026 74.7764 26.6391C79.0889 23.6039 86.1653 24.48 86.9905 25.4974C87.8157 26.5204 86.7757 33.6137 82.7232 36.9993C82.1015 37.5193 81.508 37.2423 81.7849 36.5528C82.6949 34.2807 84.7353 29.1882 83.7688 27.9504Z" fill="#918EA4" fill-opacity="0.7"/>
<path id="path12" d="M75.1326 5.21207V2.2617C75.1326 1.81518 75.4717 1.51562 75.8787 1.51562H89.0875C89.5114 1.51562 89.8505 1.82084 89.8505 2.2617V4.78816C89.8449 5.21207 89.4888 5.76597 88.8558 6.64204L82.0111 16.4144C84.5546 16.3523 87.2393 16.731 89.5453 18.0309C90.0653 18.3248 90.2066 18.7544 90.2462 19.1783V22.3265C90.2462 22.7561 89.7714 23.2591 89.274 22.9991C85.2102 20.8683 79.8125 20.6365 75.3191 23.0217C74.8613 23.2704 74.3809 22.773 74.3809 22.3435V19.3535C74.3809 18.8731 74.3865 18.0535 74.8669 17.3244L82.7968 5.95249H75.8956C75.4717 5.95249 75.1326 5.65293 75.1326 5.21207Z" fill="#918EA4" fill-opacity="0.7"/>
<path id="path14" d="M26.9483 23.6206H22.9297C22.5454 23.5923 22.2402 23.3041 22.2119 22.9367V2.31235C22.2119 1.89975 22.5567 1.57193 22.9862 1.57193H26.7336C27.1236 1.58887 27.4344 1.88844 27.4627 2.26148V4.95751H27.5362C28.514 2.35191 30.3509 1.13672 32.8265 1.13672C35.3416 1.13672 36.9129 2.35191 38.0433 4.95751C39.0155 2.35191 41.2254 1.13672 43.5936 1.13672C45.278 1.13672 47.1205 1.83192 48.2453 3.39189C49.517 5.12707 49.257 7.64789 49.257 9.85784L49.2514 22.8745C49.2514 23.2871 48.9066 23.6206 48.477 23.6206H44.4641C44.0628 23.5923 43.7406 23.2702 43.7406 22.8745V11.9435C43.7406 11.073 43.8197 8.90265 43.6276 8.07744C43.328 6.69269 42.4293 6.3027 41.265 6.3027C40.2928 6.3027 39.2755 6.95268 38.8629 7.99266C38.4503 9.03264 38.4898 10.7735 38.4898 11.9435V22.8745C38.4898 23.2871 38.1451 23.6206 37.7155 23.6206H33.7025C33.2956 23.5923 32.9791 23.2702 32.9791 22.8745L32.9734 11.9435C32.9734 9.64307 33.3521 6.25748 30.4978 6.25748C27.6096 6.25748 27.7227 9.55828 27.7227 11.9435V22.8745C27.7227 23.2871 27.3779 23.6206 26.9483 23.6206Z" fill="#918EA4" fill-opacity="0.7"/>
<path id="path16" d="M101.222 1.13672C107.185 1.13672 110.412 6.25748 110.412 12.7687C110.412 19.0594 106.846 24.0502 101.222 24.0502C95.3665 24.0502 92.1787 18.9294 92.1787 12.5482C92.1787 6.12748 95.406 1.13672 101.222 1.13672ZM101.256 5.3475C98.2942 5.3475 98.1077 9.38307 98.1077 11.8982C98.1077 14.4191 98.0682 19.7998 101.222 19.7998C104.336 19.7998 104.483 15.459 104.483 12.8139C104.483 11.073 104.41 8.99308 103.884 7.34268C103.432 5.90706 102.533 5.3475 101.256 5.3475Z" fill="#918EA4" fill-opacity="0.7"/>
<path id="path18" d="M118.144 23.6206H114.142C113.741 23.5923 113.419 23.2702 113.419 22.8745L113.413 2.24452C113.447 1.86583 113.78 1.57193 114.187 1.57193H117.912C118.263 1.58887 118.551 1.82627 118.63 2.14844V5.30228H118.703C119.828 2.48191 121.405 1.13672 124.18 1.13672C125.983 1.13672 127.741 1.78671 128.871 3.5671C129.923 5.2175 129.923 7.99267 129.923 9.98784V22.9706C129.878 23.3323 129.544 23.6206 129.148 23.6206H125.118C124.751 23.5923 124.446 23.321 124.406 22.9706V11.7682C124.406 9.51307 124.666 6.21226 121.891 6.21226C120.913 6.21226 120.015 6.86791 119.568 7.86266C119.003 9.12308 118.929 10.3778 118.929 11.7682V22.8745C118.924 23.2871 118.573 23.6206 118.144 23.6206Z" fill="#918EA4" fill-opacity="0.7"/>
<path id="use28" d="M64.6028 13.7686V12.8982C61.6976 12.8982 58.6286 13.52 58.6286 16.9451C58.6286 18.6803 59.5272 19.8559 61.0702 19.8559C62.2007 19.8559 63.2124 19.1607 63.8511 18.0303C64.6423 16.6399 64.6028 15.3343 64.6028 13.7686ZM68.6553 23.5637C68.3897 23.801 68.0053 23.818 67.7058 23.6597C66.3719 22.5519 66.1345 22.0376 65.3997 20.9807C63.1954 23.2302 61.6354 23.9028 58.7755 23.9028C55.3956 23.9028 52.7617 21.8172 52.7617 17.6403C52.7617 14.3791 54.5308 12.1578 57.046 11.0726C59.2277 10.1118 62.2741 9.9422 64.6028 9.67656V9.15657C64.6028 8.20137 64.6763 7.07096 64.1167 6.24576C63.625 5.50534 62.6867 5.20013 61.8615 5.20013C60.3298 5.20013 58.962 5.98576 58.6286 7.61355C58.5607 7.97529 58.2951 8.33137 57.9334 8.34832L54.0334 7.93007C53.7056 7.8566 53.3439 7.59095 53.4343 7.08792C54.333 2.3628 58.6003 0.938477 62.4211 0.938477C64.3767 0.938477 66.9314 1.45847 68.4744 2.9393C70.43 4.76492 70.2435 7.20095 70.2435 9.85177V16.1142C70.2435 17.9964 71.0235 18.8216 71.7583 19.839C72.0183 20.2007 72.0748 20.6359 71.747 20.9072C70.9274 21.5911 69.4692 22.8628 68.6666 23.575L68.6553 23.5637Z" fill="#918EA4" fill-opacity="0.7"/>
<path id="path30" d="M11.9192 13.7686V12.8982C9.01402 12.8982 5.94496 13.52 5.94496 16.9451C5.94496 18.6803 6.84363 19.8559 8.38665 19.8559C9.51706 19.8559 10.5288 19.1607 11.1675 18.0303C11.9587 16.6399 11.9192 15.3343 11.9192 13.7686ZM15.9717 23.5637C15.7061 23.801 15.3217 23.818 15.0222 23.6597C13.6883 22.5519 13.4509 22.0376 12.7161 20.9807C10.5118 23.2302 8.95185 23.9028 6.09191 23.9028C2.71198 23.9028 0.078125 21.8172 0.078125 17.6403C0.078125 14.3791 1.84722 12.1578 4.36238 11.0726C6.54408 10.1118 9.59053 9.9422 11.9192 9.67656V9.15657C11.9192 8.20137 11.9927 7.07096 11.4331 6.24576C10.9414 5.50534 10.0031 5.20013 9.17793 5.20013C7.64623 5.20013 6.27843 5.98576 5.94496 7.61355C5.87713 7.97529 5.61149 8.33137 5.24976 8.34832L1.34984 7.93007C1.02202 7.8566 0.660286 7.59095 0.750719 7.08792C1.6494 2.3628 5.9167 0.938477 9.73749 0.938477C11.6931 0.938477 14.2478 1.45847 15.7908 2.9393C17.7465 4.76492 17.5599 7.20095 17.5599 9.85177V16.1142C17.5599 17.9964 18.3399 18.8216 19.0747 19.839C19.3347 20.2007 19.3912 20.6359 19.0634 20.9072C18.2438 21.5911 16.7856 22.8628 15.983 23.575L15.9717 23.5637Z" fill="#918EA4" fill-opacity="0.7"/>
</g>
<defs>
<clipPath id="clip0_8_8108">
<rect width="130" height="39.2371" fill="white" transform="translate(0 0.885742)"/>
</clipPath>
</defs>
</svg>
