<svg width="150" height="31" viewBox="0 0 150 31" fill="none" xmlns="http://www.w3.org/2000/svg">
<g id="asana logo" clip-path="url(#clip0_8_8091)">
<g id="Group">
<path id="Vector" d="M146.219 23.2769L146.219 23.2793C146.31 24.3134 147.137 25.6295 148.57 25.6295H149.409C149.733 25.6295 150 25.3631 150 25.0379V6.59873H149.996C149.979 6.2881 149.723 6.03929 149.409 6.03929H146.811C146.496 6.03929 146.24 6.2881 146.223 6.59873H146.219V8.09704C144.628 6.13498 142.118 5.3206 139.601 5.3206C133.881 5.3206 129.244 9.96136 129.244 15.6864C129.244 21.4117 133.881 26.0525 139.601 26.0525V26.0531C142.118 26.0531 144.86 25.076 146.219 23.2769ZM139.611 22.4246C135.973 22.4246 133.024 19.4081 133.024 15.6864C133.024 11.9653 135.973 8.94857 139.611 8.94857C143.249 8.94857 146.199 11.9653 146.199 15.6864C146.199 19.3709 143.308 22.3642 139.72 22.4237L139.611 22.4246ZM125.959 23.9135L125.958 14.372H125.958C125.958 8.99354 122.568 5.36513 117.161 5.36513C114.58 5.36513 112.465 6.85871 111.717 8.14172L111.705 8.06824L111.691 7.99467C111.689 7.98241 111.686 7.97015 111.684 7.95789L111.667 7.88437L111.65 7.811L111.631 7.73789L111.61 7.66512C111.595 7.61675 111.579 7.56867 111.563 7.52101L111.536 7.44986C111.249 6.70644 110.641 6.08399 109.373 6.08399H108.532C108.207 6.08399 107.941 6.35057 107.941 6.67585V25.1165H107.944C107.961 25.4267 108.218 25.6759 108.532 25.6759H111.13C111.17 25.6759 111.209 25.6711 111.247 25.6637L111.264 25.6595L111.297 25.6489L111.336 25.6376C111.342 25.6356 111.348 25.6334 111.354 25.6309L111.377 25.6204L111.452 25.5785C111.469 25.5674 111.485 25.5548 111.501 25.5415L111.525 25.5212C111.528 25.5173 111.533 25.5149 111.537 25.5115C111.562 25.4864 111.586 25.4588 111.607 25.4302C111.672 25.3403 111.712 25.2328 111.718 25.1165H111.721V14.2241C111.721 11.3355 114.061 8.99354 116.948 8.99354C119.835 8.99354 122.175 11.3355 122.175 14.2241L122.177 23.3287L122.178 23.3255L122.179 23.3506V25.1165H122.183C122.2 25.4267 122.456 25.6759 122.77 25.6759H125.369C125.409 25.6759 125.447 25.6711 125.485 25.6637C125.5 25.6609 125.515 25.6547 125.53 25.6505L125.572 25.6382C125.579 25.636 125.586 25.6336 125.593 25.6309C125.614 25.622 125.634 25.6097 125.654 25.5985C125.666 25.5916 125.679 25.5865 125.691 25.5785C125.715 25.5629 125.737 25.5439 125.758 25.525L125.775 25.5109C125.792 25.4951 125.807 25.4784 125.821 25.4611L125.846 25.429C125.903 25.3502 125.94 25.2571 125.953 25.1563L125.956 25.1165H125.96V23.9138L125.959 23.9135ZM98.9023 23.2769L98.9026 23.2793C98.9935 24.3134 99.8206 25.6295 101.253 25.6295H102.092C102.417 25.6295 102.683 25.3631 102.683 25.0379V6.59873H102.68C102.663 6.2881 102.406 6.03929 102.092 6.03929H99.4939C99.1798 6.03929 98.9232 6.2881 98.9056 6.59873H98.9026V8.09704C97.3107 6.13498 94.8012 5.3206 92.2845 5.3206C86.5642 5.3206 81.9271 9.96136 81.9271 15.6864C81.9271 21.4117 86.5642 26.0525 92.2845 26.0525V26.0531C94.8012 26.0531 97.5439 25.076 98.9023 23.2769ZM92.2945 22.4246C88.6567 22.4246 85.7073 19.4081 85.7073 15.6864C85.7073 11.9653 88.6567 8.94857 92.2945 8.94857C95.9328 8.94857 98.8816 11.9653 98.8816 15.6864C98.8816 19.3709 95.9915 22.3642 92.4035 22.4237L92.2945 22.4246ZM66.5634 20.6384C68.2977 21.8408 70.1908 22.4248 72.01 22.4248C72.3674 22.4248 72.7272 22.3866 73.0733 22.3122L73.1767 22.2888C73.2282 22.2765 73.2793 22.2635 73.3301 22.2496L73.431 22.2208C73.4644 22.2109 73.4977 22.2006 73.5307 22.1899L73.6292 22.1569C73.8575 22.0774 74.0747 21.9807 74.2752 21.8676L74.3601 21.8181C75.0588 21.3971 75.5349 20.7673 75.5349 19.9606C75.5349 18.8741 74.4792 18.2646 73.1208 17.8126L72.9628 17.7611C72.9362 17.7526 72.9096 17.7442 72.8828 17.7358L72.7212 17.6863L72.5576 17.6378L72.3922 17.5903L72.1413 17.5208L71.8878 17.453L71.5473 17.3645L70.6963 17.1477L70.3614 17.0604L70.1141 16.9939L69.9517 16.9489L69.7915 16.9032C69.7649 16.8956 69.7385 16.8879 69.7122 16.8801L69.5558 16.8332C69.5299 16.8253 69.5042 16.8174 69.4786 16.8094L69.3265 16.7611C69.2763 16.7448 69.2266 16.7283 69.1776 16.7116C66.7242 15.8773 64.6111 14.1525 64.6111 11.3594C64.6111 7.0855 68.4163 5.32031 71.9679 5.32031C74.2182 5.32031 76.54 6.06293 78.0453 7.12673C78.3299 7.34255 78.3631 7.57592 78.3351 7.74252L78.3283 7.77717L78.32 7.80958L78.3106 7.83959L78.3006 7.867L78.2904 7.89162L78.2757 7.92294L78.2628 7.94697L78.2479 7.97116L76.8111 10.025C76.8021 10.0378 76.7928 10.0506 76.783 10.0631L76.7528 10.1003C76.5905 10.2891 76.3385 10.4199 75.9953 10.2256L75.9453 10.1955L75.6948 10.0376L75.6051 9.98272L75.5064 9.92404L75.4356 9.88312L75.3609 9.84098C75.3481 9.83387 75.3351 9.82671 75.322 9.81952L75.2415 9.77592L75.1571 9.73159L75.0689 9.68671L74.9769 9.64149L74.8811 9.59611L74.7816 9.55077C74.7478 9.53569 74.7134 9.52064 74.6784 9.50566L74.5715 9.46098L74.4609 9.41691C73.8056 9.16201 72.9657 8.94841 71.9679 8.94841C69.801 8.94841 68.4957 9.9499 68.4957 11.1912C68.4957 11.8963 68.8763 12.3724 69.4882 12.7323L69.5712 12.7796C69.6976 12.8495 69.833 12.915 69.9762 12.9769L70.0728 13.0177C70.0891 13.0244 70.1055 13.0311 70.122 13.0377L70.2219 13.077C70.2387 13.0835 70.2556 13.0899 70.2726 13.0963L70.3757 13.1343L70.4807 13.1714L70.5877 13.2078C70.6057 13.2139 70.6237 13.2198 70.6419 13.2258L70.7516 13.2612L70.9193 13.3131L71.0906 13.3639L71.2653 13.4137L71.3834 13.4465L71.5029 13.479L71.7453 13.5433L72.1792 13.6553L72.596 13.7684L72.9096 13.8552L73.1188 13.9142C73.1537 13.9241 73.1886 13.9341 73.2234 13.9441L73.4324 14.0048C73.4671 14.015 73.5019 14.0253 73.5367 14.0356L73.7449 14.0983L73.9524 14.1624C76.8172 15.0615 79.4194 16.4344 79.4194 19.9606C79.4194 23.7263 75.8998 26.0534 72.01 26.0534C69.0622 26.0534 66.5526 25.2124 64.4476 23.6666C64.1827 23.4013 64.1897 23.1474 64.2367 22.9881L64.2469 22.9565L64.2578 22.9277L64.269 22.902L64.2799 22.8795L64.2948 22.852L64.3155 22.8197L65.7453 20.7763C65.9902 20.4546 66.2891 20.4982 66.4731 20.5863L66.5062 20.6033C66.5168 20.6091 66.5268 20.6149 66.5364 20.6208L66.5634 20.6384ZM56.5756 23.2769L56.5759 23.2793C56.6668 24.3134 57.4939 25.6295 58.9269 25.6295H59.7654C60.0903 25.6295 60.3567 25.3631 60.3567 25.0379V6.59873H60.3531C60.3361 6.2881 60.0795 6.03929 59.7654 6.03929H57.1674C56.8533 6.03929 56.5966 6.2881 56.5791 6.59873H56.5759V8.09704C54.9843 6.13498 52.4746 5.3206 49.9581 5.3206C44.2378 5.3206 39.6006 9.96136 39.6006 15.6864C39.6006 21.4117 44.2378 26.0525 49.9581 26.0525V26.0531C52.4746 26.0531 55.2172 25.076 56.5756 23.2769ZM49.9683 22.4246C46.3302 22.4246 43.3807 19.4081 43.3807 15.6864C43.3807 11.9653 46.3302 8.94857 49.9683 8.94857C53.6062 8.94857 56.5552 11.9653 56.5552 15.6864C56.5552 19.3709 53.6649 22.3642 50.0772 22.4237L49.9683 22.4246Z" fill="#918EA4" fill-opacity="0.7"/>
<path id="Vector_2" d="M25.0795 16.3911C21.2299 16.3911 18.1094 19.5119 18.1094 23.3616C18.1094 27.2112 21.2299 30.332 25.0795 30.332C28.9291 30.332 32.0497 27.2112 32.0497 23.3616C32.0497 19.5119 28.9291 16.3911 25.0795 16.3911ZM6.97024 16.3917C3.12072 16.3917 0 19.5119 0 23.3616C0 27.2112 3.12072 30.332 6.97024 30.332C10.8199 30.332 13.9408 27.2112 13.9408 23.3616C13.9408 19.5119 10.8199 16.3917 6.97024 16.3917ZM22.995 7.6781C22.995 11.5279 19.8744 14.649 16.025 14.649C12.1752 14.649 9.05464 11.5279 9.05464 7.6781C9.05464 3.82903 12.1752 0.708008 16.025 0.708008C19.8744 0.708008 22.995 3.82903 22.995 7.6781Z" fill="#918EA4" fill-opacity="0.7"/>
</g>
</g>
<defs>
<clipPath id="clip0_8_8091">
<rect width="150" height="29.8828" fill="white" transform="translate(0 0.708008)"/>
</clipPath>
</defs>
</svg>
