<svg width="150" height="45" viewBox="0 0 150 45" fill="none" xmlns="http://www.w3.org/2000/svg">
<g id="HubSpot logo" clip-path="url(#clip0_8_8088)">
<path id="Vector" d="M0.0175781 8.92285H5.24766V20.5502H16.2782V8.92285H21.515V37.4644H16.2782V25.5928H5.24766V37.4644H0.0175781V8.92285ZM38.0839 28.168C38.0839 30.5572 36.1386 32.5015 33.7515 32.5015C31.3635 32.5015 29.4193 30.5572 29.4193 28.168V15.8798H24.4594V28.168C24.4594 33.2945 28.628 37.4644 33.7515 37.4644C38.8737 37.4644 43.0421 33.2945 43.0421 28.168V15.8798H38.0839V28.168ZM56.8884 16.0238C54.428 16.0238 52.7106 16.7382 51.0521 18.3673V8.92285H46.0761V26.426C46.0761 32.9776 50.8099 37.4644 56.1281 37.4644C62.0405 37.4644 67.2208 32.8975 67.2208 26.7444C67.2208 20.6692 62.4439 16.0238 56.8884 16.0238ZM57.012 32.8579C53.6402 32.8579 51.0618 30.0401 51.0618 26.7444C51.0618 23.4481 53.6402 20.6293 57.012 20.6293C59.869 20.6293 62.4489 23.4481 62.4489 26.7444C62.4489 30.0401 59.869 32.8579 57.012 32.8579ZM75.5783 17.2782C75.5783 14.7752 77.245 13.9816 79.0696 13.9816C80.5386 13.9816 82.4824 15.0933 83.751 16.4436L87.0038 12.6322C85.3781 10.4488 82.0854 8.93956 79.3872 8.93956C73.9904 8.93956 70.1019 12.0764 70.1019 17.2782C70.1019 26.9261 81.9662 23.8679 81.9662 29.2691C81.9662 30.9348 80.3399 32.4053 78.4761 32.4053C75.5388 32.4053 74.586 30.9759 73.2375 29.4667L69.6261 33.1983C71.9288 36.0176 74.7847 37.4477 78.1975 37.4477C83.3156 37.4477 87.4424 34.2713 87.4424 29.3075C87.4424 18.5878 75.5783 21.9234 75.5783 17.2782ZM100.542 15.7441C95.2245 15.7441 90.4901 20.2283 90.4901 26.7813V44.3296H95.4659V34.8403C97.1247 36.4682 98.8412 37.1838 101.302 37.1838C106.858 37.1838 111.635 32.539 111.635 26.4638C111.635 20.3098 106.453 15.7441 100.542 15.7441ZM101.426 32.5789C98.0549 32.5789 95.4762 29.7572 95.4762 26.4638C95.4762 23.1675 98.0549 20.3488 101.426 20.3488C104.283 20.3488 106.863 23.1675 106.863 26.4638C106.863 29.7572 104.283 32.5789 101.426 32.5789ZM148.262 32.8579C145.327 32.8579 144.494 31.588 144.494 29.6417V21.0263H149.056V16.6594H144.494V10.9017L139.457 13.1643V30.7138C139.457 35.2009 142.55 37.4644 146.794 37.4644C147.429 37.4644 148.303 37.4233 148.779 37.3058L150.01 32.78C149.454 32.8184 148.82 32.8579 148.262 32.8579Z" fill="#918EA4" fill-opacity="0.7"/>
<path id="Vector_2" d="M135.14 21.2807C134.186 19.6384 132.844 18.3218 131.167 17.3306C129.913 16.6004 128.613 16.1369 127.148 15.9378V10.7196C128.613 10.0972 129.522 8.71963 129.522 7.11252C129.522 4.92203 127.767 3.14694 125.58 3.14694C123.391 3.14694 121.604 4.92203 121.604 7.11252C121.604 8.71963 122.461 10.0972 123.926 10.7196V15.9402C122.754 16.1096 121.539 16.4752 120.429 17.0369C118.162 15.3143 110.73 9.66302 106.382 6.36233C106.485 5.99031 106.564 5.60685 106.564 5.20229C106.564 2.77609 104.601 0.80957 102.175 0.80957C99.7497 0.80957 97.7871 2.77609 97.7871 5.20229C97.7871 7.62819 99.7518 9.5953 102.177 9.5953C103.005 9.5953 103.77 9.35315 104.43 8.95504L105.348 9.65159L117.956 18.7419C117.289 19.3543 116.669 20.0509 116.172 20.8324C115.166 22.4258 114.551 24.1789 114.551 26.0912V26.4902C114.551 27.8325 114.806 29.0999 115.24 30.2904C115.622 31.3299 116.181 32.2751 116.873 33.1297L112.689 37.3271C112.083 37.1013 111.424 37.0549 110.792 37.1936C110.16 37.3323 109.581 37.6502 109.125 38.1093C108.809 38.4239 108.558 38.7981 108.388 39.2102C108.218 39.6224 108.131 40.0643 108.132 40.5103C108.132 41.417 108.485 42.2692 109.126 42.9104C109.441 43.2268 109.814 43.4776 110.226 43.6484C110.638 43.8192 111.08 43.9065 111.525 43.9054C111.971 43.9065 112.413 43.8191 112.825 43.6484C113.237 43.4776 113.611 43.2267 113.925 42.9104C114.241 42.5958 114.491 42.2217 114.662 41.8097C114.832 41.3978 114.919 40.9561 114.918 40.5103C114.918 40.1594 114.864 39.8169 114.762 39.4915L119.087 35.163C119.68 35.5729 120.321 35.9179 121.009 36.2155C122.367 36.803 123.866 37.1609 125.506 37.1609H125.807C127.62 37.1609 129.331 36.7346 130.939 35.8628C132.633 34.9414 133.96 33.6814 134.962 32.0728C135.969 30.4598 136.523 28.6777 136.523 26.7171V26.6191C136.523 24.6904 136.077 22.911 135.14 21.2807ZM129.855 30.3608C128.682 31.6662 127.332 32.4703 125.807 32.4703H125.555C124.684 32.4703 123.832 32.2294 122.997 31.7911C122.057 31.3085 121.342 30.6202 120.757 29.7486C120.152 28.8932 119.824 27.9592 119.824 26.9689V26.6681C119.824 25.6945 120.011 24.7713 120.481 23.8995C120.984 22.9464 121.664 22.2053 122.567 21.6161C123.454 21.0309 124.402 20.7439 125.457 20.7439H125.555C126.512 20.7439 127.418 20.9327 128.273 21.3704C129.144 21.8371 129.855 22.4747 130.407 23.3135C130.943 24.1525 131.262 25.0575 131.364 26.0434C131.38 26.2483 131.389 26.4582 131.389 26.6587C131.389 27.9967 130.878 29.2359 129.855 30.3608Z" fill="#918EA4" fill-opacity="0.7"/>
</g>
<defs>
<clipPath id="clip0_8_8088">
<rect width="150" height="43.7086" fill="white" transform="translate(0 0.794922)"/>
</clipPath>
</defs>
</svg>
