<svg width="123" height="48" viewBox="0 0 123 48" fill="none" xmlns="http://www.w3.org/2000/svg">
<path d="M1.98162 1.36489H0.495404C0.412837 1.36489 0.346783 1.34012 0.297242 1.29058C0.247702 1.22452 0.222932 1.15021 0.222932 1.06765C0.222932 0.968565 0.247702 0.894254 0.297242 0.844714C0.346783 0.77866 0.412837 0.745633 0.495404 0.745633H8.54572C8.62828 0.745633 8.69434 0.77866 8.74388 0.844714C8.80993 0.894254 8.84296 0.960308 8.84296 1.04288C8.84296 1.14196 8.80993 1.22452 8.74388 1.29058C8.69434 1.34012 8.62828 1.36489 8.54572 1.36489H7.0595V37.356H8.54572C8.71085 37.4716 8.79342 37.5789 8.79342 37.678C8.79342 37.7936 8.71085 37.9009 8.54572 38H0.297242C0.115594 37.8844 0.0247702 37.7771 0.0247702 37.678C0.0247702 37.5789 0.115594 37.4716 0.297242 37.356H1.98162V1.36489ZM15.8282 37.356L16.4226 37.4055C16.5052 37.4551 16.5465 37.5459 16.5465 37.678C16.5465 37.7771 16.4639 37.8844 16.2988 38H10.4283C10.2631 37.8844 10.1805 37.7771 10.1805 37.678C10.1805 37.5789 10.2631 37.4716 10.4283 37.356H11.3943V12.0656H10.4283C10.2631 11.9665 10.1805 11.8674 10.1805 11.7684C10.1805 11.6528 10.2631 11.5372 10.4283 11.4216H15.8282V13.4032C16.4226 12.5115 16.9676 11.9087 17.463 11.595C17.9584 11.2812 18.6107 11.1243 19.4198 11.1243C20.3281 11.1243 21.0134 11.3142 21.4758 11.6941C21.9546 12.0574 22.3592 12.7509 22.6895 13.7748C23.2179 12.7344 23.7298 12.0326 24.2252 11.6693C24.7207 11.306 25.3977 11.1243 26.2564 11.1243C27.4289 11.1243 28.2876 11.4051 28.8325 11.9665C29.394 12.5115 29.6747 13.2959 29.6747 14.3197V37.356H30.4921C30.5912 37.356 30.6738 37.389 30.7398 37.4551C30.8059 37.5046 30.8389 37.5789 30.8389 37.678L30.7646 37.9009C30.682 37.967 30.5912 38 30.4921 38H24.7454C24.5803 37.8844 24.4977 37.7771 24.4977 37.678C24.4977 37.5789 24.5803 37.4716 24.7454 37.356H25.2656V13.4032C25.2656 13.1225 25.1913 12.8995 25.0427 12.7344C24.9106 12.5693 24.7619 12.4867 24.5968 12.4867C24.2335 12.4867 23.8785 12.7592 23.5317 13.3041C22.9702 14.1793 22.6895 15.4013 22.6895 16.9701V37.356H23.2344L23.3831 37.4303C23.4326 37.4963 23.4574 37.5789 23.4574 37.678C23.4574 37.7771 23.3831 37.8844 23.2344 38H17.6611C17.529 37.9009 17.463 37.7936 17.463 37.678C17.463 37.5624 17.529 37.4551 17.6611 37.356H18.3299V13.7748C18.3299 13.3289 18.2556 13.0151 18.107 12.8335C17.9584 12.6353 17.785 12.5362 17.5868 12.5362C17.2566 12.5362 16.9511 12.7427 16.6703 13.1555C16.1089 14.0142 15.8282 14.9555 15.8282 15.9793V37.356ZM33.8609 14.0472C34.092 13.9647 34.315 13.9069 34.5296 13.8738C34.7443 13.8243 34.9425 13.7995 35.1241 13.7995C35.7847 13.7995 36.3379 14.039 36.7837 14.5179C37.2461 14.9967 37.4773 15.6243 37.4773 16.4004C37.4773 17.193 37.2461 17.8288 36.7837 18.3077C36.3214 18.7866 35.7021 19.026 34.926 19.026C34.1498 19.026 33.5388 18.7866 33.093 18.3077C32.6471 17.8123 32.4242 17.0857 32.4242 16.1279C32.4242 14.7078 32.9609 13.5188 34.0342 12.561C35.1076 11.6032 36.6351 11.1243 38.6167 11.1243C40.4002 11.1243 41.68 11.4629 42.4561 12.1399C43.2488 12.8005 43.6451 13.6509 43.6451 14.6913V36.0927C43.6451 36.3404 43.7111 36.5468 43.8432 36.712C43.9753 36.8606 44.1157 36.9349 44.2643 36.9349C44.6772 36.9349 45.0983 36.4973 45.5276 35.6221C45.6432 35.3578 45.7588 35.2257 45.8744 35.2257L46.1716 35.4982C46.1716 36.0762 45.8001 36.6872 45.057 37.3312C44.3139 37.9752 43.4221 38.2972 42.3818 38.2972C41.4901 38.2972 40.7965 38.0908 40.3011 37.678C39.8222 37.2652 39.4589 36.5386 39.2112 35.4982C38.4516 36.6211 37.7828 37.3725 37.2048 37.7523C36.6434 38.1156 35.9746 38.2972 35.1984 38.2972C34.2572 38.2972 33.5306 38.0578 33.0187 37.5789C32.5233 37.0835 32.2756 36.4395 32.2756 35.6468V26.3085C32.2756 25.3011 32.4902 24.558 32.9196 24.0792C33.3654 23.6003 34.6618 23.0058 36.8085 22.2957C37.7663 21.9654 38.5672 21.6352 39.2112 21.3049V14.1711C39.2112 13.428 39.0131 12.85 38.6167 12.4372C38.2369 12.0243 37.7333 11.8179 37.1057 11.8179C35.6526 11.8179 34.5709 12.561 33.8609 14.0472ZM39.2112 22.0728C38.1544 22.4856 37.469 22.8984 37.1553 23.3113C36.858 23.7241 36.7094 24.3847 36.7094 25.2929V35.7707C36.7094 36.1175 36.7672 36.3734 36.8828 36.5386C37.0149 36.7037 37.1718 36.7863 37.3534 36.7863C37.6177 36.7863 37.9149 36.5055 38.2452 35.9441C38.8892 34.9037 39.2112 33.6487 39.2112 32.179V22.0728ZM50.9523 32.5258C49.945 31.5845 49.2101 30.4699 48.7477 29.1818C48.1037 27.3653 47.7817 25.0122 47.7817 22.1223C47.7817 17.9939 48.4422 15.005 49.7633 13.1555C50.7211 11.8014 51.9761 11.1243 53.5284 11.1243C54.5192 11.1243 55.4192 11.4711 56.2283 12.1647C56.6081 11.3886 57.0292 10.8106 57.4916 10.4308C57.954 10.0345 58.4577 9.83629 59.0026 9.83629C59.5806 9.83629 60.0429 10.0345 60.3897 10.4308C60.753 10.8106 60.9347 11.3555 60.9347 12.0656C60.9347 12.6766 60.8108 13.139 60.5631 13.4527C60.3154 13.75 60.0347 13.8986 59.7209 13.8986C59.3741 13.8986 59.0934 13.783 58.8787 13.5518C58.6641 13.3041 58.5567 12.9491 58.5567 12.4867V12.2142C58.5732 12.0656 58.5815 11.9418 58.5815 11.8427C58.5815 11.5619 58.532 11.372 58.4329 11.273C58.3503 11.1739 58.2265 11.1243 58.0613 11.1243C57.8301 11.1243 57.599 11.2565 57.3678 11.5207C57.1366 11.7849 56.9136 12.1895 56.699 12.7344C58.2677 14.7325 59.0521 17.9774 59.0521 22.4691C59.0521 26.3828 58.3833 29.2809 57.0458 31.1634C56.0549 32.5506 54.8577 33.2441 53.4541 33.2441C53.2394 33.2441 52.9669 33.2359 52.6367 33.2194C52.4385 33.2028 51.9183 33.1946 51.0761 33.1946C50.0688 33.1946 49.3505 33.3432 48.9211 33.6404C48.5083 33.9377 48.3019 34.2267 48.3019 34.5074C48.3019 34.7716 48.4175 34.9863 48.6487 35.1514C48.9789 35.3826 49.4991 35.4982 50.2092 35.4982H54.1476C56.0797 35.4982 57.4834 35.9358 58.3586 36.811C59.2503 37.6862 59.6962 39.0321 59.6962 40.8486C59.6962 42.8302 59.1099 44.3825 57.9375 45.5054C56.765 46.6448 55.1302 47.2145 53.033 47.2145C50.9193 47.2145 49.3175 46.7686 48.2276 45.8769C47.1377 45.0017 46.5927 43.9944 46.5927 42.855C46.5927 42.1449 46.7661 41.4761 47.1129 40.8486C47.4597 40.2376 47.9716 39.6679 48.6487 39.1394C48.1202 38.7926 47.7156 38.3798 47.4349 37.9009C47.1707 37.4055 47.0386 36.8441 47.0386 36.2165C47.0386 35.1267 47.3276 34.2927 47.9056 33.7148C48.4835 33.1203 49.4991 32.7239 50.9523 32.5258ZM54.5935 13.6261C54.5935 12.8335 54.4862 12.3051 54.2715 12.0408C54.0733 11.7766 53.7843 11.6445 53.4045 11.6445C53.0412 11.6445 52.744 11.7931 52.5128 12.0904C52.2816 12.3711 52.166 12.883 52.166 13.6261V30.0983C52.166 31.0726 52.3146 31.7662 52.6119 32.179C52.8266 32.4762 53.1155 32.6249 53.4788 32.6249C53.8091 32.6249 54.0733 32.4928 54.2715 32.2285C54.4862 31.9643 54.5935 31.502 54.5935 30.8414V13.6261ZM49.1441 39.511C48.6982 39.9403 48.3597 40.3779 48.1285 40.8238C47.9138 41.2697 47.8065 41.7155 47.8065 42.1614C47.8065 43.0201 48.2771 43.821 49.2184 44.5641C50.1596 45.3237 51.5055 45.7035 53.2559 45.7035C55.0394 45.7035 56.4925 45.2659 57.6155 44.3907C58.4577 43.6971 58.8787 42.888 58.8787 41.9632C58.8787 41.2697 58.6476 40.7577 58.1852 40.4275C57.5577 39.9981 56.2944 39.7835 54.3953 39.7835H53.3798C51.7284 39.7835 50.3165 39.6926 49.1441 39.511ZM62.4952 3.04926C62.4952 2.33918 62.7511 1.72818 63.2631 1.21627C63.775 0.704349 64.3777 0.448391 65.0713 0.448391C65.8144 0.448391 66.4419 0.704349 66.9538 1.21627C67.4657 1.71167 67.7217 2.32267 67.7217 3.04926C67.7217 3.77585 67.4657 4.39511 66.9538 4.90702C66.4419 5.41894 65.8227 5.6749 65.0961 5.6749C64.386 5.6749 63.775 5.41894 63.2631 4.90702C62.7511 4.39511 62.4952 3.77585 62.4952 3.04926ZM62.8667 12.0656H61.9007C61.8016 12.0656 61.7191 12.0408 61.653 11.9913C61.6035 11.9252 61.5787 11.8427 61.5787 11.7436C61.5787 11.6445 61.6035 11.5702 61.653 11.5207C61.7191 11.4546 61.8016 11.4216 61.9007 11.4216H67.2758V37.356H68.341C68.44 37.356 68.5143 37.389 68.5639 37.4551C68.6299 37.5046 68.663 37.5872 68.663 37.7028C68.663 37.7853 68.6299 37.8596 68.5639 37.9257C68.5143 37.9752 68.44 38 68.341 38H61.9007C61.7356 37.8844 61.653 37.7771 61.653 37.678C61.653 37.5624 61.7356 37.4551 61.9007 37.356H62.8667V12.0656ZM71.1152 12.0656H70.0501L69.9015 12.0161C69.8519 11.95 69.8272 11.8592 69.8272 11.7436C69.8272 11.6445 69.9015 11.5372 70.0501 11.4216H75.4748V13.4527C76.0527 12.5775 76.6225 11.9748 77.1839 11.6445C77.7454 11.2977 78.4224 11.1243 79.2151 11.1243C80.2719 11.1243 81.0233 11.3886 81.4692 11.917C82.1132 12.6766 82.4352 13.7665 82.4352 15.1867V37.356H83.2526C83.3517 37.356 83.426 37.389 83.4755 37.4551C83.5416 37.5046 83.5746 37.5789 83.5746 37.678C83.5746 37.7771 83.5416 37.8596 83.4755 37.9257C83.426 37.9752 83.3517 38 83.2526 38H77.5307C77.4481 38 77.3738 37.9752 77.3078 37.9257C77.2582 37.8596 77.2335 37.7771 77.2335 37.678C77.2335 37.5789 77.2582 37.5046 77.3078 37.4551C77.3738 37.389 77.4481 37.356 77.5307 37.356H78.0261V14.1711C78.0261 13.6592 77.96 13.3206 77.8279 13.1555C77.6958 12.9739 77.5142 12.883 77.283 12.883C76.8536 12.883 76.4821 13.1225 76.1683 13.6014C75.706 14.3114 75.4748 15.4756 75.4748 17.094V37.356H76.094C76.2592 37.4716 76.3417 37.5789 76.3417 37.678C76.3417 37.7771 76.2592 37.8844 76.094 38H70.0501C69.885 37.8844 69.8024 37.7771 69.8024 37.678C69.8024 37.5789 69.885 37.4716 70.0501 37.356H71.1152V12.0656ZM86.5718 14.0472C86.803 13.9647 87.0259 13.9069 87.2406 13.8738C87.4553 13.8243 87.6535 13.7995 87.8351 13.7995C88.4956 13.7995 89.0488 14.039 89.4947 14.5179C89.9571 14.9967 90.1883 15.6243 90.1883 16.4004C90.1883 17.193 89.9571 17.8288 89.4947 18.3077C89.0323 18.7866 88.4131 19.026 87.6369 19.026C86.8608 19.026 86.2498 18.7866 85.8039 18.3077C85.3581 17.8123 85.1351 17.0857 85.1351 16.1279C85.1351 14.7078 85.6718 13.5188 86.7452 12.561C87.8186 11.6032 89.3461 11.1243 91.3277 11.1243C93.1111 11.1243 94.3909 11.4629 95.1671 12.1399C95.9597 12.8005 96.356 13.6509 96.356 14.6913V36.0927C96.356 36.3404 96.4221 36.5468 96.5542 36.712C96.6863 36.8606 96.8267 36.9349 96.9753 36.9349C97.3881 36.9349 97.8092 36.4973 98.2386 35.6221C98.3542 35.3578 98.4698 35.2257 98.5854 35.2257L98.8826 35.4982C98.8826 36.0762 98.5111 36.6872 97.7679 37.3312C97.0248 37.9752 96.1331 38.2972 95.0928 38.2972C94.201 38.2972 93.5075 38.0908 93.0121 37.678C92.5332 37.2652 92.1699 36.5386 91.9222 35.4982C91.1626 36.6211 90.4938 37.3725 89.9158 37.7523C89.3543 38.1156 88.6855 38.2972 87.9094 38.2972C86.9681 38.2972 86.2415 38.0578 85.7296 37.5789C85.2342 37.0835 84.9865 36.4395 84.9865 35.6468V26.3085C84.9865 25.3011 85.2012 24.558 85.6306 24.0792C86.0764 23.6003 87.3727 23.0058 89.5195 22.2957C90.4773 21.9654 91.2782 21.6352 91.9222 21.3049V14.1711C91.9222 13.428 91.724 12.85 91.3277 12.4372C90.9479 12.0243 90.4442 11.8179 89.8167 11.8179C88.3635 11.8179 87.2819 12.561 86.5718 14.0472ZM91.9222 22.0728C90.8653 22.4856 90.18 22.8984 89.8663 23.3113C89.569 23.7241 89.4204 24.3847 89.4204 25.2929V35.7707C89.4204 36.1175 89.4782 36.3734 89.5938 36.5386C89.7259 36.7037 89.8828 36.7863 90.0644 36.7863C90.3286 36.7863 90.6259 36.5055 90.9561 35.9441C91.6002 34.9037 91.9222 33.6487 91.9222 32.179V22.0728ZM100.839 12.0656H99.6753C99.5266 12.0656 99.411 12.0326 99.3285 11.9665C99.2459 11.9005 99.2046 11.8179 99.2046 11.7188C99.2046 11.6032 99.2789 11.4794 99.4275 11.3473C100.815 10.2739 101.822 9.20878 102.45 8.15192C103.077 7.07854 103.63 5.83178 104.109 4.41162C104.456 3.38779 104.638 2.67771 104.654 2.28138L104.704 1.14196C104.753 1.05939 104.827 1.0181 104.927 1.0181C105.026 1.0181 105.1 1.04288 105.149 1.09242C105.216 1.14196 105.249 1.20801 105.249 1.29058V11.4216H108.939C109.071 11.4216 109.17 11.4546 109.237 11.5207C109.319 11.5867 109.36 11.661 109.36 11.7436C109.36 11.8427 109.327 11.917 109.261 11.9665C109.179 12.0326 109.071 12.0656 108.939 12.0656H105.249V35.1267C105.249 35.8367 105.348 36.3239 105.546 36.5881C105.678 36.7863 105.876 36.8853 106.14 36.8853C106.702 36.8853 107.197 36.5633 107.626 35.9193C108.271 34.9615 108.593 33.4918 108.593 31.5102V27.8938C108.593 27.6626 108.642 27.4809 108.741 27.3488C108.807 27.2663 108.89 27.225 108.989 27.225C109.088 27.225 109.17 27.2663 109.237 27.3488C109.336 27.4809 109.385 27.6626 109.385 27.8938V30.6433C109.385 33.434 108.939 35.4074 108.048 36.5633C107.172 37.7193 106.074 38.2972 104.753 38.2972C103.515 38.2972 102.606 37.9587 102.028 37.2817C101.236 36.3734 100.839 35.0854 100.839 33.4175V12.0656ZM115.132 24.7975V34.012C115.132 35.4487 115.297 36.3982 115.627 36.8606C115.875 37.2074 116.28 37.3807 116.841 37.3807C117.766 37.3807 118.591 36.8606 119.318 35.8202C120.523 34.0698 121.168 31.6836 121.25 28.6616C121.267 27.6708 121.308 27.1094 121.374 26.9773C121.457 26.8452 121.564 26.7791 121.696 26.7791C121.812 26.7791 121.902 26.8286 121.968 26.9277C122.051 27.0598 122.092 27.3736 122.092 27.869C122.092 30.8084 121.572 33.2854 120.532 35.3C119.508 37.2982 118.121 38.2972 116.37 38.2972C114.736 38.2972 113.381 37.5294 112.308 35.9936C111.235 34.4413 110.698 31.0891 110.698 25.9369V22.2957C110.698 18.349 111.425 15.3518 112.878 13.3041C113.918 11.8509 115.173 11.1243 116.643 11.1243C118.393 11.1243 119.739 12.0574 120.68 13.9234C121.638 15.7894 122.117 18.06 122.117 20.7352V24.7975H115.132ZM117.708 24.1287V13.5766C117.708 12.8995 117.576 12.3876 117.312 12.0408C117.13 11.7931 116.858 11.6693 116.494 11.6693C116.131 11.6693 115.809 11.8262 115.528 12.1399C115.264 12.4537 115.132 12.9326 115.132 13.5766V24.1287H117.708Z" fill="url(#paint0_linear_1008_327)"/>
<defs>
<linearGradient id="paint0_linear_1008_327" x1="2.73677" y1="23.7637" x2="124.013" y2="26.7904" gradientUnits="userSpaceOnUse">
<stop stop-color="#6572FF"/>
<stop offset="1" stop-color="#A253FF"/>
</linearGradient>
</defs>
</svg>
