<svg width="123" height="47" viewBox="0 0 123 47" fill="none" xmlns="http://www.w3.org/2000/svg">
<path d="M1.98162 0.928364H0.495404C0.412837 0.928364 0.346783 0.903594 0.297242 0.854054C0.247702 0.788 0.222932 0.713689 0.222932 0.631122C0.222932 0.532041 0.247702 0.457731 0.297242 0.40819C0.346783 0.342136 0.412837 0.309109 0.495404 0.309109H8.54572C8.62828 0.309109 8.69434 0.342136 8.74388 0.40819C8.80993 0.457731 8.84296 0.523784 8.84296 0.606352C8.84296 0.705432 8.80993 0.788 8.74388 0.854054C8.69434 0.903594 8.62828 0.928364 8.54572 0.928364H7.0595V36.9195H8.54572C8.71085 37.035 8.79342 37.1424 8.79342 37.2415C8.79342 37.3571 8.71085 37.4644 8.54572 37.5635H0.297242C0.115594 37.4479 0.0247702 37.3405 0.0247702 37.2415C0.0247702 37.1424 0.115594 37.035 0.297242 36.9195H1.98162V0.928364ZM15.8282 36.9195L16.4226 36.969C16.5052 37.0185 16.5465 37.1094 16.5465 37.2415C16.5465 37.3405 16.4639 37.4479 16.2988 37.5635H10.4283C10.2631 37.4479 10.1805 37.3405 10.1805 37.2415C10.1805 37.1424 10.2631 37.035 10.4283 36.9195H11.3943V11.6291H10.4283C10.2631 11.53 10.1805 11.4309 10.1805 11.3318C10.1805 11.2163 10.2631 11.1007 10.4283 10.9851H15.8282V12.9667C16.4226 12.075 16.9676 11.4722 17.463 11.1585C17.9584 10.8447 18.6107 10.6878 19.4198 10.6878C20.3281 10.6878 21.0134 10.8777 21.4758 11.2575C21.9546 11.6208 22.3592 12.3144 22.6895 13.3382C23.2179 12.2979 23.7298 11.5961 24.2252 11.2328C24.7207 10.8695 25.3977 10.6878 26.2564 10.6878C27.4289 10.6878 28.2876 10.9685 28.8325 11.53C29.394 12.075 29.6747 12.8593 29.6747 13.8832V36.9195H30.4921C30.5912 36.9195 30.6738 36.9525 30.7398 37.0185C30.8059 37.0681 30.8389 37.1424 30.8389 37.2415L30.7646 37.4644C30.682 37.5304 30.5912 37.5635 30.4921 37.5635H24.7454C24.5803 37.4479 24.4977 37.3405 24.4977 37.2415C24.4977 37.1424 24.5803 37.035 24.7454 36.9195H25.2656V12.9667C25.2656 12.6859 25.1913 12.463 25.0427 12.2979C24.9106 12.1327 24.7619 12.0502 24.5968 12.0502C24.2335 12.0502 23.8785 12.3227 23.5317 12.8676C22.9702 13.7428 22.6895 14.9648 22.6895 16.5336V36.9195H23.2344L23.3831 36.9938C23.4326 37.0598 23.4574 37.1424 23.4574 37.2415C23.4574 37.3405 23.3831 37.4479 23.2344 37.5635H17.6611C17.529 37.4644 17.463 37.3571 17.463 37.2415C17.463 37.1259 17.529 37.0185 17.6611 36.9195H18.3299V13.3382C18.3299 12.8924 18.2556 12.5786 18.107 12.397C17.9584 12.1988 17.785 12.0997 17.5868 12.0997C17.2566 12.0997 16.9511 12.3061 16.6703 12.719C16.1089 13.5777 15.8282 14.5189 15.8282 15.5428V36.9195ZM33.8609 13.6107C34.092 13.5281 34.315 13.4703 34.5296 13.4373C34.7443 13.3878 34.9425 13.363 35.1241 13.363C35.7847 13.363 36.3379 13.6024 36.7837 14.0813C37.2461 14.5602 37.4773 15.1877 37.4773 15.9639C37.4773 16.7565 37.2461 17.3923 36.7837 17.8712C36.3214 18.3501 35.7021 18.5895 34.926 18.5895C34.1498 18.5895 33.5388 18.3501 33.093 17.8712C32.6471 17.3758 32.4242 16.6492 32.4242 15.6914C32.4242 14.2712 32.9609 13.0823 34.0342 12.1245C35.1076 11.1667 36.6351 10.6878 38.6167 10.6878C40.4002 10.6878 41.68 11.0263 42.4561 11.7034C43.2488 12.3639 43.6451 13.2144 43.6451 14.2547V35.6562C43.6451 35.9039 43.7111 36.1103 43.8432 36.2754C43.9753 36.424 44.1157 36.4984 44.2643 36.4984C44.6772 36.4984 45.0983 36.0608 45.5276 35.1855C45.6432 34.9213 45.7588 34.7892 45.8744 34.7892L46.1716 35.0617C46.1716 35.6397 45.8001 36.2507 45.057 36.8947C44.3139 37.5387 43.4221 37.8607 42.3818 37.8607C41.4901 37.8607 40.7965 37.6543 40.3011 37.2415C39.8222 36.8286 39.4589 36.102 39.2112 35.0617C38.4516 36.1846 37.7828 36.936 37.2048 37.3158C36.6434 37.6791 35.9746 37.8607 35.1984 37.8607C34.2572 37.8607 33.5306 37.6213 33.0187 37.1424C32.5233 36.647 32.2756 36.003 32.2756 35.2103V25.8719C32.2756 24.8646 32.4902 24.1215 32.9196 23.6426C33.3654 23.1637 34.6618 22.5693 36.8085 21.8592C37.7663 21.5289 38.5672 21.1986 39.2112 20.8684V13.7346C39.2112 12.9914 39.0131 12.4135 38.6167 12.0006C38.2369 11.5878 37.7333 11.3814 37.1057 11.3814C35.6526 11.3814 34.5709 12.1245 33.8609 13.6107ZM39.2112 21.6362C38.1544 22.0491 37.469 22.4619 37.1553 22.8748C36.858 23.2876 36.7094 23.9481 36.7094 24.8564V35.3342C36.7094 35.6809 36.7672 35.9369 36.8828 36.102C37.0149 36.2672 37.1718 36.3497 37.3534 36.3497C37.6177 36.3497 37.9149 36.069 38.2452 35.5076C38.8892 34.4672 39.2112 33.2122 39.2112 31.7425V21.6362ZM50.9523 32.0893C49.945 31.148 49.2101 30.0333 48.7477 28.7453C48.1037 26.9288 47.7817 24.5756 47.7817 21.6858C47.7817 17.5574 48.4422 14.5685 49.7633 12.719C50.7211 11.3649 51.9761 10.6878 53.5284 10.6878C54.5192 10.6878 55.4192 11.0346 56.2283 11.7282C56.6081 10.952 57.0292 10.3741 57.4916 9.99425C57.954 9.59793 58.4577 9.39977 59.0026 9.39977C59.5806 9.39977 60.0429 9.59793 60.3897 9.99425C60.753 10.3741 60.9347 10.919 60.9347 11.6291C60.9347 12.2401 60.8108 12.7025 60.5631 13.0162C60.3154 13.3135 60.0347 13.4621 59.7209 13.4621C59.3741 13.4621 59.0934 13.3465 58.8787 13.1153C58.6641 12.8676 58.5567 12.5126 58.5567 12.0502V11.7777C58.5732 11.6291 58.5815 11.5052 58.5815 11.4062C58.5815 11.1254 58.532 10.9355 58.4329 10.8364C58.3503 10.7374 58.2265 10.6878 58.0613 10.6878C57.8301 10.6878 57.599 10.8199 57.3678 11.0841C57.1366 11.3484 56.9136 11.7529 56.699 12.2979C58.2677 14.296 59.0521 17.5409 59.0521 22.0326C59.0521 25.9463 58.3833 28.8444 57.0458 30.7269C56.0549 32.114 54.8577 32.8076 53.4541 32.8076C53.2394 32.8076 52.9669 32.7993 52.6367 32.7828C52.4385 32.7663 51.9183 32.7581 51.0761 32.7581C50.0688 32.7581 49.3505 32.9067 48.9211 33.2039C48.5083 33.5012 48.3019 33.7902 48.3019 34.0709C48.3019 34.3351 48.4175 34.5498 48.6487 34.7149C48.9789 34.9461 49.4991 35.0617 50.2092 35.0617H54.1476C56.0797 35.0617 57.4834 35.4993 58.3586 36.3745C59.2503 37.2497 59.6962 38.5956 59.6962 40.412C59.6962 42.3937 59.1099 43.9459 57.9375 45.0688C56.765 46.2083 55.1302 46.778 53.033 46.778C50.9193 46.778 49.3175 46.3321 48.2276 45.4404C47.1377 44.5652 46.5927 43.5579 46.5927 42.4184C46.5927 41.7084 46.7661 41.0396 47.1129 40.412C47.4597 39.8011 47.9716 39.2313 48.6487 38.7029C48.1202 38.3561 47.7156 37.9433 47.4349 37.4644C47.1707 36.969 47.0386 36.4075 47.0386 35.78C47.0386 34.6901 47.3276 33.8562 47.9056 33.2782C48.4835 32.6837 49.4991 32.2874 50.9523 32.0893ZM54.5935 13.1896C54.5935 12.397 54.4862 11.8685 54.2715 11.6043C54.0733 11.3401 53.7843 11.208 53.4045 11.208C53.0412 11.208 52.744 11.3566 52.5128 11.6539C52.2816 11.9346 52.166 12.4465 52.166 13.1896V29.6618C52.166 30.6361 52.3146 31.3296 52.6119 31.7425C52.8266 32.0397 53.1155 32.1883 53.4788 32.1883C53.8091 32.1883 54.0733 32.0562 54.2715 31.792C54.4862 31.5278 54.5935 31.0654 54.5935 30.4049V13.1896ZM49.1441 39.0745C48.6982 39.5038 48.3597 39.9414 48.1285 40.3873C47.9138 40.8331 47.8065 41.279 47.8065 41.7249C47.8065 42.5836 48.2771 43.3845 49.2184 44.1276C50.1596 44.8872 51.5055 45.267 53.2559 45.267C55.0394 45.267 56.4925 44.8294 57.6155 43.9542C58.4577 43.2606 58.8787 42.4515 58.8787 41.5267C58.8787 40.8331 58.6476 40.3212 58.1852 39.991C57.5577 39.5616 56.2944 39.3469 54.3953 39.3469H53.3798C51.7284 39.3469 50.3165 39.2561 49.1441 39.0745ZM62.4952 2.61274C62.4952 1.90266 62.7511 1.29166 63.2631 0.779743C63.775 0.267826 64.3777 0.0118671 65.0713 0.0118671C65.8144 0.0118671 66.4419 0.267826 66.9538 0.779743C67.4657 1.27515 67.7217 1.88614 67.7217 2.61274C67.7217 3.33933 67.4657 3.95858 66.9538 4.4705C66.4419 4.98242 65.8227 5.23838 65.0961 5.23838C64.386 5.23838 63.775 4.98242 63.2631 4.4705C62.7511 3.95858 62.4952 3.33933 62.4952 2.61274ZM62.8667 11.6291H61.9007C61.8016 11.6291 61.7191 11.6043 61.653 11.5548C61.6035 11.4887 61.5787 11.4062 61.5787 11.3071C61.5787 11.208 61.6035 11.1337 61.653 11.0841C61.7191 11.0181 61.8016 10.9851 61.9007 10.9851H67.2758V36.9195H68.341C68.44 36.9195 68.5143 36.9525 68.5639 37.0185C68.6299 37.0681 68.663 37.1506 68.663 37.2662C68.663 37.3488 68.6299 37.4231 68.5639 37.4892C68.5143 37.5387 68.44 37.5635 68.341 37.5635H61.9007C61.7356 37.4479 61.653 37.3405 61.653 37.2415C61.653 37.1259 61.7356 37.0185 61.9007 36.9195H62.8667V11.6291ZM71.1152 11.6291H70.0501L69.9015 11.5795C69.8519 11.5135 69.8272 11.4227 69.8272 11.3071C69.8272 11.208 69.9015 11.1007 70.0501 10.9851H75.4748V13.0162C76.0527 12.141 76.6225 11.5383 77.1839 11.208C77.7454 10.8612 78.4224 10.6878 79.2151 10.6878C80.2719 10.6878 81.0233 10.952 81.4692 11.4805C82.1132 12.2401 82.4352 13.33 82.4352 14.7501V36.9195H83.2526C83.3517 36.9195 83.426 36.9525 83.4755 37.0185C83.5416 37.0681 83.5746 37.1424 83.5746 37.2415C83.5746 37.3405 83.5416 37.4231 83.4755 37.4892C83.426 37.5387 83.3517 37.5635 83.2526 37.5635H77.5307C77.4481 37.5635 77.3738 37.5387 77.3078 37.4892C77.2582 37.4231 77.2335 37.3405 77.2335 37.2415C77.2335 37.1424 77.2582 37.0681 77.3078 37.0185C77.3738 36.9525 77.4481 36.9195 77.5307 36.9195H78.0261V13.7346C78.0261 13.2226 77.96 12.8841 77.8279 12.719C77.6958 12.5373 77.5142 12.4465 77.283 12.4465C76.8536 12.4465 76.4821 12.6859 76.1683 13.1648C75.706 13.8749 75.4748 15.0391 75.4748 16.6574V36.9195H76.094C76.2592 37.035 76.3417 37.1424 76.3417 37.2415C76.3417 37.3405 76.2592 37.4479 76.094 37.5635H70.0501C69.885 37.4479 69.8024 37.3405 69.8024 37.2415C69.8024 37.1424 69.885 37.035 70.0501 36.9195H71.1152V11.6291ZM86.5718 13.6107C86.803 13.5281 87.0259 13.4703 87.2406 13.4373C87.4553 13.3878 87.6535 13.363 87.8351 13.363C88.4956 13.363 89.0488 13.6024 89.4947 14.0813C89.9571 14.5602 90.1883 15.1877 90.1883 15.9639C90.1883 16.7565 89.9571 17.3923 89.4947 17.8712C89.0323 18.3501 88.4131 18.5895 87.6369 18.5895C86.8608 18.5895 86.2498 18.3501 85.8039 17.8712C85.3581 17.3758 85.1351 16.6492 85.1351 15.6914C85.1351 14.2712 85.6718 13.0823 86.7452 12.1245C87.8186 11.1667 89.3461 10.6878 91.3277 10.6878C93.1111 10.6878 94.3909 11.0263 95.1671 11.7034C95.9597 12.3639 96.356 13.2144 96.356 14.2547V35.6562C96.356 35.9039 96.4221 36.1103 96.5542 36.2754C96.6863 36.424 96.8267 36.4984 96.9753 36.4984C97.3881 36.4984 97.8092 36.0608 98.2386 35.1855C98.3542 34.9213 98.4698 34.7892 98.5854 34.7892L98.8826 35.0617C98.8826 35.6397 98.5111 36.2507 97.7679 36.8947C97.0248 37.5387 96.1331 37.8607 95.0928 37.8607C94.201 37.8607 93.5075 37.6543 93.0121 37.2415C92.5332 36.8286 92.1699 36.102 91.9222 35.0617C91.1626 36.1846 90.4938 36.936 89.9158 37.3158C89.3543 37.6791 88.6855 37.8607 87.9094 37.8607C86.9681 37.8607 86.2415 37.6213 85.7296 37.1424C85.2342 36.647 84.9865 36.003 84.9865 35.2103V25.8719C84.9865 24.8646 85.2012 24.1215 85.6306 23.6426C86.0764 23.1637 87.3727 22.5693 89.5195 21.8592C90.4773 21.5289 91.2782 21.1986 91.9222 20.8684V13.7346C91.9222 12.9914 91.724 12.4135 91.3277 12.0006C90.9479 11.5878 90.4442 11.3814 89.8167 11.3814C88.3635 11.3814 87.2819 12.1245 86.5718 13.6107ZM91.9222 21.6362C90.8653 22.0491 90.18 22.4619 89.8663 22.8748C89.569 23.2876 89.4204 23.9481 89.4204 24.8564V35.3342C89.4204 35.6809 89.4782 35.9369 89.5938 36.102C89.7259 36.2672 89.8828 36.3497 90.0644 36.3497C90.3286 36.3497 90.6259 36.069 90.9561 35.5076C91.6002 34.4672 91.9222 33.2122 91.9222 31.7425V21.6362ZM100.839 11.6291H99.6753C99.5266 11.6291 99.411 11.5961 99.3285 11.53C99.2459 11.464 99.2046 11.3814 99.2046 11.2823C99.2046 11.1667 99.2789 11.0429 99.4275 10.9108C100.815 9.83738 101.822 8.77226 102.45 7.7154C103.077 6.64202 103.63 5.39526 104.109 3.9751C104.456 2.95126 104.638 2.24118 104.654 1.84486L104.704 0.705432C104.753 0.622865 104.827 0.581581 104.927 0.581581C105.026 0.581581 105.1 0.606352 105.149 0.655892C105.216 0.705432 105.249 0.771486 105.249 0.854054V10.9851H108.939C109.071 10.9851 109.17 11.0181 109.237 11.0841C109.319 11.1502 109.36 11.2245 109.36 11.3071C109.36 11.4062 109.327 11.4805 109.261 11.53C109.179 11.5961 109.071 11.6291 108.939 11.6291H105.249V34.6901C105.249 35.4002 105.348 35.8874 105.546 36.1516C105.678 36.3497 105.876 36.4488 106.14 36.4488C106.702 36.4488 107.197 36.1268 107.626 35.4828C108.271 34.525 108.593 33.0553 108.593 31.0737V27.4572C108.593 27.2261 108.642 27.0444 108.741 26.9123C108.807 26.8297 108.89 26.7884 108.989 26.7884C109.088 26.7884 109.17 26.8297 109.237 26.9123C109.336 27.0444 109.385 27.2261 109.385 27.4572V30.2067C109.385 32.9975 108.939 34.9709 108.048 36.1268C107.172 37.2827 106.074 37.8607 104.753 37.8607C103.515 37.8607 102.606 37.5222 102.028 36.8451C101.236 35.9369 100.839 34.6489 100.839 32.981V11.6291ZM115.132 24.361V33.5755C115.132 35.0121 115.297 35.9617 115.627 36.424C115.875 36.7708 116.28 36.9442 116.841 36.9442C117.766 36.9442 118.591 36.424 119.318 35.3837C120.523 33.6333 121.168 31.2471 121.25 28.2251C121.267 27.2343 121.308 26.6728 121.374 26.5407C121.457 26.4086 121.564 26.3426 121.696 26.3426C121.812 26.3426 121.902 26.3921 121.968 26.4912C122.051 26.6233 122.092 26.9371 122.092 27.4325C122.092 30.3719 121.572 32.8489 120.532 34.8635C119.508 36.8617 118.121 37.8607 116.37 37.8607C114.736 37.8607 113.381 37.0928 112.308 35.5571C111.235 34.0048 110.698 30.6526 110.698 25.5004V21.8592C110.698 17.9125 111.425 14.9153 112.878 12.8676C113.918 11.4144 115.173 10.6878 116.643 10.6878C118.393 10.6878 119.739 11.6208 120.68 13.4869C121.638 15.3529 122.117 17.6235 122.117 20.2987V24.361H115.132ZM117.708 23.6922V13.1401C117.708 12.463 117.576 11.9511 117.312 11.6043C117.13 11.3566 116.858 11.2328 116.494 11.2328C116.131 11.2328 115.809 11.3896 115.528 11.7034C115.264 12.0172 115.132 12.496 115.132 13.1401V23.6922H117.708Z" fill="white"/>
</svg>
