<svg width="150" height="39" viewBox="0 0 150 39" fill="none" xmlns="http://www.w3.org/2000/svg">
<g id="Intercom logo" clip-path="url(#clip0_8_8095)">
<g id="Group">
<path id="Vector" d="M32.4937 1.08203H4.64195C3.41083 1.08203 2.23013 1.57109 1.3596 2.44163C0.489061 3.31216 0 4.49286 0 5.72398V33.5757C0 34.8068 0.489061 35.9875 1.3596 36.858C2.23013 37.7286 3.41083 38.2176 4.64195 38.2176H32.4937C33.7248 38.2176 34.9055 37.7286 35.776 36.858C36.6465 35.9875 37.1356 34.8068 37.1356 33.5757V5.72398C37.1356 4.49286 36.6465 3.31216 35.776 2.44163C34.9055 1.57109 33.7248 1.08203 32.4937 1.08203ZM23.5184 7.89061C23.5194 7.5625 23.6501 7.24808 23.8821 7.01606C24.1142 6.78404 24.4286 6.65329 24.7567 6.65237C25.0848 6.65329 25.3992 6.78404 25.6312 7.01606C25.8633 7.24808 25.994 7.5625 25.9949 7.89061V24.4276C25.994 24.7557 25.8633 25.0701 25.6312 25.3021C25.3992 25.5341 25.0848 25.6649 24.7567 25.6658C24.4286 25.6649 24.1142 25.5341 23.8821 25.3021C23.6501 25.0701 23.5194 24.7557 23.5184 24.4276V7.89061ZM17.3296 7.26395C17.3305 6.93583 17.4612 6.62141 17.6933 6.3894C17.9253 6.15738 18.2397 6.02663 18.5678 6.02571C18.8959 6.02663 19.2103 6.15738 19.4424 6.3894C19.6744 6.62141 19.8051 6.93583 19.806 7.26395V25.2132C19.8051 25.5413 19.6744 25.8558 19.4424 26.0878C19.2103 26.3198 18.8959 26.4505 18.5678 26.4515C18.2397 26.4505 17.9253 26.3198 17.6933 26.0878C17.4612 25.8558 17.3305 25.5413 17.3296 25.2132V7.26395ZM11.1407 7.89061C11.1416 7.5625 11.2724 7.24808 11.5044 7.01606C11.7364 6.78404 12.0508 6.65329 12.3789 6.65237C13.0636 6.65237 13.616 7.20709 13.616 7.89061V24.4276C13.616 25.1123 13.0625 25.6658 12.3789 25.6658C12.0508 25.6649 11.7364 25.5341 11.5044 25.3021C11.2724 25.0701 11.1416 24.7557 11.1407 24.4276V7.89061ZM4.9518 10.3659C4.9518 9.68125 5.50535 9.12769 6.18888 9.12769C6.517 9.12861 6.83142 9.25936 7.06343 9.49138C7.29545 9.7234 7.4262 10.0378 7.42712 10.3659V21.4997C7.4262 21.8278 7.29545 22.1422 7.06343 22.3742C6.83142 22.6062 6.517 22.737 6.18888 22.7379C5.50419 22.7379 4.9518 22.1832 4.9518 21.4997V10.3659ZM31.7521 29.2471C31.5618 29.4119 26.9755 33.2589 18.569 33.2589C10.1624 33.2589 5.5773 29.4119 5.38582 29.2471C4.86709 28.8026 4.80558 28.0216 5.25121 27.5017C5.69684 26.9818 6.47436 26.9215 6.99194 27.3659C7.06389 27.4263 11.1581 30.7836 18.5678 30.7836C26.0692 30.7836 30.1007 27.4019 30.1402 27.3682C30.6578 26.9226 31.4399 26.983 31.8844 27.5017C32.3289 28.0204 32.272 28.8014 31.7533 29.2471H31.7521ZM32.1838 21.4997C32.1829 21.8278 32.0521 22.1422 31.8201 22.3742C31.5881 22.6062 31.2737 22.737 30.9456 22.7379C30.2609 22.7379 29.7085 22.1832 29.7085 21.4997V10.3659C29.7085 9.68125 30.262 9.12769 30.9456 9.12769C31.2737 9.12861 31.5881 9.25936 31.8201 9.49138C32.0521 9.7234 32.1829 10.0378 32.1838 10.3659V21.4997Z" fill="#918EA4" fill-opacity="0.7"/>
<path id="Vector_2" d="M51.8668 25.0185C51.8689 25.1689 51.8405 25.3182 51.7834 25.4574C51.7262 25.5966 51.6414 25.7227 51.5342 25.8282C51.4269 25.9337 51.2994 26.0164 51.1593 26.0713C51.0192 26.1262 50.8695 26.1522 50.7191 26.1476C50.0634 26.1476 49.59 25.637 49.59 25.0185V14.2538C49.5878 14.1033 49.6162 13.954 49.6734 13.8148C49.7306 13.6757 49.8153 13.5495 49.9226 13.444C50.0298 13.3385 50.1574 13.2558 50.2974 13.2009C50.4375 13.146 50.5873 13.1201 50.7377 13.1246C51.3933 13.1246 51.8668 13.6352 51.8668 14.2538V25.0185ZM66.5853 14.2538V24.0912C66.5853 25.4211 65.8751 26.1801 64.7459 26.1801H64.6554C63.5808 26.1801 63.0702 25.5604 62.6153 24.6483L60.3198 20.185L58.2797 15.5779L58.3342 20.0411L58.3528 25.0138C58.3549 25.1643 58.3265 25.3136 58.2693 25.4527C58.2122 25.5919 58.1274 25.7181 58.0202 25.8236C57.9129 25.9291 57.7854 26.0118 57.6453 26.0667C57.5052 26.1216 57.3555 26.1475 57.2051 26.143C56.5494 26.143 56.0759 25.6324 56.0759 25.0138V15.1764C56.0759 13.9555 56.7861 13.0875 58.0255 13.0875H58.1161C59.2765 13.0875 59.7373 13.7072 60.2049 14.6193L62.4632 19.0466L64.3943 23.3462L64.3398 19.2288L64.3212 14.2561C64.3191 14.1057 64.3475 13.9563 64.4046 13.8172C64.4618 13.678 64.5466 13.5519 64.6538 13.4463C64.7611 13.3408 64.8886 13.2581 65.0287 13.2032C65.1688 13.1483 65.3185 13.1224 65.4689 13.1269C66.1234 13.1258 66.5969 13.6352 66.5969 14.2549L66.5853 14.2538ZM75.7125 24.9883C75.7146 25.1387 75.6863 25.288 75.6291 25.4272C75.5719 25.5664 75.4871 25.6925 75.3799 25.798C75.2726 25.9036 75.1451 25.9863 75.005 26.0412C74.865 26.0961 74.7152 26.122 74.5648 26.1174C73.9091 26.1174 73.4357 25.6068 73.4357 24.9883V15.2425H70.6122C70.0296 15.2425 69.5677 14.805 69.5677 14.1679C69.5646 14.0283 69.5897 13.8896 69.6417 13.76C69.6936 13.6305 69.7713 13.5128 69.87 13.4141C69.9687 13.3154 70.0864 13.2377 70.2159 13.1858C70.3455 13.1338 70.4842 13.1087 70.6238 13.1119H78.5476C79.1302 13.1119 79.592 13.5494 79.592 14.1865C79.5952 14.326 79.5701 14.4648 79.5181 14.5943C79.4662 14.7239 79.3885 14.8416 79.2898 14.9403C79.1911 15.039 79.0734 15.1166 78.9439 15.1686C78.8143 15.2205 78.6755 15.2457 78.536 15.2425H75.7125V24.9883ZM82.5617 24.6251V14.5149C82.5617 13.5679 83.0898 13.0411 84.0553 13.0759H90.612C91.1946 13.0759 91.6565 13.5308 91.6565 14.1505C91.6596 14.29 91.6345 14.4288 91.5826 14.5583C91.5306 14.6879 91.4529 14.8056 91.3542 14.9043C91.2555 15.003 91.1378 15.0807 91.0083 15.1326C90.8787 15.1846 90.74 15.2097 90.6004 15.2065H84.8073V18.3399H89.9134C90.4786 18.3399 90.9347 18.7576 90.9347 19.3611C90.9347 19.9645 90.4797 20.3823 89.9134 20.3823H84.8073V23.9891H90.6004C91.183 23.9891 91.6449 24.444 91.6449 25.0637C91.648 25.2033 91.6229 25.342 91.571 25.4716C91.519 25.6011 91.4413 25.7188 91.3426 25.8175C91.2439 25.9162 91.1262 25.9939 90.9967 26.0458C90.8671 26.0978 90.7284 26.1229 90.5888 26.1198H84.0007C83.0538 26.1209 82.5269 25.5929 82.5617 24.6274V24.6251ZM104.604 24.6541C104.914 25.1821 104.713 25.8563 104.076 26.1859C103.456 26.4958 102.782 26.259 102.475 25.731L99.9424 21.0496H97.5378L97.5564 25.0208C97.5585 25.1712 97.5301 25.3205 97.4729 25.4597C97.4158 25.5989 97.331 25.725 97.2238 25.8305C97.1165 25.9361 96.989 26.0188 96.8489 26.0737C96.7088 26.1285 96.5591 26.1545 96.4087 26.1499C95.753 26.1499 95.2795 25.6393 95.2795 25.0208V14.5276C95.2795 13.5807 95.8075 13.0538 96.7731 13.0886H101.09C104.061 13.0886 105.298 15.0197 105.298 16.9879C105.298 18.8644 104.205 20.2372 102.327 20.6132L104.604 24.6564V24.6541ZM97.5251 18.9886H101.132C102.353 18.9886 102.989 18.2052 102.989 17.0935C102.989 15.9817 102.316 15.217 101.112 15.217H97.5239V18.9886H97.5251ZM109.984 25.1647C108.618 23.9438 108.011 22.0314 108.011 19.6268C108.011 17.2037 108.612 15.3098 109.961 14.1076C110.799 13.3788 111.928 12.8867 113.568 12.8867C115.007 12.8867 116.118 13.2151 116.956 13.9254C117.685 14.5079 118.213 15.3179 118.523 16.4761C118.685 17.0772 118.268 17.6784 117.576 17.806C116.92 17.9151 116.392 17.4962 116.192 16.895C115.973 16.3125 115.681 15.8935 115.335 15.6011C114.862 15.1833 114.291 15 113.513 15C112.694 15 111.981 15.2367 111.454 15.7659C110.688 16.5318 110.361 17.8977 110.361 19.628C110.361 21.3409 110.671 22.7068 111.473 23.4715C112.001 23.9995 112.694 24.2374 113.495 24.2374C114.332 24.2374 114.968 24.0193 115.499 23.5272C115.788 23.2556 116.017 22.9268 116.172 22.5617C116.409 21.9965 116.901 21.5776 117.538 21.7238C118.175 21.8701 118.576 22.4898 118.376 23.0897C118.047 24.0912 117.482 24.8931 116.718 25.4397C115.88 26.0408 114.842 26.3507 113.531 26.3507C111.855 26.3507 110.798 25.8587 109.996 25.167L109.984 25.1647ZM121.09 19.6268C121.09 15.5466 122.766 12.8867 126.718 12.8867C130.635 12.8867 132.329 15.4746 132.329 19.6268C132.329 23.8348 130.616 26.3669 126.718 26.3669C122.747 26.3669 121.09 23.8348 121.09 19.6268ZM129.998 19.6268C129.998 16.5283 128.869 15.0197 126.702 15.0197C124.57 15.0197 123.453 16.5318 123.453 19.6268C123.453 22.7219 124.546 24.234 126.702 24.234C128.851 24.234 129.998 22.7219 129.998 19.6268ZM150 24.9999C150.002 25.1503 149.974 25.2996 149.917 25.4388C149.859 25.578 149.775 25.7041 149.667 25.8097C149.56 25.9152 149.433 25.9979 149.292 26.0528C149.152 26.1077 149.003 26.1336 148.852 26.129C148.197 26.129 147.723 25.6184 147.723 24.9999V20.1177L147.778 15.3632L146.192 20.1908L144.591 24.9453C144.318 25.7832 143.753 26.1116 143.043 26.1116C142.296 26.1116 141.749 25.7658 141.458 24.9279L139.818 20.1932L138.306 15.4386L138.36 20.12V25.0022C138.362 25.1527 138.334 25.302 138.277 25.4411C138.22 25.5803 138.135 25.7065 138.028 25.812C137.92 25.9175 137.793 26.0002 137.653 26.0551C137.513 26.11 137.363 26.1359 137.213 26.1314C136.557 26.1314 136.083 25.6208 136.083 25.0022V15.2564C136.083 13.9079 136.812 13.1246 138.088 13.1246C139.29 13.1246 139.964 13.7629 140.346 14.928L142.022 19.9007L143.043 23.2893L144.082 19.9007L145.757 14.928C146.14 13.7617 146.796 13.1246 147.997 13.1246C149.274 13.1246 149.97 13.8905 149.97 15.2564L149.988 25.0011L150 24.9999Z" fill="#918EA4" fill-opacity="0.7"/>
</g>
</g>
<defs>
<clipPath id="clip0_8_8095">
<rect width="150" height="37.5" fill="white" transform="translate(0 0.899414)"/>
</clipPath>
</defs>
</svg>
