<svg width="160" height="35" viewBox="0 0 160 35" fill="none" xmlns="http://www.w3.org/2000/svg">
<g id="microsoft logo" clip-path="url(#clip0_8_8117)">
<g id="Group">
<path id="Vector" d="M160 15.7688V12.955H156.506V8.58037L156.388 8.61655L153.106 9.62067L153.041 9.6404V12.955H147.861V11.1087C147.861 10.2489 148.054 9.59087 148.432 9.15208C148.809 8.71851 149.347 8.49815 150.033 8.49815C150.527 8.49815 151.038 8.61443 151.552 8.84369L151.681 8.90115V5.93775L151.62 5.9155C151.14 5.74312 150.488 5.65625 149.679 5.65625C148.66 5.65625 147.734 5.87797 146.926 6.31753C146.118 6.75768 145.483 7.38608 145.037 8.18511C144.594 8.98318 144.368 9.90488 144.368 10.9249V12.955H141.935V15.7688H144.368V27.623H147.861V15.7688H153.041V23.302C153.041 26.4045 154.505 27.9768 157.391 27.9768C157.865 27.9768 158.364 27.9211 158.874 27.8122C159.393 27.7006 159.746 27.5889 159.954 27.4697L160 27.4427V24.6027L159.858 24.6967C159.668 24.8232 159.432 24.9264 159.156 25.003C158.877 25.0811 158.645 25.1204 158.466 25.1204C157.789 25.1204 157.289 24.9382 156.979 24.5787C156.665 24.2159 156.506 23.5814 156.506 22.6939V15.7688H160ZM134.135 25.1207C132.867 25.1207 131.868 24.7003 131.163 23.8722C130.455 23.0399 130.095 21.8533 130.095 20.3458C130.095 18.7905 130.455 17.5732 131.164 16.7262C131.868 15.8848 132.858 15.4578 134.107 15.4578C135.318 15.4578 136.282 15.8656 136.972 16.6706C137.666 17.4797 138.018 18.6874 138.018 20.2609C138.018 21.8537 137.687 23.0772 137.034 23.8956C136.386 24.708 135.41 25.1207 134.135 25.1207ZM134.291 12.6016C131.872 12.6016 129.951 13.3102 128.581 14.7081C127.212 16.1061 126.518 18.0406 126.518 20.4586C126.518 22.7551 127.196 24.6024 128.532 25.9482C129.868 27.2945 131.687 27.9765 133.937 27.9765C136.281 27.9765 138.164 27.258 139.533 25.8408C140.902 24.425 141.596 22.5088 141.596 20.1473C141.596 17.8148 140.945 15.9538 139.661 14.6169C138.376 13.2795 136.569 12.6016 134.291 12.6016ZM120.886 12.6015C119.241 12.6015 117.88 13.0223 116.84 13.8521C115.795 14.6867 115.264 15.7816 115.264 17.1063C115.264 17.7948 115.379 18.4066 115.604 18.9253C115.831 19.4459 116.182 19.9041 116.648 20.2887C117.111 20.6702 117.824 21.0699 118.771 21.4764C119.566 21.8037 120.16 22.0808 120.537 22.299C120.905 22.5128 121.166 22.728 121.314 22.9373C121.457 23.1422 121.53 23.4225 121.53 23.7688C121.53 24.7542 120.792 25.2336 119.274 25.2336C118.711 25.2336 118.068 25.1162 117.364 24.8842C116.66 24.6526 116.002 24.3196 115.409 23.8927L115.264 23.7888V27.1515L115.317 27.1762C115.812 27.4044 116.435 27.5967 117.169 27.7481C117.902 27.8996 118.568 27.9768 119.147 27.9768C120.932 27.9768 122.37 27.5539 123.419 26.7193C124.474 25.8788 125.01 24.7582 125.01 23.3875C125.01 22.3989 124.722 21.5509 124.154 20.8672C123.59 20.1888 122.611 19.5663 121.246 19.0158C120.159 18.5794 119.462 18.217 119.175 17.939C118.898 17.6702 118.757 17.2903 118.757 16.8091C118.757 16.3825 118.931 16.0408 119.287 15.764C119.646 15.4857 120.146 15.3443 120.774 15.3443C121.355 15.3443 121.951 15.4362 122.543 15.6163C123.135 15.7965 123.655 16.0377 124.088 16.333L124.231 16.4305V13.2405L124.176 13.2169C123.776 13.0453 123.248 12.8985 122.607 12.7793C121.969 12.6613 121.39 12.6015 120.886 12.6015ZM106.158 25.1207C104.891 25.1207 103.891 24.7003 103.187 23.8722C102.478 23.0399 102.119 21.8537 102.119 20.3458C102.119 18.7905 102.478 17.5732 103.187 16.7262C103.892 15.8848 104.881 15.4578 106.13 15.4578C107.341 15.4578 108.305 15.8656 108.996 16.6706C109.69 17.4797 110.042 18.6874 110.042 20.2609C110.042 21.8537 109.71 23.0772 109.057 23.8956C108.409 24.708 107.434 25.1207 106.158 25.1207ZM106.314 12.6016C103.895 12.6016 101.974 13.3102 100.605 14.7081C99.2357 16.1061 98.5412 18.0406 98.5412 20.4586C98.5412 22.7561 99.2191 24.6024 100.555 25.9482C101.892 27.2945 103.71 27.9765 105.96 27.9765C108.304 27.9765 110.188 27.258 111.557 25.8408C112.926 24.425 113.62 22.5088 113.62 20.1473C113.62 17.8148 112.969 15.9538 111.684 14.6169C110.399 13.2795 108.592 12.6016 106.314 12.6016ZM93.239 15.495V12.955H89.7887V27.6226H93.239V20.1196C93.239 18.8436 93.5283 17.7956 94.099 17.0039C94.6626 16.2217 95.4136 15.8253 96.3305 15.8253C96.6412 15.8253 96.99 15.8766 97.3679 15.9779C97.7419 16.0787 98.0127 16.1881 98.1725 16.3032L98.3175 16.4082V12.9298L98.2615 12.9058C97.9402 12.7692 97.4857 12.7003 96.9105 12.7003C96.0436 12.7003 95.2676 12.9789 94.603 13.5274C94.0197 14.0096 93.5979 14.6707 93.2756 15.495H93.239ZM83.6099 12.6015C82.0271 12.6015 80.6151 12.941 79.4141 13.61C78.2107 14.2806 77.2801 15.2381 76.6468 16.4556C76.0165 17.6702 75.6965 19.089 75.6965 20.671C75.6965 22.0568 76.0068 23.3287 76.6201 24.4495C77.2338 25.5722 78.1025 26.4505 79.202 27.0598C80.3 27.6682 81.5689 27.9768 82.9739 27.9768C84.6136 27.9768 86.0135 27.6489 87.1361 27.0025L87.1813 26.9764V23.8155L87.0364 23.9213C86.528 24.2916 85.9598 24.5872 85.3484 24.8002C84.7386 25.013 84.1825 25.1206 83.6952 25.1206C82.3413 25.1206 81.2545 24.6969 80.4656 23.8619C79.6748 23.0255 79.274 21.8513 79.274 20.3736C79.274 18.8866 79.6921 17.6822 80.5161 16.7934C81.3373 15.9073 82.4262 15.4579 83.7521 15.4579C84.8862 15.4579 85.9913 15.8419 87.0368 16.6003L87.1813 16.7054V13.3748L87.1347 13.3485C86.7412 13.1283 86.2047 12.9464 85.5384 12.8085C84.8752 12.6709 84.2265 12.6015 83.6099 12.6015ZM73.3202 12.955H69.8698V27.6226H73.3202V12.955ZM71.6302 6.70645C71.0624 6.70645 70.5671 6.89973 70.1602 7.2828C69.7516 7.66704 69.5442 8.15071 69.5442 8.72145C69.5442 9.28329 69.7491 9.75807 70.1536 10.1321C70.5557 10.5049 71.0525 10.6939 71.6302 10.6939C72.2077 10.6939 72.7065 10.5049 73.1133 10.1326C73.5229 9.75807 73.7305 9.28329 73.7305 8.72145C73.7305 8.17064 73.5285 7.6918 73.1302 7.29828C72.7324 6.90553 72.2276 6.70645 71.6302 6.70645ZM63.0215 11.8728V27.6225H66.5427V7.15561H61.6694L55.4748 22.3578L49.4634 7.15561H44.3916V27.6225H47.7005V11.8713H47.8143L54.1621 27.6225H56.6592L62.908 11.8728H63.0215Z" fill="#918EA4" fill-opacity="0.7"/>
<g id="Group_2">
<path id="Vector_2" d="M16.2311 16.5475H0V0.316406H16.2311V16.5475Z" fill="#918EA4" fill-opacity="0.7"/>
<path id="Vector_3" d="M34.1518 16.5475H17.9209V0.316406H34.1518V16.5475Z" fill="#918EA4" fill-opacity="0.7"/>
<path id="Vector_4" d="M16.2307 34.4752H0V18.2441H16.2307V34.4752Z" fill="#918EA4" fill-opacity="0.7"/>
<path id="Vector_5" d="M34.1518 34.4752H17.9209V18.2441H34.1518V34.4752Z" fill="#918EA4" fill-opacity="0.7"/>
</g>
</g>
</g>
<defs>
<clipPath id="clip0_8_8117">
<rect width="160" height="34.375" fill="white" transform="translate(0 0.316406)"/>
</clipPath>
</defs>
</svg>
