<svg width="130" height="41" viewBox="0 0 130 41" fill="none" xmlns="http://www.w3.org/2000/svg">
<g id="Quora logo" clip-path="url(#clip0_8_8103)">
<path id="Vector" d="M64.8727 32.565L64.869 35.1393L55.2953 35.1483L55.2965 32.205L55.1607 32.2001C53.2527 34.2044 50.4376 35.7303 47.2893 35.7303C43.4243 35.7303 39.3224 33.3441 39.3224 28.1458V15.5985C39.3224 14.9309 39.0828 14.1192 38.3195 13.9756C38.3195 13.9756 36.1778 13.6301 35.9814 13.5927V10.9338C36.1528 10.9211 45.9066 10.0732 46.1912 10.0479V25.7614C46.1912 29.2429 48.2431 30.7689 50.6284 30.7689C53.0619 30.7689 55.0177 29.0524 55.0177 26.3808V15.5985C55.0177 14.9309 54.7793 14.1192 54.0157 13.9756L51.6715 13.639L51.6721 10.9023C51.6721 10.9023 61.6358 10.0609 61.8881 10.0362V30.0049L61.8989 30.6667C61.8989 31.6208 62.2882 32.0568 62.7122 32.146C63.4153 32.2936 64.8727 32.565 64.8727 32.565ZM76.497 35.9329C68.6253 35.9329 64.2851 30.3511 64.2851 23.1485C64.2851 15.8493 69.1972 9.64648 76.9744 9.64648C84.8458 9.64648 89.1888 15.1329 89.1888 22.3373C89.1885 29.636 84.2734 35.9329 76.497 35.9329ZM76.7354 13.4636C72.871 13.4636 71.773 17.2323 71.773 22.3373C71.773 30.3023 74.5894 32.1164 76.7354 32.1164C80.5992 32.1164 81.6972 28.2535 81.6972 23.1485C81.6972 15.1811 78.8827 13.4636 76.7354 13.4636Z" fill="#918EA4" fill-opacity="0.7"/>
<path id="Vector_2" d="M97.9882 14.7681C99.6309 11.893 103.375 9.39223 107.178 10.0527L108.005 15.7966C105.432 15.6166 100.008 16.8517 98.4075 20.9282L98.4038 30.6446C98.4038 31.5987 98.7864 32.0764 99.2171 32.124L102.989 32.5655L102.971 35.1772H87.2337V32.6903L90.7241 32.124C91.1533 32.0286 91.535 31.5987 91.535 30.6446L91.5365 15.6719C91.5365 15.0037 91.2978 14.145 90.5345 14.0502L88.37 13.7161C88.37 13.7161 88.8579 13.8451 87.6916 13.6129L87.6987 10.8148C87.6987 10.8148 96.9658 10.015 97.2767 9.98971L97.8711 14.7693L97.9882 14.7681ZM127.801 32.1709C127.376 32.086 126.988 31.6457 126.988 30.6915L126.995 18.8946C126.995 12.778 123.646 10.2395 118.565 9.89646C115.626 9.69823 111.381 10.2386 108.912 11.4086L109.682 16.337C112.352 15.1568 115.299 14.2144 117.747 14.8552C119.36 15.2773 120.35 16.4219 120.35 18.3694L120.356 19.8552C120.22 19.8552 119.699 19.8426 119.556 19.8426C112.835 19.8552 106.227 22.0426 106.227 28.8642C106.227 32.9182 108.995 35.7324 113.433 35.7324C117.392 35.7324 119.491 33.9195 120.732 32.4405L120.862 32.446L120.86 35.1843L129.965 35.1747L129.976 32.601L127.801 32.1709ZM120.319 25.9487C120.319 29.051 117.481 29.8899 115.512 29.8313C113.484 29.7717 112.689 28.4798 112.689 27.1356C112.689 25.1165 114.739 23.8548 120.329 23.8548L120.319 25.9487ZM26.7975 33.9362L26.8067 33.909C31.8871 30.7585 35.2843 25.0115 35.2843 18.1248C35.2843 4.8581 26.6928 0.145508 17.7116 0.145508C9.23531 0.145508 0.0244141 6.80465 0.0244141 18.3805C0.0244141 31.6475 8.61405 36.5133 17.5995 36.5133C19.0116 36.5133 20.3844 36.3438 21.7017 36.0297C21.7017 36.0297 21.7211 36.0362 21.7338 36.0381C25.2739 42.3631 30.5461 40.8325 31.9062 40.3338C31.9062 40.3338 31.7237 39.2207 31.4045 37.1491C28.861 37.0836 27.7278 35.8068 26.7975 33.9362ZM19.9991 31.7818C19.1944 31.9798 18.3804 32.057 17.594 32.057C13.4128 32.057 8.40531 30.2512 8.40531 18.9811C8.40531 7.7137 13.6493 4.60243 17.8308 4.60243C22.0114 4.60243 26.8734 7.28388 26.8734 18.5525C26.8734 23.6606 25.8344 26.909 24.3059 28.938C24.2831 28.9392 24.2639 28.9337 24.2639 28.9337C20.7871 24.4477 16.2755 25.5226 15.1935 26.0098C15.1935 26.0098 15.3315 27.0387 15.6178 28.909C18.0043 28.9083 19.186 30.1459 20.0114 31.7442C20.0062 31.7564 20.0021 31.769 19.9991 31.7818Z" fill="#918EA4" fill-opacity="0.7"/>
</g>
<defs>
<clipPath id="clip0_8_8103">
<rect width="130" height="40.716" fill="white" transform="translate(0 0.145508)"/>
</clipPath>
</defs>
</svg>
