<svg width="160" height="34" viewBox="0 0 160 34" fill="none" xmlns="http://www.w3.org/2000/svg">
<g id="segment-logo logo" clip-path="url(#clip0_8_8086)">
<path id="Vector" d="M28.87 17.8165L28.8913 17.818L31.1028 18.0493C31.2581 18.0658 31.4006 18.1418 31.5013 18.2602L31.5178 18.2802L31.4966 18.2908C31.6 18.4212 31.6456 18.5884 31.6228 18.7533C31.1397 22.5947 29.319 26.1431 26.4803 28.7758C23.5348 31.5076 19.6657 33.0254 15.6484 33.0252C13.6975 33.0284 11.7629 32.6693 9.94312 31.9662L9.84406 31.9274C9.77056 31.9003 9.70328 31.8586 9.64626 31.8048C9.58923 31.7511 9.54364 31.6864 9.51219 31.6146L9.50281 31.5915C9.44082 31.4477 9.43702 31.2855 9.49219 31.139L10.3653 29.0093C10.422 28.8649 10.5325 28.7481 10.6736 28.6835C10.8146 28.6189 10.9752 28.6116 11.1216 28.663L11.1416 28.6705C13.3284 29.515 15.7085 29.7284 18.0107 29.2864C20.3129 28.8444 22.4448 27.7648 24.1634 26.1705C26.3954 24.1196 27.8346 21.3488 28.2291 18.3433C28.2491 18.1944 28.3234 18.0581 28.4378 17.9606C28.5521 17.8631 28.6985 17.8113 28.8488 17.8152L28.87 17.8165ZM81.1 8.77773C82.9856 8.77773 84.4603 9.35304 85.4022 10.458L85.4334 10.4955V9.56054C85.4394 9.43463 85.4905 9.31508 85.5774 9.22373C85.6643 9.13239 85.7811 9.07535 85.9066 9.06304L85.9275 9.06148H88.4437C88.7025 9.07929 88.9084 9.28335 88.9309 9.5396L88.9325 9.56054V23.528C89.0138 25.4976 88.4085 27.4342 87.22 29.0068C85.8647 30.6562 83.8053 31.4915 81.1 31.4915C77.3391 31.4915 74.3709 29.1121 73.8825 25.7133C73.8707 25.5946 73.8997 25.4754 73.9646 25.3753C74.0296 25.2752 74.1267 25.2003 74.24 25.1627L74.2609 25.1565L76.7191 24.5784C76.7855 24.5631 76.8544 24.5618 76.9213 24.5745C76.9883 24.5872 77.0519 24.6137 77.1081 24.6521C77.1643 24.6906 77.212 24.7403 77.2481 24.7982C77.2842 24.856 77.3079 24.9206 77.3178 24.988C77.4261 25.9081 77.8738 26.7546 78.5733 27.3619C79.2729 27.9692 80.1739 28.2935 81.1 28.2715C84.0072 28.2715 85.375 26.794 85.4019 23.7059L85.4022 23.6121V22.388C84.8639 22.9917 84.1996 23.4698 83.4562 23.7884C82.7127 24.107 81.9084 24.2584 81.1 24.2318C76.9187 24.2318 73.8878 20.9855 73.8878 16.5205C73.8496 14.5116 74.557 12.5597 75.8734 11.0418C76.5344 10.3156 77.3422 9.73816 78.2433 9.34783C79.1444 8.9575 80.1181 8.76317 81.1 8.77773ZM5.37437 25.7659L5.40563 25.7655H5.43688C5.91868 25.771 6.37921 25.9648 6.71989 26.3056C7.06057 26.6463 7.25433 27.1069 7.25969 27.5887V27.6199L7.25937 27.6512C7.25325 28.0152 7.14008 28.3694 6.93398 28.6696C6.72787 28.9698 6.43796 29.2026 6.10039 29.3391C5.76283 29.4756 5.39255 29.5097 5.03573 29.4372C4.67892 29.3646 4.35136 29.1886 4.09391 28.9311C3.83646 28.6736 3.66052 28.346 3.58802 27.9892C3.51552 27.6324 3.54967 27.2621 3.68622 26.9246C3.82277 26.587 4.05567 26.2971 4.35588 26.0911C4.65608 25.885 5.01031 25.7719 5.37437 25.7659ZM124.656 8.58335L124.784 8.58429C129.279 8.64648 132.064 11.7752 132.064 16.7833C132.064 17.048 132.05 17.313 132.022 17.5765C132.011 17.6932 131.958 17.802 131.873 17.8829C131.788 17.9638 131.677 18.0115 131.56 18.0171L131.539 18.0177H120.855C120.92 20.2615 122.775 22.0371 125.02 22.0046C125.866 22.0576 126.704 21.8226 127.398 21.338C128.093 20.8534 128.602 20.1477 128.844 19.3362C128.888 19.221 128.973 19.1263 129.084 19.0708C129.194 19.0153 129.32 19.0029 129.439 19.0362L129.459 19.0421L131.591 19.793C131.709 19.8312 131.806 19.9149 131.86 20.0243L131.87 20.0452C131.928 20.1608 131.938 20.2952 131.897 20.4183C131.414 21.8468 130.486 23.0824 129.248 23.943C128.009 24.8036 126.528 25.2437 125.021 25.1984C124.016 25.2085 123.02 25.0191 122.089 24.6413C121.159 24.2635 120.312 23.7047 119.599 22.9974C118.821 22.1789 118.214 21.2131 117.815 20.1567C117.415 19.1004 117.231 17.9748 117.272 16.8462C117.272 11.724 120.953 8.64554 124.548 8.58429L124.656 8.58335ZM64.1963 8.58335H64.2016C68.7769 8.58335 71.6187 11.7246 71.6187 16.7833C71.6184 17.0483 71.6043 17.313 71.5766 17.5765C71.5663 17.6937 71.5136 17.8031 71.4284 17.8842C71.3432 17.9654 71.2313 18.0126 71.1137 18.0171L71.0934 18.0177H60.4091C60.4747 20.2677 62.3394 22.0459 64.5903 22.0046C65.4357 22.0586 66.2744 21.8241 66.9691 21.3393C67.6638 20.8545 68.1734 20.1483 68.4144 19.3362C68.4571 19.2201 68.5422 19.1246 68.6526 19.0689C68.7629 19.0131 68.8903 19.0013 69.0091 19.0358L69.0291 19.0421L71.1616 19.793C71.2866 19.8337 71.3878 19.9252 71.44 20.0452C71.49 20.1646 71.49 20.299 71.44 20.4183C70.9578 21.8459 70.03 23.081 68.793 23.9415C67.5561 24.8021 66.0755 25.2426 64.5694 25.1984C63.5633 25.2097 62.5651 25.021 61.6326 24.6432C60.7002 24.2653 59.8521 23.7059 59.1378 22.9974C58.3607 22.1781 57.7547 21.2122 57.3551 20.156C56.9556 19.0998 56.7705 17.9747 56.8106 16.8462C56.8106 11.6721 60.5666 8.58335 64.1963 8.58335ZM48.0172 8.57804C50.0709 8.57804 51.7309 9.0771 52.9603 10.0593C53.7916 10.7218 54.4072 11.6155 54.7306 12.628L54.7316 12.6321C54.7518 12.7158 54.7392 12.8041 54.6963 12.8787C54.6534 12.9534 54.5834 13.0087 54.5009 13.0334L54.4834 13.0377L51.9359 13.8784C51.8229 13.9231 51.6971 13.9231 51.5841 13.8784C51.5363 13.8561 51.4938 13.824 51.4593 13.7841C51.4248 13.7443 51.3992 13.6976 51.3841 13.6471L51.3706 13.5971C51.1388 12.7677 50.38 11.4359 48.0172 11.4359C46.3359 11.4359 45.3278 12.4024 45.3278 13.3374V13.3743C45.3406 13.9824 45.6712 14.7455 47.1209 15.0355L47.1663 15.0446L49.9713 15.5696C53.0706 16.194 54.8572 17.8783 54.8925 20.2258L54.8931 20.2977L54.8828 20.2555L54.8822 20.3268C54.8372 22.6799 52.5606 25.1565 48.3691 25.1565C43.4578 25.1565 41.53 22.3777 41.1725 20.7387C41.1612 20.656 41.1797 20.5721 41.2246 20.5018C41.2694 20.4315 41.3378 20.3795 41.4175 20.3549L41.4353 20.3499L44.0619 19.5305C44.1088 19.5229 44.1566 19.5229 44.2034 19.5305C44.2703 19.5293 44.3363 19.5437 44.3966 19.5718L44.4191 19.583C44.5153 19.6293 44.5866 19.7158 44.6131 19.8193C44.9444 21.3952 46.3678 22.3355 48.4163 22.3355C50.3234 22.3355 51.19 21.3374 51.19 20.434C51.19 19.5402 50.4347 18.878 49.1325 18.6046L49.0887 18.5952L46.1419 18.023C43.3947 17.503 41.6825 15.7955 41.6825 13.5737C41.6825 10.8684 44.5872 8.57804 48.0172 8.57804ZM153.959 4.20242H156.255C156.385 4.21039 156.508 4.2665 156.599 4.35983C156.69 4.45317 156.743 4.57705 156.748 4.70741L156.748 4.72773V9.04023H159.511C159.78 9.05929 159.989 9.27773 160 9.54491L160 9.56554V11.8759C159.996 11.9999 159.946 12.1179 159.859 12.2065C159.772 12.2952 159.655 12.3479 159.531 12.3543L159.511 12.3549H156.748V20.019C156.748 21.2902 157.252 21.8158 158.55 21.8158C158.812 21.8112 159.075 21.7911 159.335 21.7559L159.432 21.7421C159.576 21.7177 159.722 21.7584 159.832 21.8524C159.931 21.9443 159.99 22.0709 159.999 22.2055L160 22.2305V24.3896C160.001 24.4967 159.968 24.6012 159.904 24.6874C159.84 24.7737 159.751 24.8369 159.648 24.8677C159.043 25.037 158.418 25.1221 157.79 25.1205L157.705 25.1196C154.963 25.1196 153.253 23.3743 153.219 20.5515L153.218 20.4655V12.3865H150.828C150.702 12.379 150.584 12.3266 150.493 12.2389C150.403 12.1511 150.347 12.0338 150.336 11.9084L150.334 11.8874V9.58679C150.334 9.45625 150.382 9.33028 150.47 9.23345C150.557 9.13661 150.678 9.07586 150.808 9.06304L150.828 9.06148H151.471L151.539 9.06023C152.289 9.03835 153.441 8.7346 153.465 7.06023V4.72773C153.465 4.59714 153.513 4.47113 153.601 4.37429C153.688 4.27745 153.809 4.21672 153.939 4.20398L153.959 4.20242ZM109.343 8.58116L109.403 8.58335H109.398C112.102 8.58335 114.832 10.4677 114.887 14.583L114.888 14.708V24.4368C114.881 24.5626 114.83 24.6821 114.744 24.7734C114.657 24.8648 114.54 24.9218 114.415 24.9343L114.394 24.9358H111.877C111.751 24.9283 111.633 24.8758 111.542 24.7881C111.452 24.7004 111.396 24.5831 111.385 24.4577L111.383 24.4368V14.9512C111.368 13.7515 110.96 11.8243 108.49 11.8243C106.664 11.8243 105.363 13.2455 105.337 15.3127V24.4368C105.332 24.5627 105.281 24.6822 105.194 24.7736C105.107 24.8649 104.99 24.922 104.865 24.9343L104.843 24.9358H102.297C102.171 24.9286 102.052 24.8763 101.961 24.7885C101.871 24.7007 101.815 24.5833 101.804 24.4577L101.803 24.4368V14.9512C101.787 13.7515 101.379 11.8243 98.9078 11.8243C97.0097 11.8243 95.7244 13.2352 95.6991 15.343L95.6987 15.4071V24.4368C95.6926 24.5626 95.6414 24.682 95.5547 24.7733C95.4679 24.8646 95.3513 24.9217 95.2259 24.9343L95.205 24.9358H92.6884C92.5636 24.9272 92.446 24.8743 92.3567 24.7867C92.2675 24.699 92.2124 24.5824 92.2016 24.4577L92.2003 24.4368V9.52898C92.2062 9.40399 92.2565 9.28522 92.3423 9.19406C92.428 9.1029 92.5434 9.04535 92.6678 9.03179L92.6888 9.02991H95.1106C95.3709 9.04554 95.5803 9.2496 95.6028 9.50804L95.6044 9.52898V10.4271C96.143 9.83665 96.8006 9.36706 97.534 9.04926C98.2673 8.73145 99.0596 8.57266 99.8587 8.58335C100.777 8.5563 101.685 8.78144 102.485 9.23432C103.284 9.68719 103.944 10.3505 104.393 11.1521C104.928 10.3345 105.664 9.66846 106.531 9.21817C107.398 8.76787 108.367 8.54849 109.343 8.58116H109.343ZM147.02 10.4374C147.983 11.7068 148.481 13.2688 148.429 14.8615L148.427 14.929V24.4368C148.421 24.5618 148.371 24.6805 148.285 24.7717C148.199 24.8629 148.084 24.9204 147.959 24.934L147.939 24.9358H145.392C145.266 24.9284 145.147 24.8761 145.056 24.7883C144.966 24.7006 144.91 24.5833 144.898 24.4577L144.897 24.4368V15.4383C144.897 13.0852 143.789 11.8874 141.688 11.8874C141.23 11.8727 140.775 11.9659 140.36 12.1594C139.944 12.3528 139.58 12.6412 139.297 13.0012C138.742 13.8021 138.454 14.7585 138.477 15.733L138.478 15.7905V24.4368C138.472 24.5626 138.421 24.682 138.334 24.7733C138.247 24.8646 138.131 24.9217 138.005 24.9343L137.984 24.9358H135.442C135.316 24.9284 135.197 24.876 135.107 24.7883C135.017 24.7005 134.961 24.5832 134.95 24.4577L134.948 24.4368V9.51835C134.96 9.25741 135.163 9.04648 135.421 9.02085L135.442 9.01929H137.927C138.051 9.0279 138.169 9.0808 138.258 9.16846C138.348 9.25612 138.403 9.37278 138.413 9.49741L138.415 9.51835V10.569C138.941 9.93156 139.605 9.42173 140.356 9.07781C141.108 8.73389 141.928 8.56484 142.754 8.58335C143.559 8.54901 144.361 8.6981 145.1 9.01936C145.839 9.34061 146.495 9.82562 147.019 10.4377L147.02 10.4374ZM0.609375 18.454H18.6953C18.8547 18.4553 19.0073 18.5185 19.121 18.6302C19.2347 18.7419 19.3006 18.8934 19.3047 19.0527V21.338C19.306 21.4974 19.2453 21.651 19.1355 21.7665C19.0258 21.882 18.8754 21.9503 18.7162 21.9571L18.6953 21.9577H0.609375C0.449966 21.9563 0.297331 21.8931 0.18365 21.7813C0.069969 21.6696 0.00412499 21.518 0 21.3587L0 19.0524C0.00411559 18.8969 0.067018 18.7487 0.176035 18.6377C0.285051 18.5267 0.43208 18.4612 0.5875 18.4543L0.609375 18.454ZM81.5362 11.9196C79.0569 11.9196 77.4809 13.6843 77.4809 16.5208C77.4809 19.3574 79.0359 21.1168 81.5362 21.1168C83.9212 21.1168 85.5284 19.268 85.5284 16.5205C85.5284 13.768 83.9212 11.919 81.5362 11.919V11.9196ZM60.5206 14.9884L60.5141 15.0446H67.9891C67.8069 13.0477 66.3997 11.8027 64.2922 11.778L64.2278 11.7774C63.3327 11.7629 62.463 12.0754 61.7819 12.6564C61.1008 13.2374 60.655 14.0468 60.5281 14.933L60.5206 14.9884ZM120.987 14.9884L120.981 15.0446H128.456C128.274 13.0477 126.866 11.8027 124.758 11.778L124.694 11.7774C123.799 11.7629 122.93 12.0754 122.248 12.6564C121.567 13.2374 121.122 14.0468 120.995 14.933L120.987 14.9884ZM20.9594 1.17679C21.1162 1.23304 21.2431 1.35085 21.3116 1.50242C21.3741 1.65554 21.3741 1.82742 21.3116 1.98054L20.5238 4.08179C20.4713 4.23145 20.3616 4.3542 20.2188 4.4231C20.076 4.49199 19.9116 4.50141 19.7619 4.44929C17.7322 3.74098 15.5542 3.56756 13.438 3.94573C11.3218 4.3239 9.33875 5.24091 7.68 6.60835C5.57763 8.36814 4.08485 10.747 3.41469 13.4055C3.38102 13.5361 3.30504 13.6517 3.19862 13.7345C3.0922 13.8172 2.96135 13.8623 2.82656 13.8627H2.68969L0.525625 13.3427C0.445798 13.3239 0.370633 13.2891 0.304712 13.2403C0.23879 13.1915 0.183492 13.1298 0.142188 13.059H0.13125C0.0879125 12.9881 0.0595143 12.9092 0.0477993 12.827C0.0360842 12.7447 0.0412995 12.661 0.063125 12.5809C0.92256 9.17759 2.84564 6.1374 5.5525 3.90273C7.66875 2.16064 10.1989 0.994398 12.898 0.516894C15.5972 0.03939 18.3739 0.266485 20.9594 1.17679ZM12.9488 10.254H31.0344C31.19 10.2553 31.3394 10.3156 31.4523 10.4227C31.5652 10.5298 31.6333 10.6758 31.6428 10.8312L31.6438 10.8527V13.1168C31.6451 13.2761 31.5846 13.4298 31.4748 13.5453C31.3651 13.6609 31.2148 13.7293 31.0556 13.7362L31.0344 13.7365H12.9484C12.7901 13.7337 12.6389 13.6699 12.5264 13.5584C12.414 13.447 12.3488 13.2964 12.3447 13.138V10.8737C12.3433 10.7153 12.4032 10.5625 12.5117 10.4472C12.6202 10.3319 12.769 10.2629 12.9272 10.2546L12.9488 10.254ZM25.5037 3.34617H25.5662C26.048 3.35169 26.5085 3.54556 26.8491 3.88629C27.1897 4.22702 27.3834 4.68754 27.3887 5.16929V5.23179C27.3826 5.59584 27.2693 5.95002 27.0632 6.25015C26.8571 6.55028 26.5671 6.78308 26.2296 6.91953C25.892 7.05597 25.5217 7.09002 25.1649 7.01743C24.8081 6.94483 24.4806 6.76881 24.2232 6.51131C23.9658 6.2538 23.7899 5.92622 23.7174 5.5694C23.6449 5.21258 23.6791 4.84232 23.8156 4.5048C23.9522 4.16727 24.1851 3.87742 24.4853 3.67138C24.7855 3.46534 25.1397 3.35223 25.5037 3.34617Z" fill="#918EA4" fill-opacity="0.7"/>
</g>
<defs>
<clipPath id="clip0_8_8086">
<rect width="160" height="32.7525" fill="white" transform="translate(0 0.273438)"/>
</clipPath>
</defs>
</svg>
