<svg width="150" height="39" viewBox="0 0 150 39" fill="none" xmlns="http://www.w3.org/2000/svg">
<g id="Webflow logo" clip-path="url(#clip0_8_8099)">
<g id="Group">
<path id="Vector" d="M48.435 15.5061C48.435 12.8153 45.8184 9.95743 41.2904 9.95743C36.2056 9.95743 30.6198 13.6875 29.7662 21.129C28.894 28.6448 33.5705 31.9851 38.2841 31.9851C42.9977 31.9851 45.4658 30.148 47.9896 27.6984C45.8184 24.9704 43.0162 26.2323 42.478 26.5107C41.8842 26.8076 41.1233 27.2159 39.5645 27.2159C37.7459 27.2159 35.8901 26.3993 35.8901 23.0033C47.5442 21.8528 48.435 18.1969 48.435 15.5061ZM42.6636 15.9515C42.5894 16.7866 42.2553 18.2155 36.3541 19.0135C37.5974 14.5968 39.9728 14.2628 41.0677 14.2628C42.0883 14.2628 42.7378 15.0607 42.6636 15.9515ZM22.9185 16.6752C22.9185 16.6752 20.4132 24.5436 20.2091 25.1931C20.1349 24.525 18.2977 10.4028 18.2977 10.4028C14.0294 10.4028 11.7469 13.4462 10.5406 16.6567C10.5406 16.6567 7.49722 24.5436 7.23741 25.2117C7.21885 24.5993 6.77348 16.7495 6.77348 16.7495C6.51367 12.8153 2.91352 10.4214 0 10.4214L3.52592 31.8181C7.99827 31.7996 10.4107 28.7747 11.6726 25.5643C11.6726 25.5643 14.3635 18.6052 14.4748 18.2897C14.4934 18.5867 16.4048 31.8181 16.4048 31.8181C20.8957 31.8181 23.3082 28.9788 24.6072 25.8797L30.8982 10.4214C26.4629 10.4214 24.1247 13.4462 22.9185 16.6752ZM64.914 9.92032C62.149 9.92032 60.0334 11.4235 58.2519 13.6318V13.6133L59.8478 0.75293C56.1735 0.75293 53.1857 3.94481 52.6104 8.69553L49.8268 31.6511C51.9423 31.6511 54.1878 31.0387 55.394 29.4799C56.4704 30.8717 58.0849 31.9851 60.4788 31.9851C66.677 31.9851 70.9266 24.7848 70.9266 18.0299C70.8895 11.8689 67.9018 9.92032 64.914 9.92032ZM64.3387 20.962C63.6892 24.7292 61.5922 27.2901 59.5695 27.2901C57.5281 27.2901 56.6559 26.3808 56.6559 26.3808C57.0457 23.0776 57.2869 21.0548 58.0292 19.3104C58.7715 17.566 60.5345 14.7824 62.3716 14.7824C64.1717 14.7824 64.9883 17.1763 64.3387 20.962ZM86.4036 10.4214H82.0797L82.0982 10.1987C82.3952 7.37794 83.0632 5.89335 85.2716 5.6521C86.7747 5.50364 87.4428 4.72423 87.6098 3.87058C87.7397 3.20252 88.148 0.882832 88.148 0.882832C79.4631 0.82716 76.7351 4.57577 76.0299 10.2915L76.0114 10.4214H75.9186C74.5082 10.4214 72.9494 12.0173 72.6896 14.0401L72.5968 14.7824H75.4918L73.0607 34.8616L72.3185 38.4617C72.4112 38.4617 72.5226 38.4803 72.6154 38.4803C76.6795 38.3318 79.2775 35.1214 79.8528 30.4634L81.7456 14.7824H83.1003C84.4365 14.7824 85.9953 13.4462 86.2737 11.2193L86.4036 10.4214ZM108.895 10.0502C103.903 10.0502 99.1897 13.7246 97.7422 19.496C96.2947 25.2673 98.4845 32.0965 105.833 32.0965C113.163 32.0965 117.395 24.989 117.395 19.0691C117.395 13.1864 113.405 10.0502 108.895 10.0502ZM110.918 20.7764C110.658 23.393 109.508 27.3643 106.353 27.3643C103.18 27.3643 103.625 22.725 103.94 20.5166C104.274 18.1598 105.592 14.8009 108.431 14.8009C110.974 14.8009 111.215 17.8258 110.918 20.7764ZM142.057 16.6752C142.057 16.6752 139.552 24.5436 139.348 25.1931C139.274 24.525 137.437 10.4028 137.437 10.4028C133.168 10.4028 130.886 13.4462 129.68 16.6567C129.68 16.6567 126.636 24.5436 126.376 25.2117C126.358 24.5993 125.912 16.7495 125.912 16.7495C125.653 12.8153 122.052 10.4214 119.139 10.4214L122.646 31.8181C127.119 31.7996 129.531 28.7747 130.793 25.5643C130.793 25.5643 133.484 18.6052 133.577 18.2897C133.595 18.5867 135.507 31.8181 135.507 31.8181C139.998 31.8181 142.41 28.9788 143.709 25.8797L150 10.4214C145.583 10.4214 143.245 13.4462 142.057 16.6752ZM90.4862 0.882832L86.8489 30.2222L86.1066 33.8409C86.1994 33.8409 86.3108 33.8594 86.4036 33.8594C90.3192 33.8038 93.1028 30.3706 93.6224 26.0468L95.7194 9.21513C96.3504 4.07472 93.2884 0.882832 90.4862 0.882832Z" fill="#918EA4" fill-opacity="0.7"/>
</g>
</g>
<defs>
<clipPath id="clip0_8_8099">
<rect width="150" height="37.793" fill="white" transform="translate(0 0.75293)"/>
</clipPath>
</defs>
</svg>
