<svg width="100" height="81" viewBox="0 0 100 81" fill="none" xmlns="http://www.w3.org/2000/svg">
<g id="wix logo">
<path id="Vector" d="M61.4656 20.9765C61.4656 23.0125 61.7906 26.0843 56.9844 27.825C55.4969 28.364 54.4922 29.3343 54.4922 29.3343C54.4922 24.4906 55.2297 22.7375 57.2109 21.7C58.7344 20.9015 61.4656 20.9765 61.4656 20.9765ZM43.3719 26.5297L38.0219 47.2578L33.5719 30.2937C32.3703 25.2953 30.3203 22.7109 26.0047 22.7109C21.7281 22.7109 19.6516 25.239 18.4375 30.2937L13.9875 47.2578L8.6375 26.5297C7.77031 22.3547 3.72813 20.55 0 21.0187L10.2453 59.7578C10.2453 59.7578 13.625 60.0015 15.3172 59.139C17.5391 58.0062 18.5953 57.1328 19.9406 51.8625C21.1391 47.164 24.4891 33.3609 24.8031 32.3781C25.5469 30.0437 26.5359 30.2203 27.2094 32.3781C27.5172 33.3625 30.8734 47.164 32.0719 51.8625C33.4156 57.1328 34.4734 58.0062 36.6953 59.139C38.3859 60.0015 41.7672 59.7578 41.7672 59.7578L52.0125 21.0187C48.1969 20.539 44.2281 22.414 43.3719 26.5297ZM61.4625 27.3437C61.4625 27.3437 60.8219 28.3343 59.3594 29.1515C58.4203 29.6765 57.5187 30.0328 56.5516 30.4968C54.1859 31.6312 54.4922 32.6765 54.4922 35.9969V59.7578C54.4922 59.7578 57.0781 60.0844 58.7687 59.2219C60.9453 58.1125 61.4453 57.0422 61.4656 52.225V28.7453L61.4625 28.7468V27.3437ZM87 40.4812L100 21.1468C100 21.1468 94.5141 20.2125 91.7969 22.6859C89.7188 24.5765 87.9828 27.3031 83.3313 34.0093C83.2578 34.1234 82.3547 35.6562 81.2891 34.0093C76.7125 27.4109 74.9141 24.589 72.8234 22.6859C70.1063 20.2125 64.6203 21.1468 64.6203 21.1468L77.6203 40.4812L64.6562 59.7562C64.6562 59.7562 70.3703 60.4781 73.0859 58.0047C74.8812 56.3703 75.8328 54.8219 81.2906 46.9547C82.3547 45.3109 83.2547 46.8344 83.3328 46.9547C87.9266 53.5765 89.4625 56.0265 91.6359 58.0047C94.3531 60.4781 99.9672 59.7562 99.9672 59.7562L87 40.4812Z" fill="#918EA4" fill-opacity="0.7"/>
</g>
</svg>
