<?xml version="1.0" encoding="UTF-8"?>
<!DOCTYPE svg PUBLIC "-//W3C//DTD SVG 1.1//EN" "http://www.w3.org/Graphics/SVG/1.1/DTD/svg11.dtd">
<svg xmlns="http://www.w3.org/2000/svg" version="1.1" width="100px" height="43px" style="shape-rendering:geometricPrecision; text-rendering:geometricPrecision; image-rendering:optimizeQuality; fill-rule:evenodd; clip-rule:evenodd" xmlns:xlink="http://www.w3.org/1999/xlink">
<g><path style="opacity:0.612" fill="#918EA4B2" d="M 56.5,2.5 C 57.9187,1.54885 59.5853,1.21552 61.5,1.5C 61.7678,3.09903 61.4345,4.43236 60.5,5.5C 60.5,4.5 60.5,3.5 60.5,2.5C 59.1667,2.5 57.8333,2.5 56.5,2.5 Z"/></g>
<g><path style="opacity:0.698" fill="#918EA4B2" d="M -0.5,1.5 C 2.27237,1.21997 4.77237,1.88664 7,3.5C 9.45782,9.99825 11.2912,16.6649 12.5,23.5C 12.281,24.675 12.6143,25.675 13.5,26.5C 14.2975,26.0431 14.6309,25.3764 14.5,24.5C 15.3465,19.1121 16.5132,13.7788 18,8.5C 21.8463,1.53393 26.5129,0.867265 32,6.5C 33.9694,12.0446 35.4694,17.7112 36.5,23.5C 36.281,24.675 36.6143,25.675 37.5,26.5C 38.2975,26.0431 38.6309,25.3764 38.5,24.5C 39.5504,17.2986 41.3837,10.2986 44,3.5C 46.2276,1.88664 48.7276,1.21997 51.5,1.5C 48.6519,14.2258 45.4852,26.8925 42,39.5C 37.32,41.6051 33.9867,40.2718 32,35.5C 29.9864,27.7774 27.8197,20.1108 25.5,12.5C 23.1552,20.8792 20.6552,29.2125 18,37.5C 15.7897,40.2896 12.9563,41.123 9.5,40C 6.22551,28.3881 2.89218,16.8881 -0.5,5.5C -0.5,4.16667 -0.5,2.83333 -0.5,1.5 Z"/></g>
<g><path style="opacity:0.698" fill="#918EA4B2" d="M 56.5,2.5 C 57.8333,2.5 59.1667,2.5 60.5,2.5C 60.5,3.5 60.5,4.5 60.5,5.5C 59.7377,7.26242 58.4044,8.26242 56.5,8.5C 54.9519,8.17876 54.2852,7.17876 54.5,5.5C 54.2852,3.82124 54.9519,2.82124 56.5,2.5 Z"/></g>
<g><path style="opacity:0.698" fill="#918EA4B2" d="M 99.5,1.5 C 99.5,2.16667 99.5,2.83333 99.5,3.5C 95.1464,9.02362 91.1464,14.857 87.5,21C 91.1464,27.143 95.1464,32.9764 99.5,38.5C 99.5,39.1667 99.5,39.8333 99.5,40.5C 96.3508,40.7886 93.3508,40.2886 90.5,39C 87.3007,35.4338 84.4674,31.6004 82,27.5C 78.6189,31.7593 75.1189,35.9259 71.5,40C 68.8333,40.6667 66.1667,40.6667 63.5,40C 67.8333,33.6667 72.1667,27.3333 76.5,21C 72.1667,14.6667 67.8333,8.33333 63.5,2C 66.1667,1.33333 68.8333,1.33333 71.5,2C 75.1189,6.07408 78.6189,10.2407 82,14.5C 84.9553,10.7557 87.7886,6.92236 90.5,3C 93.3508,1.71138 96.3508,1.21138 99.5,1.5 Z"/></g>
<g><path style="opacity:0.349" fill="#918EA4B2" d="M 54.5,5.5 C 54.2852,7.17876 54.9519,8.17876 56.5,8.5C 55.828,9.26739 54.9947,9.93406 54,10.5C 53.2204,8.61305 53.3871,6.94639 54.5,5.5 Z"/></g>
<g><path style="opacity:0.349" fill="#918EA4B2" d="M 60.5,37.5 C 60.8269,27.985 60.4936,18.6517 59.5,9.5C 59.7828,8.71087 60.2828,8.0442 61,7.5C 61.8249,17.6753 61.6583,27.6753 60.5,37.5 Z"/></g>
<g><path style="opacity:0.698" fill="#918EA4B2" d="M 59.5,9.5 C 60.4936,18.6517 60.8269,27.985 60.5,37.5C 60.6716,38.4916 60.3382,39.1583 59.5,39.5C 57.8333,39.5 56.1667,39.5 54.5,39.5C 54.5,30.5 54.5,21.5 54.5,12.5C 55.6594,10.7497 57.326,9.74973 59.5,9.5 Z"/></g>
<g><path style="opacity:0.349" fill="#918EA4B2" d="M 54.5,12.5 C 54.5,21.5 54.5,30.5 54.5,39.5C 56.1667,39.5 57.8333,39.5 59.5,39.5C 57.7354,40.4614 55.7354,40.7947 53.5,40.5C 53.1731,30.985 53.5064,21.6517 54.5,12.5 Z"/></g>
<g><path style="opacity:0.392" fill="#918EA4B2" d="M 12.5,23.5 C 13.1667,23.8333 13.8333,24.1667 14.5,24.5C 14.6309,25.3764 14.2975,26.0431 13.5,26.5C 12.6143,25.675 12.281,24.675 12.5,23.5 Z"/></g>
<g><path style="opacity:0.349" fill="#918EA4B2" d="M 36.5,23.5 C 37.1667,23.8333 37.8333,24.1667 38.5,24.5C 38.6309,25.3764 38.2975,26.0431 37.5,26.5C 36.6143,25.675 36.281,24.675 36.5,23.5 Z"/></g>
</svg>
