<svg width="47" height="46" viewBox="0 0 47 46" fill="none" xmlns="http://www.w3.org/2000/svg">
<g id="apple">
<path id="bg" d="M43.6421 22.9841C43.6421 34.0413 34.6782 43.0152 23.6111 43.0152C12.544 43.0152 3.58008 34.0413 3.58008 22.9841C3.58008 11.917 12.544 2.95312 23.6111 2.95312C34.6782 2.95312 43.6421 11.917 43.6421 22.9841Z" fill="#283544"/>
<path id="apple_2" d="M32.9982 17.9148C32.8889 17.9786 30.2869 19.3243 30.2869 22.308C30.4095 25.7107 33.5706 26.9041 33.6248 26.9041C33.5706 26.9678 33.1475 28.5297 31.8945 30.1669C30.9001 31.5772 29.7963 32.999 28.1202 32.999C26.5259 32.999 25.9536 32.0591 24.114 32.0591C22.1385 32.0591 21.5795 32.999 20.0669 32.999C18.3908 32.999 17.2053 31.501 16.1567 30.1039C14.7943 28.2754 13.6364 25.406 13.5955 22.6508C13.5679 21.1909 13.8683 19.7557 14.6308 18.5367C15.707 16.8349 17.6284 15.6797 19.7265 15.6416C21.3342 15.5911 22.765 16.6701 23.7461 16.6701C24.6863 16.6701 26.4442 15.6416 28.433 15.6416C29.2915 15.6424 31.5808 15.8834 32.9982 17.9148ZM23.6101 15.3501C23.324 14.0168 24.114 12.6836 24.8498 11.8331C25.7901 10.8046 27.2751 10.1064 28.5557 10.1064C28.6374 11.4397 28.1193 12.7473 27.1933 13.6997C26.3624 14.7282 24.9316 15.5025 23.6101 15.3501Z" fill="white"/>
</g>
</svg>
