<svg width="47" height="46" viewBox="0 0 47 46" fill="none" xmlns="http://www.w3.org/2000/svg">
<g id="google">
<path id="vector" d="M43.4054 23.4302C43.4054 21.7832 43.269 20.5813 42.9739 19.335H23.7832V26.7686H35.0477C34.8207 28.616 33.5943 31.3981 30.8689 33.2675L30.8307 33.5164L36.8985 38.123L37.3189 38.1641C41.1797 34.6698 43.4054 29.5285 43.4054 23.4302Z" fill="#4285F4"/>
<path id="vector_2" d="M23.781 43.0148C29.2997 43.0148 33.9326 41.2342 37.3167 38.1628L30.8668 33.2662C29.1408 34.4458 26.8242 35.2693 23.781 35.2693C18.3759 35.2693 13.7883 31.7751 12.153 26.9453L11.9133 26.9653L5.60399 31.7505L5.52148 31.9753C8.88265 38.5188 15.7868 43.0148 23.781 43.0148Z" fill="#34A853"/>
<path id="vector_3" d="M12.1555 26.9464C11.724 25.7001 11.4743 24.3646 11.4743 22.9847C11.4743 21.6047 11.724 20.2694 12.1328 19.023L12.1214 18.7576L5.73296 13.8955L5.52394 13.9929C4.13864 16.7083 3.34375 19.7575 3.34375 22.9847C3.34375 26.2119 4.13864 29.261 5.52394 31.9764L12.1555 26.9464Z" fill="#FBBC05"/>
<path id="vector_4" d="M23.7811 10.6984C27.6192 10.6984 30.2082 12.3231 31.6845 13.6809L37.4531 8.16119C33.9103 4.93398 29.2998 2.95312 23.7811 2.95312C15.7868 2.95312 8.88267 7.44894 5.52148 13.9924L12.1303 19.0224C13.7884 14.1927 18.376 10.6984 23.7811 10.6984Z" fill="#EB4335"/>
</g>
</svg>
